<?xml version="1.0" encoding="utf-8"?>
<!-- Generator: Adobe Illustrator 27.5.0, SVG Export Plug-In . SVG Version: 6.00 Build 0)  -->
<svg version="1.1" id="Layer_2" xmlns="http://www.w3.org/2000/svg" xmlns:xlink="http://www.w3.org/1999/xlink" x="0px" y="0px"
	 viewBox="0 0 1186.4 712.3" style="enable-background:new 0 0 1186.4 712.3;" xml:space="preserve">
<style type="text/css">
	.st0{fill:#FFFFFF;}
	.st1{fill:none;stroke:#45B3FF;stroke-width:5.6693;stroke-miterlimit:10;}
	.st2{fill:none;stroke:#A20900;stroke-width:5.6693;stroke-miterlimit:10;}
	.st3{fill:none;stroke:url(#SVGID_1_);stroke-width:5.6693;stroke-miterlimit:10;}
	.st4{fill:none;stroke:#31711E;stroke-width:5.6693;stroke-miterlimit:10;}
	.st5{fill:none;stroke:#000000;stroke-width:0.9416;stroke-miterlimit:10;}
	.st6{fill:#383636;}
	.st7{fill:none;stroke:#990B00;stroke-width:5.5387;stroke-miterlimit:10;}
	.st8{fill:#E8DD9F;stroke:#000000;stroke-miterlimit:10;}
	.st9{font-family:'MyriadHebrew-Regular';}
	.st10{font-size:15px;}
	.st11{fill:#1D1D1D;}
	.st12{fill:none;stroke:#000000;stroke-width:1.4173;stroke-miterlimit:10;}
	.st13{fill:#C2B9B3;stroke:#000000;stroke-width:1.006;stroke-miterlimit:10;}
	.st14{fill:#FFFFFF;stroke:#000000;stroke-width:2.8346;stroke-miterlimit:10;}
	.st15{stroke:#000000;stroke-width:2.8346;stroke-miterlimit:10;}
	.st16{fill:#A20900;}
	.st17{fill:#45B3FF;}
	.st18{fill:none;stroke:#000000;stroke-width:2.8346;stroke-miterlimit:10;}
	.st19{fill:#5BB2FF;}
	.st20{fill:none;stroke:#000000;stroke-miterlimit:10;}
	.st21{fill:#990B00;}
	.st22{fill:#B2B2B2;stroke:#000000;stroke-width:0.8545;stroke-miterlimit:10;}
	.st23{fill:none;stroke:#000000;stroke-width:0.9324;stroke-miterlimit:10;}
	.st24{fill:#FFFFFF;stroke:#000000;stroke-miterlimit:10;}
	.st25{fill:#5BB2FF;stroke:#000000;stroke-miterlimit:10;}
	.st26{fill:#990B00;stroke:#000000;stroke-miterlimit:10;}
	.st27{fill:#E2D887;stroke:#000000;stroke-miterlimit:10;}
	.st28{fill:#FFFFFF;stroke:#000000;stroke-width:0.5713;stroke-miterlimit:10;}
	.st29{fill:none;stroke:#000000;stroke-width:1.027;stroke-miterlimit:10;}
	
		.st30{fill:none;stroke:url(#SVGID_00000035490607595542797770000007065814151447276170_);stroke-width:5.6693;stroke-miterlimit:10;}
	.st31{fill:none;stroke:#66CC33;stroke-miterlimit:10;}
	.st32{fill:#81C65C;}
	.st33{fill:none;stroke:#33CCFF;stroke-width:0.9416;stroke-miterlimit:10;}
	.st34{fill:#70BCFF;}
	.st35{fill:#00983A;}
	.st36{fill:#FFED00;}
	.st37{fill:none;stroke:#45B3FF;stroke-miterlimit:10;}
	.st38{fill:none;stroke:#A20900;stroke-miterlimit:10;}
	.st39{fill:#4D4D4D;}
	
		.st40{fill:none;stroke:url(#SVGID_00000072279571626982630020000000663563959169159321_);stroke-width:5.6693;stroke-miterlimit:10;}
	.st41{fill:none;stroke:#000000;stroke-width:0.25;stroke-miterlimit:10;}
</style>
<rect class="st0" width="1186.4" height="712.3"/>
<g>
	<g>
		<path class="st1" d="M218.2,332.4H144c-6.6,0-12,5.4-12,12v9c0,6.6,5.4,12,12,12h74.1"/>
		<path class="st1" d="M144,398.4h74.1c6.6,0,12-5.4,12-12v-9c0-6.6-5.4-12-12-12H144"/>
	</g>
	<g>
		<path class="st1" d="M218.2,398.4H144c-6.6,0-12,5.4-12,12v9c0,6.6,5.4,12,12,12h74.1"/>
		<path class="st1" d="M144,464.4h74.1c6.6,0,12-5.4,12-12v-9c0-6.6-5.4-12-12-12H144"/>
	</g>
	<g>
		<path class="st1" d="M218.2,464.4H144c-6.6,0-12,5.4-12,12v9c0,6.6,5.4,12,12,12h74.1"/>
		<path class="st1" d="M144,530.5h74.1c6.6,0,12-5.4,12-12v-9c0-6.6-5.4-12-12-12H144"/>
	</g>
	<g>
		<path class="st1" d="M218.2,530.5H144c-6.6,0-12,5.4-12,12v9c0,6.6,5.4,12,12,12h74.1h248"/>
	</g>
</g>
<g>
	<g>
		<g>
			<path class="st2" d="M972,365.4h74.1c6.6,0,12-5.4,12-12v-9c0-6.6-5.4-12-12-12H972l-246.9,0.2v-83.2l-82.4-0.2v-69.4"/>
			<path class="st2" d="M1046.2,398.4H972c-6.6,0-12-5.4-12-12v-9c0-6.6,5.4-12,12-12h74.1"/>
		</g>
		<g>
			<path class="st2" d="M972,398.4h74.1c6.6,0,12,5.4,12,12v9c0,6.6-5.4,12-12,12H972"/>
			<linearGradient id="SVGID_1_" gradientUnits="userSpaceOnUse" x1="957.201" y1="447.9214" x2="1046.1758" y2="447.9214">
				<stop  offset="0" style="stop-color:#31711E"/>
				<stop  offset="8.553553e-02" style="stop-color:#45631A"/>
				<stop  offset="0.2457" style="stop-color:#644D15"/>
				<stop  offset="0.413" style="stop-color:#7D3D11"/>
				<stop  offset="0.5881" style="stop-color:#8E300D"/>
				<stop  offset="0.7761" style="stop-color:#99290C"/>
				<stop  offset="1" style="stop-color:#9C270B"/>
			</linearGradient>
			<path class="st3" d="M1046.2,464.4H972c-6.6,0-12-5.4-12-12v-9c0-6.6,5.4-12,12-12h74.1"/>
		</g>
		<g>
			<path class="st4" d="M972,464.4h74.1c6.6,0,12,5.4,12,12v9c0,6.6-5.4,12-12,12H972"/>
			<path class="st4" d="M1046.2,530.5H972c-6.6,0-12-5.4-12-12v-9c0-6.6,5.4-12,12-12h74.1"/>
		</g>
		<g>
			<path class="st4" d="M972,530.5h74.1c6.6,0,12,5.4,12,12v9c0,6.6-5.4,12-12,12H972H466.2"/>
		</g>
	</g>
</g>
<g>
	<g>
		<line class="st5" x1="134.6" y1="322.1" x2="134.6" y2="569.8"/>
		<line class="st5" x1="138.1" y1="322.1" x2="138.1" y2="569.8"/>
		<line class="st5" x1="141.6" y1="322.1" x2="141.6" y2="569.8"/>
		<line class="st5" x1="145.2" y1="322.1" x2="145.2" y2="569.8"/>
		<line class="st5" x1="148.7" y1="322.1" x2="148.7" y2="569.8"/>
		<line class="st5" x1="152.2" y1="322.1" x2="152.2" y2="569.8"/>
		<line class="st5" x1="155.7" y1="322.1" x2="155.7" y2="569.8"/>
		<line class="st5" x1="159.3" y1="322.1" x2="159.3" y2="569.8"/>
		<line class="st5" x1="162.8" y1="322.1" x2="162.8" y2="569.8"/>
		<line class="st5" x1="166.3" y1="322.1" x2="166.3" y2="569.8"/>
		<line class="st5" x1="169.8" y1="322.1" x2="169.8" y2="569.8"/>
		<line class="st5" x1="173.3" y1="322.1" x2="173.3" y2="569.8"/>
		<line class="st5" x1="176.9" y1="322.1" x2="176.9" y2="569.8"/>
		<line class="st5" x1="180.4" y1="322.1" x2="180.4" y2="569.8"/>
		<line class="st5" x1="183.9" y1="322.1" x2="183.9" y2="569.8"/>
		<line class="st5" x1="187.4" y1="322.1" x2="187.4" y2="569.8"/>
		<line class="st5" x1="191" y1="322.1" x2="191" y2="569.8"/>
		<line class="st5" x1="194.5" y1="322.1" x2="194.5" y2="569.8"/>
		<line class="st5" x1="198" y1="322.1" x2="198" y2="569.8"/>
		<line class="st5" x1="201.5" y1="322.1" x2="201.5" y2="569.8"/>
		<line class="st5" x1="205" y1="322.1" x2="205" y2="569.8"/>
		<line class="st5" x1="208.6" y1="322.1" x2="208.6" y2="569.8"/>
		<line class="st5" x1="212.1" y1="322.1" x2="212.1" y2="569.8"/>
		<line class="st5" x1="215.6" y1="322.1" x2="215.6" y2="569.8"/>
	</g>
	<rect x="132" y="322.1" class="st5" width="86.1" height="247.7"/>
</g>
<rect x="583.1" y="323.1" class="st6" width="53.4" height="19.3"/>
<rect x="584.6" y="336.2" transform="matrix(-1.836970e-16 1 -1 -1.836970e-16 963.031 -259.3589)" class="st6" width="53.2" height="31.3"/>
<polyline class="st1" points="218.1,332.3 484.8,332.3 484.8,249.1 547.5,249.1 547.5,179.7 "/>
<polyline class="st1" points="484.8,332.3 602.1,332.3 602.1,379.5 "/>
<polyline class="st7" points="731.7,332.6 619.8,332.6 619.8,379.7 "/>
<circle class="st8" cx="316.4" cy="272.5" r="14.4"/>
<text transform="matrix(1 0 0 1 308.7198 277.8464)" class="st9 st10">T6</text>
<g>
	<g>
		<g>
			<g>
				<g>
					<polygon class="st11" points="310.4,298.2 316,300.4 321.5,297.9 316.4,311.2 					"/>
				</g>
			</g>
		</g>
	</g>
	<line class="st12" x1="315.9" y1="300.6" x2="315.9" y2="286.8"/>
</g>
<path class="st13" d="M630.2,389.1v-10.7h-38.2v11c-5.5,5.1-8.9,12.4-8.9,20.5c0,15.5,12.6,28.1,28.1,28.1
	c15.5,0,28.1-12.6,28.1-28.1C639.3,401.7,635.8,394.3,630.2,389.1z"/>
<circle cx="611.2" cy="408.2" r="13.9"/>
<g>
	<path class="st14" d="M920.5,443.4h-3.8c-6.6,0-12-66.9-12-66.9c0-6.6,5.4-12,12-12h3.8c6.6,0,12,5.4,12,12
		C932.5,376.5,927.1,443.4,920.5,443.4z"/>
	<path class="st14" d="M920.5,451.8h-3.8c-6.6,0-12,66.9-12,66.9c0,6.6,5.4,12,12,12h3.8c6.6,0,12-5.4,12-12
		C932.5,518.7,927.1,451.8,920.5,451.8z"/>
	<rect x="911.4" y="443.4" class="st15" width="22.6" height="8.4"/>
	<rect x="934" y="422" class="st14" width="20.2" height="49.8"/>
</g>
<g>
	<circle class="st8" cx="883.4" cy="447.6" r="14.4"/>
	<text transform="matrix(1 0 0 1 875.8516 453.6035)" class="st9 st10">T4</text>
	<g>
		<g>
			<g>
				<g>
					<g>
						<polygon class="st11" points="857.6,441.9 855.5,447.5 858,453 844.7,447.9 						"/>
					</g>
				</g>
			</g>
		</g>
		<line class="st12" x1="855.3" y1="447.4" x2="869" y2="447.4"/>
	</g>
</g>
<g>
	<circle class="st8" cx="1122.8" cy="447.6" r="14.4"/>
	<text transform="matrix(1 0 0 1 1115.1907 453.6035)" class="st9 st10">T3</text>
	<g>
		<g>
			<g>
				<g>
					<g>
						<polygon class="st11" points="1097,441.9 1094.8,447.5 1097.4,453 1084,447.9 						"/>
					</g>
				</g>
			</g>
		</g>
		<line class="st12" x1="1094.7" y1="447.4" x2="1108.4" y2="447.4"/>
	</g>
</g>
<g>
	<circle class="st8" cx="318.7" cy="447.6" r="14.4"/>
	<text transform="matrix(1 0 0 1 311.0849 452.4488)" class="st9 st10">T2</text>
	<g>
		<g>
			<g>
				<g>
					<g>
						<polygon class="st11" points="344.1,453 346.6,447.5 344.4,441.9 357.4,447.9 						"/>
					</g>
				</g>
			</g>
		</g>
		<line class="st12" x1="346.8" y1="447.4" x2="333" y2="447.4"/>
	</g>
</g>
<g>
	<circle class="st8" cx="66.2" cy="447.9" r="14.4"/>
	<text transform="matrix(1 0 0 1 58.6263 452.7621)" class="st9 st10">T1</text>
	<g>
		<g>
			<g>
				<g>
					<g>
						<polygon class="st11" points="91.6,453.3 94.1,447.8 92,442.2 104.9,448.2 						"/>
					</g>
				</g>
			</g>
		</g>
		<line class="st12" x1="94.3" y1="447.7" x2="80.6" y2="447.7"/>
	</g>
</g>
<g>
	<path class="st14" d="M277.2,443.4h3.8c6.6,0,12-66.9,12-66.9c0-6.6-5.4-12-12-12h-3.8c-6.6,0-12,5.4-12,12
		C265.2,376.5,270.6,443.4,277.2,443.4z"/>
	<path class="st14" d="M277.2,451.8h3.8c6.6,0,12,66.9,12,66.9c0,6.6-5.4,12-12,12h-3.8c-6.6,0-12-5.4-12-12
		C265.2,518.7,270.6,451.8,277.2,451.8z"/>
	<rect x="263.6" y="443.4" transform="matrix(-1 -4.510449e-11 4.510449e-11 -1 549.9211 895.2163)" width="22.6" height="8.4"/>
	
		<rect x="243.5" y="422" transform="matrix(-1 -4.516311e-11 4.516311e-11 -1 507.1186 893.8348)" class="st14" width="20.2" height="49.8"/>
</g>
<g>
	<circle class="st8" cx="869" cy="604.5" r="14.4"/>
	<text transform="matrix(1 0 0 1 861.372 610.2667)" class="st9 st10">T5</text>
	<g>
		<g>
			<g>
				<g>
					<g>
						<polygon class="st11" points="874.1,579.1 868.7,576.5 863,578.7 869,565.8 						"/>
					</g>
				</g>
			</g>
		</g>
		<line class="st12" x1="868.6" y1="576.4" x2="868.5" y2="590.1"/>
	</g>
</g>
<g>
	<circle class="st8" cx="505.2" cy="518.7" r="14.4"/>
	<text transform="matrix(1 0 0 1 497.6598 524.5026)" class="st9 st10">T9</text>
	<g>
		<g>
			<g>
				<g>
					<g>
						<polygon class="st11" points="499.2,544.4 504.8,546.6 510.3,544.1 505.2,557.4 						"/>
					</g>
				</g>
			</g>
		</g>
		<line class="st12" x1="504.7" y1="546.8" x2="504.7" y2="533"/>
	</g>
</g>
<polygon points="543.1,504.6 538.7,522.2 546,518.4 544.7,528.3 547.5,528.3 550.5,512.8 542.9,517.1 546.6,504.6 "/>
<g>
	<g>
		<g>
			<g>
				<polygon class="st11" points="540.3,525.2 546,527.4 551.4,524.9 546.3,538.2 				"/>
			</g>
		</g>
	</g>
</g>
<g>
	<g>
		<line class="st5" x1="974.6" y1="322.1" x2="974.6" y2="569.8"/>
		<line class="st5" x1="978.1" y1="322.1" x2="978.1" y2="569.8"/>
		<line class="st5" x1="981.6" y1="322.1" x2="981.6" y2="569.8"/>
		<line class="st5" x1="985.2" y1="322.1" x2="985.2" y2="569.8"/>
		<line class="st5" x1="988.7" y1="322.1" x2="988.7" y2="569.8"/>
		<line class="st5" x1="992.2" y1="322.1" x2="992.2" y2="569.8"/>
		<line class="st5" x1="995.7" y1="322.1" x2="995.7" y2="569.8"/>
		<line class="st5" x1="999.3" y1="322.1" x2="999.3" y2="569.8"/>
		<line class="st5" x1="1002.8" y1="322.1" x2="1002.8" y2="569.8"/>
		<line class="st5" x1="1006.3" y1="322.1" x2="1006.3" y2="569.8"/>
		<line class="st5" x1="1009.8" y1="322.1" x2="1009.8" y2="569.8"/>
		<line class="st5" x1="1013.3" y1="322.1" x2="1013.3" y2="569.8"/>
		<line class="st5" x1="1016.9" y1="322.1" x2="1016.9" y2="569.8"/>
		<line class="st5" x1="1020.4" y1="322.1" x2="1020.4" y2="569.8"/>
		<line class="st5" x1="1023.9" y1="322.1" x2="1023.9" y2="569.8"/>
		<line class="st5" x1="1027.4" y1="322.1" x2="1027.4" y2="569.8"/>
		<line class="st5" x1="1031" y1="322.1" x2="1031" y2="569.8"/>
		<line class="st5" x1="1034.5" y1="322.1" x2="1034.5" y2="569.8"/>
		<line class="st5" x1="1038" y1="322.1" x2="1038" y2="569.8"/>
		<line class="st5" x1="1041.5" y1="322.1" x2="1041.5" y2="569.8"/>
		<line class="st5" x1="1045" y1="322.1" x2="1045" y2="569.8"/>
		<line class="st5" x1="1048.6" y1="322.1" x2="1048.6" y2="569.8"/>
		<line class="st5" x1="1052.1" y1="322.1" x2="1052.1" y2="569.8"/>
		<line class="st5" x1="1055.6" y1="322.1" x2="1055.6" y2="569.8"/>
	</g>
	<rect x="972" y="322.1" class="st5" width="86.1" height="247.7"/>
</g>
<g>
	<path class="st16" d="M984.9,288.4v-8l0.8-1.9h5v1.9v8H984.9z M995.4,288.4v-11.6c0-0.4-0.1-0.8-0.4-1c-0.2-0.2-0.6-0.3-1.1-0.3
		h-8.8v-3.9h10.5c1.1,0,2,0.2,2.9,0.6s1.5,1,2,1.8c0.5,0.8,0.7,1.9,0.7,3.2v11.3H995.4z"/>
	<path class="st16" d="M1011.3,288.4v-11.6c0-0.4-0.1-0.8-0.4-1c-0.2-0.2-0.6-0.3-1.1-0.3h-6.6v-3.9h8.2c1.1,0,2,0.2,2.9,0.6
		s1.5,1,2,1.8c0.5,0.8,0.7,1.9,0.7,3.2v11.3H1011.3z M1003.3,288.4v-3.9h15.9v3.9H1003.3z"/>
	<path class="st16" d="M1020.7,289.7l-0.8-4.1l8.4-1.4c0.9-0.2,1.7-0.4,2.2-0.9c0.5-0.4,0.9-1,1.2-1.6c0.3-0.7,0.4-1.5,0.5-2.5
		s0.1-2.1,0.1-3.3c0-1.3,0-2.7,0-4.2h5.7c0,1.8,0,3.4-0.1,4.9s-0.2,2.9-0.5,4.2c-0.3,1.3-0.8,2.4-1.4,3.4c-0.7,1-1.6,1.9-2.8,2.6
		c-1.2,0.7-2.8,1.2-4.8,1.6L1020.7,289.7z M1024.7,285.4l-3.5-13.7h5.8l3.3,13.7H1024.7z"/>
	<path class="st16" d="M1040.4,288.4l2.1-11.1l-2.6-5.7h6l2,6l-1.8,10.8H1040.4z M1048,288.5l0.5-3.9c1.5,0.3,2.6,0.3,3.3,0
		c0.7-0.3,1.2-0.8,1.5-1.6c0.3-0.8,0.4-1.7,0.4-2.8c0-1.1-0.1-2-0.3-2.7c-0.2-0.7-0.5-1.2-1-1.6c-0.4-0.3-1-0.5-1.7-0.5
		c-0.4,0-0.8,0.1-1.2,0.2c-0.4,0.2-0.7,0.4-1,0.7c-0.3,0.3-0.4,0.7-0.5,1.3l-1.2-2.1c0.4-1.5,1.1-2.6,2.1-3.2c0.9-0.7,2-1,3.2-1
		c1.2,0,2.3,0.2,3.2,0.6c0.9,0.4,1.7,1,2.2,1.7c0.6,0.8,1,1.7,1.3,2.8c0.3,1.1,0.4,2.4,0.4,3.8c0,2.1-0.4,3.8-1.3,5.2
		c-0.9,1.4-2.2,2.4-3.8,3C1052.4,289,1050.3,289,1048,288.5z"/>
</g>
<g>
	<path class="st17" d="M136.8,291.8v-9.5c0-0.8,0.1-1.5,0.3-2.1c0.2-0.6,0.4-1,0.7-1.3h-7.8V275h15.7v3.9h-2.5
		c-0.2,0.5-0.4,1-0.4,1.7c-0.1,0.6-0.1,1.2-0.1,1.7v9.5H136.8z"/>
	<path class="st17" d="M148.2,285.7V283v-4.6l-0.4-3.4h5.8l0.4,3.4v4.6l0,1.8L148.2,285.7z"/>
	<path class="st17" d="M157.1,285.7V283v-4.6l-0.4-3.4h5.8l0.4,3.4v4.6l0,1.8L157.1,285.7z"/>
	<path class="st17" d="M184.2,291.8h-6.1l-5.3-7.6l-2.5,7.6h-5.5l3.6-9.9l1-2.4l-3-4.5h5.8l2.4,3.6l1.9,2.7l0.9-2.8l0.9-3.5h5.5
		l-4,10.8L184.2,291.8z"/>
	<path class="st17" d="M186.2,291.8l2.1-11.1l-2.6-5.7h6l2,6l-1.8,10.8H186.2z M193.8,291.9l0.5-3.9c1.5,0.3,2.6,0.3,3.3,0
		c0.7-0.3,1.2-0.8,1.5-1.6c0.3-0.8,0.4-1.7,0.4-2.8c0-1.1-0.1-2-0.3-2.7c-0.2-0.7-0.5-1.2-1-1.6c-0.4-0.3-1-0.5-1.7-0.5
		c-0.4,0-0.8,0.1-1.2,0.2c-0.4,0.2-0.7,0.4-1,0.7c-0.3,0.3-0.4,0.7-0.5,1.3l-1.2-2.1c0.4-1.5,1.1-2.6,2.1-3.2c0.9-0.7,2-1,3.2-1
		c1.2,0,2.3,0.2,3.2,0.6c0.9,0.4,1.7,1,2.2,1.7c0.6,0.8,1,1.7,1.3,2.8c0.3,1.1,0.4,2.4,0.4,3.8c0,2.1-0.4,3.8-1.3,5.2
		c-0.9,1.4-2.2,2.4-3.8,3C198.2,292.4,196.2,292.4,193.8,291.9z"/>
</g>
<g>
	<path d="M1079.4,383.7l-0.5-3.5c0.8-0.1,1.4-0.2,1.8-0.4c0.4-0.2,0.6-0.4,0.7-0.8c0.1-0.3,0.2-0.8,0.2-1.5v-11.2h10.7
		c1.1,0,2,0.2,2.9,0.6s1.5,1,2,1.8c0.5,0.8,0.7,1.9,0.7,3.2v11.3h-5.8v-11.6c0-0.4-0.1-0.8-0.4-1c-0.2-0.2-0.6-0.3-1.1-0.3h-3.2v6.6
		c0,1.7-0.3,3-0.8,3.9s-1.4,1.6-2.6,2.1C1082.7,383.2,1081.3,383.5,1079.4,383.7z"/>
	<path d="M1102.5,383.4l-1.7-13.2l5.5-2.3l1.2,10.8c0.9-0.1,1.7-0.2,2.3-0.4c0.6-0.2,1-0.4,1.3-0.8c0.3-0.3,0.5-0.7,0.6-1.1
		c0.1-0.4,0.2-0.9,0.2-1.5c0-0.5,0-1.1,0-1.7v-1c0-0.5-0.1-0.9-0.2-1.2c-0.2-0.3-0.4-0.5-0.6-0.7c-0.3-0.2-0.6-0.2-0.9-0.2h-9.4
		l-0.5-3.9h10.4c2.2,0,4,0.5,5.2,1.6s1.8,2.6,1.9,4.5l0,1c0.1,1.8-0.2,3.3-0.9,4.6c-0.7,1.2-1.6,2.2-3,3c-1.3,0.8-2.9,1.4-4.8,1.7
		C1107.2,383.1,1105,383.4,1102.5,383.4z"/>
	<path d="M1120.9,377v-2.7v-4.6l-0.4-3.4h5.8l0.4,3.4v4.6l0,1.8L1120.9,377z"/>
	<path d="M1129.2,383.1v-3.9h4.2v-7.7c0-0.6-0.1-1-0.4-1.2c-0.2-0.2-0.6-0.3-1-0.3l-2.3-0.3l0.7-3.8l4.7,0.5c1.3,0.1,2.3,0.7,3,1.6
		c0.7,0.9,1,2,1,3.4v11.7H1129.2z"/>
	<path d="M1141.1,383.1v-3.9h5.6c0.7,0,1.3-0.2,1.7-0.5c0.4-0.3,0.7-0.7,0.8-1.2c0.2-0.5,0.2-1,0.2-1.6v-2.3c0-0.6-0.1-1.1-0.2-1.6
		c-0.2-0.5-0.4-0.9-0.8-1.2s-1-0.5-1.7-0.5h-5.6v-3.9h7.2c1.6,0,2.9,0.3,3.9,1s1.8,1.5,2.3,2.7c0.5,1.1,0.7,2.4,0.7,3.9v1.8
		c0,1.5-0.2,2.7-0.7,3.9c-0.5,1.1-1.3,2-2.3,2.7s-2.3,1-3.9,1H1141.1z"/>
	<path d="M1094.4,417.9v-11.6c0-0.4-0.1-0.8-0.4-1c-0.2-0.2-0.6-0.3-1.1-0.3h-6.5v-3.9h8.2c1.1,0,2,0.2,2.9,0.6c0.8,0.4,1.5,1,2,1.8
		c0.5,0.8,0.7,1.9,0.7,3.2v11.3H1094.4z"/>
	<path d="M1103.2,411.8v-2.7v-4.6l-0.4-3.4h5.8l0.4,3.4v4.6l0,1.8L1103.2,411.8z"/>
	<path d="M1112.1,417.9v-13.4l-0.4-3.4h5.8l0.4,3.4v13.4H1112.1z"/>
	<path d="M1121,417.9v-13.4l-0.4-3.4h5.8l0.4,3.4v13.4H1121z"/>
	<path d="M1148.1,417.9h-6.1l-5.3-7.6l-2.5,7.6h-5.5l3.6-9.9l1-2.4l-3-4.5h5.8l2.4,3.6l1.9,2.7l0.9-2.8l0.9-3.5h5.5l-4,10.8
		L1148.1,417.9z"/>
</g>
<g>
	<path d="M760.6,437.9l-0.5-3.5c0.8-0.1,1.4-0.2,1.8-0.4c0.4-0.2,0.6-0.4,0.7-0.8c0.1-0.3,0.2-0.8,0.2-1.5v-11.2h10.7
		c1.1,0,2,0.2,2.9,0.6s1.5,1,2,1.8c0.5,0.8,0.7,1.9,0.7,3.2v11.3h-5.8v-11.6c0-0.4-0.1-0.8-0.4-1c-0.2-0.2-0.6-0.3-1.1-0.3h-3.2v6.6
		c0,1.7-0.3,3-0.8,3.9s-1.4,1.6-2.6,2.1C764,437.5,762.5,437.7,760.6,437.9z"/>
	<path d="M800.3,437.4h-6.1l-5.3-7.6l-2.5,7.6h-5.5l3.6-9.9l1-2.4l-3-4.5h5.8l2.4,3.6l1.9,2.7l0.9-2.8l0.9-3.5h5.5l-4,10.8
		L800.3,437.4z"/>
	<path d="M802.8,431.3v-2.7V424l-0.4-3.4h5.8l0.4,3.4v4.6l0,1.8L802.8,431.3z"/>
	<path d="M810.8,437.4v-3.9h13.1l1.7,3.9H810.8z M821.1,437.4L811,420.6h5.8l10.1,16.8H821.1z M822.8,431l-3.3-4.4l2.6-6h5.7
		L822.8,431z"/>
	<path d="M830.2,431.3v-2.7V424l-0.4-3.4h5.8l0.4,3.4v4.6l0,1.8L830.2,431.3z"/>
	<path d="M775.6,472.2v-11.6c0-0.4-0.1-0.8-0.4-1c-0.2-0.2-0.6-0.3-1.1-0.3h-6.5v-3.9h8.2c1.1,0,2,0.2,2.9,0.6c0.8,0.4,1.5,1,2,1.8
		c0.5,0.8,0.7,1.9,0.7,3.2v11.3H775.6z"/>
	<path d="M784.5,466.1v-2.7v-4.6l-0.4-3.4h5.8l0.4,3.4v4.6l0,1.8L784.5,466.1z"/>
	<path d="M793.3,472.2v-13.4l-0.4-3.4h5.8l0.4,3.4v13.4H793.3z"/>
	<path d="M802.2,472.2v-13.4l-0.4-3.4h5.8l0.4,3.4v13.4H802.2z"/>
	<path d="M829.4,472.2h-6.1l-5.3-7.6l-2.5,7.6h-5.5l3.6-9.9l1-2.4l-3-4.5h5.8l2.4,3.6l1.9,2.7l0.9-2.8l0.9-3.5h5.5l-4,10.8
		L829.4,472.2z"/>
</g>
<g>
	<path d="M28.3,383.7l-0.5-3.5c0.8-0.1,1.4-0.2,1.8-0.4c0.4-0.2,0.6-0.4,0.7-0.8c0.1-0.3,0.2-0.8,0.2-1.5v-11.2h10.7
		c1.1,0,2,0.2,2.9,0.6s1.5,1,2,1.8c0.5,0.8,0.7,1.9,0.7,3.2v11.3h-5.8v-11.6c0-0.4-0.1-0.8-0.4-1c-0.2-0.2-0.6-0.3-1.1-0.3h-3.2v6.6
		c0,1.7-0.3,3-0.8,3.9s-1.4,1.6-2.6,2.1C31.6,383.2,30.1,383.5,28.3,383.7z"/>
	<path d="M51.4,383.4l-1.7-13.2l5.5-2.3l1.2,10.8c0.9-0.1,1.7-0.2,2.3-0.4c0.6-0.2,1-0.4,1.3-0.8c0.3-0.3,0.5-0.7,0.6-1.1
		c0.1-0.4,0.2-0.9,0.2-1.5c0-0.5,0-1.1,0-1.7v-1c0-0.5-0.1-0.9-0.2-1.2c-0.2-0.3-0.4-0.5-0.6-0.7c-0.3-0.2-0.6-0.2-0.9-0.2h-9.4
		l-0.5-3.9h10.4c2.2,0,4,0.5,5.2,1.6c1.2,1.1,1.8,2.6,1.9,4.5l0,1c0.1,1.8-0.2,3.3-0.9,4.6c-0.7,1.2-1.6,2.2-3,3
		c-1.3,0.8-2.9,1.4-4.8,1.7C56,383.1,53.9,383.4,51.4,383.4z"/>
	<path d="M69.7,377v-2.7v-4.6l-0.4-3.4h5.8l0.4,3.4v4.6l0,1.8L69.7,377z"/>
	<path d="M78,383.1v-3.9h4.2v-7.7c0-0.6-0.1-1-0.4-1.2c-0.2-0.2-0.6-0.3-1-0.3l-2.3-0.3l0.7-3.8l4.7,0.5c1.3,0.1,2.3,0.7,3,1.6
		c0.7,0.9,1,2,1,3.4v11.7H78z"/>
	<path d="M90,383.1v-3.9h5.6c0.7,0,1.3-0.2,1.7-0.5c0.4-0.3,0.7-0.7,0.8-1.2c0.2-0.5,0.2-1,0.2-1.6v-2.3c0-0.6-0.1-1.1-0.2-1.6
		c-0.2-0.5-0.4-0.9-0.8-1.2s-1-0.5-1.7-0.5H90v-3.9h7.2c1.6,0,2.9,0.3,3.9,1s1.8,1.5,2.3,2.7c0.5,1.1,0.7,2.4,0.7,3.9v1.8
		c0,1.5-0.2,2.7-0.7,3.9c-0.5,1.1-1.3,2-2.3,2.7s-2.3,1-3.9,1H90z"/>
	<path d="M43.2,417.9v-11.6c0-0.4-0.1-0.8-0.4-1c-0.2-0.2-0.6-0.3-1.1-0.3h-6.5v-3.9h8.2c1.1,0,2,0.2,2.9,0.6c0.8,0.4,1.5,1,2,1.8
		c0.5,0.8,0.7,1.9,0.7,3.2v11.3H43.2z"/>
	<path d="M52.1,411.8v-2.7v-4.6l-0.4-3.4h5.8l0.4,3.4v4.6l0,1.8L52.1,411.8z"/>
	<path d="M61,417.9v-13.4l-0.4-3.4h5.8l0.4,3.4v13.4H61z"/>
	<path d="M69.8,417.9v-13.4l-0.4-3.4h5.8l0.4,3.4v13.4H69.8z"/>
	<path d="M97,417.9h-6.1l-5.3-7.6l-2.5,7.6h-5.5l3.6-9.9l1-2.4l-3-4.5H85l2.4,3.6l1.9,2.7l0.9-2.8l0.9-3.5h5.5l-4,10.8L97,417.9z"/>
</g>
<g>
	<path d="M362.7,437.9l-0.5-3.5c0.8-0.1,1.4-0.2,1.8-0.4c0.4-0.2,0.6-0.4,0.7-0.8c0.1-0.3,0.2-0.8,0.2-1.5v-11.2h10.7
		c1.1,0,2,0.2,2.9,0.6s1.5,1,2,1.8c0.5,0.8,0.7,1.9,0.7,3.2v11.3h-5.8v-11.6c0-0.4-0.1-0.8-0.4-1c-0.2-0.2-0.6-0.3-1.1-0.3h-3.2v6.6
		c0,1.7-0.3,3-0.8,3.9s-1.4,1.6-2.6,2.1C366,437.5,364.5,437.7,362.7,437.9z"/>
	<path d="M402.4,437.4h-6.1l-5.3-7.6l-2.5,7.6H383l3.6-9.9l1-2.4l-3-4.5h5.8l2.4,3.6l1.9,2.7l0.9-2.8l0.9-3.5h5.5l-4,10.8
		L402.4,437.4z"/>
	<path d="M404.8,431.3v-2.7V424l-0.4-3.4h5.8l0.4,3.4v4.6l0,1.8L404.8,431.3z"/>
	<path d="M412.9,437.4v-3.9H426l1.7,3.9H412.9z M423.2,437.4L413,420.6h5.8l10.1,16.8H423.2z M424.9,431l-3.3-4.4l2.6-6h5.7
		L424.9,431z"/>
	<path d="M432.3,431.3v-2.7V424l-0.4-3.4h5.8l0.4,3.4v4.6l0,1.8L432.3,431.3z"/>
	<path d="M377.7,472.2v-11.6c0-0.4-0.1-0.8-0.4-1c-0.2-0.2-0.6-0.3-1.1-0.3h-6.5v-3.9h8.2c1.1,0,2,0.2,2.9,0.6c0.8,0.4,1.5,1,2,1.8
		c0.5,0.8,0.7,1.9,0.7,3.2v11.3H377.7z"/>
	<path d="M386.5,466.1v-2.7v-4.6l-0.4-3.4h5.8l0.4,3.4v4.6l0,1.8L386.5,466.1z"/>
	<path d="M395.4,472.2v-13.4l-0.4-3.4h5.8l0.4,3.4v13.4H395.4z"/>
	<path d="M404.3,472.2v-13.4l-0.4-3.4h5.8l0.4,3.4v13.4H404.3z"/>
	<path d="M431.4,472.2h-6.1l-5.3-7.6l-2.5,7.6H412l3.6-9.9l1-2.4l-3-4.5h5.8l2.4,3.6l1.9,2.7l0.9-2.8l0.9-3.5h5.5l-4,10.8
		L431.4,472.2z"/>
</g>
<ellipse class="st24" cx="317.7" cy="341.1" rx="14.4" ry="5.4"/>
<path class="st29" d="M317.7,346.5c-5.2,17.7,2.8,28.8,6.8,31.7c14.5,10.7,31.6-6.6,97.6-7.3c26.3-0.3,31,2.5,33,3.9
	c34.4,23.6,0.5,149.7-11.7,188.5"/>
<g>
	<polygon class="st24" points="442.6,563.3 419.8,550.1 419.8,576.4 	"/>
	<polygon class="st24" points="443.4,563.3 466.2,550.1 466.2,576.4 	"/>
</g>
<g>
	<polygon class="st24" points="674,332.8 651.2,319.7 651.2,346 	"/>
	<polygon class="st24" points="679.8,332.8 702.6,319.7 702.6,346 	"/>
	<circle cx="676.9" cy="332.8" r="7.3"/>
</g>
<g>
	<polygon class="st24" points="539.8,332.6 517,319.5 517,345.8 	"/>
	<polygon class="st24" points="545.6,332.6 568.4,319.5 568.4,345.8 	"/>
	<circle cx="543" cy="332.8" r="7.3"/>
</g>
<g>
	<g>
		<path d="M962.9,657.1h5.9v1.9h-5.9V657.1z"/>
		<path d="M973.4,661.9c0-1.8-0.2-2.5-2-2.9c-0.8-0.2-1.2-0.3-1.6-0.4l0.4-1.8c0.3,0.1,0.8,0.2,1.6,0.3c2.6,0.5,3.4,1.3,3.4,4.5v6.9
			h-1.8V661.9z"/>
		<path d="M977.6,657.2l2.2-0.2c0.6,2.5,1.2,5.9,1.8,9.7c0.4,0,1-0.1,1.9-0.2c2.6-0.4,4-2.1,4-4.5c0-2-1.1-3.1-2.9-3.2
			c-0.9,0-1.5,0.2-2.1,0.4l0.4-2c0.7-0.3,1.3-0.3,2.1-0.3c2.9,0,4.3,2.1,4.3,4.7c0,4.5-3.3,6.1-5.8,6.6c-1.3,0.3-2.7,0.4-3.4,0.4
			C979.4,664.9,978.6,660.5,977.6,657.2z"/>
		<path d="M997.8,662c0-2.1-0.3-3-2.4-3h-2.3c-1.4,0-2.2,0-2.6-0.1l0.4-1.9c0.5,0.1,1.6,0.1,3.2,0.1h1.4c3.4,0,4,0.7,4,4.3v7.1h-1.8
			V662z"/>
		<path d="M1002.5,666.7c0.6-0.1,2.1-0.1,3.5-0.1h5v-3.8c0-2.3-0.8-3.2-3.7-3.6c-1-0.2-2-0.3-2.6-0.4c-0.4,0.7-0.6,1.2-0.6,1.7
			c0,0.8,0.6,1.3,2.2,1.5l-0.5,1.8c-2.6-0.3-3.4-1.4-3.4-2.9c0-1.3,1-2.9,1.5-4.1c0.4,0.1,1.6,0.3,3.6,0.5c3.5,0.4,5.2,1.4,5.2,5.1
			v4.3c0,0.2-0.2,1.5-0.3,1.8h-7.2c-1.2,0-2.6,0-3.1,0.1L1002.5,666.7z"/>
		<path d="M1017,662.1c0.3-2.1-0.6-2.9-2.1-3.2l0.4-2c1.8,0.3,3,1.3,3.2,3c0.5-1.3,1.9-2.9,4.5-2.9c3.6,0,4.5,3,4.5,7.1v2.7
			c0,0.2-0.3,1.6-0.3,1.9h-4.6c-0.9,0-2.1,0-2.6,0.1l0.4-1.9c0.5-0.1,1.6-0.1,2.8-0.1h2.4c0-0.9,0-1.7,0-2.6c0-2.6-0.4-5.2-3.1-5.2
			c-2.6,0-3.5,2.3-3.8,3.7c-0.4,1.4-0.9,3.9-1.3,6h-1.8C1016.2,666.4,1016.7,663.6,1017,662.1z"/>
		<path d="M1029.7,657.2l2.2-0.2c0.6,2.5,1.2,5.9,1.8,9.7c0.4,0,1-0.1,1.9-0.2c2.6-0.4,4-2.1,4-4.5c0-2-1.1-3.1-2.9-3.2
			c-0.9,0-1.5,0.2-2.1,0.4l0.4-2c0.7-0.3,1.3-0.3,2.1-0.3c2.9,0,4.3,2.1,4.3,4.7c0,4.5-3.3,6.1-5.8,6.6c-1.3,0.3-2.7,0.4-3.4,0.4
			C1031.5,664.9,1030.7,660.5,1029.7,657.2z"/>
		<path d="M1047.6,658.9l0.4-1.9c0.5,0.1,1.6,0.1,3.2,0.1h6.8l-0.4,1.9h-0.9c-0.7,0-0.9,0.4-0.9,2c0,2.5,0.1,5.5,0.2,7.6h-1.8
			c0-1.4-0.2-4.9-0.2-7.2c0-1.4,0.2-1.9,0.5-2.3h-4.3C1048.8,659,1047.9,659,1047.6,658.9z"/>
		<path d="M1061.2,662.1c0.3-2.1-0.6-2.9-2.1-3.2l0.4-2c1.8,0.3,3,1.3,3.2,3c0.5-1.3,1.9-2.9,4.5-2.9c3.6,0,4.5,3,4.5,7.1v2.7
			c0,0.2-0.3,1.6-0.3,1.9h-4.6c-0.9,0-2.1,0-2.6,0.1l0.4-1.9c0.5-0.1,1.6-0.1,2.8-0.1h2.4c0-0.9,0-1.7,0-2.6c0-2.6-0.4-5.2-3.1-5.2
			c-2.6,0-3.5,2.3-3.8,3.7c-0.4,1.4-0.9,3.9-1.3,6h-1.8C1060.4,666.4,1061,663.6,1061.2,662.1z"/>
	</g>
	<g>
		<g>
			<path class="st20" d="M1025,597.4h-19.7c-2.1,0-3.8,1.7-3.8,3.8v39.1c0,2.1,1.7,3.8,3.8,3.8h19.7c2.1,0,3.8-1.7,3.8-3.8v-39.1
				C1028.7,599.1,1027,597.4,1025,597.4z M1026.7,640.3c0,0.9-0.8,1.7-1.7,1.7h-19.7c-0.9,0-1.7-0.8-1.7-1.7v-39.1
				c0-0.9,0.8-1.7,1.7-1.7h19.7c0.9,0,1.7,0.8,1.7,1.7V640.3z"/>
			<g>
				<path d="M1007.1,630.2h2.8c0.6,0,1-0.5,1-1s-0.5-1-1-1h-2.8c-0.6,0-1,0.5-1,1S1006.6,630.2,1007.1,630.2z"/>
				<path d="M1013.7,630.2h2.8c0.6,0,1-0.5,1-1s-0.5-1-1-1h-2.8c-0.6,0-1,0.5-1,1S1013.1,630.2,1013.7,630.2z"/>
				<path d="M1023.1,628.2h-2.8c-0.6,0-1,0.5-1,1s0.5,1,1,1h2.8c0.6,0,1-0.5,1-1S1023.6,628.2,1023.1,628.2z"/>
			</g>
			<g>
				<path d="M1013.7,634.8h2.8c0.6,0,1-0.5,1-1s-0.5-1-1-1h-2.8c-0.6,0-1,0.5-1,1S1013.1,634.8,1013.7,634.8z"/>
			</g>
			<g>
				<path class="st35" d="M1007.1,625.7h2.8c0.6,0,1-0.5,1-1c0-0.6-0.5-1-1-1h-2.8c-0.6,0-1,0.5-1,1
					C1006.1,625.3,1006.6,625.7,1007.1,625.7z"/>
				<path d="M1023.1,623.7h-2.8c-0.6,0-1,0.5-1,1c0,0.6,0.5,1,1,1h2.8c0.6,0,1-0.5,1-1C1024.1,624.1,1023.6,623.7,1023.1,623.7z"/>
				<path class="st36" d="M1013.8,625.7h2.8c0.6,0,1-0.5,1-1s-0.5-1-1-1h-2.8c-0.6,0-1,0.5-1,1S1013.2,625.7,1013.8,625.7z"/>
			</g>
			<g>
				<path d="M1007.1,639.4h2.8c0.6,0,1-0.5,1-1c0-0.6-0.5-1-1-1h-2.8c-0.6,0-1,0.5-1,1C1006.1,638.9,1006.6,639.4,1007.1,639.4z"/>
				<path d="M1023.1,637.3h-2.8c-0.6,0-1,0.5-1,1c0,0.6,0.5,1,1,1h2.8c0.6,0,1-0.5,1-1C1024.1,637.8,1023.6,637.3,1023.1,637.3z"/>
				<path d="M1013.8,639.3h2.8c0.6,0,1-0.5,1-1c0-0.6-0.5-1-1-1h-2.8c-0.6,0-1,0.5-1,1C1012.7,638.8,1013.2,639.3,1013.8,639.3z"/>
			</g>
			<path class="st20" d="M1017.6,615.3h-5.1c-3.6,0-6.5-2.9-6.5-6.5v-0.7c0-3.6,2.9-6.5,6.5-6.5h5.1c3.6,0,6.5,2.9,6.5,6.5v0.7
				C1024.1,612.5,1021.2,615.3,1017.6,615.3z"/>
			<g>
				<path d="M1011.2,609.8c-0.2,0-0.4,0-0.6-0.1s-0.3-0.1-0.4-0.2c-0.1-0.1-0.2-0.2-0.4-0.2l0.4-0.6c0.1,0.1,0.2,0.2,0.4,0.2
					c0.1,0.1,0.3,0.1,0.4,0.1c0.1,0,0.2,0,0.3,0c0.1,0,0.1-0.1,0.2-0.1c0-0.1,0.1-0.1,0.1-0.2c0-0.1,0-0.3-0.1-0.3s-0.2-0.1-0.4-0.1
					c-0.1,0-0.2,0-0.2,0c-0.1,0-0.2,0.1-0.3,0.1l-0.4-0.3l0.1-1.7h2.2v0.8h-1.3l0,0.5c0.1,0,0.1,0,0.2,0c0.1,0,0.1,0,0.2,0
					c0.2,0,0.4,0,0.6,0.1s0.3,0.2,0.4,0.3c0.1,0.2,0.2,0.4,0.2,0.6c0,0.3-0.1,0.5-0.2,0.6c-0.1,0.2-0.3,0.3-0.5,0.4
					C1011.7,609.8,1011.5,609.8,1011.2,609.8z"/>
				<path d="M1013.1,609.7v-0.5c0.3-0.2,0.6-0.5,0.8-0.7c0.2-0.2,0.4-0.4,0.6-0.6c0.1-0.2,0.2-0.3,0.2-0.5c0-0.2,0-0.3-0.1-0.3
					c-0.1-0.1-0.2-0.1-0.3-0.1c-0.1,0-0.2,0-0.3,0.1c-0.1,0.1-0.2,0.1-0.3,0.2l-0.5-0.5c0.2-0.2,0.4-0.3,0.6-0.4s0.4-0.1,0.7-0.1
					c0.3,0,0.5,0,0.7,0.1c0.2,0.1,0.3,0.2,0.5,0.4c0.1,0.2,0.2,0.4,0.2,0.6c0,0.2-0.1,0.4-0.2,0.6c-0.1,0.2-0.2,0.4-0.4,0.6
					c-0.2,0.2-0.3,0.3-0.5,0.5c0.1,0,0.2,0,0.3,0c0.1,0,0.2,0,0.3,0h0.6v0.8H1013.1z"/>
				<path d="M1017.1,609.8c-0.2,0-0.3-0.1-0.4-0.2c-0.1-0.1-0.2-0.2-0.2-0.4c0-0.2,0.1-0.3,0.2-0.4c0.1-0.1,0.3-0.2,0.4-0.2
					c0.2,0,0.3,0.1,0.4,0.2c0.1,0.1,0.2,0.2,0.2,0.4c0,0.2-0.1,0.3-0.2,0.4C1017.4,609.8,1017.2,609.8,1017.1,609.8z"/>
				<path d="M1019.6,609.8c-0.4,0-0.7-0.2-1-0.5c-0.3-0.3-0.4-0.7-0.4-1.3s0.1-1,0.4-1.3c0.3-0.3,0.6-0.4,1-0.4s0.7,0.1,1,0.4
					c0.3,0.3,0.4,0.7,0.4,1.3c0,0.6-0.1,1-0.4,1.3C1020.3,609.7,1020,609.8,1019.6,609.8z M1019.6,609.1c0.1,0,0.2,0,0.2-0.1
					c0.1-0.1,0.1-0.2,0.2-0.3c0-0.2,0.1-0.4,0.1-0.7s0-0.5-0.1-0.7c0-0.1-0.1-0.2-0.2-0.3c-0.1,0-0.1-0.1-0.2-0.1
					c-0.1,0-0.2,0-0.2,0.1c-0.1,0-0.1,0.1-0.2,0.3c0,0.1-0.1,0.4-0.1,0.7s0,0.5,0.1,0.7c0,0.2,0.1,0.3,0.2,0.3
					C1019.4,609.1,1019.5,609.1,1019.6,609.1z"/>
			</g>
			<g>
				<rect x="1011.2" y="593.6" class="st16" width="2.7" height="3.4"/>
				<rect x="1016.3" y="593.6" class="st17" width="2.7" height="3.4"/>
			</g>
		</g>
		<path class="st37" d="M1017.6,593.6c15.4-32.7-300.5-98.9-337.9-105.8C531.6,460.4,378.7,262.9,318.7,319"/>
		<path class="st38" d="M1013.9,593.6c-48.3-30.1-75.1-64.5-145.7-37.9"/>
	</g>
</g>
<g>
	<g>
		<g>
			<g>
				<g>
					<polygon class="st11" points="675.9,80.3 677.4,86.1 682.7,89 668.9,92.7 					"/>
				</g>
			</g>
		</g>
	</g>
	<line class="st12" x1="677.3" y1="86.2" x2="687.9" y2="77.5"/>
</g>
<path class="st18" d="M658.6,178.6H533.5c-6.6,0-12-5.4-12-12v-15.7c0-6.6,5.4-12,12-12h125.1c6.6,0,12,5.4,12,12v15.7
	C670.6,173.2,665.2,178.6,658.6,178.6z"/>
<circle class="st22" cx="594.5" cy="158.7" r="14.4"/>
<circle class="st8" cx="697.6" cy="66.5" r="14.4"/>
<circle class="st8" cx="492.1" cy="66.9" r="14.4"/>
<g>
	<circle class="st21" cx="643.1" cy="158.7" r="16.8"/>
	<text transform="matrix(1 0 0 1 634.2571 162.553)" class="st0 st9 st10">HP</text>
</g>
<text transform="matrix(1 0 0 1 689.9894 72.376)" class="st9 st10">T7</text>
<text transform="matrix(1 0 0 1 484.5369 72.376)" class="st9 st10">T8</text>
<g>
	<circle class="st19" cx="546.9" cy="158.7" r="16.8"/>
	<text transform="matrix(1 0 0 1 539.3771 162.553)" class="st0 st9 st10">LP</text>
</g>
<g>
	<g>
		<g>
			<g>
				<g>
					<polygon class="st11" points="509.3,87.1 514.3,83.9 515.5,78 523.2,90 					"/>
				</g>
			</g>
		</g>
	</g>
	<line class="st12" x1="514.4" y1="84" x2="503.3" y2="75.9"/>
</g>
<g>
	<circle class="st20" cx="552.6" cy="114.1" r="19"/>
	<line class="st20" x1="552.6" y1="95.1" x2="552.6" y2="133"/>
	<line class="st20" x1="533.7" y1="114.1" x2="571.6" y2="114.1"/>
	<g>
		<g>
			<g>
				<g>
					<g>
						<polygon class="st11" points="549,106.4 545.7,108.5 544.9,112.4 539.8,104.5 						"/>
					</g>
				</g>
			</g>
		</g>
		<line class="st23" x1="545.6" y1="108.4" x2="552.9" y2="113.8"/>
	</g>
</g>
<g>
	<circle class="st20" cx="643.1" cy="114.1" r="19"/>
	<line class="st20" x1="643.1" y1="95.1" x2="643.1" y2="133"/>
	<line class="st20" x1="624.2" y1="114.1" x2="662.1" y2="114.1"/>
	<g>
		<g>
			<g>
				<g>
					<g>
						<polygon class="st11" points="651.2,111.9 650.3,108.1 646.8,106.1 655.9,103.8 						"/>
					</g>
				</g>
			</g>
		</g>
		<line class="st23" x1="650.3" y1="108" x2="643.3" y2="113.7"/>
	</g>
</g>
<rect x="538" y="185.1" class="st25" width="17.9" height="17.9"/>
<rect x="633.2" y="185.1" class="st26" width="17.9" height="17.9"/>
<rect x="585.6" y="185.1" class="st27" width="17.9" height="17.9"/>
<g>
	<path d="M557.7,44.3v-9.5c0-0.8,0.1-1.5,0.3-2.1c0.2-0.6,0.4-1,0.7-1.3h-7.8v-3.9h15.7v3.9H564c-0.2,0.5-0.4,1-0.4,1.7
		c-0.1,0.6-0.1,1.2-0.1,1.7v9.5H557.7z"/>
	<path d="M568.3,31.4v-7.9h5.2v7.9H568.3z M571.7,44.3l5.5-12.9h-8.9v-3.9H583v4.3l-5.5,12.5H571.7z"/>
	<path d="M585.4,44.3V30.9l-0.4-3.4h5.8l0.4,3.4v13.4H585.4z"/>
	<path d="M593.9,44.3v-3.9h7.1c0.5,0,1-0.1,1.4-0.3s0.7-0.4,0.9-0.8c0.2-0.3,0.4-0.7,0.5-1.1s0.2-0.8,0.2-1.2v-2.3
		c0-0.6-0.1-1.1-0.3-1.6c-0.2-0.5-0.5-0.9-1-1.2c-0.4-0.3-1-0.5-1.7-0.5h-1.7l-0.4,2c-0.1,0.5,0,0.9,0.3,1.1
		c0.3,0.3,0.7,0.5,1.5,0.6l-0.8,3.2c-1.7,0-3-0.2-4-0.7c-0.9-0.5-1.5-1.2-1.8-2c-0.3-0.8-0.3-1.7-0.2-2.7l1.3-5.4h7.3
		c1.6,0,2.9,0.3,4,1c1.1,0.6,1.9,1.5,2.5,2.7c0.6,1.1,0.9,2.4,0.9,3.9v1.8c0,1.1-0.2,2.1-0.5,3c-0.3,0.9-0.8,1.7-1.5,2.4
		c-0.6,0.7-1.4,1.2-2.3,1.6c-0.9,0.4-2,0.6-3.1,0.6H593.9z"/>
	<path d="M612.3,38.2v-2.7v-4.6l-0.4-3.4h5.8l0.4,3.4v4.6l0,1.8L612.3,38.2z"/>
	<path d="M620.6,44.3v-3.9h4.2v-7.7c0-0.6-0.1-1-0.4-1.2c-0.2-0.2-0.6-0.3-1-0.3l-2.3-0.3l0.7-3.8l4.7,0.5c1.3,0.1,2.3,0.7,3,1.6
		c0.7,0.9,1,2,1,3.4v11.7H620.6z"/>
	<path d="M633.2,44.3l2.1-11.1l-2.6-5.7h6l2,6L639,44.3H633.2z M640.8,44.4l0.5-3.9c1.5,0.3,2.6,0.3,3.3,0c0.7-0.3,1.2-0.8,1.5-1.6
		c0.3-0.8,0.4-1.7,0.4-2.8c0-1.1-0.1-2-0.3-2.7c-0.2-0.7-0.5-1.2-1-1.6c-0.4-0.3-1-0.5-1.7-0.5c-0.4,0-0.8,0.1-1.2,0.2
		c-0.4,0.2-0.7,0.4-1,0.7c-0.3,0.3-0.4,0.7-0.5,1.3l-1.2-2.1c0.4-1.5,1.1-2.6,2.1-3.2c0.9-0.7,2-1,3.2-1c1.2,0,2.3,0.2,3.2,0.6
		c0.9,0.4,1.7,1,2.2,1.7c0.6,0.8,1,1.7,1.3,2.8c0.3,1.1,0.4,2.4,0.4,3.8c0,2.1-0.4,3.8-1.3,5.2c-0.9,1.4-2.2,2.4-3.8,3
		C645.2,44.9,643.1,44.9,640.8,44.4z"/>
	<path d="M557.5,84.4c-1.3-2-2.4-4.1-3.1-6.2c-0.7-2.1-1.1-4.5-1.1-7s0.4-4.9,1.1-7.1c0.7-2.2,1.8-4.2,3.1-6.2l3.4,1.3
		c-1.1,1.9-2,3.8-2.5,5.9c-0.5,2.1-0.8,4.1-0.8,6.1c0,2,0.3,4,0.8,6.1s1.3,4,2.5,5.9L557.5,84.4z"/>
	<path d="M563.5,79.7l-0.5-3.5c0.8-0.1,1.4-0.2,1.8-0.4c0.4-0.2,0.6-0.4,0.7-0.8s0.2-0.8,0.2-1.5V62.3h10.7c1.1,0,2,0.2,2.9,0.6
		c0.8,0.4,1.5,1,2,1.8c0.5,0.8,0.7,1.9,0.7,3.2v11.3h-5.8V67.5c0-0.4-0.1-0.8-0.4-1c-0.2-0.2-0.6-0.3-1.1-0.3h-3.2v6.6
		c0,1.7-0.3,3-0.8,3.9c-0.6,0.9-1.4,1.6-2.6,2.1C566.8,79.2,565.3,79.5,563.5,79.7z"/>
	<path d="M584.6,79.1v-3.9h7.1c0.5,0,1-0.1,1.4-0.3s0.7-0.4,0.9-0.8c0.2-0.3,0.4-0.7,0.5-1.1s0.2-0.8,0.2-1.2v-2.3
		c0-0.6-0.1-1.1-0.3-1.6c-0.2-0.5-0.5-0.9-1-1.2c-0.4-0.3-1-0.5-1.7-0.5H590l-0.4,2c-0.1,0.5,0,0.9,0.3,1.1c0.3,0.3,0.7,0.5,1.5,0.6
		l-0.8,3.2c-1.7,0-3-0.2-4-0.7c-0.9-0.5-1.5-1.2-1.8-2c-0.3-0.8-0.3-1.7-0.2-2.7l1.3-5.4h7.3c1.6,0,2.9,0.3,4,1
		c1.1,0.6,1.9,1.5,2.5,2.7c0.6,1.1,0.9,2.4,0.9,3.9v1.8c0,1.1-0.2,2.1-0.5,3c-0.3,0.9-0.8,1.7-1.5,2.4c-0.6,0.7-1.4,1.2-2.3,1.6
		c-0.9,0.4-2,0.6-3.1,0.6H584.6z"/>
	<path d="M602.1,80.4l-0.8-4.1l8.4-1.4c0.9-0.2,1.7-0.4,2.2-0.9s0.9-1,1.2-1.6s0.4-1.5,0.5-2.5s0.1-2.1,0.1-3.3c0-1.3,0-2.7,0-4.2
		h5.7c0,1.8,0,3.4-0.1,4.9c-0.1,1.5-0.2,2.9-0.5,4.2c-0.3,1.3-0.8,2.4-1.4,3.4c-0.7,1-1.6,1.9-2.8,2.6c-1.2,0.7-2.8,1.2-4.8,1.6
		L602.1,80.4z M606.2,76.1l-3.5-13.7h5.8l3.3,13.7H606.2z"/>
	<path d="M623.9,79.4l-1.7-13.2l5.5-2.3l1.2,10.8c0.9-0.1,1.7-0.2,2.3-0.4c0.6-0.2,1-0.4,1.3-0.8c0.3-0.3,0.5-0.7,0.6-1.1
		c0.1-0.4,0.2-0.9,0.2-1.5c0-0.5,0-1.1,0-1.7v-1c0-0.5-0.1-0.9-0.2-1.2c-0.2-0.3-0.4-0.5-0.6-0.7c-0.3-0.2-0.6-0.2-0.9-0.2h-9.4
		l-0.5-3.9H632c2.2,0,4,0.5,5.2,1.6c1.2,1.1,1.8,2.6,1.9,4.5l0,1c0.1,1.8-0.2,3.3-0.9,4.6c-0.7,1.2-1.6,2.2-3,3
		c-1.3,0.8-2.9,1.4-4.8,1.7S626.3,79.4,623.9,79.4z"/>
	<path d="M645.7,84.4l-3.4-1.3c1.1-1.9,2-3.9,2.5-5.9c0.5-2.1,0.8-4.1,0.8-6.1c0-2-0.3-4-0.8-6.1c-0.5-2.1-1.3-4-2.5-5.9l3.4-1.3
		c1.3,2,2.4,4.1,3.1,6.2c0.7,2.2,1.1,4.5,1.1,7.1s-0.4,4.9-1.1,7C648,80.3,647,82.3,645.7,84.4z"/>
</g>
<ellipse class="st17" cx="317.7" cy="324.4" rx="14.4" ry="5.4"/>
<ellipse class="st16" cx="868.2" cy="555.7" rx="14.4" ry="5.4"/>
<g>
	<g>
		<path d="M342.2,261.5l0.8-0.6c1.5-1.1,2.8-2.3,2.8-3.5c0-0.9-0.4-1.5-1.4-1.5c-0.7,0-1.3,0.3-1.8,0.7l-0.4-0.8
			c0.6-0.4,1.3-0.8,2.2-0.8c1.7,0,2.3,1.2,2.3,2.3c0,1.6-1.6,3-2.9,3.9c0.5,0,1,0,1.8,0h1.5v0.9h-5V261.5z"/>
		<path d="M350.8,255.1c1.9,0,2.6,1.8,2.6,3.6c0,2-0.8,3.6-2.6,3.6c-1.7,0-2.6-1.5-2.6-3.6C348.1,256.5,349.2,255.1,350.8,255.1z
			 M350.8,261.4c1.1,0,1.5-1.2,1.5-2.7c0-1.7-0.6-2.7-1.6-2.7c-0.9,0-1.6,1-1.6,2.7C349.1,260.2,349.7,261.4,350.8,261.4z"/>
		<path d="M356.4,256.7l0.2-1.1c0.2,0,0.9,0,1.7,0h3.5l-0.2,1.1h-0.5c-0.4,0-0.5,0.3-0.5,1.1c0,1.4,0.1,3.1,0.1,4.3h-0.9
			c0-0.8-0.1-2.8-0.1-4.1c0-0.8,0.1-1.1,0.3-1.3h-2.2C357,256.7,356.6,256.7,356.4,256.7z"/>
		<path d="M365.1,261.1c-0.4-1.3-1.6-4.1-2.5-5.4l1.3-0.1c0.7,1.2,1.7,3.6,2.1,5.2c0.9-0.4,1.4-1.2,1.4-2.6c0-0.7-0.2-1.7-0.5-2.5
			l1.2-0.1c0.1,0.4,0.3,1.3,0.3,2.3c0,1.8-0.4,3.1-2.4,4c-0.9,0.4-2.3,0.7-3.4,0.8l0.2-1.2C363.4,261.5,364.4,261.3,365.1,261.1z"/>
		<path d="M376.6,261.3v0.9h-4.1v-0.9h1.7v-5.1c-0.4,0.2-1,0.4-1.4,0.5l-0.1-0.8c0.6-0.2,1.4-0.6,1.8-0.8h0.7v6.2H376.6z"/>
		<path d="M380.7,255.1c1.9,0,2.6,1.8,2.6,3.6c0,2-0.8,3.6-2.6,3.6c-1.7,0-2.6-1.5-2.6-3.6C378,256.5,379.1,255.1,380.7,255.1z
			 M380.7,261.4c1.1,0,1.5-1.2,1.5-2.7c0-1.7-0.6-2.7-1.6-2.7c-0.9,0-1.6,1-1.6,2.7C379,260.2,379.6,261.4,380.7,261.4z"/>
		<path d="M391.6,258.6c0-1.3-0.1-1.9-1.2-1.9h-2c-0.7,0-1.2,0-1.4-0.1l0.2-1.1c0.2,0,0.8,0,1.7,0h1.6c1.7,0,2.1,0.5,2.1,2.5v4.1
			h-0.9V258.6z M387.2,258.8h0.9v3.4h-0.9V258.8z"/>
		<path d="M396,261c1.4-0.4,2.6-1.4,2.6-3.2c0-0.8-0.3-1-1.2-1h-1.6c-0.8,0-1.6,0-1.8-0.1l0.2-1.1c0.3,0.1,1,0,1.8,0h1.7
			c1.5,0,1.9,0.5,1.9,1.9c0,2.6-1.7,4.2-3.8,4.7L396,261z M394.3,258.6h0.9v5.9h-0.9V258.6z"/>
		<path d="M401,259.3c0.5-0.8,0.8-1.4,0.8-1.8c0-0.4-0.2-0.5-0.8-0.7c-0.3-0.1-0.5-0.2-0.7-0.2l0.2-1.1c0.2,0.1,0.4,0.1,0.7,0.2
			c1.1,0.3,1.5,0.6,1.5,1.5c0,0.8-0.4,1.6-0.9,2.5L401,259.3z"/>
		<path d="M403.7,261.1c0.3,0,0.7,0,1.5,0h0.8v-2.7c0-1-0.1-1.3-1.2-1.6c-0.4-0.1-0.9-0.2-1-0.3l0.2-1.1c0.2,0.1,0.5,0.1,1,0.2
			c1.4,0.3,1.9,0.7,1.9,2.5v2.9l-0.2,1.1h-1.7c-0.5,0-1.3,0-1.6,0L403.7,261.1z"/>
		<path d="M408.7,259.3c0.5-0.8,0.8-1.4,0.8-1.8c0-0.4-0.2-0.5-0.8-0.7c-0.3-0.1-0.5-0.2-0.7-0.2l0.2-1.1c0.2,0.1,0.4,0.1,0.7,0.2
			c1.1,0.3,1.5,0.6,1.5,1.5c0,0.8-0.4,1.6-0.9,2.5L408.7,259.3z"/>
		<path d="M413.9,261.1c0.2,0,0.3-0.1,1-0.1h0.2c0-1.2-0.1-3.6-0.2-4.3h0c-0.2,0-0.7,0-0.9-0.1l0.2-1.1c0.4,0.1,1.2,0,1.9,0h2
			c1.8,0,2.1,0.4,2.1,2.5v4.1h-0.9v-3.7c0-1.2-0.1-1.7-1.2-1.7h-2.1c0.1,0.8,0.2,3.5,0.2,4.4l-0.2,1.1h-0.9c-0.5,0-0.9,0-1.2,0
			L413.9,261.1z"/>
		<path d="M424.8,258.5c0-1.2-0.1-1.7-1.3-1.7h-1.2c-0.7,0-1.2,0-1.3-0.1l0.2-1.1c0.2,0,0.9,0,1.7,0h0.7c1.8,0,2.1,0.4,2.1,2.5v4.1
			h-0.9V258.5z"/>
		<path d="M428.5,258.4c0-1-0.1-1.4-1.1-1.6c-0.4-0.1-0.6-0.2-0.8-0.2l0.2-1.1c0.2,0.1,0.4,0.1,0.8,0.2c1.3,0.3,1.8,0.7,1.8,2.6v3.9
			h-0.9V258.4z"/>
		<path d="M430.7,255.7l1.1-0.1c0.3,1.4,0.6,3.4,0.9,5.5c0.2,0,0.5,0,1-0.1c1.3-0.2,2.1-1.2,2.1-2.5c0-1.2-0.6-1.8-1.5-1.8
			c-0.4,0-0.8,0.1-1.1,0.2l0.2-1.1c0.4-0.1,0.7-0.2,1.1-0.2c1.5,0,2.2,1.2,2.2,2.7c0,2.5-1.7,3.5-3,3.8c-0.7,0.1-1.4,0.2-1.8,0.2
			C431.6,260.1,431.2,257.6,430.7,255.7z"/>
		<path d="M441.2,258.5c0-1.2-0.1-1.7-1.3-1.7h-1.2c-0.7,0-1.2,0-1.3-0.1l0.2-1.1c0.2,0,0.9,0,1.7,0h0.7c1.8,0,2.1,0.4,2.1,2.5v4.1
			h-0.9V258.5z"/>
		<path d="M443.7,261.1c0.3,0,1.1,0,1.8-0.1h2.6v-2.1c0-1.3-0.4-1.8-1.9-2.1c-0.5-0.1-1-0.2-1.3-0.2c-0.2,0.4-0.3,0.7-0.3,1
			c0,0.4,0.3,0.7,1.2,0.9l-0.2,1c-1.3-0.2-1.8-0.8-1.8-1.7c0-0.7,0.5-1.7,0.8-2.4c0.2,0,0.9,0.2,1.9,0.3c1.8,0.2,2.7,0.8,2.7,2.9
			v2.4c0,0.1-0.1,0.9-0.2,1h-3.7c-0.6,0-1.4,0-1.6,0L443.7,261.1z"/>
		<path d="M451.2,258.5c0.2-1.2-0.3-1.7-1.1-1.8l0.2-1.1c1,0.2,1.5,0.8,1.6,1.7c0.3-0.7,1-1.7,2.3-1.7c1.9,0,2.3,1.7,2.3,4v1.5
			c0,0.1-0.1,0.9-0.2,1.1h-2.4c-0.5,0-1.1,0-1.4,0l0.2-1.1c0.3,0,0.8,0,1.5,0h1.3c0-0.5,0-1,0-1.5c0-1.5-0.2-3-1.6-3
			c-1.3,0-1.8,1.3-2,2.1c-0.2,0.8-0.4,2.3-0.7,3.4h-0.9C450.8,260.9,451.1,259.4,451.2,258.5z"/>
		<path d="M457.8,255.7l1.1-0.1c0.3,1.4,0.6,3.4,0.9,5.5c0.2,0,0.5,0,1-0.1c1.3-0.2,2.1-1.2,2.1-2.5c0-1.2-0.6-1.8-1.5-1.8
			c-0.4,0-0.8,0.1-1.1,0.2l0.2-1.1c0.4-0.1,0.7-0.2,1.1-0.2c1.5,0,2.2,1.2,2.2,2.7c0,2.5-1.7,3.5-3,3.8c-0.7,0.1-1.4,0.2-1.8,0.2
			C458.7,260.1,458.3,257.6,457.8,255.7z"/>
	</g>
	<circle class="st41" cx="385.9" cy="253.4" r="0.8"/>
	<circle class="st41" cx="356.9" cy="253.4" r="0.8"/>
</g>
<g>
	<path d="M787.9,258.5c-0.7-0.3-1.1-0.9-1.1-1.6c0-1,0.7-1.9,2.3-1.9s2.2,0.9,2.2,1.8c0,0.8-0.4,1.3-1,1.6c0.8,0.2,1.3,0.9,1.3,1.7
		c0,1.2-0.8,2.1-2.5,2.1s-2.4-1-2.4-2.1C786.6,259.4,787.1,258.8,787.9,258.5z M789.1,261.4c1.1,0,1.5-0.6,1.5-1.2
		c0-0.7-0.5-1.2-1.5-1.2c-1,0-1.5,0.5-1.5,1.2C787.6,260.8,788.1,261.4,789.1,261.4z M790.4,257c0-0.6-0.4-1.1-1.3-1.1
		c-0.9,0-1.3,0.5-1.3,1c0,0.6,0.5,1.1,1.3,1.1C790,258.1,790.4,257.6,790.4,257z"/>
	<path d="M795.2,255.1c1.9,0,2.6,1.8,2.6,3.6c0,2-0.8,3.6-2.6,3.6c-1.7,0-2.6-1.5-2.6-3.6C792.6,256.5,793.6,255.1,795.2,255.1z
		 M795.3,261.4c1.1,0,1.5-1.2,1.5-2.7c0-1.7-0.6-2.7-1.6-2.7c-0.9,0-1.6,1-1.6,2.7C793.6,260.2,794.2,261.4,795.3,261.4z"/>
	<path d="M800.9,256.7l0.2-1.1c0.2,0,0.9,0,1.7,0h3.5l-0.2,1.1h-0.5c-0.4,0-0.5,0.3-0.5,1.1c0,1.4,0.1,3.1,0.1,4.3h-0.9
		c0-0.8-0.1-2.8-0.1-4.1c0-0.8,0.1-1.1,0.3-1.3h-2.2C801.5,256.7,801,256.7,800.9,256.7z"/>
	<path d="M809.5,261.1c-0.4-1.3-1.6-4.1-2.5-5.4l1.3-0.1c0.7,1.2,1.7,3.6,2.1,5.2c0.9-0.4,1.4-1.2,1.4-2.6c0-0.7-0.2-1.7-0.5-2.5
		l1.2-0.1c0.1,0.4,0.3,1.3,0.3,2.3c0,1.8-0.4,3.1-2.4,4c-0.9,0.4-2.3,0.7-3.4,0.8l0.2-1.2C807.9,261.5,808.9,261.3,809.5,261.1z"/>
	<path d="M820.3,256.1h-3.8v-0.9h4.8v0.7c-0.7,1.5-2.1,4.6-2.9,6.3h-1C818.6,259.9,820.1,256.7,820.3,256.1z"/>
	<path d="M825.1,255.1c1.9,0,2.6,1.8,2.6,3.6c0,2-0.8,3.6-2.6,3.6c-1.7,0-2.6-1.5-2.6-3.6C822.5,256.5,823.5,255.1,825.1,255.1z
		 M825.2,261.4c1.1,0,1.5-1.2,1.5-2.7c0-1.7-0.6-2.7-1.6-2.7c-0.9,0-1.6,1-1.6,2.7C823.5,260.2,824.1,261.4,825.2,261.4z"/>
	<path d="M836,258.6c0-1.3-0.1-1.9-1.2-1.9h-2c-0.7,0-1.2,0-1.4-0.1l0.2-1.1c0.2,0,0.8,0,1.7,0h1.6c1.7,0,2.1,0.5,2.1,2.5v4.1H836
		V258.6z M831.6,258.8h0.9v3.4h-0.9V258.8z"/>
	<path d="M838.6,256.7c-0.3,0-0.5,0-0.6-0.1l0.2-1.1c0.2,0,1,0.1,1.7,0.1h2.7c1.5,0,1.7,0.8,1.7,2c0,2.8-1.6,4.1-3.2,4.4
		c-0.6,0.1-1.2,0.2-1.5,0.2C839.3,260.6,838.8,257.6,838.6,256.7z M841.3,261c1.5-0.3,2.1-1.5,2.1-3.1c0-0.8-0.2-1.2-1.1-1.2h-2.8
		c0.1,0.9,0.6,3.2,0.7,4.4C840.6,261.1,840.9,261.1,841.3,261z"/>
	<path d="M845.8,259.3c0.5-0.8,0.8-1.4,0.8-1.8c0-0.4-0.2-0.5-0.8-0.7c-0.3-0.1-0.5-0.2-0.7-0.2l0.2-1.1c0.2,0.1,0.4,0.1,0.7,0.2
		c1.1,0.3,1.5,0.6,1.5,1.5c0,0.8-0.4,1.6-0.9,2.5L845.8,259.3z"/>
	<path d="M849.2,258.4c0-0.8,0-1.4,0.1-1.7c-0.2,0-0.8,0-0.9-0.1l0.2-1.1c0.3,0.1,0.9,0.1,1.7,0.1h2.2c1.8,0,2.1,0.5,2.1,2.5v4h-0.9
		v-3.6c0-1.3-0.1-1.8-1.3-1.8h-2.2v5.4h-0.9V258.4z"/>
	<path d="M855.4,256.7l0.2-1.1c0.2,0,0.9,0,1.7,0h3.5l-0.2,1.1h-0.5c-0.4,0-0.5,0.3-0.5,1.1c0,1.4,0.1,3.1,0.1,4.3h-0.9
		c0-0.8-0.1-2.8-0.1-4.1c0-0.8,0.1-1.1,0.3-1.3h-2.2C856.1,256.7,855.6,256.7,855.4,256.7z"/>
	<path d="M864.2,261.1c0.2,0,0.3-0.1,1-0.1h0.2c0-1.2-0.1-3.6-0.2-4.3h0c-0.2,0-0.7,0-0.9-0.1l0.2-1.1c0.4,0.1,1.2,0,1.9,0h2
		c1.8,0,2.1,0.4,2.1,2.5v4.1h-0.9v-3.7c0-1.2-0.1-1.7-1.2-1.7h-2.1c0.1,0.8,0.2,3.5,0.2,4.4l-0.2,1.1h-0.9c-0.5,0-0.9,0-1.2,0
		L864.2,261.1z"/>
	<path d="M875.1,258.5c0-1.2-0.1-1.7-1.3-1.7h-1.2c-0.7,0-1.2,0-1.3-0.1l0.2-1.1c0.2,0,0.9,0,1.7,0h0.7c1.8,0,2.1,0.4,2.1,2.5v4.1
		h-0.9V258.5z"/>
	<path d="M878.9,258.4c0-1-0.1-1.4-1.1-1.6c-0.4-0.1-0.6-0.2-0.8-0.2l0.2-1.1c0.2,0.1,0.4,0.1,0.8,0.2c1.3,0.3,1.8,0.7,1.8,2.6v3.9
		h-0.9V258.4z"/>
	<path d="M881,255.7l1.1-0.1c0.3,1.4,0.6,3.4,0.9,5.5c0.2,0,0.5,0,1-0.1c1.3-0.2,2.1-1.2,2.1-2.5c0-1.2-0.6-1.8-1.5-1.8
		c-0.4,0-0.8,0.1-1.1,0.2l0.2-1.1c0.4-0.1,0.7-0.2,1.1-0.2c1.5,0,2.2,1.2,2.2,2.7c0,2.5-1.7,3.5-3,3.8c-0.7,0.1-1.4,0.2-1.8,0.2
		C882,260.1,881.6,257.6,881,255.7z"/>
	<path d="M891.5,258.5c0-1.2-0.1-1.7-1.3-1.7h-1.2c-0.7,0-1.2,0-1.3-0.1l0.2-1.1c0.2,0,0.9,0,1.7,0h0.7c1.8,0,2.1,0.4,2.1,2.5v4.1
		h-0.9V258.5z"/>
	<path d="M894,261.1c0.3,0,1.1,0,1.8-0.1h2.6v-2.1c0-1.3-0.4-1.8-1.9-2.1c-0.5-0.1-1-0.2-1.3-0.2c-0.2,0.4-0.3,0.7-0.3,1
		c0,0.4,0.3,0.7,1.2,0.9l-0.2,1c-1.3-0.2-1.8-0.8-1.8-1.7c0-0.7,0.5-1.7,0.8-2.4c0.2,0,0.9,0.2,1.9,0.3c1.8,0.2,2.7,0.8,2.7,2.9v2.4
		c0,0.1-0.1,0.9-0.2,1h-3.7c-0.6,0-1.4,0-1.6,0L894,261.1z"/>
	<path d="M901.5,258.5c0.2-1.2-0.3-1.7-1.1-1.8l0.2-1.1c1,0.2,1.5,0.8,1.6,1.7c0.3-0.7,1-1.7,2.3-1.7c1.9,0,2.3,1.7,2.3,4v1.5
		c0,0.1-0.1,0.9-0.2,1.1h-2.4c-0.5,0-1.1,0-1.4,0l0.2-1.1c0.3,0,0.8,0,1.5,0h1.3c0-0.5,0-1,0-1.5c0-1.5-0.2-3-1.6-3
		c-1.3,0-1.8,1.3-2,2.1c-0.2,0.8-0.4,2.3-0.7,3.4h-0.9C901.1,260.9,901.4,259.4,901.5,258.5z"/>
	<path d="M908.1,255.7l1.1-0.1c0.3,1.4,0.6,3.4,0.9,5.5c0.2,0,0.5,0,1-0.1c1.3-0.2,2.1-1.2,2.1-2.5c0-1.2-0.6-1.8-1.5-1.8
		c-0.4,0-0.8,0.1-1.1,0.2l0.2-1.1c0.4-0.1,0.7-0.2,1.1-0.2c1.5,0,2.2,1.2,2.2,2.7c0,2.5-1.7,3.5-3,3.8c-0.7,0.1-1.4,0.2-1.8,0.2
		C909.1,260.1,908.7,257.6,908.1,255.7z"/>
</g>
<circle class="st41" cx="830.3" cy="252.6" r="0.8"/>
<circle class="st41" cx="800.6" cy="252.6" r="0.8"/>
<polygon class="st24" points="544.6,563.5 521.8,550.3 521.8,576.6 "/>
<polygon class="st24" points="550.4,563.5 573.2,550.3 573.2,576.6 "/>
<circle cx="547.5" cy="563.5" r="7.3"/>
<circle class="st24" cx="667.5" cy="563.5" r="14.4"/>
<circle cx="667.5" cy="563.5" r="7.3"/>
<rect x="712.4" y="545.7" class="st24" width="66" height="35.5"/>
<rect x="712.4" y="545.7" class="st28" width="21.6" height="35.5"/>
<g>
	<g>
		<path d="M746.3,387.4c0.3,0,0.5,0,0.6,0l0,0.9c-0.2,0-0.4,0-0.6,0c-1.6,0-2.7,1-2.9,2.4c0.4-0.5,1.2-0.9,1.9-0.9
			c1.5,0,2.2,1,2.2,2.3c0,1.2-0.8,2.5-2.5,2.5c-1.7,0-2.6-1.3-2.6-3.2C742.4,388.7,744.3,387.4,746.3,387.4z M745.1,393.7
			c0.9,0,1.5-0.6,1.5-1.5c0-0.8-0.5-1.5-1.5-1.5c-0.7,0-1.4,0.4-1.7,0.9C743.4,392.8,744.1,393.7,745.1,393.7z"/>
		<path d="M751.1,387.4c1.9,0,2.6,1.8,2.6,3.6c0,2-0.8,3.6-2.6,3.6c-1.7,0-2.6-1.5-2.6-3.6C748.4,388.8,749.5,387.4,751.1,387.4z
			 M751.1,393.7c1.1,0,1.5-1.2,1.5-2.7c0-1.7-0.6-2.7-1.6-2.7c-0.9,0-1.6,1-1.6,2.7C749.4,392.6,750,393.7,751.1,393.7z"/>
		<path d="M756.7,389l0.2-1.1c0.2,0,0.9,0,1.7,0h3.5l-0.2,1.1h-0.5c-0.4,0-0.5,0.3-0.5,1.1c0,1.4,0.1,3.1,0.1,4.3h-0.9
			c0-0.8-0.1-2.8-0.1-4.1c0-0.8,0.1-1.1,0.3-1.3H758C757.3,389.1,756.9,389.1,756.7,389z"/>
		<path d="M765.4,393.4c-0.4-1.3-1.6-4.1-2.5-5.4l1.3-0.1c0.7,1.2,1.7,3.6,2.1,5.2c0.9-0.4,1.4-1.2,1.4-2.6c0-0.7-0.2-1.7-0.5-2.5
			l1.2-0.1c0.1,0.4,0.3,1.3,0.3,2.3c0,1.8-0.4,3.1-2.4,4c-0.9,0.4-2.3,0.7-3.4,0.8l0.2-1.2C763.7,393.8,764.7,393.6,765.4,393.4z"/>
		<path d="M772.7,393c0.6,0.4,1.2,0.7,2,0.7c1.3,0,1.6-0.8,1.6-1.4c0-0.6-0.4-1.5-2.1-1.5c-0.6,0-1.1,0.1-1.5,0.2v-0.3l0.5-3.3h3.7
			l-0.1,0.9H774l-0.3,1.7c0.2,0,0.4-0.1,0.9-0.1c2,0,2.7,1,2.7,2.2c0,1.4-1,2.4-2.7,2.4c-0.9,0-1.7-0.3-2.3-0.7L772.7,393z"/>
		<path d="M781,387.4c1.9,0,2.6,1.8,2.6,3.6c0,2-0.8,3.6-2.6,3.6c-1.7,0-2.6-1.5-2.6-3.6C778.3,388.8,779.4,387.4,781,387.4z
			 M781,393.7c1.1,0,1.5-1.2,1.5-2.7c0-1.7-0.6-2.7-1.6-2.7c-0.9,0-1.6,1-1.6,2.7C779.3,392.6,779.9,393.7,781,393.7z"/>
		<path d="M788.5,390.8c0-1-0.1-1.4-1.1-1.6c-0.4-0.1-0.6-0.2-0.8-0.3l0.2-1c0.2,0.1,0.4,0.1,0.9,0.2c1.3,0.3,1.7,0.7,1.7,2.5v6.3
			h-0.9V390.8z"/>
		<path d="M791.6,390.8c0.2-1.2-0.3-1.7-1.1-1.8l0.2-1.1c1,0.2,1.5,0.8,1.6,1.7c0.3-0.7,1-1.7,2.3-1.7c1.9,0,2.3,1.7,2.3,4v1.5
			c0,0.1-0.1,0.9-0.2,1.1h-2.4c-0.5,0-1.1,0-1.4,0l0.2-1.1c0.3,0,0.8,0,1.5,0h1.3c0-0.5,0-1,0-1.5c0-1.5-0.2-3-1.6-3
			c-1.3,0-1.8,1.3-2,2.1c-0.2,0.8-0.4,2.3-0.7,3.4h-0.9C791.2,393.3,791.5,391.7,791.6,390.8z"/>
		<path d="M798.2,388l1.1-0.1c0.1,0.3,0.2,1.2,0.6,3.4c1.2-0.3,1.4-0.8,1.4-1.6c0-0.5-0.1-1.2-0.3-1.7l1.1-0.1
			c0.1,0.4,0.2,1.1,0.3,1.6c0,1.1-0.3,2.2-2.4,2.5c0,0.1,0.2,1,0.2,1.4c0.3,0,0.7-0.1,1.3-0.2c1.5-0.3,2.4-1,2.4-3
			c0-0.8-0.2-1.7-0.4-2.3l1.2-0.1c0.1,0.4,0.3,1.2,0.3,2.1c0,2.9-1.7,3.9-3.6,4.3c-0.8,0.1-1.5,0.2-1.9,0.3
			C799.3,393,798.6,389,798.2,388z"/>
		<path d="M808.7,393.5c0.2,0,0.3-0.1,1-0.1h0.2c0-1.2-0.1-3.6-0.2-4.3h0c-0.2,0-0.7,0-0.9-0.1l0.2-1.1c0.4,0.1,1.2,0,1.9,0h2
			c1.8,0,2.1,0.4,2.1,2.5v4.1h-0.9v-3.7c0-1.2-0.1-1.7-1.2-1.7h-2.1c0.1,0.8,0.2,3.5,0.2,4.4l-0.2,1.1h-0.9c-0.5,0-0.9,0-1.2,0
			L808.7,393.5z"/>
		<path d="M819.6,390.8c0-1.2-0.1-1.7-1.3-1.7h-1.2c-0.7,0-1.2,0-1.3-0.1l0.2-1.1c0.2,0,0.9,0,1.7,0h0.7c1.8,0,2.1,0.4,2.1,2.5v4.1
			h-0.9V390.8z"/>
		<path d="M823.3,390.8c0-1-0.1-1.4-1.1-1.6c-0.4-0.1-0.6-0.2-0.8-0.2l0.2-1.1c0.2,0.1,0.4,0.1,0.8,0.2c1.3,0.3,1.8,0.7,1.8,2.6v3.9
			h-0.9V390.8z"/>
		<path d="M825.5,388l1.1-0.1c0.3,1.4,0.6,3.4,0.9,5.5c0.2,0,0.5,0,1-0.1c1.3-0.2,2.1-1.2,2.1-2.5c0-1.2-0.6-1.8-1.5-1.8
			c-0.4,0-0.8,0.1-1.1,0.2l0.2-1.1c0.4-0.1,0.7-0.2,1.1-0.2c1.5,0,2.2,1.2,2.2,2.7c0,2.5-1.7,3.5-3,3.8c-0.7,0.1-1.4,0.2-1.8,0.2
			C826.4,392.5,826,389.9,825.5,388z"/>
		<path d="M836,390.8c0-1.2-0.1-1.7-1.3-1.7h-1.2c-0.7,0-1.2,0-1.3-0.1l0.2-1.1c0.2,0,0.9,0,1.7,0h0.7c1.8,0,2.1,0.4,2.1,2.5v4.1
			H836V390.8z"/>
		<path d="M838.5,393.5c0.3,0,1.1,0,1.8-0.1h2.6v-2.1c0-1.3-0.4-1.8-1.9-2.1c-0.5-0.1-1-0.2-1.3-0.2c-0.2,0.4-0.3,0.7-0.3,1
			c0,0.4,0.3,0.7,1.2,0.9l-0.2,1c-1.3-0.2-1.8-0.8-1.8-1.7c0-0.7,0.5-1.7,0.8-2.4c0.2,0,0.9,0.2,1.9,0.3c1.8,0.2,2.7,0.8,2.7,2.9
			v2.4c0,0.1-0.1,0.9-0.2,1h-3.7c-0.6,0-1.4,0-1.6,0L838.5,393.5z"/>
		<path d="M846,390.8c0.2-1.2-0.3-1.7-1.1-1.8l0.2-1.1c1,0.2,1.5,0.8,1.6,1.7c0.3-0.7,1-1.7,2.3-1.7c1.9,0,2.3,1.7,2.3,4v1.5
			c0,0.1-0.1,0.9-0.2,1.1h-2.4c-0.5,0-1.1,0-1.4,0l0.2-1.1c0.3,0,0.8,0,1.5,0h1.3c0-0.5,0-1,0-1.5c0-1.5-0.2-3-1.6-3
			c-1.3,0-1.8,1.3-2,2.1c-0.2,0.8-0.4,2.3-0.7,3.4h-0.9C845.6,393.3,845.8,391.7,846,390.8z"/>
		<path d="M852.6,388l1.1-0.1c0.3,1.4,0.6,3.4,0.9,5.5c0.2,0,0.5,0,1-0.1c1.3-0.2,2.1-1.2,2.1-2.5c0-1.2-0.6-1.8-1.5-1.8
			c-0.4,0-0.8,0.1-1.1,0.2l0.2-1.1c0.4-0.1,0.7-0.2,1.1-0.2c1.5,0,2.2,1.2,2.2,2.7c0,2.5-1.7,3.5-3,3.8c-0.7,0.1-1.4,0.2-1.8,0.2
			C853.5,392.5,853.1,389.9,852.6,388z"/>
	</g>
	<circle class="st41" cx="786.4" cy="385.2" r="0.8"/>
	<circle class="st41" cx="756.8" cy="385.2" r="0.8"/>
</g>
<g>
	<path d="M670.1,302.4c0-0.7,0.1-1.1,0.4-1.4c-0.5-0.1-1.2-0.2-1.5-0.3l0.2-1.1c0.5,0.2,2.6,0.5,3.4,0.6l-0.2,1.1
		c-0.3,0-0.7-0.1-0.9-0.1c-0.3,0-0.5,0.2-0.5,1c0,0.6,0.1,2.8,0.2,4.1h-0.9C670.2,304.2,670.1,303,670.1,302.4z"/>
	<path d="M676.8,302.5c0-1.2-0.1-1.7-1.3-1.7h-1.2c-0.7,0-1.2,0-1.3-0.1l0.2-1.1c0.2,0,0.9,0,1.7,0h0.7c1.8,0,2.1,0.4,2.1,2.5v4.1
		h-0.9V302.5z"/>
	<path d="M679.1,305.2c0.4-0.1,1.2-0.1,1.9-0.1h1.8c0-0.8,0-2,0-2.6c0-1.3-0.2-1.8-1.3-1.8h-1c-0.7,0-1.2,0-1.3-0.1l0.2-1.1
		c0.2,0,0.8,0,1.5,0h0.9c1.7,0,1.9,0.8,1.9,2.4v2c0,0.3,0,0.8,0,1h0.9l-0.2,1.1h-3.9c-0.5,0-1.3,0-1.5,0L679.1,305.2z"/>
</g>
<g>
	<path d="M536.7,303.5c0-0.7,0.1-1.1,0.4-1.4c-0.5-0.1-1.2-0.2-1.5-0.3l0.2-1.1c0.5,0.2,2.6,0.5,3.4,0.6l-0.2,1.1
		c-0.3,0-0.7-0.1-0.9-0.1c-0.3,0-0.5,0.2-0.5,1c0,0.6,0.1,2.8,0.2,4.1h-0.9C536.7,305.3,536.7,304,536.7,303.5z"/>
	<path d="M543.4,303.6c0-1.2-0.1-1.7-1.3-1.7H541c-0.7,0-1.2,0-1.3-0.1l0.2-1.1c0.2,0,0.9,0,1.7,0h0.7c1.8,0,2.1,0.4,2.1,2.5v4.1
		h-0.9V303.6z"/>
	<path d="M545.7,306.3c0.4-0.1,1.2-0.1,1.9-0.1h1.8c0-0.8,0-2,0-2.6c0-1.3-0.2-1.8-1.3-1.8h-1c-0.7,0-1.2,0-1.3-0.1l0.2-1.1
		c0.2,0,0.8,0,1.5,0h0.9c1.7,0,1.9,0.8,1.9,2.4v2c0,0.3,0,0.8,0,1h0.9l-0.2,1.1H547c-0.5,0-1.3,0-1.5,0L545.7,306.3z"/>
</g>
<g>
	<path d="M724.2,594l1.1-0.1c0.1,0.3,0.2,1.2,0.6,3.4c1.2-0.3,1.4-0.8,1.4-1.6c0-0.5-0.1-1.2-0.3-1.7l1.1-0.1
		c0.1,0.4,0.2,1.1,0.3,1.6c0,1.1-0.3,2.2-2.4,2.5c0,0.1,0.2,1,0.2,1.4c0.3,0,0.7-0.1,1.3-0.2c1.5-0.3,2.4-1,2.4-3
		c0-0.8-0.2-1.7-0.4-2.3l1.2-0.1c0.1,0.4,0.3,1.2,0.3,2.1c0,2.9-1.7,3.9-3.6,4.3c-0.8,0.1-1.5,0.2-1.9,0.3
		C725.2,598.9,724.5,594.9,724.2,594z"/>
	<path d="M733.6,596.7c0-1-0.1-1.4-1.1-1.6c-0.4-0.1-0.6-0.2-0.8-0.2l0.2-1.1c0.2,0.1,0.4,0.1,0.8,0.2c1.3,0.3,1.8,0.7,1.8,2.6v3.9
		h-0.9V596.7z"/>
	<path d="M735.8,599.4c0.4-0.1,1.2-0.1,1.9-0.1h1.8c0-0.8,0-2,0-2.6c0-1.3-0.2-1.8-1.3-1.8h-1c-0.7,0-1.2,0-1.3-0.1l0.2-1.1
		c0.2,0,0.8,0,1.5,0h0.9c1.7,0,1.9,0.8,1.9,2.4v2c0,0.3,0,0.8,0,1h0.9l-0.2,1.1h-3.9c-0.5,0-1.3,0-1.5,0L735.8,599.4z"/>
	<path d="M742.3,597.6c0.5-0.8,0.8-1.4,0.8-1.8c0-0.4-0.2-0.5-0.8-0.7c-0.3-0.1-0.5-0.2-0.7-0.2l0.2-1.1c0.2,0.1,0.4,0.1,0.7,0.2
		c1.1,0.3,1.5,0.6,1.5,1.5c0,0.8-0.4,1.6-0.9,2.5L742.3,597.6z"/>
	<path d="M745.4,597.6c0.5-0.8,0.8-1.4,0.8-1.8c0-0.4-0.2-0.5-0.8-0.7c-0.3-0.1-0.5-0.2-0.7-0.2l0.2-1.1c0.2,0.1,0.4,0.1,0.7,0.2
		c1.1,0.3,1.5,0.6,1.5,1.5c0,0.8-0.4,1.6-0.9,2.5L745.4,597.6z"/>
	<path d="M752.2,596.7c0-1-0.1-1.4-1.1-1.6c-0.4-0.1-0.6-0.2-0.8-0.3l0.2-1c0.2,0.1,0.4,0.1,0.9,0.2c1.3,0.3,1.7,0.7,1.7,2.5v6.3
		h-0.9V596.7z"/>
	<path d="M754.4,599.4c0.4-0.1,1.2-0.1,1.9-0.1h1.8c0-0.8,0-2,0-2.6c0-1.3-0.2-1.8-1.3-1.8h-1c-0.7,0-1.2,0-1.3-0.1l0.2-1.1
		c0.2,0,0.8,0,1.5,0h0.9c1.7,0,1.9,0.8,1.9,2.4v2c0,0.3,0,0.8,0,1h0.9l-0.2,1.1h-3.9c-0.5,0-1.3,0-1.5,0L754.4,599.4z"/>
	<path d="M760.8,598.8c0-1.2,0.3-2.3,1.1-3.2c-0.5-0.6-1.1-1.2-1.6-1.7l0-0.1l1.3-0.1c0.6,0.6,1.5,1.6,2.8,3.2
		c0.5-0.3,0.8-0.8,0.8-1.6c0-0.5-0.1-1-0.4-1.5l1.2-0.1c0.2,0.5,0.2,0.9,0.2,1.4c0,1-0.5,1.9-1.4,2.4c0.6,0.8,1.7,2.2,2,2.8h-1.3
		c-0.4-0.6-1.4-2.1-3.2-4.1c-0.5,0.6-0.6,1.5-0.6,2.3c0,0.7,0.2,1.4,0.3,1.9h-1.2C760.9,600,760.8,599.4,760.8,598.8z"/>
</g>
<g>
	<path d="M576.5,462.2l-1.7-13.2l5.5-2.3l1.2,10.8c0.9-0.1,1.7-0.2,2.3-0.4c0.6-0.2,1-0.4,1.3-0.8c0.3-0.3,0.5-0.7,0.6-1.1
		c0.1-0.4,0.2-0.9,0.2-1.5c0-0.5,0-1.1,0-1.7v-1c0-0.5-0.1-0.9-0.2-1.2c-0.2-0.3-0.4-0.5-0.6-0.7c-0.3-0.2-0.6-0.2-0.9-0.2h-9.4
		l-0.5-3.9h10.4c2.2,0,4,0.5,5.2,1.6s1.8,2.6,1.9,4.5l0,1c0.1,1.8-0.2,3.3-0.9,4.6c-0.7,1.2-1.6,2.2-3,3c-1.3,0.8-2.9,1.4-4.8,1.7
		C581.1,461.9,578.9,462.1,576.5,462.2z"/>
	<path d="M605.6,461.9v-11.6c0-0.9-0.5-1.3-1.4-1.3h-9.4v-3.9h11.1c1.1,0,2,0.2,2.9,0.6s1.5,1,2,1.8c0.5,0.8,0.7,1.9,0.7,3.2v11.3
		H605.6z M594.7,461.9v-14.3h5.8v14.3H594.7z"/>
	<path d="M620.3,461.9v-9.5c0-0.8,0.1-1.5,0.3-2.1s0.4-1,0.7-1.3h-7.8v-3.9h15.7v3.9h-2.5c-0.2,0.5-0.4,1-0.4,1.7
		c-0.1,0.6-0.1,1.2-0.1,1.7v9.5H620.3z"/>
	<path d="M631.4,461.9l2.1-11.1l-2.6-5.7h6l2,6l-1.8,10.8H631.4z M639,461.9l0.5-3.9c1.5,0.3,2.6,0.3,3.3,0c0.7-0.3,1.2-0.8,1.5-1.6
		c0.3-0.8,0.4-1.7,0.4-2.8c0-1.1-0.1-2-0.3-2.7c-0.2-0.7-0.5-1.2-1-1.6c-0.4-0.3-1-0.5-1.7-0.5c-0.4,0-0.8,0.1-1.2,0.2
		c-0.4,0.2-0.7,0.4-1,0.7c-0.3,0.3-0.4,0.7-0.5,1.3l-1.2-2.1c0.4-1.5,1.1-2.6,2.1-3.2c0.9-0.7,2-1,3.2-1c1.2,0,2.3,0.2,3.2,0.6
		c0.9,0.4,1.7,1,2.2,1.7c0.6,0.8,1,1.7,1.3,2.8c0.3,1.1,0.4,2.4,0.4,3.8c0,2.1-0.4,3.8-1.3,5.2c-0.9,1.4-2.2,2.4-3.8,3
		C643.4,462.4,641.3,462.5,639,461.9z"/>
</g>
<g>
	<path d="M655.5,599.4c0.2,0,0.3-0.1,1-0.1h0.2c0-1.2-0.1-3.6-0.2-4.3h0c-0.2,0-0.7,0-0.9-0.1l0.2-1.1c0.4,0.1,1.2,0,1.9,0h2
		c1.8,0,2.1,0.4,2.1,2.5v4.1h-0.9v-3.7c0-1.2-0.1-1.7-1.2-1.7h-2.1c0.1,0.8,0.2,3.5,0.2,4.4l-0.2,1.1h-0.9c-0.5,0-0.9,0-1.2,0
		L655.5,599.4z"/>
	<path d="M663.3,597.6c0.5-0.8,0.8-1.4,0.8-1.8c0-0.4-0.2-0.5-0.8-0.7c-0.3-0.1-0.5-0.2-0.7-0.2l0.2-1.1c0.2,0.1,0.4,0.1,0.7,0.2
		c1.1,0.3,1.5,0.6,1.5,1.5c0,0.8-0.4,1.6-0.9,2.5L663.3,597.6z"/>
	<path d="M666.1,599.4c0.3,0,0.7,0,1.5,0h0.8v-2.7c0-1-0.1-1.3-1.2-1.6c-0.4-0.1-0.9-0.2-1-0.3l0.2-1.1c0.2,0.1,0.5,0.1,1,0.2
		c1.4,0.3,1.9,0.7,1.9,2.5v2.9l-0.2,1.1h-1.7c-0.5,0-1.3,0-1.6,0L666.1,599.4z"/>
	<path d="M671,597.6c0.5-0.8,0.8-1.4,0.8-1.8c0-0.4-0.2-0.5-0.8-0.7c-0.3-0.1-0.5-0.2-0.7-0.2l0.2-1.1c0.2,0.1,0.4,0.1,0.7,0.2
		c1.1,0.3,1.5,0.6,1.5,1.5c0,0.8-0.4,1.6-0.9,2.5L671,597.6z"/>
	<path d="M676.1,599.3c-0.4-1.3-1.6-4.1-2.5-5.4l1.3-0.1c0.7,1.2,1.7,3.6,2.1,5.2c0.9-0.4,1.4-1.2,1.4-2.6c0-0.7-0.2-1.7-0.5-2.5
		l1.2-0.1c0.1,0.4,0.3,1.3,0.3,2.3c0,1.8-0.4,3.1-2.4,4c-0.9,0.4-2.3,0.7-3.4,0.8l0.2-1.2C674.5,599.7,675.5,599.6,676.1,599.3z"/>
</g>
<g>
	<path d="M523.4,597.6c0.5-0.8,0.8-1.4,0.8-1.8c0-0.4-0.2-0.5-0.8-0.7c-0.3-0.1-0.5-0.2-0.7-0.2l0.2-1.1c0.2,0.1,0.4,0.1,0.7,0.2
		c1.1,0.3,1.5,0.6,1.5,1.5c0,0.8-0.4,1.6-0.9,2.5L523.4,597.6z"/>
	<path d="M526.8,599.3c1.6-0.5,2.8-1.7,2.8-3.4c0-0.8-0.3-0.9-0.9-0.9h-2.9v-1.7c0-0.7,0-1.6-0.2-1.9l1-0.2c0.1,0.2,0.1,1,0.1,1.9
		v0.9h2.3c1.2,0,1.5,0.6,1.5,1.7c0,2.7-2.1,4.5-4,5L526.8,599.3z"/>
	<path d="M532.5,596.8c0.2-1.2-0.3-1.7-1.1-1.8l0.2-1.1c1,0.2,1.5,0.8,1.6,1.7c0.3-0.7,1-1.7,2.3-1.7c1.9,0,2.3,1.7,2.3,4v1.5
		c0,0.1-0.1,0.9-0.2,1.1h-2.4c-0.5,0-1.1,0-1.4,0l0.2-1.1c0.3,0,0.8,0,1.5,0h1.3c0-0.5,0-1,0-1.5c0-1.5-0.2-3-1.6-3
		c-1.3,0-1.8,1.3-2,2.1c-0.2,0.8-0.4,2.3-0.7,3.4h-0.9C532.1,599.2,532.4,597.6,532.5,596.8z"/>
	<path d="M539.2,594l1.1-0.1c0.1,0.3,0.2,1.2,0.6,3.4c1.2-0.3,1.4-0.8,1.4-1.6c0-0.5-0.1-1.2-0.3-1.7l1.1-0.1
		c0.1,0.4,0.2,1.1,0.3,1.6c0,1.1-0.3,2.2-2.4,2.5c0,0.1,0.2,1,0.2,1.4c0.3,0,0.7-0.1,1.3-0.2c1.5-0.3,2.4-1,2.4-3
		c0-0.8-0.2-1.7-0.4-2.3l1.2-0.1c0.1,0.4,0.3,1.2,0.3,2.1c0,2.9-1.7,3.9-3.6,4.3c-0.8,0.1-1.5,0.2-1.9,0.3
		C540.2,598.9,539.5,594.9,539.2,594z"/>
	<path d="M547.7,596.7c0-0.8,0-1.4,0.1-1.7c-0.2,0-0.8,0-0.9-0.1l0.2-1.1c0.3,0.1,0.9,0.1,1.7,0.1h2.2c1.8,0,2.1,0.5,2.1,2.5v4h-0.9
		v-3.6c0-1.3-0.1-1.8-1.3-1.8h-2.2v5.4h-0.9V596.7z"/>
	<path d="M557.6,596.6c0-0.7,0.1-1.1,0.4-1.4c-0.5-0.1-1.2-0.2-1.5-0.3l0.2-1.1c0.5,0.2,2.6,0.5,3.4,0.6l-0.2,1.1
		c-0.3,0-0.7-0.1-0.9-0.1c-0.3,0-0.5,0.2-0.5,1c0,0.6,0.1,2.8,0.2,4.1h-0.9C557.7,598.4,557.6,597.2,557.6,596.6z"/>
	<path d="M564.4,596.7c0-1.2-0.1-1.7-1.3-1.7h-1.2c-0.7,0-1.2,0-1.3-0.1l0.2-1.1c0.2,0,0.9,0,1.7,0h0.7c1.8,0,2.1,0.4,2.1,2.5v4.1
		h-0.9V596.7z"/>
	<path d="M566.6,599.4c0.4-0.1,1.2-0.1,1.9-0.1h1.8c0-0.8,0-2,0-2.6c0-1.3-0.2-1.8-1.3-1.8h-1c-0.7,0-1.2,0-1.3-0.1l0.2-1.1
		c0.2,0,0.8,0,1.5,0h0.9c1.7,0,1.9,0.8,1.9,2.4v2c0,0.3,0,0.8,0,1h0.9l-0.2,1.1H568c-0.5,0-1.3,0-1.5,0L566.6,599.4z"/>
</g>
<g>
	<path d="M436.6,596.6c0-0.7,0.1-1.1,0.4-1.4c-0.5-0.1-1.2-0.2-1.5-0.3l0.2-1.1c0.5,0.2,2.6,0.5,3.4,0.6l-0.2,1.1
		c-0.3,0-0.7-0.1-0.9-0.1c-0.3,0-0.5,0.2-0.5,1c0,0.6,0.1,2.8,0.2,4.1h-0.9C436.7,598.4,436.6,597.2,436.6,596.6z"/>
	<path d="M443.3,596.7c0-1.2-0.1-1.7-1.3-1.7h-1.2c-0.7,0-1.2,0-1.3-0.1l0.2-1.1c0.2,0,0.9,0,1.7,0h0.7c1.8,0,2.1,0.4,2.1,2.5v4.1
		h-0.9V596.7z"/>
	<path d="M445.6,599.4c0.4-0.1,1.2-0.1,1.9-0.1h1.8c0-0.8,0-2,0-2.6c0-1.3-0.2-1.8-1.3-1.8h-1c-0.7,0-1.2,0-1.3-0.1l0.2-1.1
		c0.2,0,0.8,0,1.5,0h0.9c1.7,0,1.9,0.8,1.9,2.4v2c0,0.3,0,0.8,0,1h0.9l-0.2,1.1h-3.9c-0.5,0-1.3,0-1.5,0L445.6,599.4z"/>
</g>
<rect x="784.6" y="237.1" class="st20" width="133" height="42.8"/>
<rect x="336.4" y="237.1" class="st20" width="133" height="42.8"/>
<g>
	<g>
		<g>
			<g>
				<g>
					<polygon class="st11" points="397.6,299.5 403.1,302 408.7,299.8 402.8,312.8 					"/>
				</g>
			</g>
		</g>
	</g>
	<line class="st12" x1="403" y1="306.2" x2="403" y2="279.9"/>
</g>
<g>
	<g>
		<g>
			<g>
				<g>
					<polygon class="st11" points="845.8,299.5 851.3,302 856.9,299.7 851,312.7 					"/>
				</g>
			</g>
		</g>
	</g>
	<line class="st12" x1="851.2" y1="306.2" x2="851.2" y2="279.8"/>
</g>
<rect x="733.6" y="371.1" class="st20" width="133" height="42.8"/>
</svg>
