<?xml version="1.0" encoding="utf-8"?>
<!-- Generator: Adobe Illustrator 27.5.0, SVG Export Plug-In . SVG Version: 6.00 Build 0)  -->
<svg version="1.1" id="Layer_2" xmlns="http://www.w3.org/2000/svg" xmlns:xlink="http://www.w3.org/1999/xlink" x="0px" y="0px"
	 viewBox="0 0 1394.7 712.3" style="enable-background:new 0 0 1394.7 712.3;" xml:space="preserve">
<style type="text/css">
	.st0{fill:#FFFFFF;}
	.st1{fill:none;stroke:#45B3FF;stroke-width:5.6693;stroke-miterlimit:10;}
	.st2{fill:none;stroke:#A20900;stroke-width:5.6693;stroke-miterlimit:10;}
	.st3{fill:none;stroke:url(#SVGID_1_);stroke-width:5.6693;stroke-miterlimit:10;}
	.st4{fill:none;stroke:#31711E;stroke-width:5.6693;stroke-miterlimit:10;}
	.st5{fill:none;stroke:#000000;stroke-width:0.9416;stroke-miterlimit:10;}
	.st6{fill:#383636;}
	.st7{fill:none;stroke:#990B00;stroke-width:5.5387;stroke-miterlimit:10;}
	.st8{fill:#E8DD9F;stroke:#000000;stroke-miterlimit:10;}
	.st9{fill:#1D1D1D;}
	.st10{fill:none;stroke:#000000;stroke-width:1.4173;stroke-miterlimit:10;}
	.st11{fill:#C2B9B3;stroke:#000000;stroke-width:1.006;stroke-miterlimit:10;}
	.st12{fill:#FFFFFF;stroke:#000000;stroke-width:2.8346;stroke-miterlimit:10;}
	.st13{stroke:#000000;stroke-width:2.8346;stroke-miterlimit:10;}
	.st14{fill:none;stroke:#000000;stroke-width:2.8346;stroke-miterlimit:10;}
	.st15{fill:#5BB2FF;}
	.st16{fill:none;stroke:#000000;stroke-miterlimit:10;}
	.st17{fill:#990B00;}
	.st18{fill:#B2B2B2;stroke:#000000;stroke-width:0.8545;stroke-miterlimit:10;}
	.st19{fill:none;stroke:#000000;stroke-width:0.9324;stroke-miterlimit:10;}
	.st20{fill:#FFFFFF;stroke:#000000;stroke-miterlimit:10;}
	.st21{fill:#5BB2FF;stroke:#000000;stroke-miterlimit:10;}
	.st22{fill:#990B00;stroke:#000000;stroke-miterlimit:10;}
	.st23{fill:#E2D887;stroke:#000000;stroke-miterlimit:10;}
	.st24{fill:#FFFFFF;stroke:#000000;stroke-width:0.5713;stroke-miterlimit:10;}
	.st25{fill:none;stroke:#000000;stroke-width:1.027;stroke-miterlimit:10;}
	
		.st26{fill:none;stroke:url(#SVGID_00000021807080174870530750000009027502509136843709_);stroke-width:5.6693;stroke-miterlimit:10;}
	.st27{fill:#45B3FF;}
	.st28{fill:none;stroke:#66CC33;stroke-miterlimit:10;}
	.st29{fill:#81C65C;}
	.st30{fill:none;stroke:#33CCFF;stroke-width:0.9416;stroke-miterlimit:10;}
	.st31{fill:#70BCFF;}
	.st32{fill:#00983A;}
	.st33{fill:#FFED00;}
	.st34{fill:#A20900;}
	.st35{fill:none;stroke:#45B3FF;stroke-miterlimit:10;}
	.st36{fill:none;stroke:#A20900;stroke-miterlimit:10;}
	.st37{fill:#4D4D4D;}
	
		.st38{fill:none;stroke:url(#SVGID_00000031179965854367654850000003501512000225362872_);stroke-width:5.6693;stroke-miterlimit:10;}
	.st39{font-family:'MyriadHebrew-Regular';}
	.st40{font-size:15px;}
	.st41{fill:none;stroke:#000000;stroke-width:0.25;stroke-miterlimit:10;}
</style>
<rect x="0" class="st0" width="1394.7" height="712.3"/>
<g>
	<path class="st37" d="M1374.7,395.6h-41.9c-1.9,0-3.4,1.5-3.4,3.4v41.9c0,1.9,1.5,3.4,3.4,3.4h41.9c1.9,0,3.4-1.5,3.4-3.4V399
		C1378.1,397.1,1376.5,395.6,1374.7,395.6z M1376.9,440.9c0,1.2-1,2.3-2.3,2.3h-41.9c-1.2,0-2.3-1-2.3-2.3V399c0-1.2,1-2.3,2.3-2.3
		h41.9c1.2,0,2.3,1,2.3,2.3V440.9z"/>
	<path class="st37" d="M1353.7,399.6c-11.2,0-20.4,9.1-20.4,20.4c0,11.2,9.1,20.4,20.4,20.4c11.2,0,20.4-9.1,20.4-20.4
		C1374.1,408.7,1364.9,399.6,1353.7,399.6z M1353.7,439.2c-10.6,0-19.2-8.6-19.2-19.2c0-10.6,8.6-19.2,19.2-19.2
		c10.6,0,19.2,8.6,19.2,19.2C1372.9,430.6,1364.3,439.2,1353.7,439.2z"/>
	<path class="st37" d="M1366.4,411.7c0.2-0.2,0.2-0.6,0-0.8c-1.4-1.4-3.1-1.9-5.1-1.5c-1.5,0.3-3.1,1.1-4.5,2.4v-6.6
		c0-0.3-0.3-0.6-0.6-0.6c-3.4,0-5.8,2.9-6.1,7.4l-4.7-4.7c-0.2-0.2-0.6-0.2-0.8,0c-2.4,2.4-2,6.2,0.9,9.5h-6.6
		c-0.3,0-0.6,0.3-0.6,0.6c0,3.4,2.9,5.8,7.4,6.1l-4.7,4.7c-0.2,0.2-0.2,0.6,0,0.8c1.1,1.1,2.4,1.6,3.8,1.6c0.4,0,0.8,0,1.2-0.1
		c1.5-0.3,3.1-1.1,4.5-2.4v6.6c0,0.3,0.3,0.6,0.6,0.6c3.4,0,5.8-2.9,6.1-7.4l4.7,4.7c0.1,0.1,0.3,0.2,0.4,0.2s0.3-0.1,0.4-0.2
		c2.4-2.4,2-6.2-0.9-9.5h6.6c0.3,0,0.6-0.3,0.6-0.6c0-3.4-2.9-5.8-7.4-6.1L1366.4,411.7z M1357,413.3c1.4-1.4,3.1-2.4,4.6-2.7
		c0.3-0.1,0.7-0.1,1-0.1c1,0,1.8,0.3,2.6,0.9l-6.3,6.3c-0.4-0.9-1.1-1.7-1.9-2.3v-2C1356.9,413.3,1356.9,413.3,1357,413.3z
		 M1353.7,424.4c-2.4,0-4.4-2-4.4-4.4s2-4.4,4.4-4.4c2.4,0,4.4,2,4.4,4.4S1356.1,424.4,1353.7,424.4z M1355.7,405.8v9
		c-0.6-0.2-1.3-0.4-2-0.4c-0.4,0-0.7,0-1,0.1l-1.4-1.4c0-0.1,0-0.1,0-0.2C1351.3,409.8,1352.4,406.2,1355.7,405.8z M1345.1,408.5
		l6.3,6.3c-0.9,0.4-1.7,1.1-2.3,1.9h-2c0,0-0.1-0.1-0.1-0.1C1344.8,414.5,1343,411.1,1345.1,408.5z M1339.5,418h9
		c-0.2,0.6-0.4,1.3-0.4,2c0,0.4,0,0.7,0.1,1l-1.4,1.4c-0.1,0-0.1,0-0.2,0C1343.5,422.4,1339.9,421.2,1339.5,418z M1350.4,426.7
		c-1.4,1.4-3.1,2.4-4.6,2.7c-1.4,0.3-2.6,0-3.6-0.8l6.3-6.3c0.4,0.9,1.1,1.7,1.9,2.3v2C1350.5,426.6,1350.5,426.6,1350.4,426.7z
		 M1351.7,434.1v-9c0.6,0.2,1.3,0.4,2,0.4c0.4,0,0.7,0,1-0.1l1.4,1.4c0,0.1,0,0.1,0,0.2C1356.1,430.1,1355,433.8,1351.7,434.1z
		 M1362.3,431.4l-6.3-6.3c0.9-0.4,1.7-1.1,2.3-1.9h2c0,0,0.1,0.1,0.1,0.1C1362.6,425.4,1364.3,428.8,1362.3,431.4z M1367.9,421.9h-9
		c0.2-0.6,0.4-1.3,0.4-2c0-0.4,0-0.7-0.1-1l1.4-1.4c0.1,0,0.1,0,0.2,0C1363.9,417.5,1367.5,418.7,1367.9,421.9z"/>
</g>
<rect x="737.7" y="348.7" class="st6" width="53.4" height="19.3"/>
<rect x="739.3" y="361.8" transform="matrix(-1.836970e-16 1 -1 -1.836970e-16 1143.3491 -388.4034)" class="st6" width="53.2" height="31.3"/>
<g>
	<g>
		<path class="st2" d="M1126.7,391h74.1c6.6,0,12-5.4,12-12v-9c0-6.6-5.4-12-12-12h-74.1H860v-83.2h-62.7v-69.4"/>
		<path class="st2" d="M1200.9,424h-74.1c-6.6,0-12-5.4-12-12v-9c0-6.6,5.4-12,12-12h74.1"/>
	</g>
	<g>
		<path class="st2" d="M1126.7,424h74.1c6.6,0,12,5.4,12,12v9c0,6.6-5.4,12-12,12h-74.1"/>
		<linearGradient id="SVGID_1_" gradientUnits="userSpaceOnUse" x1="1111.8823" y1="473.5582" x2="1200.8571" y2="473.5582">
			<stop  offset="0" style="stop-color:#31711E"/>
			<stop  offset="8.553553e-02" style="stop-color:#45631A"/>
			<stop  offset="0.2457" style="stop-color:#644D15"/>
			<stop  offset="0.413" style="stop-color:#7D3D11"/>
			<stop  offset="0.5881" style="stop-color:#8E300D"/>
			<stop  offset="0.7761" style="stop-color:#99290C"/>
			<stop  offset="1" style="stop-color:#9C270B"/>
		</linearGradient>
		<path class="st3" d="M1200.9,490.1h-74.1c-6.6,0-12-5.4-12-12v-5.5V469c0-6.6,5.4-12,12-12h74.1"/>
	</g>
	<g>
		<path class="st4" d="M1126.7,490.1h74.1c6.6,0,12,5.4,12,12v9c0,6.6-5.4,12-12,12h-74.1"/>
		<path class="st4" d="M1200.9,556.1h-74.1c-6.6,0-12-5.4-12-12v-9c0-6.6,5.4-12,12-12h74.1"/>
	</g>
	<g>
		<path class="st4" d="M1126.7,556.1h74.1c6.6,0,12,5.4,12,12v9c0,6.6-5.4,12-12,12h-74.1H620.9"/>
	</g>
</g>
<g>
	<g>
		<path class="st1" d="M372.9,358h-74.1c-6.6,0-12,5.4-12,12v9c0,6.6,5.4,12,12,12h74.1"/>
		<path class="st1" d="M298.7,424h74.1c6.6,0,12-5.4,12-12v-9c0-6.6-5.4-12-12-12h-74.1"/>
	</g>
	<g>
		<path class="st1" d="M372.9,424h-74.1c-6.6,0-12,5.4-12,12v9c0,6.6,5.4,12,12,12h74.1"/>
		<path class="st1" d="M298.7,490.1h74.1c6.6,0,12-5.4,12-12v-9c0-6.6-5.4-12-12-12h-74.1"/>
	</g>
	<g>
		<path class="st1" d="M372.9,490.1h-74.1c-6.6,0-12,5.4-12,12v9c0,6.6,5.4,12,12,12h74.1"/>
		<path class="st1" d="M298.7,556.1h74.1c6.6,0,12-5.4,12-12v-9c0-6.6-5.4-12-12-12h-74.1"/>
	</g>
	<g>
		<path class="st1" d="M372.9,556.1h-74.1c-6.6,0-12,5.4-12,12v9c0,6.6,5.4,12,12,12h74.1h248"/>
	</g>
</g>
<polyline class="st1" points="372.8,358 639.5,358 639.5,274.7 702.2,274.7 702.2,205.3 "/>
<polyline class="st1" points="639.5,358 756.8,358 756.8,405.1 "/>
<polyline class="st7" points="886.4,358.2 774.4,358.2 774.4,405.4 "/>
<circle class="st8" cx="471.1" cy="298.1" r="14.4"/>
<text transform="matrix(1 0 0 1 463.4011 303.4831)" class="st39 st40">T6</text>
<g>
	<g>
		<g>
			<g>
				<g>
					<polygon class="st9" points="465.1,323.9 470.7,326 476.1,323.5 471,336.8 					"/>
				</g>
			</g>
		</g>
	</g>
	<line class="st10" x1="470.6" y1="326.2" x2="470.5" y2="312.5"/>
</g>
<path class="st11" d="M784.8,414.8v-10.7h-38.2v11c-5.5,5.1-8.9,12.4-8.9,20.5c0,15.5,12.6,28.1,28.1,28.1
	c15.5,0,28.1-12.6,28.1-28.1C794,427.3,790.5,419.9,784.8,414.8z"/>
<circle cx="765.9" cy="433.9" r="13.9"/>
<polygon class="st20" points="699.2,589.1 676.5,576 676.5,602.3 "/>
<polygon class="st20" points="705.1,589.1 727.8,576 727.8,602.3 "/>
<circle cx="702.2" cy="589.1" r="7.3"/>
<g>
	<path class="st12" d="M1075.2,469h-3.8c-6.6,0-12-66.9-12-66.9c0-6.6,5.4-12,12-12h3.8c6.6,0,12,5.4,12,12
		C1087.2,402.2,1081.8,469,1075.2,469z"/>
	<path class="st12" d="M1075.2,477.5h-3.8c-6.6,0-12,66.9-12,66.9c0,6.6,5.4,12,12,12h3.8c6.6,0,12-5.4,12-12
		C1087.2,544.3,1081.8,477.5,1075.2,477.5z"/>
	<rect x="1066.1" y="469" class="st13" width="22.6" height="8.4"/>
	<rect x="1088.7" y="447.6" class="st12" width="20.2" height="49.8"/>
</g>
<g>
	<circle class="st8" cx="1038.1" cy="473.2" r="14.4"/>
	<text transform="matrix(1 0 0 1 1030.533 479.24)" class="st39 st40">T4</text>
	<g>
		<g>
			<g>
				<g>
					<g>
						<polygon class="st9" points="1012.3,467.5 1010.2,473.1 1012.7,478.6 999.4,473.5 						"/>
					</g>
				</g>
			</g>
		</g>
		<line class="st10" x1="1010" y1="473.1" x2="1023.7" y2="473"/>
	</g>
</g>
<g>
	<circle class="st8" cx="1277.4" cy="473.2" r="14.4"/>
	<text transform="matrix(1 0 0 1 1269.8723 479.24)" class="st39 st40">T3</text>
	<g>
		<g>
			<g>
				<g>
					<g>
						<polygon class="st9" points="1251.7,467.5 1249.5,473.1 1252,478.6 1238.7,473.5 						"/>
					</g>
				</g>
			</g>
		</g>
		<line class="st10" x1="1249.3" y1="473.1" x2="1263.1" y2="473"/>
	</g>
</g>
<g>
	<circle class="st8" cx="1023.7" cy="630.1" r="14.4"/>
	<text transform="matrix(1 0 0 1 1016.0532 635.9033)" class="st39 st40">T5</text>
	<g>
		<g>
			<g>
				<g>
					<g>
						<polygon class="st9" points="1028.8,604.7 1023.3,602.2 1017.7,604.3 1023.7,591.4 						"/>
					</g>
				</g>
			</g>
		</g>
		<line class="st10" x1="1023.3" y1="602" x2="1023.2" y2="615.7"/>
	</g>
</g>
<g>
	<circle class="st8" cx="659.9" cy="544.3" r="14.4"/>
	<text transform="matrix(1 0 0 1 652.3411 550.1391)" class="st39 st40">T9</text>
	<g>
		<g>
			<g>
				<g>
					<g>
						<polygon class="st9" points="653.9,570.1 659.5,572.2 665,569.7 659.9,583 						"/>
					</g>
				</g>
			</g>
		</g>
		<line class="st10" x1="659.4" y1="572.4" x2="659.4" y2="558.7"/>
	</g>
</g>
<polygon points="704.5,522.7 700,540.2 707.4,536.4 706.1,546.3 708.9,546.3 711.8,530.8 704.3,535.2 707.9,522.7 "/>
<g>
	<g>
		<g>
			<g>
				<polygon class="st9" points="701.7,543.3 707.3,545.4 712.8,542.9 707.7,556.2 				"/>
			</g>
		</g>
	</g>
</g>
<circle class="st20" cx="822.2" cy="589.1" r="14.4"/>
<circle cx="822.2" cy="589.1" r="7.3"/>
<rect x="867.1" y="571.4" class="st20" width="66" height="35.5"/>
<rect x="867.1" y="571.4" class="st24" width="21.6" height="35.5"/>
<g>
	<g>
		<line class="st5" x1="1129.3" y1="347.7" x2="1129.3" y2="595.5"/>
		<line class="st5" x1="1132.8" y1="347.7" x2="1132.8" y2="595.5"/>
		<line class="st5" x1="1136.3" y1="347.7" x2="1136.3" y2="595.5"/>
		<line class="st5" x1="1139.8" y1="347.7" x2="1139.8" y2="595.5"/>
		<line class="st5" x1="1143.4" y1="347.7" x2="1143.4" y2="595.5"/>
		<line class="st5" x1="1146.9" y1="347.7" x2="1146.9" y2="595.5"/>
		<line class="st5" x1="1150.4" y1="347.7" x2="1150.4" y2="595.5"/>
		<line class="st5" x1="1153.9" y1="347.7" x2="1153.9" y2="595.5"/>
		<line class="st5" x1="1157.5" y1="347.7" x2="1157.5" y2="595.5"/>
		<line class="st5" x1="1161" y1="347.7" x2="1161" y2="595.5"/>
		<line class="st5" x1="1164.5" y1="347.7" x2="1164.5" y2="595.5"/>
		<line class="st5" x1="1168" y1="347.7" x2="1168" y2="595.5"/>
		<line class="st5" x1="1171.5" y1="347.7" x2="1171.5" y2="595.5"/>
		<line class="st5" x1="1175.1" y1="347.7" x2="1175.1" y2="595.5"/>
		<line class="st5" x1="1178.6" y1="347.7" x2="1178.6" y2="595.5"/>
		<line class="st5" x1="1182.1" y1="347.7" x2="1182.1" y2="595.5"/>
		<line class="st5" x1="1185.6" y1="347.7" x2="1185.6" y2="595.5"/>
		<line class="st5" x1="1189.2" y1="347.7" x2="1189.2" y2="595.5"/>
		<line class="st5" x1="1192.7" y1="347.7" x2="1192.7" y2="595.5"/>
		<line class="st5" x1="1196.2" y1="347.7" x2="1196.2" y2="595.5"/>
		<line class="st5" x1="1199.7" y1="347.7" x2="1199.7" y2="595.5"/>
		<line class="st5" x1="1203.3" y1="347.7" x2="1203.3" y2="595.5"/>
		<line class="st5" x1="1206.8" y1="347.7" x2="1206.8" y2="595.5"/>
		<line class="st5" x1="1210.3" y1="347.7" x2="1210.3" y2="595.5"/>
	</g>
	<rect x="1126.7" y="347.7" class="st5" width="86.1" height="247.7"/>
</g>
<g>
	<path class="st34" d="M1103.1,286.8v-11.6c0-0.4-0.1-0.8-0.4-1c-0.2-0.2-0.6-0.3-1.1-0.3h-6.5V270h8.2c1.1,0,2,0.2,2.9,0.6
		c0.8,0.4,1.5,1,2,1.8c0.5,0.8,0.7,1.9,0.7,3.2v11.3H1103.1z"/>
	<path class="st34" d="M1112,280.7v-2.7v-4.6l-0.4-3.4h5.8l0.4,3.4v4.6l0,1.8L1112,280.7z"/>
	<path class="st34" d="M1120.9,286.8v-13.4l-0.4-3.4h5.8l0.4,3.4v13.4H1120.9z"/>
	<path class="st34" d="M1129.7,286.8v-13.4l-0.4-3.4h5.8l0.4,3.4v13.4H1129.7z"/>
	<path class="st34" d="M1156.9,286.8h-6.1l-5.3-7.6l-2.5,7.6h-5.5l3.6-9.9l1-2.4l-3-4.5h5.8l2.4,3.6l1.9,2.7l0.9-2.8l0.9-3.5h5.5
		l-4,10.8L1156.9,286.8z"/>
	<path class="st34" d="M1165.4,286.8v-8l0.8-1.9h5v1.9v8H1165.4z M1175.9,286.8v-11.6c0-0.4-0.1-0.8-0.4-1c-0.2-0.2-0.6-0.3-1.1-0.3
		h-8.8V270h10.5c1.1,0,2,0.2,2.9,0.6c0.8,0.4,1.5,1,2,1.8c0.5,0.8,0.7,1.9,0.7,3.2v11.3H1175.9z"/>
	<path class="st34" d="M1191.8,286.8v-11.6c0-0.4-0.1-0.8-0.4-1c-0.2-0.2-0.6-0.3-1.1-0.3h-6.6V270h8.2c1.1,0,2,0.2,2.9,0.6
		c0.8,0.4,1.5,1,2,1.8c0.5,0.8,0.7,1.9,0.7,3.2v11.3H1191.8z M1183.8,286.8V283h15.9v3.9H1183.8z"/>
	<path class="st34" d="M1201.1,288.1l-0.8-4.1l8.4-1.4c0.9-0.2,1.7-0.4,2.2-0.9s0.9-1,1.2-1.6s0.4-1.5,0.5-2.5s0.1-2.1,0.1-3.3
		c0-1.3,0-2.7,0-4.2h5.7c0,1.8,0,3.4-0.1,4.9c-0.1,1.5-0.2,2.9-0.5,4.2c-0.3,1.3-0.8,2.4-1.4,3.4c-0.7,1-1.6,1.9-2.8,2.6
		c-1.2,0.7-2.8,1.2-4.8,1.6L1201.1,288.1z M1205.2,283.8l-3.5-13.7h5.8l3.3,13.7H1205.2z"/>
	<path class="st34" d="M1220.8,286.8l2.1-11.1l-2.6-5.7h6l2,6l-1.8,10.8H1220.8z M1228.4,286.9l0.5-3.9c1.5,0.3,2.6,0.3,3.3,0
		c0.7-0.3,1.2-0.8,1.5-1.6c0.3-0.8,0.4-1.7,0.4-2.8c0-1.1-0.1-2-0.3-2.7c-0.2-0.7-0.5-1.2-1-1.6c-0.4-0.3-1-0.5-1.7-0.5
		c-0.4,0-0.8,0.1-1.2,0.2c-0.4,0.2-0.7,0.4-1,0.7c-0.3,0.3-0.4,0.7-0.5,1.3l-1.2-2.1c0.4-1.5,1.1-2.6,2.1-3.2c0.9-0.7,2-1,3.2-1
		c1.2,0,2.3,0.2,3.2,0.6c0.9,0.4,1.7,1,2.2,1.7c0.6,0.8,1,1.7,1.3,2.8c0.3,1.1,0.4,2.4,0.4,3.8c0,2.1-0.4,3.8-1.3,5.2
		c-0.9,1.4-2.2,2.4-3.8,3C1232.8,287.4,1230.8,287.4,1228.4,286.9z"/>
</g>
<g>
	<path d="M1234.1,409.3l-0.5-3.5c0.8-0.1,1.4-0.2,1.8-0.4c0.4-0.2,0.6-0.4,0.7-0.8s0.2-0.8,0.2-1.5V392h10.7c1.1,0,2,0.2,2.9,0.6
		c0.8,0.4,1.5,1,2,1.8c0.5,0.8,0.7,1.9,0.7,3.2v11.3h-5.8v-11.6c0-0.4-0.1-0.8-0.4-1c-0.2-0.2-0.6-0.3-1.1-0.3h-3.2v6.6
		c0,1.7-0.3,3-0.8,3.9c-0.6,0.9-1.4,1.6-2.6,2.1C1237.4,408.9,1235.9,409.2,1234.1,409.3z"/>
	<path d="M1257.2,409.1l-1.7-13.2l5.5-2.3l1.2,10.8c0.9-0.1,1.7-0.2,2.3-0.4c0.6-0.2,1-0.4,1.3-0.8c0.3-0.3,0.5-0.7,0.6-1.1
		c0.1-0.4,0.2-0.9,0.2-1.5c0-0.5,0-1.1,0-1.7v-1c0-0.5-0.1-0.9-0.2-1.2c-0.2-0.3-0.4-0.5-0.6-0.7c-0.3-0.2-0.6-0.2-0.9-0.2h-9.4
		l-0.5-3.9h10.4c2.2,0,4,0.5,5.2,1.6c1.2,1.1,1.8,2.6,1.9,4.5l0,1c0.1,1.8-0.2,3.3-0.9,4.6c-0.7,1.2-1.6,2.2-3,3
		c-1.3,0.8-2.9,1.4-4.8,1.7S1259.7,409,1257.2,409.1z"/>
	<path d="M1275.5,402.7V400v-4.6l-0.4-3.4h5.8l0.4,3.4v4.6l0,1.8L1275.5,402.7z"/>
	<path d="M1283.8,408.8v-3.9h4.2v-7.7c0-0.6-0.1-1-0.4-1.2c-0.2-0.2-0.6-0.3-1-0.3l-2.3-0.3l0.7-3.8l4.7,0.5c1.3,0.1,2.3,0.7,3,1.6
		c0.7,0.9,1,2,1,3.4v11.7H1283.8z"/>
	<path d="M1295.8,408.8v-3.9h5.6c0.7,0,1.3-0.2,1.7-0.5s0.7-0.7,0.8-1.2c0.2-0.5,0.2-1,0.2-1.6v-2.3c0-0.6-0.1-1.1-0.2-1.6
		c-0.2-0.5-0.4-0.9-0.8-1.2c-0.4-0.3-1-0.5-1.7-0.5h-5.6V392h7.2c1.6,0,2.9,0.3,3.9,1c1,0.6,1.8,1.5,2.3,2.7
		c0.5,1.1,0.7,2.4,0.7,3.9v1.8c0,1.5-0.2,2.7-0.7,3.9c-0.5,1.1-1.3,2-2.3,2.7c-1,0.6-2.3,1-3.9,1H1295.8z"/>
	<path d="M1249,443.6V432c0-0.4-0.1-0.8-0.4-1c-0.2-0.2-0.6-0.3-1.1-0.3h-6.5v-3.9h8.2c1.1,0,2,0.2,2.9,0.6c0.8,0.4,1.5,1,2,1.8
		c0.5,0.8,0.7,1.9,0.7,3.2v11.3H1249z"/>
	<path d="M1257.9,437.5v-2.7v-4.6l-0.4-3.4h5.8l0.4,3.4v4.6l0,1.8L1257.9,437.5z"/>
	<path d="M1266.8,443.6v-13.4l-0.4-3.4h5.8l0.4,3.4v13.4H1266.8z"/>
	<path d="M1275.7,443.6v-13.4l-0.4-3.4h5.8l0.4,3.4v13.4H1275.7z"/>
	<path d="M1302.8,443.6h-6.1l-5.3-7.6l-2.5,7.6h-5.5l3.6-9.9l1-2.4l-3-4.5h5.8l2.4,3.6l1.9,2.7l0.9-2.8l0.9-3.5h5.5l-4,10.8
		L1302.8,443.6z"/>
</g>
<g>
	<path d="M915.3,463.5l-0.5-3.5c0.8-0.1,1.4-0.2,1.8-0.4c0.4-0.2,0.6-0.4,0.7-0.8s0.2-0.8,0.2-1.5v-11.2h10.7c1.1,0,2,0.2,2.9,0.6
		c0.8,0.4,1.5,1,2,1.8c0.5,0.8,0.7,1.9,0.7,3.2V463h-5.8v-11.6c0-0.4-0.1-0.8-0.4-1c-0.2-0.2-0.6-0.3-1.1-0.3h-3.2v6.6
		c0,1.7-0.3,3-0.8,3.9c-0.6,0.9-1.4,1.6-2.6,2.1C918.6,463.1,917.1,463.4,915.3,463.5z"/>
	<path d="M955,463h-6.1l-5.3-7.6l-2.5,7.6h-5.5l3.6-9.9l1-2.4l-3-4.5h5.8l2.4,3.6l1.9,2.7l0.9-2.8l0.9-3.5h5.5l-4,10.8L955,463z"/>
	<path d="M957.5,456.9v-2.7v-4.6l-0.4-3.4h5.8l0.4,3.4v4.6l0,1.8L957.5,456.9z"/>
	<path d="M965.5,463v-3.9h13.1l1.7,3.9H965.5z M975.8,463l-10.1-16.8h5.8l10.1,16.8H975.8z M977.5,456.6l-3.3-4.4l2.6-6h5.7
		L977.5,456.6z"/>
	<path d="M984.9,456.9v-2.7v-4.6l-0.4-3.4h5.8l0.4,3.4v4.6l0,1.8L984.9,456.9z"/>
	<path d="M930.3,497.8v-11.6c0-0.4-0.1-0.8-0.4-1c-0.2-0.2-0.6-0.3-1.1-0.3h-6.5V481h8.2c1.1,0,2,0.2,2.9,0.6c0.8,0.4,1.5,1,2,1.8
		c0.5,0.8,0.7,1.9,0.7,3.2v11.3H930.3z"/>
	<path d="M939.2,491.7V489v-4.6l-0.4-3.4h5.8l0.4,3.4v4.6l0,1.8L939.2,491.7z"/>
	<path d="M948,497.8v-13.4l-0.4-3.4h5.8l0.4,3.4v13.4H948z"/>
	<path d="M956.9,497.8v-13.4l-0.4-3.4h5.8l0.4,3.4v13.4H956.9z"/>
	<path d="M984,497.8h-6.1l-5.3-7.6l-2.5,7.6h-5.5l3.6-9.9l1-2.4l-3-4.5h5.8l2.4,3.6l1.9,2.7l0.9-2.8l0.9-3.5h5.5l-4,10.8L984,497.8z
		"/>
</g>
<ellipse class="st20" cx="472.4" cy="366.7" rx="14.4" ry="5.4"/>
<path class="st25" d="M472.4,372.1c-5.2,17.7,2.8,28.8,6.8,31.7c14.5,10.7,31.6-6.6,97.6-7.3c26.3-0.3,31,2.5,33,3.9
	c34.4,23.6,0.5,149.7-11.7,188.5"/>
<g>
	<polygon class="st20" points="597.3,588.9 574.5,575.8 574.5,602.1 	"/>
	<polygon class="st20" points="598.1,588.9 620.9,575.8 620.9,602.1 	"/>
</g>
<g>
	<polygon class="st20" points="828.7,358.5 805.9,345.3 805.9,371.6 	"/>
	<polygon class="st20" points="834.5,358.5 857.3,345.3 857.3,371.6 	"/>
	<circle cx="831.6" cy="358.5" r="7.3"/>
</g>
<g>
	<polygon class="st20" points="694.5,358.2 671.7,345.1 671.7,371.4 	"/>
	<polygon class="st20" points="700.3,358.2 723.1,345.1 723.1,371.4 	"/>
	<circle cx="697.7" cy="358.5" r="7.3"/>
</g>
<g>
	<g>
		<path d="M1117.6,682.7h5.9v1.9h-5.9V682.7z"/>
		<path d="M1128.1,687.6c0-1.8-0.2-2.5-2-2.9c-0.8-0.2-1.2-0.3-1.6-0.4l0.4-1.8c0.3,0.1,0.8,0.2,1.6,0.3c2.6,0.5,3.4,1.3,3.4,4.5
			v6.9h-1.8V687.6z"/>
		<path d="M1132.2,682.8l2.2-0.2c0.6,2.5,1.2,5.9,1.8,9.7c0.4,0,1-0.1,1.9-0.2c2.6-0.4,4-2.1,4-4.5c0-2-1.1-3.1-2.9-3.2
			c-0.9,0-1.5,0.2-2.1,0.4l0.4-2c0.7-0.3,1.3-0.3,2.1-0.3c2.9,0,4.3,2.1,4.3,4.7c0,4.5-3.3,6.1-5.8,6.6c-1.3,0.3-2.7,0.4-3.4,0.4
			C1134,690.6,1133.2,686.1,1132.2,682.8z"/>
		<path d="M1152.5,687.6c0-2.1-0.3-3-2.4-3h-2.3c-1.4,0-2.2,0-2.6-0.1l0.4-1.9c0.5,0.1,1.6,0.1,3.2,0.1h1.4c3.4,0,4,0.7,4,4.3v7.1
			h-1.8V687.6z"/>
		<path d="M1157.2,692.3c0.6-0.1,2.1-0.1,3.5-0.1h5v-3.8c0-2.3-0.8-3.2-3.7-3.6c-1-0.2-2-0.3-2.6-0.4c-0.4,0.7-0.6,1.2-0.6,1.7
			c0,0.8,0.6,1.3,2.2,1.5l-0.5,1.8c-2.6-0.3-3.4-1.4-3.4-2.9c0-1.3,1-2.9,1.5-4.1c0.4,0.1,1.6,0.3,3.6,0.5c3.5,0.4,5.2,1.4,5.2,5.1
			v4.3c0,0.2-0.2,1.5-0.3,1.8h-7.2c-1.2,0-2.6,0-3.1,0.1L1157.2,692.3z"/>
		<path d="M1171.7,687.7c0.3-2.1-0.6-2.9-2.1-3.2l0.4-2c1.8,0.3,3,1.3,3.2,3c0.5-1.3,1.9-2.9,4.5-2.9c3.6,0,4.5,3,4.5,7.1v2.7
			c0,0.2-0.3,1.6-0.3,1.9h-4.6c-0.9,0-2.1,0-2.6,0.1l0.4-1.9c0.5-0.1,1.6-0.1,2.8-0.1h2.4c0-0.9,0-1.7,0-2.6c0-2.6-0.4-5.2-3.1-5.2
			c-2.6,0-3.5,2.3-3.8,3.7c-0.4,1.4-0.9,3.9-1.3,6h-1.8C1170.9,692,1171.4,689.3,1171.7,687.7z"/>
		<path d="M1184.4,682.8l2.2-0.2c0.6,2.5,1.2,5.9,1.8,9.7c0.4,0,1-0.1,1.9-0.2c2.6-0.4,4-2.1,4-4.5c0-2-1.1-3.1-2.9-3.2
			c-0.9,0-1.5,0.2-2.1,0.4l0.4-2c0.7-0.3,1.3-0.3,2.1-0.3c2.9,0,4.3,2.1,4.3,4.7c0,4.5-3.3,6.1-5.8,6.6c-1.3,0.3-2.7,0.4-3.4,0.4
			C1186.2,690.6,1185.4,686.1,1184.4,682.8z"/>
		<path d="M1202.3,684.5l0.4-1.9c0.5,0.1,1.6,0.1,3.2,0.1h6.8l-0.4,1.9h-0.9c-0.7,0-0.9,0.4-0.9,2c0,2.5,0.1,5.5,0.2,7.6h-1.8
			c0-1.4-0.2-4.9-0.2-7.2c0-1.4,0.2-1.9,0.5-2.3h-4.3C1203.5,684.6,1202.6,684.6,1202.3,684.5z"/>
		<path d="M1215.9,687.7c0.3-2.1-0.6-2.9-2.1-3.2l0.4-2c1.8,0.3,3,1.3,3.2,3c0.5-1.3,1.9-2.9,4.5-2.9c3.6,0,4.5,3,4.5,7.1v2.7
			c0,0.2-0.3,1.6-0.3,1.9h-4.6c-0.9,0-2.1,0-2.6,0.1l0.4-1.9c0.5-0.1,1.6-0.1,2.8-0.1h2.4c0-0.9,0-1.7,0-2.6c0-2.6-0.4-5.2-3.1-5.2
			c-2.6,0-3.5,2.3-3.8,3.7c-0.4,1.4-0.9,3.9-1.3,6h-1.8C1215.1,692,1215.7,689.3,1215.9,687.7z"/>
	</g>
	<g>
		<g>
			<path class="st16" d="M1179.6,623h-19.7c-2.1,0-3.8,1.7-3.8,3.8v39.1c0,2.1,1.7,3.8,3.8,3.8h19.7c2.1,0,3.8-1.7,3.8-3.8v-39.1
				C1183.4,624.7,1181.7,623,1179.6,623z M1181.3,665.9c0,0.9-0.8,1.7-1.7,1.7h-19.7c-0.9,0-1.7-0.8-1.7-1.7v-39.1
				c0-0.9,0.8-1.7,1.7-1.7h19.7c0.9,0,1.7,0.8,1.7,1.7V665.9z"/>
			<g>
				<path d="M1161.8,655.9h2.8c0.6,0,1-0.5,1-1c0-0.6-0.5-1-1-1h-2.8c-0.6,0-1,0.5-1,1C1160.8,655.4,1161.3,655.9,1161.8,655.9z"/>
				<path d="M1168.4,655.9h2.8c0.6,0,1-0.5,1-1c0-0.6-0.5-1-1-1h-2.8c-0.6,0-1,0.5-1,1C1167.3,655.4,1167.8,655.9,1168.4,655.9z"/>
				<path d="M1177.7,653.8h-2.8c-0.6,0-1,0.5-1,1c0,0.6,0.5,1,1,1h2.8c0.6,0,1-0.5,1-1C1178.8,654.3,1178.3,653.8,1177.7,653.8z"/>
			</g>
			<g>
				<path d="M1168.4,660.4h2.8c0.6,0,1-0.5,1-1c0-0.6-0.5-1-1-1h-2.8c-0.6,0-1,0.5-1,1C1167.3,660,1167.8,660.4,1168.4,660.4z"/>
			</g>
			<g>
				<path class="st32" d="M1161.8,651.4h2.8c0.6,0,1-0.5,1-1c0-0.6-0.5-1-1-1h-2.8c-0.6,0-1,0.5-1,1
					C1160.8,650.9,1161.3,651.4,1161.8,651.4z"/>
				<path d="M1177.7,649.3h-2.8c-0.6,0-1,0.5-1,1c0,0.6,0.5,1,1,1h2.8c0.6,0,1-0.5,1-1C1178.8,649.8,1178.3,649.3,1177.7,649.3z"/>
				<path class="st33" d="M1168.4,651.3h2.8c0.6,0,1-0.5,1-1c0-0.6-0.5-1-1-1h-2.8c-0.6,0-1,0.5-1,1
					C1167.4,650.8,1167.9,651.3,1168.4,651.3z"/>
			</g>
			<g>
				<path d="M1161.8,665h2.8c0.6,0,1-0.5,1-1c0-0.6-0.5-1-1-1h-2.8c-0.6,0-1,0.5-1,1C1160.8,664.6,1161.3,665,1161.8,665z"/>
				<path d="M1177.7,662.9h-2.8c-0.6,0-1,0.5-1,1c0,0.6,0.5,1,1,1h2.8c0.6,0,1-0.5,1-1C1178.8,663.4,1178.3,662.9,1177.7,662.9z"/>
				<path d="M1168.4,664.9h2.8c0.6,0,1-0.5,1-1s-0.5-1-1-1h-2.8c-0.6,0-1,0.5-1,1S1167.9,664.9,1168.4,664.9z"/>
			</g>
			<path class="st16" d="M1172.3,641h-5.1c-3.6,0-6.5-2.9-6.5-6.5v-0.7c0-3.6,2.9-6.5,6.5-6.5h5.1c3.6,0,6.5,2.9,6.5,6.5v0.7
				C1178.8,638.1,1175.9,641,1172.3,641z"/>
			<g>
				<path d="M1165.9,635.4c-0.2,0-0.4,0-0.6-0.1s-0.3-0.1-0.4-0.2c-0.1-0.1-0.2-0.2-0.4-0.2l0.4-0.6c0.1,0.1,0.2,0.2,0.4,0.2
					c0.1,0.1,0.3,0.1,0.4,0.1c0.1,0,0.2,0,0.3,0c0.1,0,0.1-0.1,0.2-0.1c0-0.1,0.1-0.1,0.1-0.2c0-0.1,0-0.3-0.1-0.3s-0.2-0.1-0.4-0.1
					c-0.1,0-0.2,0-0.2,0c-0.1,0-0.2,0.1-0.3,0.1l-0.4-0.3l0.1-1.7h2.2v0.8h-1.3l0,0.5c0.1,0,0.1,0,0.2,0c0.1,0,0.1,0,0.2,0
					c0.2,0,0.4,0,0.6,0.1s0.3,0.2,0.4,0.3c0.1,0.2,0.2,0.4,0.2,0.6c0,0.3-0.1,0.5-0.2,0.6c-0.1,0.2-0.3,0.3-0.5,0.4
					C1166.4,635.4,1166.2,635.4,1165.9,635.4z"/>
				<path d="M1167.8,635.4v-0.5c0.3-0.2,0.6-0.5,0.8-0.7c0.2-0.2,0.4-0.4,0.6-0.6c0.1-0.2,0.2-0.3,0.2-0.5c0-0.2,0-0.3-0.1-0.3
					c-0.1-0.1-0.2-0.1-0.3-0.1c-0.1,0-0.2,0-0.3,0.1c-0.1,0.1-0.2,0.1-0.3,0.2l-0.5-0.5c0.2-0.2,0.4-0.3,0.6-0.4s0.4-0.1,0.7-0.1
					c0.3,0,0.5,0,0.7,0.1c0.2,0.1,0.3,0.2,0.5,0.4c0.1,0.2,0.2,0.4,0.2,0.6c0,0.2-0.1,0.4-0.2,0.6c-0.1,0.2-0.2,0.4-0.4,0.6
					c-0.2,0.2-0.3,0.3-0.5,0.5c0.1,0,0.2,0,0.3,0c0.1,0,0.2,0,0.3,0h0.6v0.8H1167.8z"/>
				<path d="M1171.7,635.4c-0.2,0-0.3-0.1-0.4-0.2c-0.1-0.1-0.2-0.2-0.2-0.4c0-0.2,0.1-0.3,0.2-0.4c0.1-0.1,0.3-0.2,0.4-0.2
					c0.2,0,0.3,0.1,0.4,0.2c0.1,0.1,0.2,0.2,0.2,0.4c0,0.2-0.1,0.3-0.2,0.4C1172.1,635.4,1171.9,635.4,1171.7,635.4z"/>
				<path d="M1174.3,635.4c-0.4,0-0.7-0.2-1-0.5c-0.3-0.3-0.4-0.7-0.4-1.3s0.1-1,0.4-1.3c0.3-0.3,0.6-0.4,1-0.4s0.7,0.1,1,0.4
					c0.3,0.3,0.4,0.7,0.4,1.3c0,0.6-0.1,1-0.4,1.3C1175,635.3,1174.7,635.4,1174.3,635.4z M1174.3,634.7c0.1,0,0.2,0,0.2-0.1
					c0.1-0.1,0.1-0.2,0.2-0.3c0-0.2,0.1-0.4,0.1-0.7s0-0.5-0.1-0.7c0-0.1-0.1-0.2-0.2-0.3c-0.1,0-0.1-0.1-0.2-0.1
					c-0.1,0-0.2,0-0.2,0.1c-0.1,0-0.1,0.1-0.2,0.3c0,0.1-0.1,0.4-0.1,0.7s0,0.5,0.1,0.7c0,0.2,0.1,0.3,0.2,0.3
					C1174.1,634.7,1174.2,634.7,1174.3,634.7z"/>
			</g>
			<g>
				<rect x="1165.9" y="619.2" class="st34" width="2.7" height="3.4"/>
				<rect x="1171" y="619.2" class="st27" width="2.7" height="3.4"/>
			</g>
		</g>
		<path class="st35" d="M1172.3,619.2c15.4-32.7-300.5-98.9-337.9-105.8C686.2,486,532,288.4,472,344.5"/>
		<path class="st36" d="M1168.6,619.2c-48.3-30.1-76.1-64.4-146.7-37.8"/>
	</g>
</g>
<g>
	<circle class="st8" cx="42.1" cy="533.1" r="14.4"/>
	<text transform="matrix(1 0 0 1 34.5268 537.9075)" class="st39 st40">T2</text>
	<g>
		<g>
			<g>
				<g>
					<g>
						<polygon class="st9" points="67.5,538.4 70,533 67.9,527.3 80.8,533.3 						"/>
					</g>
				</g>
			</g>
		</g>
		<line class="st10" x1="70.2" y1="532.9" x2="56.5" y2="532.8"/>
	</g>
</g>
<g>
	<circle class="st8" cx="42.1" cy="405.9" r="14.4"/>
	<text transform="matrix(1 0 0 1 34.5268 410.7512)" class="st39 st40">T1</text>
	<g>
		<g>
			<g>
				<g>
					<g>
						<polygon class="st9" points="67.5,411.3 70,405.8 67.9,400.2 80.8,406.2 						"/>
					</g>
				</g>
			</g>
		</g>
		<line class="st10" x1="70.2" y1="405.7" x2="56.5" y2="405.7"/>
	</g>
</g>
<g>
	<path class="st27" d="M302.6,265v-19.2l-0.4-3.4h5.8l0.4,3.4V265H302.6z"/>
	<path class="st27" d="M310.9,259.2v-3.9h4.2v-7.7c0-0.6-0.1-1-0.4-1.2c-0.2-0.2-0.6-0.3-1-0.3l-2.3-0.3l0.7-3.8l4.7,0.5
		c1.3,0.1,2.3,0.7,3,1.6c0.7,0.9,1,2,1,3.4v11.7H310.9z"/>
	<path class="st27" d="M323.1,259.2v-3.9h13.1l1.7,3.9H323.1z M333.4,259.2l-10.1-16.8h5.8l10.1,16.8H333.4z M335.1,252.8l-3.3-4.4
		l2.6-6h5.7L335.1,252.8z"/>
	<path class="st27" d="M342.1,259.2l2.1-11.1l-2.6-5.7h6l2,6l-1.8,10.8H342.1z M349.7,259.2l0.5-3.9c1.5,0.3,2.6,0.3,3.3,0
		c0.7-0.3,1.2-0.8,1.5-1.6c0.3-0.8,0.4-1.7,0.4-2.8c0-1.1-0.1-2-0.3-2.7c-0.2-0.7-0.5-1.2-1-1.6c-0.4-0.3-1-0.5-1.7-0.5
		c-0.4,0-0.8,0.1-1.2,0.2c-0.4,0.2-0.7,0.4-1,0.7c-0.3,0.3-0.4,0.7-0.5,1.3l-1.2-2.1c0.4-1.5,1.1-2.6,2.1-3.2c0.9-0.7,2-1,3.2-1
		c1.2,0,2.3,0.2,3.2,0.6c0.9,0.4,1.7,1,2.2,1.7c0.6,0.8,1,1.7,1.3,2.8c0.3,1.1,0.4,2.4,0.4,3.8c0,2.1-0.4,3.8-1.3,5.2
		c-0.9,1.4-2.2,2.4-3.8,3C354.1,259.7,352.1,259.7,349.7,259.2z"/>
	<path class="st27" d="M260.2,299.2c-1.3-2-2.4-4.1-3.1-6.2c-0.7-2.1-1.1-4.5-1.1-7c0-2.6,0.4-4.9,1.1-7.1c0.7-2.2,1.8-4.2,3.1-6.2
		l3.4,1.3c-1.1,1.9-2,3.8-2.5,5.9c-0.5,2.1-0.8,4.1-0.8,6.1c0,2,0.3,4,0.8,6.1c0.5,2.1,1.3,4,2.5,5.9L260.2,299.2z"/>
	<path class="st27" d="M266.6,294v-13.7v-3.1h5.8v3.4V294H266.6z M267.7,294v-3.9H281v3.9H267.7z M277.3,294v-11.6
		c0-0.4-0.1-0.8-0.4-1c-0.2-0.2-0.6-0.3-1.1-0.3h-5.6v-3.9h7.2c1.1,0,2,0.2,2.9,0.6c0.8,0.4,1.5,1,2,1.8c0.5,0.8,0.7,1.9,0.7,3.2
		v8.1v3.2H277.3z"/>
	<path class="st27" d="M286,287.9v-2.7v-4.6l-0.4-3.4h5.8l0.4,3.4v4.6l0,1.8L286,287.9z"/>
	<path class="st27" d="M294.5,294l2.1-11.1l-2.6-5.7h6l2,6l-1.8,10.8H294.5z M302.1,294l0.5-3.9c1.5,0.3,2.6,0.3,3.3,0
		c0.7-0.3,1.2-0.8,1.5-1.6c0.3-0.8,0.4-1.7,0.4-2.8c0-1.1-0.1-2-0.3-2.7c-0.2-0.7-0.5-1.2-1-1.6c-0.4-0.3-1-0.5-1.7-0.5
		c-0.4,0-0.8,0.1-1.2,0.2c-0.4,0.2-0.7,0.4-1,0.7c-0.3,0.3-0.4,0.7-0.5,1.3l-1.2-2.1c0.4-1.5,1.1-2.6,2.1-3.2c0.9-0.7,2-1,3.2-1
		c1.2,0,2.3,0.2,3.2,0.6c0.9,0.4,1.7,1,2.2,1.7c0.6,0.8,1,1.7,1.3,2.8c0.3,1.1,0.4,2.4,0.4,3.8c0,2.1-0.4,3.8-1.3,5.2
		c-0.9,1.4-2.2,2.4-3.8,3C306.5,294.5,304.4,294.5,302.1,294z"/>
	<path class="st27" d="M328.4,294v-9.5c0-0.8,0.1-1.5,0.3-2.1s0.4-1,0.7-1.3h-7.8v-3.9h15.7v3.9h-2.5c-0.2,0.5-0.4,1-0.4,1.7
		c-0.1,0.6-0.1,1.2-0.1,1.7v9.5H328.4z"/>
	<path class="st27" d="M339.8,287.9v-2.7v-4.6l-0.4-3.4h5.8l0.4,3.4v4.6l0,1.8L339.8,287.9z"/>
	<path class="st27" d="M348.6,287.9v-2.7v-4.6l-0.4-3.4h5.8l0.4,3.4v4.6l0,1.8L348.6,287.9z"/>
	<path class="st27" d="M375.8,294h-6.1l-5.3-7.6l-2.5,7.6h-5.5l3.6-9.9l1-2.4l-3-4.5h5.8l2.4,3.6l1.9,2.7l0.9-2.8l0.9-3.5h5.5
		l-4,10.8L375.8,294z"/>
	<path class="st27" d="M377.8,294l2.1-11.1l-2.6-5.7h6l2,6l-1.8,10.8H377.8z M385.4,294l0.5-3.9c1.5,0.3,2.6,0.3,3.3,0
		c0.7-0.3,1.2-0.8,1.5-1.6c0.3-0.8,0.4-1.7,0.4-2.8c0-1.1-0.1-2-0.3-2.7c-0.2-0.7-0.5-1.2-1-1.6c-0.4-0.3-1-0.5-1.7-0.5
		c-0.4,0-0.8,0.1-1.2,0.2c-0.4,0.2-0.7,0.4-1,0.7c-0.3,0.3-0.4,0.7-0.5,1.3l-1.2-2.1c0.4-1.5,1.1-2.6,2.1-3.2c0.9-0.7,2-1,3.2-1
		c1.2,0,2.3,0.2,3.2,0.6c0.9,0.4,1.7,1,2.2,1.7c0.6,0.8,1,1.7,1.3,2.8c0.3,1.1,0.4,2.4,0.4,3.8c0,2.1-0.4,3.8-1.3,5.2
		c-0.9,1.4-2.2,2.4-3.8,3C389.8,294.5,387.8,294.5,385.4,294z"/>
	<path class="st27" d="M402.8,299.2l-3.4-1.3c1.1-1.9,2-3.9,2.5-5.9c0.5-2.1,0.8-4.1,0.8-6.1c0-2-0.3-4-0.8-6.1
		c-0.5-2.1-1.3-4-2.5-5.9l3.4-1.3c1.3,2,2.4,4.1,3.1,6.2c0.7,2.2,1.1,4.5,1.1,7.1c0,2.6-0.4,4.9-1.1,7
		C405.2,295.1,404.1,297.2,402.8,299.2z"/>
</g>
<g>
	<g>
		<path class="st27" d="M92,413.6v-8l0.8-1.9h5v1.9v8H92z M102.5,413.6V402c0-0.4-0.1-0.8-0.4-1c-0.2-0.2-0.6-0.3-1.1-0.3h-8.8v-3.9
			h10.5c1.1,0,2,0.2,2.9,0.6s1.5,1,2,1.8c0.5,0.8,0.7,1.9,0.7,3.2v11.3H102.5z"/>
		<path class="st27" d="M112.7,413.9l-1.7-13.2l5.5-2.3l1.2,10.8c0.9-0.1,1.7-0.2,2.3-0.4c0.6-0.2,1-0.4,1.3-0.8
			c0.3-0.3,0.5-0.7,0.6-1.1c0.1-0.4,0.2-0.9,0.2-1.5c0-0.5,0-1.1,0-1.7v-1c0-0.5-0.1-0.9-0.2-1.2c-0.2-0.3-0.4-0.5-0.6-0.7
			c-0.3-0.2-0.6-0.2-0.9-0.2h-9.4l-0.5-3.9h10.4c2.2,0,4,0.5,5.2,1.6s1.8,2.6,1.9,4.5l0,1c0.1,1.8-0.2,3.3-0.9,4.6
			c-0.7,1.2-1.6,2.2-3,3c-1.3,0.8-2.9,1.4-4.8,1.7C117.4,413.7,115.2,413.9,112.7,413.9z"/>
		<path class="st27" d="M131,407.6v-2.7v-4.6l-0.4-3.4h5.8l0.4,3.4v4.6l0,1.8L131,407.6z"/>
		<path class="st27" d="M139.3,413.6v-3.9h4.2v-7.7c0-0.6-0.1-1-0.4-1.2c-0.2-0.2-0.6-0.3-1-0.3l-2.3-0.3l0.7-3.8l4.7,0.5
			c1.3,0.1,2.3,0.7,3,1.6c0.7,0.9,1,2,1,3.4v11.7H139.3z"/>
		<path class="st27" d="M151.3,413.6v-3.9h5.6c0.7,0,1.3-0.2,1.7-0.5c0.4-0.3,0.7-0.7,0.8-1.2c0.2-0.5,0.2-1,0.2-1.6v-2.3
			c0-0.6-0.1-1.1-0.2-1.6c-0.2-0.5-0.4-0.9-0.8-1.2s-1-0.5-1.7-0.5h-5.6v-3.9h7.2c1.6,0,2.9,0.3,3.9,1s1.8,1.5,2.3,2.7
			c0.5,1.1,0.7,2.4,0.7,3.9v1.8c0,1.5-0.2,2.7-0.7,3.9c-0.5,1.1-1.3,2-2.3,2.7s-2.3,1-3.9,1H151.3z"/>
	</g>
</g>
<g>
	<g>
		<path class="st27" d="M90.8,539.7v-8l0.8-1.9h5v1.9v8H90.8z M101.3,539.7v-11.6c0-0.4-0.1-0.8-0.4-1c-0.2-0.2-0.6-0.3-1.1-0.3H91
			V523h10.5c1.1,0,2,0.2,2.9,0.6c0.8,0.4,1.5,1,2,1.8c0.5,0.8,0.7,1.9,0.7,3.2v11.3H101.3z"/>
		<path class="st27" d="M128.1,539.7H122l-5.3-7.6l-2.5,7.6h-5.5l3.6-9.9l1-2.4l-3-4.5h5.8l2.4,3.6l1.9,2.7l0.9-2.8l0.9-3.5h5.5
			l-4,10.8L128.1,539.7z"/>
		<path class="st27" d="M130.5,533.7V531v-4.6l-0.4-3.4h5.8l0.4,3.4v4.6l0,1.8L130.5,533.7z"/>
		<path class="st27" d="M138.6,539.7v-3.9h13.1l1.7,3.9H138.6z M148.9,539.7L138.7,523h5.8l10.1,16.8H148.9z M150.6,533.4l-3.3-4.4
			l2.6-6h5.7L150.6,533.4z"/>
		<path class="st27" d="M158,533.7V531v-4.6l-0.4-3.4h5.8l0.4,3.4v4.6l0,1.8L158,533.7z"/>
	</g>
</g>
<path class="st30" d="M322.6,636.4h17.8c27.9,0,50.5-22.6,50.5-50.5V351.6c0-27.9-22.6-50.5-50.5-50.5h-17.8
	c-27.9,0-50.5,22.6-50.5,50.5v234.3C272.1,613.8,294.7,636.4,322.6,636.4z"/>
<path class="st28" d="M254.4,419.6h15.7c8.7,0,15.7-7,15.7-15.7v0c0-8.7-7-15.7-15.7-15.7h-15.7V419.6z"/>
<path class="st28" d="M254.4,544.2h15.7c8.7,0,15.7-7,15.7-15.7v0c0-8.7-7-15.7-15.7-15.7h-15.7V544.2z"/>
<g>
	<g>
		<g>
			<polygon class="st31" points="188.6,403.9 177,392.3 190.2,392.3 215.5,392.3 219.2,392.3 219.2,384.3 238.8,403.9 219.2,423.5 
				219.2,415.6 215.5,415.6 190.2,415.6 177,415.6 			"/>
		</g>
	</g>
</g>
<g>
	<g>
		<g>
			<polygon class="st31" points="227.1,528.6 238.8,540.2 225.5,540.2 200.2,540.2 196.6,540.2 196.6,548.2 177,528.6 196.6,509 
				196.6,516.9 200.2,516.9 225.5,516.9 238.8,516.9 			"/>
		</g>
	</g>
</g>
<g>
	<g>
		<g id="z1YTSY_00000103255208421758085380000018323913679783286692_">
			<g>
				<path class="st16" d="M113.9,484.2c0.2-1,0.3-2,0.7-2.8c0.7-1.7,2.1-2.4,3.9-2.5c2.5-0.1,5.1,0,7.6,0c3.7,0,7.5,0,11.2-0.1
					c1.4,0,2.8,0.1,4,1c1.1,0.8,1.6,1.9,1.7,3.3c0,1.1,0,1.1,1.2,1.1c1.3,0,2.6,0,3.9,0c0.4,0,0.5-0.2,0.5-0.5c0-1.5,0-2.9,0-4.4
					c0-0.4,0.1-0.6,0.6-0.6c2.8,0,5.5,0,8.3,0c1.5,0,1.2-0.1,1.3,1.3c0.1,1.1,0,2.3,0,3.4c0,0.6,0.2,0.8,0.8,0.8c2.1,0,4.2,0,6.3,0
					c0.8,0,0.8,0,0.8,0.8c0,3.6,0,7.2,0,10.8c0,1.1,0,1.1-1.1,1.1c-2,0-4.1,0-6.1,0c-0.5,0-0.6,0.1-0.6,0.6c0,1.4,0,2.7,0,4.1
					c0,0.5-0.1,0.7-0.7,0.7c-2.3,0-4.6,0-6.9,0c-0.5,0-1.1,0-1.6,0c-1.2,0-1,0.1-1-1c0-1.2,0-2.4,0-3.6c0-0.2,0-0.5-0.1-0.8
					c-1.7,0-3.2,0-4.8,0c-0.5,0-0.7,0.2-0.7,0.7c0,0.9-0.1,1.8-0.6,2.6c-0.9,1.4-2.3,2.2-3.9,2.2c-6.6,0-13.2,0-19.8,0
					c-2.7,0-4.6-2.1-4.4-4.8c0-0.4-0.1-0.6-0.5-0.6c-1.6,0-3.2,0-4.7,0c-0.4,0-0.4,0.3-0.4,0.5c0,1.4,0,2.8,0,4.2
					c0,0.5-0.2,0.6-0.6,0.6c-3,0-5.9,0-8.9,0c-0.4,0-0.6-0.1-0.6-0.6c0-1.3,0-2.6,0-4c0-0.8-0.1-0.8-0.8-0.8c-1.9,0-3.8,0-5.7,0
					c-0.1,0-0.1,0-0.2,0c-1.1,0-1.2-0.1-1.2-1.2c0-3.6,0-7.1,0-10.7c0-0.8,0-0.9,0.9-0.9c2.1,0,4.2,0,6.4,0c0.6,0,0.7-0.2,0.7-0.7
					c0-1.4,0-2.8-0.1-4.3c0-0.3,0.1-0.5,0.5-0.5c3,0,6,0.1,9,0.1c0.5,0,0.7,0.1,0.7,0.7c0,1.3,0,2.7,0,4c0,0.5,0.1,0.7,0.7,0.7
					c1.4,0,2.7,0,4.1,0C113.5,484.2,113.8,484.2,113.9,484.2z"/>
				<path class="st16" d="M117.2,477.2c0-1.5,0-2.9,0-4.3c0-1,0-2,0-3c0-0.4-0.1-0.7-0.6-0.8c-2-0.4-3.7-2.3-3.7-4.9c0-7,0-14,0-21
					c0-1.3,0-2.5,0-3.8c0-2.8,1.9-4.7,4.7-4.7c7,0,14.1,0,21.1,0c3,0,4.9,2,4.8,5c0,0.8-0.1,1.6-0.1,2.5c0.2-0.1,0.6,19.8,0,19.7
					c0,0,0,0.2,0,0.3c0,1.2,0.1,2.4-0.1,3.5c-0.4,1.9-1.6,3-3.5,3.5c-0.5,0.1-0.6,0.3-0.6,0.8c0,2.2,0,4.5,0,6.7
					c0,0.5-0.1,0.7-0.6,0.7c-1.7,0-1.7,0-1.7-1.7c0-1.8,0-3.7,0-5.5c0-0.6-0.2-0.8-0.8-0.8c-0.7,0-1.5,0-2.2,0c-4.4,0-8.8,0-13.2,0
					c-1.2,0-1.2,0-1.2,1.2c0,2.1,0,4.1,0,6.2c0,0.5-0.2,0.7-0.7,0.6C118.4,477.2,117.8,477.2,117.2,477.2z M147.5,444.1
					c-1.1-0.1-2.4-0.4-3.2,0.8c-0.1,0.1-0.2,0.3-0.3,0.3c-0.4,0.3-0.5,0.6-0.5,1.1c0,3.7,0,7.5,0,11.2c0,0.6,1.5,2.2,2.1,2.3
					c0.1,0,0.1,0,0.2,0c0.6,0,1.1,0,1.7-0.1C147.8,459.8,147.6,444.1,147.5,444.1z M119.6,460.6 M119.6,437.6 M124.5,460.6
					 M124.5,437.6 M129.3,460.6 M129.3,437.6 M132,460.6 M132,437.6"/>
				<path class="st16" d="M135.2,477.2c-0.7,0-1.3,0-1.9,0c-0.3,0-0.5-0.2-0.5-0.5c0-1,0-1.9,0-2.9c0-0.4-0.1-0.5-0.5-0.5
					c-2.8,0-5.5,0-8.3,0c-0.4,0-0.5,0.2-0.5,0.5c0,0.9,0,1.9,0,2.8c0,0.2,0,0.4,0,0.6c-0.7,0-1.3,0-1.9,0c-0.1,0-0.3-0.4-0.3-0.6
					c0-1.3,0-2.6,0-4c0-0.5,0.2-1,0.3-1.5c0-0.1,0.2-0.3,0.4-0.3c0.4,0,0.8,0,1.2,0c3.6,0,7.1,0,10.7,0c1.4,0,1.4,0,1.5,1.4
					c0,1.5,0,3.1,0,4.6C135.2,476.9,135.2,477.1,135.2,477.2z"/>
				<line class="st16" x1="103" y1="478.8" x2="103" y2="502.4"/>
				<line class="st16" x1="153.7" y1="478.7" x2="153.7" y2="502.4"/>
			</g>
			<line class="st16" x1="113.6" y1="497" x2="143.6" y2="497"/>
			<line class="st16" x1="113.9" y1="484.2" x2="143.3" y2="484.2"/>
		</g>
		<line class="st16" x1="113.1" y1="437.7" x2="143.5" y2="437.9"/>
		<line class="st16" x1="113.1" y1="465.6" x2="143.6" y2="465.6"/>
		<polyline class="st16" points="143.4,442.1 143.5,446.3 143.4,458.1 143.4,462.1 		"/>
		<line class="st16" x1="122" y1="437.9" x2="122" y2="465.6"/>
		<line class="st16" x1="128.2" y1="437.9" x2="128.2" y2="465.6"/>
		<line class="st16" x1="134.4" y1="437.9" x2="134.4" y2="465.6"/>
		<line class="st16" x1="140.5" y1="437.9" x2="140.5" y2="465.6"/>
		<line class="st16" x1="115.8" y1="437.9" x2="115.8" y2="465.6"/>
	</g>
	<rect x="127.3" y="474.7" class="st16" width="2" height="2.5"/>
</g>
<g>
	<path d="M194.7,466.9v5.1c0,0.1-0.3,1.3-0.4,1.9h-10.4v-7.5c0-1,0.1-1.6,0.2-2c-0.6,0-1.4,0-1.7-0.1l0.4-1.9
		c0.6,0.1,1.9,0.1,3.2,0.1h4.7C194.1,462.4,194.7,463.3,194.7,466.9z M190.6,464.3h-4.9v7.6h7.3v-4.5
		C193,465.3,192.7,464.3,190.6,464.3z"/>
	<path d="M198,468.8c0.9-1.3,1.5-2.4,1.5-3.2c0-0.7-0.4-0.9-1.5-1.2c-0.6-0.1-1-0.3-1.4-0.4l0.4-1.8c0.3,0.1,0.8,0.2,1.4,0.4
		c2.2,0.4,3,1.1,3,2.6c0,1.3-0.7,2.8-1.8,4.3L198,468.8z"/>
	<path d="M209.7,467.3c0-2.1-0.3-3-2.4-3H205c-1.4,0-2.2,0-2.6-0.1l0.4-1.9c0.5,0.1,1.6,0.1,3.2,0.1h1.4c3.4,0,4,0.7,4,4.3v7.1h-1.8
		V467.3z"/>
	<path d="M218.3,471.7c2.8-0.7,5.1-2.4,5.1-5.6c0-1.3-0.5-1.8-2.3-1.8h-3.2c-1.6,0-3,0-3.4-0.1l0.4-1.8c0.6,0.1,1.9,0.1,3.4,0.1h3.2
		c3,0,3.6,0.9,3.6,3.3c0,4.5-3.3,7.4-7.2,8.3L218.3,471.7z M214.9,467.5h1.8v10.4h-1.8V467.5z"/>
	<path d="M244,466.9v5.1c0,0.1-0.3,1.3-0.4,1.9h-10.4v-7.5c0-1,0.1-1.6,0.2-2c-0.6,0-1.4,0-1.7-0.1l0.4-1.9c0.6,0.1,1.9,0.1,3.2,0.1
		h4.7C243.4,462.4,244,463.3,244,466.9z M239.9,464.3H235v7.6h7.3v-4.5C242.3,465.3,242,464.3,239.9,464.3z"/>
	<path d="M247.3,468.8c0.9-1.3,1.5-2.4,1.5-3.2c0-0.7-0.4-0.9-1.5-1.2c-0.6-0.1-1-0.3-1.4-0.4l0.4-1.8c0.3,0.1,0.8,0.2,1.4,0.4
		c2.2,0.4,3,1.1,3,2.6c0,1.3-0.7,2.8-1.8,4.3L247.3,468.8z"/>
	<path d="M254.1,467.4c0.3-2.1-0.6-2.9-2.1-3.2l0.4-2c1.8,0.3,3,1.3,3.2,3c0.5-1.3,1.9-2.9,4.5-2.9c3.6,0,4.5,3,4.5,7.1v2.7
		c0,0.2-0.3,1.6-0.3,1.9h-4.6c-0.9,0-2.1,0-2.6,0.1l0.4-1.9c0.5-0.1,1.6-0.1,2.8-0.1h2.4c0-0.9,0-1.7,0-2.6c0-2.6-0.4-5.2-3.1-5.2
		c-2.6,0-3.5,2.3-3.8,3.7c-0.4,1.4-0.9,3.9-1.3,6h-1.8C253.3,471.7,253.9,469,254.1,467.4z"/>
</g>
<g>
	<path d="M337.5,335v-11.8c0-0.5-0.4-0.9-0.9-0.9s-0.9,0.4-0.9,0.9V335c-2.2,0.4-3.9,2.4-3.9,4.7c0,2.6,2.1,4.8,4.8,4.8
		c2.6,0,4.8-2.1,4.8-4.8C341.4,337.4,339.7,335.4,337.5,335z M336.6,342.7c-1.6,0-3-1.3-3-3c0-1.6,1.3-3,3-3s3,1.3,3,3
		C339.6,341.3,338.3,342.7,336.6,342.7z"/>
	<path d="M341.4,332.1v-19.3c0-2.6-2.1-4.8-4.8-4.8c-2.6,0-4.8,2.1-4.8,4.8v19.3c-2.7,1.7-4.3,4.7-4.2,8c0.2,4.6,3.9,8.3,8.5,8.5
		c0.1,0,0.3,0,0.4,0c2.3,0,4.5-0.9,6.2-2.5c1.8-1.7,2.8-4,2.8-6.5C345.6,336.6,344,333.8,341.4,332.1z M341.6,344.9
		c-1.4,1.4-3.3,2.1-5.3,2c-3.6-0.2-6.6-3.2-6.8-6.8c-0.1-2.7,1.3-5.3,3.7-6.6c0.3-0.2,0.5-0.5,0.5-0.8v-19.8c0-1.6,1.3-3,3-3
		s3,1.3,3,3v19.8c0,0.3,0.2,0.6,0.5,0.8c2.3,1.3,3.7,3.7,3.7,6.3C343.8,341.7,343,343.5,341.6,344.9z"/>
	<path d="M344.2,315.1h2.2c0.5,0,0.9-0.4,0.9-0.9c0-0.5-0.4-0.9-0.9-0.9h-2.2c-0.5,0-0.9,0.4-0.9,0.9
		C343.3,314.7,343.7,315.1,344.2,315.1z"/>
	<path d="M344.2,319.6h4c0.5,0,0.9-0.4,0.9-0.9c0-0.5-0.4-0.9-0.9-0.9h-4c-0.5,0-0.9,0.4-0.9,0.9
		C343.3,319.2,343.7,319.6,344.2,319.6z"/>
	<path d="M344.2,324.1h2.2c0.5,0,0.9-0.4,0.9-0.9c0-0.5-0.4-0.9-0.9-0.9h-2.2c-0.5,0-0.9,0.4-0.9,0.9
		C343.3,323.7,343.7,324.1,344.2,324.1z"/>
	<path d="M348.2,326.8h-4c-0.5,0-0.9,0.4-0.9,0.9c0,0.5,0.4,0.9,0.9,0.9h4c0.5,0,0.9-0.4,0.9-0.9
		C349.1,327.2,348.7,326.8,348.2,326.8z"/>
	<path d="M324.3,322.2l2.9,2.9c0.2,0.2,0.4,0.3,0.6,0.3c0.2,0,0.5-0.1,0.6-0.3c0.4-0.4,0.4-0.9,0-1.3l-1.6-1.6h2
		c0.5,0,0.9-0.4,0.9-0.9c0-0.5-0.4-0.9-0.9-0.9h-2l1.6-1.6c0.4-0.4,0.4-0.9,0-1.3s-0.9-0.4-1.3,0l-2.9,2.9h-1.6v-1.6l2.9-2.9
		c0.4-0.4,0.4-0.9,0-1.3c-0.4-0.4-0.9-0.4-1.3,0l-1.6,1.6v-2c0-0.5-0.4-0.9-0.9-0.9s-0.9,0.4-0.9,0.9v2l-1.6-1.6
		c-0.4-0.4-0.9-0.4-1.3,0c-0.4,0.4-0.4,0.9,0,1.3l2.9,2.9v1.6h-1.6l-2.9-2.9c-0.4-0.4-0.9-0.4-1.3,0s-0.4,0.9,0,1.3l1.6,1.6h-2
		c-0.5,0-0.9,0.4-0.9,0.9c0,0.5,0.4,0.9,0.9,0.9h2l-1.6,1.6c-0.4,0.4-0.4,0.9,0,1.3c0.2,0.2,0.4,0.3,0.6,0.3c0.2,0,0.5-0.1,0.6-0.3
		l2.9-2.9h1.6v1.6l-2.9,2.9c-0.4,0.4-0.4,0.9,0,1.3c0.4,0.4,0.9,0.4,1.3,0l1.6-1.6v2c0,0.5,0.4,0.9,0.9,0.9s0.9-0.4,0.9-0.9v-2
		l1.6,1.6c0.2,0.2,0.4,0.3,0.6,0.3c0.2,0,0.5-0.1,0.6-0.3c0.4-0.4,0.4-0.9,0-1.3l-2.9-2.9v-1.6H324.3z"/>
</g>
<g>
	<g>
		<g>
			<g>
				<g>
					<polygon class="st9" points="831.2,106.2 832.7,112 838,114.9 824.2,118.6 					"/>
				</g>
			</g>
		</g>
	</g>
	<line class="st10" x1="832.6" y1="112.2" x2="843.2" y2="103.4"/>
</g>
<path class="st14" d="M813.9,204.5H688.8c-6.6,0-12-5.4-12-12v-15.7c0-6.6,5.4-12,12-12h125.1c6.6,0,12,5.4,12,12v15.7
	C825.9,199.1,820.5,204.5,813.9,204.5z"/>
<circle class="st18" cx="749.8" cy="184.6" r="14.4"/>
<circle class="st8" cx="852.9" cy="92.5" r="14.4"/>
<circle class="st8" cx="647.4" cy="92.9" r="14.4"/>
<g>
	<circle class="st17" cx="798.4" cy="184.6" r="16.8"/>
	<text transform="matrix(1 0 0 1 789.5562 188.4846)" class="st0 st39 st40">HP</text>
</g>
<text transform="matrix(1 0 0 1 845.2883 98.3076)" class="st39 st40">T7</text>
<text transform="matrix(1 0 0 1 639.8359 98.3076)" class="st39 st40">T8</text>
<g>
	<circle class="st15" cx="702.2" cy="184.6" r="16.8"/>
	<text transform="matrix(1 0 0 1 694.676 188.4845)" class="st0 st39 st40">LP</text>
</g>
<g>
	<g>
		<g>
			<g>
				<g>
					<polygon class="st9" points="664.6,113 669.6,109.8 670.8,103.9 678.5,115.9 					"/>
				</g>
			</g>
		</g>
	</g>
	<line class="st10" x1="669.7" y1="109.9" x2="658.6" y2="101.8"/>
</g>
<g>
	<circle class="st16" cx="707.9" cy="140" r="19"/>
	<line class="st16" x1="707.9" y1="121.1" x2="707.9" y2="159"/>
	<line class="st16" x1="689" y1="140" x2="726.9" y2="140"/>
	<g>
		<g>
			<g>
				<g>
					<g>
						<polygon class="st9" points="704.3,132.3 701,134.5 700.2,138.4 695.1,130.5 						"/>
					</g>
				</g>
			</g>
		</g>
		<line class="st19" x1="700.9" y1="134.4" x2="708.2" y2="139.7"/>
	</g>
</g>
<g>
	<circle class="st16" cx="798.4" cy="140" r="19"/>
	<line class="st16" x1="798.4" y1="121.1" x2="798.4" y2="159"/>
	<line class="st16" x1="779.5" y1="140" x2="817.4" y2="140"/>
	<g>
		<g>
			<g>
				<g>
					<g>
						<polygon class="st9" points="806.5,137.9 805.6,134 802.1,132.1 811.2,129.8 						"/>
					</g>
				</g>
			</g>
		</g>
		<line class="st19" x1="805.6" y1="133.9" x2="798.6" y2="139.6"/>
	</g>
</g>
<rect x="693.3" y="211" class="st21" width="17.9" height="17.9"/>
<rect x="788.5" y="211" class="st22" width="17.9" height="17.9"/>
<rect x="740.9" y="211" class="st23" width="17.9" height="17.9"/>
<g>
	<path d="M713,70.3v-9.5c0-0.8,0.1-1.5,0.3-2.1s0.4-1,0.7-1.3h-7.8v-3.9h15.7v3.9h-2.5c-0.2,0.5-0.4,1-0.4,1.7
		c-0.1,0.6-0.1,1.2-0.1,1.7v9.5H713z"/>
	<path d="M723.6,57.4v-7.9h5.2v7.9H723.6z M727,70.3l5.5-12.9h-8.9v-3.9h14.7v4.3l-5.5,12.5H727z"/>
	<path d="M740.7,70.3V56.9l-0.4-3.4h5.8l0.4,3.4v13.4H740.7z"/>
	<path d="M749.2,70.3v-3.9h7.1c0.5,0,1-0.1,1.4-0.3c0.4-0.2,0.7-0.4,0.9-0.8c0.2-0.3,0.4-0.7,0.5-1.1c0.1-0.4,0.2-0.8,0.2-1.2v-2.3
		c0-0.6-0.1-1.1-0.3-1.6c-0.2-0.5-0.5-0.9-1-1.2c-0.4-0.3-1-0.5-1.7-0.5h-1.7l-0.4,2c-0.1,0.5,0,0.9,0.3,1.1
		c0.3,0.3,0.7,0.5,1.5,0.6l-0.8,3.2c-1.7,0-3-0.2-4-0.7c-0.9-0.5-1.5-1.2-1.8-2s-0.3-1.7-0.2-2.7l1.3-5.4h7.3c1.6,0,2.9,0.3,4,1
		s1.9,1.5,2.5,2.7c0.6,1.1,0.9,2.4,0.9,3.9v1.8c0,1.1-0.2,2.1-0.5,3c-0.3,0.9-0.8,1.7-1.5,2.4c-0.6,0.7-1.4,1.2-2.3,1.6
		c-0.9,0.4-2,0.6-3.1,0.6H749.2z"/>
	<path d="M767.6,64.2v-2.7v-4.6l-0.4-3.4h5.8l0.4,3.4v4.6l0,1.8L767.6,64.2z"/>
	<path d="M775.9,70.3v-3.9h4.2v-7.7c0-0.6-0.1-1-0.4-1.2c-0.2-0.2-0.6-0.3-1-0.3l-2.3-0.3l0.7-3.8l4.7,0.5c1.3,0.1,2.3,0.7,3,1.6
		c0.7,0.9,1,2,1,3.4v11.7H775.9z"/>
	<path d="M788.5,70.3l2.1-11.1l-2.6-5.7h6l2,6l-1.8,10.8H788.5z M796.1,70.3l0.5-3.9c1.5,0.3,2.6,0.3,3.3,0c0.7-0.3,1.2-0.8,1.5-1.6
		c0.3-0.8,0.4-1.7,0.4-2.8c0-1.1-0.1-2-0.3-2.7c-0.2-0.7-0.5-1.2-1-1.6c-0.4-0.3-1-0.5-1.7-0.5c-0.4,0-0.8,0.1-1.2,0.2
		c-0.4,0.2-0.7,0.4-1,0.7c-0.3,0.3-0.4,0.7-0.5,1.3l-1.2-2.1c0.4-1.5,1.1-2.6,2.1-3.2c0.9-0.7,2-1,3.2-1c1.2,0,2.3,0.2,3.2,0.6
		c0.9,0.4,1.7,1,2.2,1.7c0.6,0.8,1,1.7,1.3,2.8c0.3,1.1,0.4,2.4,0.4,3.8c0,2.1-0.4,3.8-1.3,5.2c-0.9,1.4-2.2,2.4-3.8,3
		C800.5,70.8,798.4,70.8,796.1,70.3z"/>
	<path d="M712.8,110.3c-1.3-2-2.4-4.1-3.1-6.2c-0.7-2.1-1.1-4.5-1.1-7c0-2.6,0.4-4.9,1.1-7.1c0.7-2.2,1.8-4.2,3.1-6.2l3.4,1.3
		c-1.1,1.9-2,3.8-2.5,5.9c-0.5,2.1-0.8,4.1-0.8,6.1c0,2,0.3,4,0.8,6.1c0.5,2.1,1.3,4,2.5,5.9L712.8,110.3z"/>
	<path d="M718.8,105.6l-0.5-3.5c0.8-0.1,1.4-0.2,1.8-0.4c0.4-0.2,0.6-0.4,0.7-0.8c0.1-0.3,0.2-0.8,0.2-1.5V88.3h10.7
		c1.1,0,2,0.2,2.9,0.6s1.5,1,2,1.8c0.5,0.8,0.7,1.9,0.7,3.2v11.3h-5.8V93.5c0-0.4-0.1-0.8-0.4-1c-0.2-0.2-0.6-0.3-1.1-0.3h-3.2v6.6
		c0,1.7-0.3,3-0.8,3.9s-1.4,1.6-2.6,2.1C722.1,105.2,720.6,105.5,718.8,105.6z"/>
	<path d="M739.9,105.1v-3.9h7.1c0.5,0,1-0.1,1.4-0.3c0.4-0.2,0.7-0.4,0.9-0.8c0.2-0.3,0.4-0.7,0.5-1.1s0.2-0.8,0.2-1.2v-2.3
		c0-0.6-0.1-1.1-0.3-1.6c-0.2-0.5-0.5-0.9-1-1.2c-0.4-0.3-1-0.5-1.7-0.5h-1.7l-0.4,2c-0.1,0.5,0,0.9,0.3,1.1
		c0.3,0.3,0.7,0.5,1.5,0.6l-0.8,3.2c-1.7,0-3-0.2-4-0.7c-0.9-0.5-1.5-1.2-1.8-2s-0.3-1.7-0.2-2.7l1.3-5.4h7.3c1.6,0,2.9,0.3,4,1
		s1.9,1.5,2.5,2.7c0.6,1.1,0.9,2.4,0.9,3.9v1.8c0,1.1-0.2,2.1-0.5,3c-0.3,0.9-0.8,1.7-1.5,2.4c-0.6,0.7-1.4,1.2-2.3,1.6
		c-0.9,0.4-2,0.6-3.1,0.6H739.9z"/>
	<path d="M757.4,106.3l-0.8-4.1l8.4-1.4c0.9-0.2,1.7-0.4,2.2-0.9c0.5-0.4,0.9-1,1.2-1.6c0.3-0.7,0.4-1.5,0.5-2.5s0.1-2.1,0.1-3.3
		c0-1.3,0-2.7,0-4.2h5.7c0,1.8,0,3.4-0.1,4.9s-0.2,2.9-0.5,4.2c-0.3,1.3-0.8,2.4-1.4,3.4c-0.7,1-1.6,1.9-2.8,2.6
		c-1.2,0.7-2.8,1.2-4.8,1.6L757.4,106.3z M761.5,102l-3.5-13.7h5.8L767,102H761.5z"/>
	<path d="M779.2,105.4l-1.7-13.2l5.5-2.3l1.2,10.8c0.9-0.1,1.7-0.2,2.3-0.4c0.6-0.2,1-0.4,1.3-0.8c0.3-0.3,0.5-0.7,0.6-1.1
		c0.1-0.4,0.2-0.9,0.2-1.5c0-0.5,0-1.1,0-1.7v-1c0-0.5-0.1-0.9-0.2-1.2c-0.2-0.3-0.4-0.5-0.6-0.7c-0.3-0.2-0.6-0.2-0.9-0.2h-9.4
		l-0.5-3.9h10.4c2.2,0,4,0.5,5.2,1.6s1.8,2.6,1.9,4.5l0,1c0.1,1.8-0.2,3.3-0.9,4.6c-0.7,1.2-1.6,2.2-3,3c-1.3,0.8-2.9,1.4-4.8,1.7
		C783.8,105.1,781.6,105.3,779.2,105.4z"/>
	<path d="M801,110.3l-3.4-1.3c1.1-1.9,2-3.9,2.5-5.9c0.5-2.1,0.8-4.1,0.8-6.1c0-2-0.3-4-0.8-6.1c-0.5-2.1-1.3-4-2.5-5.9l3.4-1.3
		c1.3,2,2.4,4.1,3.1,6.2c0.7,2.2,1.1,4.5,1.1,7.1c0,2.6-0.4,4.9-1.1,7C803.3,106.2,802.3,108.3,801,110.3z"/>
</g>
<ellipse class="st27" cx="472.4" cy="350.2" rx="14.4" ry="5.4"/>
<ellipse class="st34" cx="1021.9" cy="581.5" rx="14.4" ry="5.4"/>
<g>
	<path d="M731.1,487.8l-1.7-13.2l5.5-2.3l1.2,10.8c0.9-0.1,1.7-0.2,2.3-0.4c0.6-0.2,1-0.4,1.3-0.8c0.3-0.3,0.5-0.7,0.6-1.1
		c0.1-0.4,0.2-0.9,0.2-1.5c0-0.5,0-1.1,0-1.7v-1c0-0.5-0.1-0.9-0.2-1.2c-0.2-0.3-0.4-0.5-0.6-0.7c-0.3-0.2-0.6-0.2-0.9-0.2h-9.4
		l-0.5-3.9h10.4c2.2,0,4,0.5,5.2,1.6c1.2,1.1,1.8,2.6,1.9,4.5l0,1c0.1,1.8-0.2,3.3-0.9,4.6c-0.7,1.2-1.6,2.2-3,3
		c-1.3,0.8-2.9,1.4-4.8,1.7S733.6,487.8,731.1,487.8z"/>
	<path d="M760.2,487.5v-11.6c0-0.9-0.5-1.3-1.4-1.3h-9.4v-3.9h11.1c1.1,0,2,0.2,2.9,0.6c0.8,0.4,1.5,1,2,1.8
		c0.5,0.8,0.7,1.9,0.7,3.2v11.3H760.2z M749.4,487.5v-14.3h5.8v14.3H749.4z"/>
	<path d="M775,487.5V478c0-0.8,0.1-1.5,0.3-2.1c0.2-0.6,0.4-1,0.7-1.3h-7.8v-3.9h15.7v3.9h-2.5c-0.2,0.5-0.4,1-0.4,1.7
		c-0.1,0.6-0.1,1.2-0.1,1.7v9.5H775z"/>
	<path d="M786,487.5l2.1-11.1l-2.6-5.7h6l2,6l-1.8,10.8H786z M793.6,487.6l0.5-3.9c1.5,0.3,2.6,0.3,3.3,0c0.7-0.3,1.2-0.8,1.5-1.6
		c0.3-0.8,0.4-1.7,0.4-2.8c0-1.1-0.1-2-0.3-2.7c-0.2-0.7-0.5-1.2-1-1.6c-0.4-0.3-1-0.5-1.7-0.5c-0.4,0-0.8,0.1-1.2,0.2
		c-0.4,0.2-0.7,0.4-1,0.7c-0.3,0.3-0.4,0.7-0.5,1.3l-1.2-2.1c0.4-1.5,1.1-2.6,2.1-3.2c0.9-0.7,2-1,3.2-1c1.2,0,2.3,0.2,3.2,0.6
		c0.9,0.4,1.7,1,2.2,1.7c0.6,0.8,1,1.7,1.3,2.8c0.3,1.1,0.4,2.4,0.4,3.8c0,2.1-0.4,3.8-1.3,5.2c-0.9,1.4-2.2,2.4-3.8,3
		C798.1,488.1,796,488.1,793.6,487.6z"/>
</g>
<g>
	<path d="M880,619.8l1.1-0.1c0.1,0.3,0.2,1.2,0.6,3.4c1.2-0.3,1.4-0.8,1.4-1.6c0-0.5-0.1-1.2-0.3-1.7l1.1-0.1
		c0.1,0.4,0.2,1.1,0.3,1.6c0,1.1-0.3,2.2-2.4,2.5c0,0.1,0.2,1,0.2,1.4c0.3,0,0.7-0.1,1.3-0.2c1.5-0.3,2.4-1,2.4-3
		c0-0.8-0.2-1.7-0.4-2.3l1.2-0.1c0.1,0.4,0.3,1.2,0.3,2.1c0,2.9-1.7,3.9-3.6,4.3c-0.8,0.1-1.5,0.2-1.9,0.3
		C881,624.7,880.3,620.7,880,619.8z"/>
	<path d="M889.4,622.5c0-1-0.1-1.4-1.1-1.6c-0.4-0.1-0.6-0.2-0.8-0.2l0.2-1.1c0.2,0.1,0.4,0.1,0.8,0.2c1.3,0.3,1.8,0.7,1.8,2.6v3.9
		h-0.9V622.5z"/>
	<path d="M891.6,625.2c0.4-0.1,1.2-0.1,1.9-0.1h1.8c0-0.8,0-2,0-2.6c0-1.3-0.2-1.8-1.3-1.8h-1c-0.7,0-1.2,0-1.3-0.1l0.2-1.1
		c0.2,0,0.8,0,1.5,0h0.9c1.7,0,1.9,0.8,1.9,2.4v2c0,0.3,0,0.8,0,1h0.9l-0.2,1.1H893c-0.5,0-1.3,0-1.5,0L891.6,625.2z"/>
	<path d="M898.2,623.4c0.5-0.8,0.8-1.4,0.8-1.8c0-0.4-0.2-0.5-0.8-0.7c-0.3-0.1-0.5-0.2-0.7-0.2l0.2-1.1c0.2,0.1,0.4,0.1,0.7,0.2
		c1.1,0.3,1.5,0.6,1.5,1.5c0,0.8-0.4,1.6-0.9,2.5L898.2,623.4z"/>
	<path d="M901.2,623.4c0.5-0.8,0.8-1.4,0.8-1.8c0-0.4-0.2-0.5-0.8-0.7c-0.3-0.1-0.5-0.2-0.7-0.2l0.2-1.1c0.2,0.1,0.4,0.1,0.7,0.2
		c1.1,0.3,1.5,0.6,1.5,1.5c0,0.8-0.4,1.6-0.9,2.5L901.2,623.4z"/>
	<path d="M908,622.5c0-1-0.1-1.4-1.1-1.6c-0.4-0.1-0.6-0.2-0.8-0.3l0.2-1c0.2,0.1,0.4,0.1,0.9,0.2c1.3,0.3,1.7,0.7,1.7,2.5v6.3H908
		V622.5z"/>
	<path d="M910.2,625.2c0.4-0.1,1.2-0.1,1.9-0.1h1.8c0-0.8,0-2,0-2.6c0-1.3-0.2-1.8-1.3-1.8h-1c-0.7,0-1.2,0-1.3-0.1l0.2-1.1
		c0.2,0,0.8,0,1.5,0h0.9c1.7,0,1.9,0.8,1.9,2.4v2c0,0.3,0,0.8,0,1h0.9l-0.2,1.1h-3.9c-0.5,0-1.3,0-1.5,0L910.2,625.2z"/>
	<path d="M916.7,624.6c0-1.2,0.3-2.3,1.1-3.2c-0.5-0.6-1.1-1.2-1.6-1.7l0-0.1l1.3-0.1c0.6,0.6,1.5,1.6,2.8,3.2
		c0.5-0.3,0.8-0.8,0.8-1.6c0-0.5-0.1-1-0.4-1.5l1.2-0.1c0.2,0.5,0.2,0.9,0.2,1.4c0,1-0.5,1.9-1.4,2.4c0.6,0.8,1.7,2.2,2,2.8h-1.3
		c-0.4-0.6-1.4-2.1-3.2-4.1c-0.5,0.6-0.6,1.5-0.6,2.3c0,0.7,0.2,1.4,0.3,1.9h-1.2C916.7,625.8,916.7,625.2,916.7,624.6z"/>
</g>
<g>
	<path d="M810.4,625.2c0.2,0,0.3-0.1,1-0.1h0.2c0-1.2-0.1-3.6-0.2-4.3h0c-0.2,0-0.7,0-0.9-0.1l0.2-1.1c0.4,0.1,1.2,0,1.9,0h2
		c1.8,0,2.1,0.4,2.1,2.5v4.1h-0.9v-3.7c0-1.2-0.1-1.7-1.2-1.7h-2.1c0.1,0.8,0.2,3.5,0.2,4.4l-0.2,1.1h-0.9c-0.5,0-0.9,0-1.2,0
		L810.4,625.2z"/>
	<path d="M818.3,623.4c0.5-0.8,0.8-1.4,0.8-1.8c0-0.4-0.2-0.5-0.8-0.7c-0.3-0.1-0.5-0.2-0.7-0.2l0.2-1.1c0.2,0.1,0.4,0.1,0.7,0.2
		c1.1,0.3,1.5,0.6,1.5,1.5c0,0.8-0.4,1.6-0.9,2.5L818.3,623.4z"/>
	<path d="M821,625.2c0.3,0,0.7,0,1.5,0h0.8v-2.7c0-1-0.1-1.3-1.2-1.6c-0.4-0.1-0.9-0.2-1-0.3l0.2-1.1c0.2,0.1,0.5,0.1,1,0.2
		c1.4,0.3,1.9,0.7,1.9,2.5v2.9l-0.2,1.1h-1.7c-0.5,0-1.3,0-1.6,0L821,625.2z"/>
	<path d="M825.9,623.4c0.5-0.8,0.8-1.4,0.8-1.8c0-0.4-0.2-0.5-0.8-0.7c-0.3-0.1-0.5-0.2-0.7-0.2l0.2-1.1c0.2,0.1,0.4,0.1,0.7,0.2
		c1.1,0.3,1.5,0.6,1.5,1.5c0,0.8-0.4,1.6-0.9,2.5L825.9,623.4z"/>
	<path d="M831,625.1c-0.4-1.3-1.6-4.1-2.5-5.4l1.3-0.1c0.7,1.2,1.7,3.6,2.1,5.2c0.9-0.4,1.4-1.2,1.4-2.6c0-0.7-0.2-1.7-0.5-2.5
		l1.2-0.1c0.1,0.4,0.3,1.3,0.3,2.3c0,1.8-0.4,3.1-2.4,4c-0.9,0.4-2.3,0.7-3.4,0.8l0.2-1.2C829.4,625.5,830.4,625.4,831,625.1z"/>
</g>
<g>
	<path d="M678.5,623.4c0.5-0.8,0.8-1.4,0.8-1.8c0-0.4-0.2-0.5-0.8-0.7c-0.3-0.1-0.5-0.2-0.7-0.2l0.2-1.1c0.2,0.1,0.4,0.1,0.7,0.2
		c1.1,0.3,1.5,0.6,1.5,1.5c0,0.8-0.4,1.6-0.9,2.5L678.5,623.4z"/>
	<path d="M681.9,625.1c1.6-0.5,2.8-1.7,2.8-3.4c0-0.8-0.3-0.9-0.9-0.9h-2.9v-1.7c0-0.7,0-1.6-0.2-1.9l1-0.2c0.1,0.2,0.1,1,0.1,1.9
		v0.9h2.3c1.2,0,1.5,0.6,1.5,1.7c0,2.7-2.1,4.5-4,5L681.9,625.1z"/>
	<path d="M687.6,622.6c0.2-1.2-0.3-1.7-1.1-1.8l0.2-1.1c1,0.2,1.5,0.8,1.6,1.7c0.3-0.7,1-1.7,2.3-1.7c1.9,0,2.3,1.7,2.3,4v1.5
		c0,0.1-0.1,0.9-0.2,1.1h-2.4c-0.5,0-1.1,0-1.4,0l0.2-1.1c0.3,0,0.8,0,1.5,0h1.3c0-0.5,0-1,0-1.5c0-1.5-0.2-3-1.6-3
		c-1.3,0-1.8,1.3-2,2.1c-0.2,0.8-0.4,2.3-0.7,3.4h-0.9C687.2,625,687.4,623.4,687.6,622.6z"/>
	<path d="M694.2,619.8l1.1-0.1c0.1,0.3,0.2,1.2,0.6,3.4c1.2-0.3,1.4-0.8,1.4-1.6c0-0.5-0.1-1.2-0.3-1.7l1.1-0.1
		c0.1,0.4,0.2,1.1,0.3,1.6c0,1.1-0.3,2.2-2.4,2.5c0,0.1,0.2,1,0.2,1.4c0.3,0,0.7-0.1,1.3-0.2c1.5-0.3,2.4-1,2.4-3
		c0-0.8-0.2-1.7-0.4-2.3l1.2-0.1c0.1,0.4,0.3,1.2,0.3,2.1c0,2.9-1.7,3.9-3.6,4.3c-0.8,0.1-1.5,0.2-1.9,0.3
		C695.2,624.7,694.5,620.7,694.2,619.8z"/>
	<path d="M702.7,622.5c0-0.8,0-1.4,0.1-1.7c-0.2,0-0.8,0-0.9-0.1l0.2-1.1c0.3,0.1,0.9,0.1,1.7,0.1h2.2c1.8,0,2.1,0.5,2.1,2.5v4h-0.9
		v-3.6c0-1.3-0.1-1.8-1.3-1.8h-2.2v5.4h-0.9V622.5z"/>
	<path d="M712.7,622.4c0-0.7,0.1-1.1,0.4-1.4c-0.5-0.1-1.2-0.2-1.5-0.3l0.2-1.1c0.5,0.2,2.6,0.5,3.4,0.6l-0.2,1.1
		c-0.3,0-0.7-0.1-0.9-0.1c-0.3,0-0.5,0.2-0.5,1c0,0.6,0.1,2.8,0.2,4.1h-0.9C712.7,624.2,712.7,623,712.7,622.4z"/>
	<path d="M719.4,622.5c0-1.2-0.1-1.7-1.3-1.7h-1.2c-0.7,0-1.2,0-1.3-0.1l0.2-1.1c0.2,0,0.9,0,1.7,0h0.7c1.8,0,2.1,0.4,2.1,2.5v4.1
		h-0.9V622.5z"/>
	<path d="M721.6,625.2c0.4-0.1,1.2-0.1,1.9-0.1h1.8c0-0.8,0-2,0-2.6c0-1.3-0.2-1.8-1.3-1.8h-1c-0.7,0-1.2,0-1.3-0.1l0.2-1.1
		c0.2,0,0.8,0,1.5,0h0.9c1.7,0,1.9,0.8,1.9,2.4v2c0,0.3,0,0.8,0,1h0.9l-0.2,1.1H723c-0.5,0-1.3,0-1.5,0L721.6,625.2z"/>
</g>
<g>
	<path d="M591.7,622.4c0-0.7,0.1-1.1,0.4-1.4c-0.5-0.1-1.2-0.2-1.5-0.3l0.2-1.1c0.5,0.2,2.6,0.5,3.4,0.6l-0.2,1.1
		c-0.3,0-0.7-0.1-0.9-0.1c-0.3,0-0.5,0.2-0.5,1c0,0.6,0.1,2.8,0.2,4.1h-0.9C591.7,624.2,591.7,623,591.7,622.4z"/>
	<path d="M598.4,622.5c0-1.2-0.1-1.7-1.3-1.7h-1.2c-0.7,0-1.2,0-1.3-0.1l0.2-1.1c0.2,0,0.9,0,1.7,0h0.7c1.8,0,2.1,0.4,2.1,2.5v4.1
		h-0.9V622.5z"/>
	<path d="M600.6,625.2c0.4-0.1,1.2-0.1,1.9-0.1h1.8c0-0.8,0-2,0-2.6c0-1.3-0.2-1.8-1.3-1.8h-1c-0.7,0-1.2,0-1.3-0.1l0.2-1.1
		c0.2,0,0.8,0,1.5,0h0.9c1.7,0,1.9,0.8,1.9,2.4v2c0,0.3,0,0.8,0,1h0.9l-0.2,1.1H602c-0.5,0-1.3,0-1.5,0L600.6,625.2z"/>
</g>
<g>
	<path d="M690.5,331.5c0-0.7,0.1-1.1,0.4-1.4c-0.5-0.1-1.2-0.2-1.5-0.3l0.2-1.1c0.5,0.2,2.6,0.5,3.4,0.6l-0.2,1.1
		c-0.3,0-0.7-0.1-0.9-0.1c-0.3,0-0.5,0.2-0.5,1c0,0.6,0.1,2.8,0.2,4.1h-0.9C690.5,333.3,690.4,332.1,690.5,331.5z"/>
	<path d="M697.2,331.7c0-1.2-0.1-1.7-1.3-1.7h-1.2c-0.7,0-1.2,0-1.3-0.1l0.2-1.1c0.2,0,0.9,0,1.7,0h0.7c1.8,0,2.1,0.4,2.1,2.5v4.1
		h-0.9V331.7z"/>
	<path d="M699.4,334.3c0.4-0.1,1.2-0.1,1.9-0.1h1.8c0-0.8,0-2,0-2.6c0-1.3-0.2-1.8-1.3-1.8h-1c-0.7,0-1.2,0-1.3-0.1l0.2-1.1
		c0.2,0,0.8,0,1.5,0h0.9c1.7,0,1.9,0.8,1.9,2.4v2c0,0.3,0,0.8,0,1h0.9l-0.2,1.1h-3.9c-0.5,0-1.3,0-1.5,0L699.4,334.3z"/>
</g>
<g>
	<path d="M824.4,330.5c0-0.7,0.1-1.1,0.4-1.4c-0.5-0.1-1.2-0.2-1.5-0.3l0.2-1.1c0.5,0.2,2.6,0.5,3.4,0.6l-0.2,1.1
		c-0.3,0-0.7-0.1-0.9-0.1c-0.3,0-0.5,0.2-0.5,1c0,0.6,0.1,2.8,0.2,4.1h-0.9C824.5,332.3,824.4,331.1,824.4,330.5z"/>
	<path d="M831.1,330.6c0-1.2-0.1-1.7-1.3-1.7h-1.2c-0.7,0-1.2,0-1.3-0.1l0.2-1.1c0.2,0,0.9,0,1.7,0h0.7c1.8,0,2.1,0.4,2.1,2.5v4.1
		h-0.9V330.6z"/>
	<path d="M833.4,333.3c0.4-0.1,1.2-0.1,1.9-0.1h1.8c0-0.8,0-2,0-2.6c0-1.3-0.2-1.8-1.3-1.8h-1c-0.7,0-1.2,0-1.3-0.1l0.2-1.1
		c0.2,0,0.8,0,1.5,0h0.9c1.7,0,1.9,0.8,1.9,2.4v2c0,0.3,0,0.8,0,1h0.9l-0.2,1.1h-3.9c-0.5,0-1.3,0-1.5,0L833.4,333.3z"/>
</g>
</svg>
