<?xml version="1.0" encoding="UTF-8"?><svg id="Layer_2" xmlns="http://www.w3.org/2000/svg" viewBox="0 0 1139.73 599.56"><defs><style>.cls-1,.cls-2,.cls-3,.cls-4,.cls-5,.cls-6,.cls-7,.cls-8,.cls-9,.cls-10,.cls-11,.cls-12,.cls-13,.cls-14,.cls-15,.cls-16,.cls-17,.cls-18,.cls-19{stroke-miterlimit:10;}.cls-1,.cls-2,.cls-3,.cls-4,.cls-5,.cls-6,.cls-7,.cls-8,.cls-9,.cls-11,.cls-14,.cls-15,.cls-16,.cls-17,.cls-18,.cls-19{stroke:#000;}.cls-1,.cls-4,.cls-15,.cls-20{fill:#fff;}.cls-1,.cls-8,.cls-14{stroke-width:2.83px;}.cls-21{fill:#45b3ff;}.cls-2,.cls-6,.cls-8,.cls-9,.cls-10,.cls-12,.cls-13,.cls-17,.cls-18{fill:none;}.cls-3,.cls-22{fill:#5bb2ff;}.cls-4{stroke-width:.57px;}.cls-23{fill:#383636;}.cls-5{fill:#e8dd9f;}.cls-24,.cls-19{fill:#990b00;}.cls-6{stroke-width:1.03px;}.cls-7{fill:#c2b9b3;stroke-width:1.01px;}.cls-9{stroke-width:.94px;}.cls-25,.cls-20{font-family:MyriadHebrew-Regular, 'Myriad Hebrew';font-size:15px;}.cls-10{stroke:#a20900;}.cls-10,.cls-12{stroke-width:5.67px;}.cls-26{fill:#a20900;}.cls-11{fill:#e2d887;}.cls-12{stroke:#45b3ff;}.cls-13{stroke:#990b00;stroke-width:5.54px;}.cls-27{fill:#1d1d1d;}.cls-16{fill:#b2b2b2;stroke-width:.85px;}.cls-17{stroke-width:1.42px;}.cls-18{stroke-width:.93px;}</style></defs><g id="Layer_2-2"><g><g><line class="cls-9" x1="113.65" y1="302.32" x2="113.65" y2="550.05"/><line class="cls-9" x1="117.18" y1="302.32" x2="117.18" y2="550.05"/><line class="cls-9" x1="120.7" y1="302.32" x2="120.7" y2="550.05"/><line class="cls-9" x1="124.22" y1="302.32" x2="124.22" y2="550.05"/><line class="cls-9" x1="127.74" y1="302.32" x2="127.74" y2="550.05"/><line class="cls-9" x1="131.27" y1="302.32" x2="131.27" y2="550.05"/><line class="cls-9" x1="134.79" y1="302.32" x2="134.79" y2="550.05"/><line class="cls-9" x1="138.31" y1="302.32" x2="138.31" y2="550.05"/><line class="cls-9" x1="141.83" y1="302.32" x2="141.83" y2="550.05"/><line class="cls-9" x1="145.36" y1="302.32" x2="145.36" y2="550.05"/><line class="cls-9" x1="148.88" y1="302.32" x2="148.88" y2="550.05"/><line class="cls-9" x1="152.4" y1="302.32" x2="152.4" y2="550.05"/><line class="cls-9" x1="155.92" y1="302.32" x2="155.92" y2="550.05"/><line class="cls-9" x1="159.45" y1="302.32" x2="159.45" y2="550.05"/><line class="cls-9" x1="162.97" y1="302.32" x2="162.97" y2="550.05"/><line class="cls-9" x1="166.49" y1="302.32" x2="166.49" y2="550.05"/><line class="cls-9" x1="170.01" y1="302.32" x2="170.01" y2="550.05"/><line class="cls-9" x1="173.54" y1="302.32" x2="173.54" y2="550.05"/><line class="cls-9" x1="177.06" y1="302.32" x2="177.06" y2="550.05"/><line class="cls-9" x1="180.58" y1="302.32" x2="180.58" y2="550.05"/><line class="cls-9" x1="184.1" y1="302.32" x2="184.1" y2="550.05"/><line class="cls-9" x1="187.63" y1="302.32" x2="187.63" y2="550.05"/><line class="cls-9" x1="191.15" y1="302.32" x2="191.15" y2="550.05"/><line class="cls-9" x1="194.67" y1="302.32" x2="194.67" y2="550.05"/></g><rect class="cls-9" x="111.09" y="302.32" width="86.14" height="247.73"/></g><rect class="cls-23" x="562.12" y="303.32" width="53.43" height="19.26"/><rect class="cls-23" x="563.65" y="316.42" width="53.2" height="31.26" transform="translate(922.3 -258.2) rotate(90)"/><g><polygon class="cls-27" points="655.54 61.29 657.09 67.1 662.34 70.03 648.58 73.72 655.54 61.29"/><line class="cls-17" x1="657.02" y1="67.27" x2="667.59" y2="58.52"/></g><g><g><path class="cls-10" d="m951.09,345.59h74.14c6.6,0,12-5.4,12-12v-9.02c0-6.6-5.4-12-12-12h-340.82v-83.24h-62.68v-69.4"/><path class="cls-10" d="m1025.23,378.61h-74.14c-6.6,0-12-5.4-12-12v-9.02c0-6.6,5.4-12,12-12h74.14"/></g><g><path class="cls-10" d="m951.09,378.61h74.14c6.6,0,12,5.4,12,12v9.02c0,6.6-5.4,12-12,12h-74.14"/><path class="cls-10" d="m1025.23,444.65h-74.14c-6.6,0-12-5.4-12-12v-9.02c0-6.6,5.4-12,12-12h74.14"/></g><g><path class="cls-10" d="m951.09,444.65h74.14c6.6,0,12,5.4,12,12v9.02c0,6.6-5.4,12-12,12h-74.14"/><path class="cls-10" d="m1025.23,510.69h-74.14c-6.6,0-12-5.4-12-12v-9.02c0-6.6,5.4-12,12-12h74.14"/></g><path class="cls-10" d="m951.09,510.69h74.14c6.6,0,12,5.4,12,12v9.02c0,6.6-5.4,12-12,12H459.4"/></g><g><g><path class="cls-12" d="m197.23,312.57h-74.14c-6.6,0-12,5.4-12,12v9.02c0,6.6,5.4,12,12,12h74.14"/><path class="cls-12" d="m123.09,378.61h74.14c6.6,0,12-5.4,12-12v-9.02c0-6.6-5.4-12-12-12h-74.14"/></g><g><path class="cls-12" d="m197.23,378.61h-74.14c-6.6,0-12,5.4-12,12v9.02c0,6.6,5.4,12,12,12h74.14"/><path class="cls-12" d="m123.09,444.65h74.14c6.6,0,12-5.4,12-12v-9.02c0-6.6-5.4-12-12-12h-74.14"/></g><g><path class="cls-12" d="m197.23,444.65h-74.14c-6.6,0-12,5.4-12,12v9.02c0,6.6,5.4,12,12,12h74.14"/><path class="cls-12" d="m123.09,510.69h74.14c6.6,0,12-5.4,12-12v-9.02c0-6.6-5.4-12-12-12h-74.14"/></g><path class="cls-12" d="m197.23,510.69h-74.14c-6.6,0-12,5.4-12,12v9.02c0,6.6,5.4,12,12,12h74.14s262.17,0,262.17,0"/></g><polyline class="cls-12" points="197.18 312.55 463.85 312.55 463.85 229.31 526.53 229.31 526.53 159.91"/><polyline class="cls-12" points="463.85 312.55 581.16 312.55 581.16 359.72"/><polyline class="cls-13" points="710.77 312.79 598.81 312.79 598.81 359.96"/><rect class="cls-8" x="504.65" y="119.88" width="150.11" height="39.75" rx="12" ry="12"/><circle class="cls-22" cx="534.46" cy="139.75" r="16.82"/><circle class="cls-2" cx="532.32" cy="92.97" r="18.96"/><circle class="cls-2" cx="622.81" cy="95.11" r="18.96"/><circle class="cls-24" cx="624.95" cy="139.75" r="16.82"/><circle class="cls-16" cx="581.23" cy="139.75" r="14.37"/><circle class="cls-5" cx="677.23" cy="47.57" r="14.37"/><circle class="cls-5" cx="471.78" cy="47.96" r="14.37"/><text class="cls-20" transform="translate(616.07 143.59)"><tspan x="0" y="0">HP</tspan></text><text class="cls-25" transform="translate(669.66 53.41)"><tspan x="0" y="0">T7</tspan></text><text class="cls-25" transform="translate(464.21 53.41)"><tspan x="0" y="0">T8</tspan></text><text class="cls-20" transform="translate(526.92 143.59)"><tspan x="0" y="0">LP</tspan></text><line class="cls-2" x1="622.81" y1="76.16" x2="622.81" y2="114.07"/><line class="cls-2" x1="603.86" y1="95.11" x2="641.77" y2="95.11"/><line class="cls-2" x1="532.32" y1="74.02" x2="532.32" y2="111.93"/><line class="cls-2" x1="513.36" y1="92.97" x2="551.27" y2="92.97"/><g><polygon class="cls-27" points="488.94 68.12 494.01 64.89 495.22 58.99 502.89 70.99 488.94 68.12"/><line class="cls-17" x1="494.09" y1="65.05" x2="483.02" y2="56.93"/></g><circle class="cls-5" cx="295.45" cy="252.67" r="14.37"/><text class="cls-25" transform="translate(287.78 258.06)"><tspan x="0" y="0">T6</tspan></text><g><polygon class="cls-27" points="289.44 278.45 295.05 280.61 300.51 278.07 295.42 291.38 289.44 278.45"/><line class="cls-17" x1="294.97" y1="280.77" x2="294.92" y2="267.04"/></g><g><polygon class="cls-27" points="528.7 85.31 525.36 87.44 524.58 91.33 519.51 83.44 528.7 85.31"/><line class="cls-18" x1="525.32" y1="87.34" x2="532.62" y2="92.67"/></g><g><polygon class="cls-27" points="630.89 92.98 629.93 89.14 626.49 87.17 635.58 84.86 630.89 92.98"/><line class="cls-18" x1="629.97" y1="89.04" x2="622.93" y2="94.71"/></g><path class="cls-7" d="m609.21,369.36v-10.71h-38.22v11c-5.45,5.13-8.87,12.41-8.87,20.49,0,15.53,12.59,28.13,28.13,28.13s28.13-12.59,28.13-28.13c0-8.23-3.54-15.64-9.17-20.78Z"/><circle cx="590.25" cy="388.46" r="13.92"/><polygon class="cls-15" points="483.49 312.55 460.69 299.39 460.69 325.71 483.49 312.55"/><polygon class="cls-15" points="489.3 312.55 512.09 299.39 512.09 325.71 489.3 312.55"/><polygon class="cls-15" points="523.62 543.71 500.83 530.55 500.83 556.86 523.62 543.71"/><polygon class="cls-15" points="529.43 543.71 552.22 530.55 552.22 556.86 529.43 543.71"/><polygon class="cls-15" points="670.68 312.79 647.89 299.63 647.89 325.95 670.68 312.79"/><polygon class="cls-15" points="676.49 312.79 699.28 299.63 699.28 325.95 676.49 312.79"/><circle cx="673.6" cy="312.79" r="7.34"/><circle cx="526.53" cy="543.71" r="7.34"/><circle cx="486.7" cy="312.79" r="7.34"/><rect class="cls-3" x="517.64" y="166.11" width="17.89" height="17.89"/><rect class="cls-19" x="612.87" y="166.11" width="17.89" height="17.89"/><rect class="cls-11" x="572.29" y="166.11" width="17.89" height="17.89"/><g><path class="cls-1" d="m899.58,423.62h-3.82c-6.6,0-12-66.87-12-66.87,0-6.6,5.4-12,12-12h3.82c6.6,0,12,5.4,12,12,0,0-5.4,66.87-12,66.87Z"/><path class="cls-1" d="m899.58,432.03h-3.82c-6.6,0-12,66.87-12,66.87,0,6.6,5.4,12,12,12h3.82c6.6,0,12-5.4,12-12,0,0-5.4-66.87-12-66.87Z"/><rect class="cls-14" x="890.48" y="423.62" width="22.62" height="8.41"/><rect class="cls-1" x="913.11" y="402.22" width="20.18" height="49.83"/></g><g><circle class="cls-5" cx="862.48" cy="427.83" r="14.37"/><text class="cls-25" transform="translate(854.91 433.82)"><tspan x="0" y="0">T4</tspan></text><g><polygon class="cls-27" points="836.7 422.1 834.54 427.72 837.07 433.18 823.77 428.09 836.7 422.1"/><line class="cls-17" x1="834.38" y1="427.64" x2="848.11" y2="427.59"/></g></g><g><circle class="cls-5" cx="1101.82" cy="427.83" r="14.37"/><text class="cls-25" transform="translate(1094.25 433.82)"><tspan x="0" y="0">T3</tspan></text><g><polygon class="cls-27" points="1076.04 422.1 1073.87 427.72 1076.41 433.18 1063.1 428.09 1076.04 422.1"/><line class="cls-17" x1="1073.72" y1="427.64" x2="1087.45" y2="427.59"/></g></g><g><circle class="cls-5" cx="297.71" cy="427.83" r="14.37"/><text class="cls-25" transform="translate(290.14 432.67)"><tspan x="0" y="0">T2</tspan></text><g><polygon class="cls-27" points="323.11 433.18 325.65 427.72 323.49 422.1 336.42 428.09 323.11 433.18"/><line class="cls-17" x1="325.81" y1="427.64" x2="312.08" y2="427.59"/></g></g><g><circle class="cls-5" cx="45.25" cy="428.14" r="14.37"/><text class="cls-25" transform="translate(37.68 432.98)"><tspan x="0" y="0">T1</tspan></text><g><polygon class="cls-27" points="70.65 433.49 73.19 428.03 71.03 422.42 83.96 428.4 70.65 433.49"/><line class="cls-17" x1="73.35" y1="427.95" x2="59.62" y2="427.9"/></g></g><g><path class="cls-1" d="m256.23,423.62h3.82c6.6,0,12-66.87,12-66.87,0-6.6-5.4-12-12-12h-3.82c-6.6,0-12,5.4-12,12,0,0,5.4,66.87,12,66.87Z"/><path class="cls-1" d="m256.23,432.03h3.82c6.6,0,12,66.87,12,66.87,0,6.6-5.4,12-12,12h-3.82c-6.6,0-12-5.4-12-12,0,0,5.4-66.87,12-66.87Z"/><rect x="242.71" y="423.62" width="22.62" height="8.41" transform="translate(508.03 855.65) rotate(-180)"/><rect class="cls-1" x="222.53" y="402.22" width="20.18" height="49.83" transform="translate(465.23 854.27) rotate(-180)"/></g><g><circle class="cls-5" cx="848.11" cy="584.69" r="14.37"/><text class="cls-25" transform="translate(840.43 590.48)"><tspan x="0" y="0">T5</tspan></text><g><polygon class="cls-27" points="853.16 559.29 847.71 556.75 842.09 558.92 848.07 545.98 853.16 559.29"/><line class="cls-17" x1="847.63" y1="556.59" x2="847.58" y2="570.32"/></g></g><g><circle class="cls-5" cx="484.28" cy="498.88" r="14.37"/><text class="cls-25" transform="translate(476.72 504.72)"><tspan x="0" y="0">T9</tspan></text><g><polygon class="cls-27" points="478.27 524.66 483.89 526.82 489.34 524.28 484.25 537.59 478.27 524.66"/><line class="cls-17" x1="483.8" y1="526.98" x2="483.75" y2="513.25"/></g></g><polygon points="528.88 477.24 524.4 494.82 531.74 491 530.48 500.86 533.23 500.86 536.21 485.38 528.65 489.74 532.32 477.24 528.88 477.24"/><polygon class="cls-27" points="526.09 497.85 531.71 500.01 537.16 497.47 532.07 510.78 526.09 497.85"/><circle class="cls-15" cx="646.57" cy="543.71" r="14.37"/><circle class="cls-15" cx="297.71" cy="312.55" r="14.37"/><circle cx="646.57" cy="543.71" r="7.34"/><rect class="cls-15" x="691.45" y="525.95" width="66.04" height="35.51"/><rect class="cls-4" x="691.45" y="525.95" width="21.55" height="35.51"/><g><rect class="cls-15" x="393.36" y="525.95" width="66.04" height="35.51"/><polyline class="cls-15" points="393.36 525.95 459.4 543.71 393.36 561.46"/></g><path class="cls-6" d="m297.71,326.92c-5.21,17.74,2.76,28.76,6.77,31.73,14.46,10.7,31.55-6.62,97.59-7.31,26.32-.27,30.97,2.46,33.02,3.87,34.35,23.6,2.98,131.99-9.17,170.73"/><g><g><line class="cls-9" x1="953.65" y1="302.32" x2="953.65" y2="550.05"/><line class="cls-9" x1="957.18" y1="302.32" x2="957.18" y2="550.05"/><line class="cls-9" x1="960.7" y1="302.32" x2="960.7" y2="550.05"/><line class="cls-9" x1="964.22" y1="302.32" x2="964.22" y2="550.05"/><line class="cls-9" x1="967.74" y1="302.32" x2="967.74" y2="550.05"/><line class="cls-9" x1="971.27" y1="302.32" x2="971.27" y2="550.05"/><line class="cls-9" x1="974.79" y1="302.32" x2="974.79" y2="550.05"/><line class="cls-9" x1="978.31" y1="302.32" x2="978.31" y2="550.05"/><line class="cls-9" x1="981.83" y1="302.32" x2="981.83" y2="550.05"/><line class="cls-9" x1="985.36" y1="302.32" x2="985.36" y2="550.05"/><line class="cls-9" x1="988.88" y1="302.32" x2="988.88" y2="550.05"/><line class="cls-9" x1="992.4" y1="302.32" x2="992.4" y2="550.05"/><line class="cls-9" x1="995.92" y1="302.32" x2="995.92" y2="550.05"/><line class="cls-9" x1="999.45" y1="302.32" x2="999.45" y2="550.05"/><line class="cls-9" x1="1002.97" y1="302.32" x2="1002.97" y2="550.05"/><line class="cls-9" x1="1006.49" y1="302.32" x2="1006.49" y2="550.05"/><line class="cls-9" x1="1010.01" y1="302.32" x2="1010.01" y2="550.05"/><line class="cls-9" x1="1013.54" y1="302.32" x2="1013.54" y2="550.05"/><line class="cls-9" x1="1017.06" y1="302.32" x2="1017.06" y2="550.05"/><line class="cls-9" x1="1020.58" y1="302.32" x2="1020.58" y2="550.05"/><line class="cls-9" x1="1024.1" y1="302.32" x2="1024.1" y2="550.05"/><line class="cls-9" x1="1027.63" y1="302.32" x2="1027.63" y2="550.05"/><line class="cls-9" x1="1031.15" y1="302.32" x2="1031.15" y2="550.05"/><line class="cls-9" x1="1034.67" y1="302.32" x2="1034.67" y2="550.05"/></g><rect class="cls-9" x="951.09" y="302.32" width="86.14" height="247.73"/></g><g><path class="cls-26" d="m963.98,268.66v-7.98l.8-1.94h5.01v9.92h-5.81Zm10.5,0v-11.6c0-.44-.12-.77-.35-.99-.23-.21-.6-.32-1.08-.32h-8.8v-3.89h10.46c1.06,0,2.01.18,2.85.55.84.37,1.5.95,1.99,1.75.49.8.73,1.86.73,3.18v11.31h-5.81Z"/><path class="cls-26" d="m990.36,268.66v-11.6c0-.44-.12-.77-.35-.99-.23-.21-.6-.32-1.08-.32h-6.57v-3.89h8.23c1.06,0,2.01.18,2.85.55.84.37,1.5.95,1.99,1.75s.73,1.86.73,3.18v11.31h-5.81Zm-8.01,0v-3.89h15.85v3.89h-15.85Z"/><path class="cls-26" d="m999.71,269.94l-.8-4.09,8.36-1.42c.94-.15,1.67-.44,2.2-.86.53-.42.93-.96,1.2-1.64.27-.68.44-1.5.53-2.46s.12-2.08.11-3.35c-.01-1.27-.02-2.68-.02-4.25h5.74c0,1.76-.03,3.41-.1,4.94-.06,1.54-.24,2.95-.53,4.23s-.77,2.43-1.44,3.44-1.62,1.86-2.84,2.55c-1.22.7-2.81,1.22-4.77,1.57l-7.66,1.33Zm4.08-4.35l-3.54-13.72h5.81l3.25,13.72h-5.52Z"/><path class="cls-26" d="m1019.42,268.66l2.14-11.11-2.58-5.68h6.03l2.04,5.97-1.82,10.82h-5.81Zm7.59.03l.51-3.89c1.49.29,2.6.29,3.35-.01.74-.3,1.25-.84,1.52-1.61.27-.77.4-1.71.4-2.81s-.1-1.97-.3-2.67c-.2-.7-.52-1.21-.96-1.55-.44-.34-1.02-.51-1.74-.51-.43,0-.83.08-1.23.23-.39.16-.73.39-1,.71-.28.32-.45.74-.51,1.26l-1.21-2.09c.42-1.49,1.11-2.57,2.06-3.23.95-.67,2-1,3.17-1,1.23,0,2.3.19,3.21.58.9.39,1.65.96,2.25,1.71.59.75,1.04,1.68,1.32,2.78s.43,2.36.43,3.77c0,2.07-.44,3.82-1.32,5.25-.88,1.43-2.16,2.43-3.84,3-1.68.57-3.71.59-6.09.07Z"/></g><g><path class="cls-21" d="m115.82,272.05v-9.51c0-.79.08-1.48.25-2.06.17-.58.39-1.02.67-1.33h-7.75v-3.89h15.66v3.89h-2.52c-.21.48-.35,1.04-.42,1.67-.06.63-.1,1.2-.1,1.73v9.51h-5.81Z"/><path class="cls-21" d="m127.24,265.96v-7.31l-.35-3.39h5.77l.38,3.39v4.61l-.03,1.83-5.77.87Z"/><path class="cls-21" d="m136.11,265.96v-7.31l-.35-3.39h5.77l.38,3.39v4.61l-.03,1.83-5.77.87Z"/><path class="cls-21" d="m163.26,272.05h-6.12l-5.3-7.63-2.52,7.63h-5.49l3.57-9.95,1.02-2.38-2.97-4.47h5.81l2.39,3.6,1.88,2.67.93-2.78.92-3.48h5.49l-3.96,10.82,4.34,5.97Z"/><path class="cls-21" d="m165.3,272.05l2.14-11.11-2.58-5.68h6.03l2.04,5.97-1.82,10.82h-5.81Zm7.59.03l.51-3.89c1.49.29,2.6.29,3.35-.01.74-.3,1.25-.84,1.52-1.61.27-.77.4-1.71.4-2.81s-.1-1.97-.3-2.67c-.2-.7-.52-1.21-.96-1.55-.44-.34-1.02-.51-1.74-.51-.43,0-.83.08-1.23.23-.39.16-.73.39-1,.71-.28.32-.45.74-.51,1.26l-1.21-2.09c.42-1.49,1.11-2.57,2.06-3.23.95-.67,2-1,3.17-1,1.23,0,2.3.19,3.21.58.9.39,1.65.96,2.25,1.71.59.75,1.04,1.68,1.32,2.78s.43,2.36.43,3.77c0,2.07-.44,3.82-1.32,5.25-.88,1.43-2.16,2.43-3.84,3-1.68.57-3.71.59-6.09.07Z"/></g><g><path d="m1058.48,363.89l-.48-3.54c.81-.1,1.39-.23,1.75-.41.36-.17.59-.44.7-.78.11-.35.16-.83.16-1.45v-11.17h10.65c1.06,0,2.01.18,2.85.55.84.37,1.5.95,1.99,1.75s.73,1.86.73,3.18v11.31h-5.81v-11.6c0-.44-.12-.77-.35-.99-.23-.21-.6-.32-1.08-.32h-3.19v6.58c0,1.66-.28,2.97-.85,3.91-.56.95-1.43,1.64-2.6,2.07-1.17.44-2.67.73-4.5.88Z"/><path d="m1081.6,363.63l-1.66-13.19,5.52-2.26,1.21,10.82c.94-.06,1.7-.18,2.28-.38.58-.19,1.03-.45,1.34-.77.31-.32.52-.7.64-1.13.12-.44.18-.92.19-1.45.01-.53,0-1.11-.02-1.73v-.96c0-.48-.08-.88-.24-1.19-.16-.31-.37-.55-.62-.71-.26-.16-.55-.25-.89-.25h-9.41l-.54-3.89h10.37c2.23,0,3.95.54,5.15,1.62,1.2,1.08,1.83,2.57,1.9,4.47l.03,1.02c.06,1.8-.23,3.32-.89,4.55-.66,1.24-1.65,2.24-2.97,3.02-1.32.77-2.93,1.35-4.85,1.74-1.91.39-4.09.61-6.54.67Z"/><path d="m1099.92,357.25v-7.31l-.35-3.39h5.77l.38,3.39v4.61l-.03,1.83-5.77.87Z"/><path d="m1108.21,363.34v-3.89h4.18v-7.66c0-.62-.12-1.02-.35-1.2-.23-.18-.56-.29-.99-.33l-2.3-.26.7-3.83,4.69.52c1.32.14,2.32.66,3.01,1.57.69.91,1.04,2.04,1.04,3.39v11.69h-9.98Z"/><path d="m1120.17,363.34v-3.89h5.58c.7,0,1.25-.16,1.66-.48.4-.32.69-.73.85-1.25s.24-1.05.24-1.61v-2.35c0-.56-.08-1.1-.24-1.61-.16-.51-.44-.93-.85-1.25-.4-.32-.96-.48-1.66-.48h-5.58v-3.89h7.24c1.57,0,2.87.32,3.88.97,1.01.65,1.77,1.54,2.27,2.67.5,1.13.75,2.42.75,3.87v1.77c0,1.45-.25,2.74-.75,3.87-.5,1.13-1.26,2.02-2.27,2.67-1.01.65-2.3.97-3.88.97h-7.24Z"/><path d="m1073.42,398.14v-11.6c0-.44-.12-.77-.35-.99-.23-.21-.6-.32-1.08-.32h-6.54v-3.89h8.2c1.06,0,2.01.18,2.86.55.84.37,1.5.95,1.99,1.75.49.8.73,1.86.73,3.18v11.31h-5.81Z"/><path d="m1082.29,392.05v-7.31l-.35-3.39h5.77l.38,3.39v4.61l-.03,1.83-5.77.87Z"/><path d="m1091.16,398.14v-13.4l-.35-3.39h5.77l.38,3.39v13.4h-5.81Z"/><path d="m1100.03,398.14v-13.4l-.35-3.39h5.77l.38,3.39v13.4h-5.81Z"/><path d="m1127.17,398.14h-6.12l-5.3-7.63-2.52,7.63h-5.49l3.57-9.95,1.02-2.38-2.97-4.47h5.81l2.39,3.6,1.88,2.67.93-2.78.92-3.48h5.49l-3.96,10.82,4.34,5.97Z"/></g><g><path d="m739.68,418.12l-.48-3.54c.81-.1,1.39-.23,1.75-.41.36-.17.59-.44.7-.78s.16-.83.16-1.45v-11.17h10.65c1.06,0,2.01.18,2.85.55.84.37,1.5.95,1.99,1.75.49.8.73,1.86.73,3.18v11.31h-5.81v-11.6c0-.44-.12-.77-.35-.99-.23-.21-.6-.32-1.08-.32h-3.19v6.58c0,1.66-.28,2.97-.85,3.91-.56.95-1.43,1.64-2.6,2.07-1.17.43-2.67.73-4.5.88Z"/><path d="m779.4,417.57h-6.12l-5.3-7.63-2.52,7.63h-5.49l3.57-9.95,1.02-2.38-2.97-4.47h5.81l2.39,3.6,1.88,2.67.93-2.78.92-3.48h5.49l-3.96,10.82,4.34,5.97Z"/><path d="m781.83,411.48v-7.31l-.35-3.39h5.77l.38,3.39v4.61l-.03,1.83-5.77.87Z"/><path d="m789.86,417.57v-3.89h13.11l1.66,3.89h-14.77Zm10.3,0l-10.14-16.79h5.81l10.14,16.79h-5.81Zm1.72-6.38l-3.32-4.44,2.58-5.97h5.71l-4.98,10.41Z"/><path d="m809.29,411.48v-7.31l-.35-3.39h5.77l.38,3.39v4.61l-.03,1.83-5.77.87Z"/><path d="m754.66,452.37v-11.6c0-.44-.12-.77-.35-.99-.23-.21-.6-.32-1.08-.32h-6.54v-3.89h8.2c1.06,0,2.01.18,2.86.55.84.37,1.5.95,1.99,1.75.49.8.73,1.86.73,3.18v11.31h-5.81Z"/><path d="m763.53,446.28v-7.31l-.35-3.39h5.77l.38,3.39v4.61l-.03,1.83-5.77.87Z"/><path d="m772.4,452.37v-13.4l-.35-3.39h5.77l.38,3.39v13.4h-5.81Z"/><path d="m781.27,452.37v-13.4l-.35-3.39h5.77l.38,3.39v13.4h-5.81Z"/><path d="m808.41,452.37h-6.12l-5.3-7.63-2.52,7.63h-5.49l3.57-9.95,1.02-2.38-2.97-4.47h5.81l2.39,3.6,1.88,2.67.93-2.78.92-3.48h5.49l-3.96,10.82,4.34,5.97Z"/></g><g><path d="m555.52,442.41l-1.66-13.19,5.52-2.26,1.21,10.82c.94-.06,1.7-.18,2.28-.38.58-.19,1.03-.45,1.34-.77.31-.32.52-.7.64-1.13.12-.44.18-.92.19-1.45.01-.53,0-1.11-.02-1.73v-.96c0-.48-.08-.88-.24-1.19-.16-.31-.37-.55-.62-.71-.26-.16-.55-.25-.89-.25h-9.41l-.54-3.89h10.37c2.23,0,3.95.54,5.15,1.62,1.2,1.08,1.83,2.57,1.9,4.47l.03,1.02c.06,1.8-.23,3.32-.89,4.55-.66,1.24-1.65,2.24-2.97,3.02-1.32.77-2.93,1.35-4.85,1.74s-4.09.61-6.54.67Z"/><path d="m584.62,442.12v-11.6c0-.87-.48-1.3-1.44-1.3h-9.44v-3.89h11.1c1.06,0,2.01.18,2.85.55.84.37,1.5.95,1.99,1.75.49.8.73,1.86.73,3.18v11.31h-5.81Zm-10.88,0v-14.3h5.81v14.3h-5.81Z"/><path d="m599.39,442.12v-9.51c0-.79.08-1.48.25-2.06.17-.58.39-1.03.67-1.33h-7.75v-3.89h15.66v3.89h-2.52c-.21.48-.35,1.04-.42,1.67-.06.63-.1,1.2-.1,1.73v9.51h-5.81Z"/><path d="m610.42,442.12l2.14-11.11-2.58-5.68h6.03l2.04,5.97-1.82,10.82h-5.81Zm7.59.03l.51-3.89c1.49.29,2.6.29,3.35-.01.74-.3,1.25-.84,1.52-1.61.27-.77.4-1.71.4-2.81s-.1-1.97-.3-2.67c-.2-.7-.52-1.21-.96-1.55-.44-.34-1.02-.51-1.74-.51-.43,0-.83.08-1.23.23-.39.16-.73.39-1,.71-.28.32-.45.74-.51,1.26l-1.21-2.09c.42-1.49,1.11-2.57,2.06-3.23.95-.67,2-1,3.17-1,1.23,0,2.3.19,3.21.58.9.39,1.65.96,2.25,1.71.59.75,1.04,1.68,1.32,2.78.29,1.1.43,2.36.43,3.77,0,2.07-.44,3.82-1.32,5.25-.88,1.43-2.16,2.43-3.84,3-1.68.57-3.71.59-6.09.07Z"/></g><g><path d="m537.37,25.38v-9.51c0-.79.08-1.48.25-2.06.17-.58.39-1.02.67-1.33h-7.75v-3.89h15.66v3.89h-2.52c-.21.48-.35,1.04-.42,1.67-.06.63-.1,1.2-.1,1.73v9.51h-5.81Z"/><path d="m547.96,12.47v-7.89h5.17v7.89h-5.17Zm3.38,12.9l5.49-12.9h-8.87v-3.89h14.67v4.29l-5.49,12.5h-5.81Z"/><path d="m565.06,25.38v-13.4l-.35-3.39h5.77l.38,3.39v13.4h-5.81Z"/><path d="m573.58,25.38v-3.89h7.15c.53,0,.99-.09,1.37-.28.38-.18.7-.44.94-.75.24-.32.42-.68.54-1.07s.18-.81.18-1.23v-2.35c0-.56-.11-1.1-.32-1.61-.21-.51-.54-.93-.99-1.25-.45-.32-1.02-.48-1.72-.48h-1.72l-.45,2.03c-.08.48,0,.85.26,1.1.25.25.74.45,1.47.61l-.83,3.19c-1.72.02-3.04-.22-3.96-.73-.92-.5-1.52-1.16-1.8-1.99-.29-.82-.35-1.72-.18-2.68l1.31-5.42h7.34c1.57,0,2.91.32,4,.97,1.1.65,1.94,1.54,2.52,2.67.58,1.13.88,2.42.88,3.87v1.77c0,1.08-.17,2.08-.49,3-.33.92-.81,1.72-1.45,2.39-.64.68-1.41,1.2-2.33,1.57-.92.37-1.96.55-3.13.55h-8.58Z"/><path d="m591.98,19.29v-7.31l-.35-3.39h5.77l.38,3.39v4.61l-.03,1.83-5.77.87Z"/><path d="m600.28,25.38v-3.89h4.18v-7.66c0-.62-.12-1.02-.35-1.2-.23-.18-.56-.29-.99-.33l-2.3-.26.7-3.83,4.69.52c1.32.14,2.32.66,3.01,1.57.69.91,1.04,2.04,1.04,3.39v11.69h-9.98Z"/><path d="m612.85,25.38l2.14-11.11-2.58-5.68h6.03l2.04,5.97-1.82,10.82h-5.81Zm7.59.03l.51-3.89c1.49.29,2.6.29,3.35-.01.74-.3,1.25-.84,1.52-1.61.27-.77.4-1.71.4-2.81s-.1-1.97-.3-2.67c-.2-.7-.52-1.21-.96-1.55-.44-.34-1.02-.51-1.74-.51-.43,0-.83.08-1.23.23-.39.16-.73.39-1,.71-.28.32-.45.74-.51,1.26l-1.21-2.09c.42-1.49,1.11-2.57,2.06-3.23.95-.67,2-1,3.17-1,1.23,0,2.3.19,3.21.58.9.39,1.65.96,2.25,1.71.59.75,1.04,1.68,1.32,2.78s.43,2.36.43,3.77c0,2.07-.44,3.82-1.32,5.25-.88,1.43-2.16,2.43-3.84,3-1.68.57-3.71.59-6.09.07Z"/><path d="m537.13,65.4c-1.34-2.01-2.38-4.09-3.11-6.24-.73-2.15-1.1-4.49-1.1-7.05s.37-4.91,1.1-7.06c.73-2.16,1.77-4.23,3.11-6.22l3.45,1.28c-1.15,1.88-1.98,3.84-2.49,5.9s-.77,4.09-.77,6.1.25,4.02.77,6.08c.51,2.06,1.34,4.04,2.49,5.93l-3.45,1.28Z"/><path d="m543.19,60.73l-.48-3.54c.81-.1,1.39-.23,1.75-.41.36-.17.59-.44.7-.78.11-.35.16-.83.16-1.45v-11.17h10.65c1.06,0,2.01.18,2.85.55.84.37,1.5.95,1.99,1.75s.73,1.86.73,3.18v11.31h-5.81v-11.6c0-.44-.12-.77-.35-.99-.23-.21-.6-.32-1.08-.32h-3.19v6.58c0,1.66-.28,2.97-.85,3.91-.56.95-1.43,1.64-2.6,2.07-1.17.44-2.67.73-4.5.88Z"/><path d="m564.28,60.17v-3.89h7.15c.53,0,.99-.09,1.37-.28.38-.18.7-.44.94-.75.24-.32.42-.68.54-1.07s.18-.81.18-1.23v-2.35c0-.56-.11-1.1-.32-1.61-.21-.51-.54-.93-.99-1.25-.45-.32-1.02-.48-1.72-.48h-1.72l-.45,2.03c-.08.48,0,.85.26,1.1.25.25.74.45,1.47.61l-.83,3.19c-1.72.02-3.04-.22-3.96-.73-.92-.5-1.52-1.16-1.8-1.99-.29-.82-.35-1.72-.18-2.68l1.31-5.42h7.34c1.57,0,2.91.32,4,.97,1.1.65,1.94,1.54,2.52,2.67.58,1.13.88,2.42.88,3.87v1.77c0,1.08-.17,2.08-.49,3-.33.92-.81,1.72-1.45,2.39-.64.68-1.41,1.2-2.33,1.57-.92.37-1.96.55-3.13.55h-8.58Z"/><path d="m581.76,61.45l-.8-4.09,8.36-1.42c.94-.15,1.67-.44,2.2-.86.53-.42.93-.96,1.2-1.64.27-.68.44-1.5.53-2.46s.12-2.08.11-3.35c-.01-1.27-.02-2.68-.02-4.25h5.74c0,1.76-.03,3.41-.1,4.94-.06,1.54-.24,2.95-.53,4.23s-.77,2.43-1.44,3.44-1.62,1.86-2.84,2.55c-1.22.7-2.81,1.22-4.77,1.57l-7.66,1.33Zm4.08-4.35l-3.54-13.72h5.81l3.25,13.72h-5.52Z"/><path d="m603.55,60.46l-1.66-13.19,5.52-2.26,1.21,10.82c.94-.06,1.7-.18,2.28-.38.58-.19,1.03-.45,1.34-.77.31-.32.52-.7.64-1.13.12-.44.18-.92.19-1.45.01-.53,0-1.11-.02-1.73v-.96c0-.48-.08-.88-.24-1.19-.16-.31-.37-.55-.62-.71-.26-.16-.55-.25-.89-.25h-9.41l-.54-3.89h10.37c2.23,0,3.95.54,5.15,1.62,1.2,1.08,1.83,2.57,1.9,4.47l.03,1.02c.06,1.8-.23,3.32-.89,4.55-.66,1.24-1.65,2.24-2.97,3.02-1.32.77-2.93,1.35-4.85,1.74-1.91.39-4.09.61-6.54.67Z"/><path d="m625.33,65.4l-3.44-1.28c1.15-1.9,1.98-3.87,2.49-5.93.51-2.06.77-4.08.77-6.08s-.26-4.05-.77-6.1c-.51-2.06-1.34-4.03-2.49-5.9l3.44-1.28c1.34,1.99,2.38,4.07,3.11,6.22.73,2.16,1.1,4.51,1.1,7.06s-.37,4.9-1.1,7.05c-.73,2.15-1.77,4.22-3.11,6.24Z"/></g><g><path d="m7.34,363.89l-.48-3.54c.81-.1,1.39-.23,1.75-.41.36-.17.59-.44.7-.78.11-.35.16-.83.16-1.45v-11.17h10.65c1.06,0,2.01.18,2.85.55.84.37,1.5.95,1.99,1.75s.73,1.86.73,3.18v11.31h-5.81v-11.6c0-.44-.12-.77-.35-.99-.23-.21-.6-.32-1.08-.32h-3.19v6.58c0,1.66-.28,2.97-.85,3.91-.56.95-1.43,1.64-2.6,2.07-1.17.44-2.67.73-4.5.88Z"/><path d="m30.46,363.63l-1.66-13.19,5.52-2.26,1.21,10.82c.94-.06,1.7-.18,2.28-.38.58-.19,1.03-.45,1.34-.77.31-.32.52-.7.64-1.13.12-.44.18-.92.19-1.45.01-.53,0-1.11-.02-1.73v-.96c0-.48-.08-.88-.24-1.19-.16-.31-.37-.55-.62-.71-.26-.16-.55-.25-.89-.25h-9.41l-.54-3.89h10.37c2.23,0,3.95.54,5.15,1.62,1.2,1.08,1.83,2.57,1.9,4.47l.03,1.02c.06,1.8-.23,3.32-.89,4.55-.66,1.24-1.65,2.24-2.97,3.02-1.32.77-2.93,1.35-4.85,1.74-1.91.39-4.09.61-6.54.67Z"/><path d="m48.78,357.25v-7.31l-.35-3.39h5.77l.38,3.39v4.61l-.03,1.83-5.77.87Z"/><path d="m57.07,363.34v-3.89h4.18v-7.66c0-.62-.12-1.02-.35-1.2-.23-.18-.56-.29-.99-.33l-2.3-.26.7-3.83,4.69.52c1.32.14,2.32.66,3.01,1.57.69.91,1.04,2.04,1.04,3.39v11.69h-9.98Z"/><path d="m69.03,363.34v-3.89h5.58c.7,0,1.25-.16,1.66-.48.4-.32.69-.73.85-1.25s.24-1.05.24-1.61v-2.35c0-.56-.08-1.1-.24-1.61-.16-.51-.44-.93-.85-1.25-.4-.32-.96-.48-1.66-.48h-5.58v-3.89h7.24c1.57,0,2.87.32,3.88.97,1.01.65,1.77,1.54,2.27,2.67.5,1.13.75,2.42.75,3.87v1.77c0,1.45-.25,2.74-.75,3.87-.5,1.13-1.26,2.02-2.27,2.67-1.01.65-2.3.97-3.88.97h-7.24Z"/><path d="m22,398.14v-16.79h5.81v16.79h-5.81Zm1.18,0v-3.89h13.24v3.89h-13.24Zm9.54,0v-11.6c0-.44-.12-.77-.35-.99-.23-.21-.6-.32-1.08-.32h-5.55v-3.89h7.21c1.06,0,2.01.18,2.85.55.84.37,1.5.95,1.99,1.75.49.8.73,1.86.73,3.18v11.31h-5.81Z"/><path d="m41.42,392.05v-7.31l-.35-3.39h5.77l.38,3.39v4.61l-.03,1.83-5.77.87Z"/><path d="m49.91,398.14l2.14-11.11-2.58-5.68h6.03l2.04,5.97-1.82,10.82h-5.81Zm7.59.03l.51-3.89c1.49.29,2.6.29,3.35-.01.74-.3,1.25-.84,1.52-1.61.27-.77.4-1.71.4-2.81s-.1-1.97-.3-2.67c-.2-.7-.52-1.21-.96-1.55-.44-.34-1.02-.51-1.74-.51-.43,0-.83.08-1.23.23-.39.16-.73.39-1,.71-.28.32-.45.74-.51,1.26l-1.21-2.09c.42-1.49,1.11-2.57,2.06-3.23.95-.67,2-1,3.17-1,1.23,0,2.3.19,3.21.58.9.39,1.65.96,2.25,1.71.59.75,1.04,1.68,1.32,2.78.29,1.1.43,2.36.43,3.77,0,2.07-.44,3.82-1.32,5.25-.88,1.43-2.16,2.43-3.84,3-1.68.57-3.71.59-6.09.07Z"/></g><g><path d="m341.73,418.12l-.48-3.54c.81-.1,1.39-.23,1.75-.41.36-.17.59-.44.7-.78s.16-.83.16-1.45v-11.17h10.65c1.06,0,2.01.18,2.85.55.84.37,1.5.95,1.99,1.75.49.8.73,1.86.73,3.18v11.31h-5.81v-11.6c0-.44-.12-.77-.35-.99-.23-.21-.6-.32-1.08-.32h-3.19v6.58c0,1.66-.28,2.97-.85,3.91-.56.95-1.43,1.64-2.6,2.07-1.17.43-2.67.73-4.5.88Z"/><path d="m381.45,417.57h-6.12l-5.3-7.63-2.52,7.63h-5.49l3.57-9.95,1.02-2.38-2.97-4.47h5.81l2.39,3.6,1.88,2.67.93-2.78.92-3.48h5.49l-3.96,10.82,4.34,5.97Z"/><path d="m383.87,411.48v-7.31l-.35-3.39h5.77l.38,3.39v4.61l-.03,1.83-5.77.87Z"/><path d="m391.91,417.57v-3.89h13.11l1.66,3.89h-14.77Zm10.3,0l-10.14-16.79h5.81l10.14,16.79h-5.81Zm1.72-6.38l-3.32-4.44,2.58-5.97h5.71l-4.98,10.41Z"/><path d="m411.34,411.48v-7.31l-.35-3.39h5.77l.38,3.39v4.61l-.03,1.83-5.77.87Z"/><path d="m356.42,452.37v-16.79h5.81v16.79h-5.81Zm1.18,0v-3.89h13.24v3.89h-13.24Zm9.54,0v-11.6c0-.44-.12-.77-.35-.99-.23-.21-.6-.32-1.08-.32h-5.55v-3.89h7.21c1.06,0,2.01.18,2.85.55.84.37,1.5.95,1.99,1.75.49.8.73,1.86.73,3.18v11.31h-5.81Z"/><path d="m375.85,446.28v-7.31l-.35-3.39h5.77l.38,3.39v4.61l-.03,1.83-5.77.87Z"/><path d="m384.33,452.37l2.14-11.11-2.58-5.68h6.03l2.04,5.97-1.82,10.82h-5.81Zm7.59.03l.51-3.89c1.49.29,2.6.29,3.35-.01.74-.3,1.25-.84,1.52-1.61.27-.77.4-1.71.4-2.81s-.1-1.97-.3-2.67c-.2-.7-.52-1.21-.96-1.55-.44-.34-1.02-.51-1.74-.51-.43,0-.83.08-1.23.23-.39.16-.73.39-1,.71-.28.32-.45.74-.51,1.26l-1.21-2.09c.42-1.49,1.11-2.57,2.06-3.23.95-.67,2-1,3.17-1,1.23,0,2.3.19,3.21.58.9.39,1.65.96,2.25,1.71.59.75,1.04,1.68,1.32,2.78.29,1.1.43,2.36.43,3.77,0,2.07-.44,3.82-1.32,5.25-.88,1.43-2.16,2.43-3.84,3-1.68.57-3.71.59-6.09.07Z"/></g></g></svg>