<?xml version="1.0" encoding="UTF-8"?><svg id="Layer_2" xmlns="http://www.w3.org/2000/svg" viewBox="0 0 1086.31 566.86"><defs><style>.cls-1,.cls-2,.cls-3,.cls-4,.cls-5,.cls-6,.cls-7,.cls-8,.cls-9,.cls-10,.cls-11,.cls-12,.cls-13,.cls-14,.cls-15,.cls-16,.cls-17,.cls-18,.cls-19{stroke-miterlimit:10;}.cls-1,.cls-2,.cls-3,.cls-4,.cls-5,.cls-6,.cls-7,.cls-8,.cls-9,.cls-11,.cls-14,.cls-15,.cls-16,.cls-17,.cls-18,.cls-19{stroke:#000;}.cls-1,.cls-4,.cls-15,.cls-20{fill:#fff;}.cls-1,.cls-8,.cls-14{stroke-width:2.83px;}.cls-2,.cls-6,.cls-8,.cls-9,.cls-10,.cls-12,.cls-13,.cls-17,.cls-18{fill:none;}.cls-3,.cls-21{fill:#5bb2ff;}.cls-4{stroke-width:.57px;}.cls-22{fill:#383636;}.cls-5{fill:#e8dd9f;}.cls-23,.cls-19{fill:#990b00;}.cls-6{stroke-width:1.03px;}.cls-7{fill:#c2b9b3;stroke-width:1.01px;}.cls-9{stroke-width:.94px;}.cls-24,.cls-20{font-family:MyriadHebrew-Regular, 'Myriad Hebrew';font-size:15px;}.cls-10{stroke:#a20900;}.cls-10,.cls-12{stroke-width:5.67px;}.cls-11{fill:#e2d887;}.cls-12{stroke:#45b3ff;}.cls-13{stroke:#990b00;stroke-width:5.54px;}.cls-25{fill:#1d1d1d;}.cls-16{fill:#b2b2b2;stroke-width:.85px;}.cls-17{stroke-width:1.42px;}.cls-18{stroke-width:.93px;}</style></defs><g id="Layer_2-2"><g><g><line class="cls-9" x1="83.27" y1="269.62" x2="83.27" y2="517.35"/><line class="cls-9" x1="86.79" y1="269.62" x2="86.79" y2="517.35"/><line class="cls-9" x1="90.32" y1="269.62" x2="90.32" y2="517.35"/><line class="cls-9" x1="93.84" y1="269.62" x2="93.84" y2="517.35"/><line class="cls-9" x1="97.36" y1="269.62" x2="97.36" y2="517.35"/><line class="cls-9" x1="100.89" y1="269.62" x2="100.89" y2="517.35"/><line class="cls-9" x1="104.41" y1="269.62" x2="104.41" y2="517.35"/><line class="cls-9" x1="107.93" y1="269.62" x2="107.93" y2="517.35"/><line class="cls-9" x1="111.45" y1="269.62" x2="111.45" y2="517.35"/><line class="cls-9" x1="114.98" y1="269.62" x2="114.98" y2="517.35"/><line class="cls-9" x1="118.5" y1="269.62" x2="118.5" y2="517.35"/><line class="cls-9" x1="122.02" y1="269.62" x2="122.02" y2="517.35"/><line class="cls-9" x1="125.54" y1="269.62" x2="125.54" y2="517.35"/><line class="cls-9" x1="129.07" y1="269.62" x2="129.07" y2="517.35"/><line class="cls-9" x1="132.59" y1="269.62" x2="132.59" y2="517.35"/><line class="cls-9" x1="136.11" y1="269.62" x2="136.11" y2="517.35"/><line class="cls-9" x1="139.63" y1="269.62" x2="139.63" y2="517.35"/><line class="cls-9" x1="143.16" y1="269.62" x2="143.16" y2="517.35"/><line class="cls-9" x1="146.68" y1="269.62" x2="146.68" y2="517.35"/><line class="cls-9" x1="150.2" y1="269.62" x2="150.2" y2="517.35"/><line class="cls-9" x1="153.72" y1="269.62" x2="153.72" y2="517.35"/><line class="cls-9" x1="157.25" y1="269.62" x2="157.25" y2="517.35"/><line class="cls-9" x1="160.77" y1="269.62" x2="160.77" y2="517.35"/><line class="cls-9" x1="164.29" y1="269.62" x2="164.29" y2="517.35"/></g><rect class="cls-9" x="80.71" y="269.62" width="86.14" height="247.73"/></g><rect class="cls-22" x="531.74" y="270.61" width="53.43" height="19.26"/><rect class="cls-22" x="533.27" y="283.72" width="53.2" height="31.26" transform="translate(859.22 -260.52) rotate(90)"/><g><polygon class="cls-25" points="625.16 28.59 626.7 34.4 631.96 37.33 618.2 41.02 625.16 28.59"/><line class="cls-17" x1="626.64" y1="34.57" x2="637.21" y2="25.82"/></g><g><g><path class="cls-10" d="m920.71,312.89h74.14c6.6,0,12-5.4,12-12v-9.02c0-6.6-5.4-12-12-12h-340.82v-83.24h-62.68v-69.4"/><path class="cls-10" d="m994.85,345.91h-74.14c-6.6,0-12-5.4-12-12v-9.02c0-6.6,5.4-12,12-12h74.14"/></g><g><path class="cls-10" d="m920.71,345.91h74.14c6.6,0,12,5.4,12,12v9.02c0,6.6-5.4,12-12,12h-74.14"/><path class="cls-10" d="m994.85,411.95h-74.14c-6.6,0-12-5.4-12-12v-9.02c0-6.6,5.4-12,12-12h74.14"/></g><g><path class="cls-10" d="m920.71,411.95h74.14c6.6,0,12,5.4,12,12v9.02c0,6.6-5.4,12-12,12h-74.14"/><path class="cls-10" d="m994.85,477.99h-74.14c-6.6,0-12-5.4-12-12v-9.02c0-6.6,5.4-12,12-12h74.14"/></g><path class="cls-10" d="m920.71,477.99h74.14c6.6,0,12,5.4,12,12v9.02c0,6.6-5.4,12-12,12H429.02"/></g><g><g><path class="cls-12" d="m166.85,279.87h-74.14c-6.6,0-12,5.4-12,12v9.02c0,6.6,5.4,12,12,12h74.14"/><path class="cls-12" d="m92.71,345.91h74.14c6.6,0,12-5.4,12-12v-9.02c0-6.6-5.4-12-12-12h-74.14"/></g><g><path class="cls-12" d="m166.85,345.91h-74.14c-6.6,0-12,5.4-12,12v9.02c0,6.6,5.4,12,12,12h74.14"/><path class="cls-12" d="m92.71,411.95h74.14c6.6,0,12-5.4,12-12v-9.02c0-6.6-5.4-12-12-12h-74.14"/></g><g><path class="cls-12" d="m166.85,411.95h-74.14c-6.6,0-12,5.4-12,12v9.02c0,6.6,5.4,12,12,12h74.14"/><path class="cls-12" d="m92.71,477.99h74.14c6.6,0,12-5.4,12-12v-9.02c0-6.6-5.4-12-12-12h-74.14"/></g><path class="cls-12" d="m166.85,477.99h-74.14c-6.6,0-12,5.4-12,12v9.02c0,6.6,5.4,12,12,12h74.14s262.17,0,262.17,0"/></g><polyline class="cls-12" points="166.8 279.85 433.47 279.85 433.47 196.61 496.15 196.61 496.15 127.21"/><polyline class="cls-12" points="433.47 279.85 550.78 279.85 550.78 327.02"/><polyline class="cls-13" points="680.39 280.09 568.43 280.09 568.43 327.26"/><rect class="cls-8" x="474.27" y="87.18" width="150.11" height="39.75" rx="12" ry="12"/><circle class="cls-21" cx="504.07" cy="107.05" r="16.82"/><circle class="cls-2" cx="501.93" cy="60.27" r="18.96"/><circle class="cls-2" cx="592.43" cy="62.41" r="18.96"/><circle class="cls-23" cx="594.57" cy="107.05" r="16.82"/><circle class="cls-16" cx="550.85" cy="107.05" r="14.37"/><circle class="cls-5" cx="646.85" cy="14.87" r="14.37"/><circle class="cls-5" cx="441.4" cy="15.26" r="14.37"/><text class="cls-20" transform="translate(585.69 110.89)"><tspan x="0" y="0">HP</tspan></text><text class="cls-24" transform="translate(639.28 20.71)"><tspan x="0" y="0">T7</tspan></text><text class="cls-24" transform="translate(433.83 20.71)"><tspan x="0" y="0">T8</tspan></text><text class="cls-20" transform="translate(496.54 110.89)"><tspan x="0" y="0">LP</tspan></text><line class="cls-2" x1="592.43" y1="43.46" x2="592.43" y2="81.37"/><line class="cls-2" x1="573.48" y1="62.41" x2="611.39" y2="62.41"/><line class="cls-2" x1="501.93" y1="41.32" x2="501.93" y2="79.23"/><line class="cls-2" x1="482.98" y1="60.27" x2="520.89" y2="60.27"/><g><polygon class="cls-25" points="458.56 35.42 463.63 32.19 464.83 26.29 472.51 38.29 458.56 35.42"/><line class="cls-17" x1="463.71" y1="32.35" x2="452.64" y2="24.23"/></g><circle class="cls-5" cx="265.07" cy="219.97" r="14.37"/><text class="cls-24" transform="translate(257.4 225.36)"><tspan x="0" y="0">T6</tspan></text><g><polygon class="cls-25" points="259.06 245.75 264.67 247.91 270.13 245.37 265.04 258.68 259.06 245.75"/><line class="cls-17" x1="264.59" y1="248.07" x2="264.54" y2="234.34"/></g><g><polygon class="cls-25" points="498.32 52.61 494.98 54.74 494.2 58.63 489.13 50.74 498.32 52.61"/><line class="cls-18" x1="494.94" y1="54.64" x2="502.24" y2="59.97"/></g><g><polygon class="cls-25" points="600.51 60.28 599.55 56.44 596.11 54.47 605.2 52.16 600.51 60.28"/><line class="cls-18" x1="599.59" y1="56.34" x2="592.55" y2="62"/></g><path class="cls-7" d="m578.83,336.66v-10.71h-38.22v11c-5.45,5.13-8.87,12.41-8.87,20.49,0,15.53,12.59,28.13,28.13,28.13s28.13-12.59,28.13-28.13c0-8.23-3.54-15.64-9.17-20.78Z"/><circle cx="559.87" cy="355.76" r="13.92"/><polygon class="cls-15" points="453.1 279.85 430.31 266.69 430.31 293.01 453.1 279.85"/><polygon class="cls-15" points="458.91 279.85 481.71 266.69 481.71 293.01 458.91 279.85"/><polygon class="cls-15" points="493.24 511 470.45 497.84 470.45 524.16 493.24 511"/><polygon class="cls-15" points="499.05 511 521.84 497.84 521.84 524.16 499.05 511"/><polygon class="cls-15" points="640.3 280.09 617.51 266.93 617.51 293.25 640.3 280.09"/><polygon class="cls-15" points="646.11 280.09 668.9 266.93 668.9 293.25 646.11 280.09"/><circle cx="643.22" cy="280.09" r="7.34"/><circle cx="496.15" cy="511" r="7.34"/><circle cx="456.32" cy="280.09" r="7.34"/><rect class="cls-3" x="487.26" y="133.41" width="17.89" height="17.89"/><rect class="cls-19" x="582.49" y="133.41" width="17.89" height="17.89"/><rect class="cls-11" x="541.91" y="133.41" width="17.89" height="17.89"/><g><path class="cls-1" d="m869.2,390.92h-3.82c-6.6,0-12-66.87-12-66.87,0-6.6,5.4-12,12-12h3.82c6.6,0,12,5.4,12,12,0,0-5.4,66.87-12,66.87Z"/><path class="cls-1" d="m869.2,399.33h-3.82c-6.6,0-12,66.87-12,66.87,0,6.6,5.4,12,12,12h3.82c6.6,0,12-5.4,12-12,0,0-5.4-66.87-12-66.87Z"/><rect class="cls-14" x="860.1" y="390.92" width="22.62" height="8.41"/><rect class="cls-1" x="882.72" y="369.52" width="20.18" height="49.83"/></g><g><circle class="cls-5" cx="832.1" cy="395.12" r="14.37"/><text class="cls-24" transform="translate(824.53 401.12)"><tspan x="0" y="0">T4</tspan></text><g><polygon class="cls-25" points="806.32 389.4 804.15 395.02 806.69 400.48 793.38 395.38 806.32 389.4"/><line class="cls-17" x1="804" y1="394.94" x2="817.73" y2="394.89"/></g></g><g><circle class="cls-5" cx="1071.44" cy="395.12" r="14.37"/><text class="cls-24" transform="translate(1063.87 401.12)"><tspan x="0" y="0">T3</tspan></text><g><polygon class="cls-25" points="1045.66 389.4 1043.49 395.02 1046.03 400.48 1032.72 395.38 1045.66 389.4"/><line class="cls-17" x1="1043.33" y1="394.94" x2="1057.06" y2="394.89"/></g></g><g><circle class="cls-5" cx="267.33" cy="395.12" r="14.37"/><text class="cls-24" transform="translate(259.76 399.96)"><tspan x="0" y="0">T2</tspan></text><g><polygon class="cls-25" points="292.73 400.48 295.27 395.02 293.11 389.4 306.04 395.39 292.73 400.48"/><line class="cls-17" x1="295.43" y1="394.94" x2="281.7" y2="394.89"/></g></g><g><circle class="cls-5" cx="14.87" cy="395.44" r="14.37"/><text class="cls-24" transform="translate(7.3 400.28)"><tspan x="0" y="0">T1</tspan></text><g><polygon class="cls-25" points="40.27 400.79 42.81 395.33 40.65 389.72 53.58 395.7 40.27 400.79"/><line class="cls-17" x1="42.97" y1="395.25" x2="29.24" y2="395.2"/></g></g><g><path class="cls-1" d="m225.85,390.92h3.82c6.6,0,12-66.87,12-66.87,0-6.6-5.4-12-12-12h-3.82c-6.6,0-12,5.4-12,12,0,0,5.4,66.87,12,66.87Z"/><path class="cls-1" d="m225.85,399.33h3.82c6.6,0,12,66.87,12,66.87,0,6.6-5.4,12-12,12h-3.82c-6.6,0-12-5.4-12-12,0,0,5.4-66.87,12-66.87Z"/><rect x="212.32" y="390.92" width="22.62" height="8.41" transform="translate(447.27 790.25) rotate(-180)"/><rect class="cls-1" x="192.15" y="369.52" width="20.18" height="49.83" transform="translate(404.47 788.87) rotate(-180)"/></g><g><circle class="cls-5" cx="817.73" cy="551.99" r="14.37"/><text class="cls-24" transform="translate(810.05 557.78)"><tspan x="0" y="0">T5</tspan></text><g><polygon class="cls-25" points="822.78 526.59 817.33 524.05 811.71 526.21 817.69 513.28 822.78 526.59"/><line class="cls-17" x1="817.25" y1="523.89" x2="817.19" y2="537.62"/></g></g><g><circle class="cls-5" cx="453.9" cy="466.18" r="14.37"/><text class="cls-24" transform="translate(446.34 472.02)"><tspan x="0" y="0">T9</tspan></text><g><polygon class="cls-25" points="447.89 491.96 453.5 494.12 458.96 491.58 453.87 504.89 447.89 491.96"/><line class="cls-17" x1="453.42" y1="494.28" x2="453.37" y2="480.55"/></g></g><polygon points="498.5 444.54 494.02 462.12 501.36 458.3 500.1 468.16 502.85 468.16 505.83 452.68 498.27 457.04 501.93 444.54 498.5 444.54"/><polygon class="cls-25" points="495.71 465.15 501.33 467.31 506.78 464.77 501.69 478.08 495.71 465.15"/><circle class="cls-15" cx="616.19" cy="511" r="14.37"/><circle class="cls-15" cx="267.33" cy="279.85" r="14.37"/><circle cx="616.19" cy="511" r="7.34"/><rect class="cls-15" x="661.07" y="493.25" width="66.04" height="35.51"/><rect class="cls-4" x="661.07" y="493.25" width="21.55" height="35.51"/><g><rect class="cls-15" x="362.98" y="493.25" width="66.04" height="35.51"/><polyline class="cls-15" points="362.98 493.25 429.02 511 362.98 528.76"/></g><path class="cls-6" d="m267.33,294.22c-5.21,17.74,2.76,28.76,6.77,31.73,14.46,10.7,31.55-6.62,97.59-7.31,26.32-.27,30.97,2.46,33.02,3.87,34.35,23.6,2.98,131.99-9.17,170.73"/><g><g><line class="cls-9" x1="923.27" y1="269.62" x2="923.27" y2="517.35"/><line class="cls-9" x1="926.79" y1="269.62" x2="926.79" y2="517.35"/><line class="cls-9" x1="930.32" y1="269.62" x2="930.32" y2="517.35"/><line class="cls-9" x1="933.84" y1="269.62" x2="933.84" y2="517.35"/><line class="cls-9" x1="937.36" y1="269.62" x2="937.36" y2="517.35"/><line class="cls-9" x1="940.89" y1="269.62" x2="940.89" y2="517.35"/><line class="cls-9" x1="944.41" y1="269.62" x2="944.41" y2="517.35"/><line class="cls-9" x1="947.93" y1="269.62" x2="947.93" y2="517.35"/><line class="cls-9" x1="951.45" y1="269.62" x2="951.45" y2="517.35"/><line class="cls-9" x1="954.98" y1="269.62" x2="954.98" y2="517.35"/><line class="cls-9" x1="958.5" y1="269.62" x2="958.5" y2="517.35"/><line class="cls-9" x1="962.02" y1="269.62" x2="962.02" y2="517.35"/><line class="cls-9" x1="965.54" y1="269.62" x2="965.54" y2="517.35"/><line class="cls-9" x1="969.07" y1="269.62" x2="969.07" y2="517.35"/><line class="cls-9" x1="972.59" y1="269.62" x2="972.59" y2="517.35"/><line class="cls-9" x1="976.11" y1="269.62" x2="976.11" y2="517.35"/><line class="cls-9" x1="979.63" y1="269.62" x2="979.63" y2="517.35"/><line class="cls-9" x1="983.16" y1="269.62" x2="983.16" y2="517.35"/><line class="cls-9" x1="986.68" y1="269.62" x2="986.68" y2="517.35"/><line class="cls-9" x1="990.2" y1="269.62" x2="990.2" y2="517.35"/><line class="cls-9" x1="993.72" y1="269.62" x2="993.72" y2="517.35"/><line class="cls-9" x1="997.25" y1="269.62" x2="997.25" y2="517.35"/><line class="cls-9" x1="1000.77" y1="269.62" x2="1000.77" y2="517.35"/><line class="cls-9" x1="1004.29" y1="269.62" x2="1004.29" y2="517.35"/></g><rect class="cls-9" x="920.71" y="269.62" width="86.14" height="247.73"/></g></g></svg>