<?xml version="1.0" encoding="utf-8"?>
<!-- Generator: Adobe Illustrator 27.5.0, SVG Export Plug-In . SVG Version: 6.00 Build 0)  -->
<svg version="1.1" id="Layer_1" xmlns="http://www.w3.org/2000/svg" xmlns:xlink="http://www.w3.org/1999/xlink" x="0px" y="0px"
	 viewBox="0 0 379.4 246.8" style="enable-background:new 0 0 379.4 246.8;" xml:space="preserve">
<style type="text/css">
	.st0{fill:#007A82;}
	.st1{fill:#8A9BA5;}
	.st2{fill:none;stroke:#8A9BA5;stroke-width:0.754;stroke-linecap:round;stroke-linejoin:round;stroke-dasharray:0,2.3;}
	.st3{fill:none;stroke:#8A9BA5;stroke-width:0.754;stroke-linecap:round;stroke-linejoin:round;}
	.st4{clip-path:url(#SVGID_00000163752892982881039300000015828770178683033750_);fill:none;stroke:#FFFFFF;stroke-width:0.504;}
	.st5{clip-path:url(#SVGID_00000163752892982881039300000015828770178683033750_);fill:none;stroke:#FFFFFF;stroke-width:1.508;}
	.st6{fill:none;stroke:#8A9BA5;stroke-width:0.504;}
	.st7{fill:none;stroke:#8A9BA5;stroke-width:1.508;}
	.st8{font-family:'Times-Roman';}
	.st9{font-size:11.8713px;}
	.st10{font-size:11.8714px;}
	.st11{fill:none;stroke:#8A9BA5;stroke-width:0.754;}
	.st12{font-size:11.8712px;}
</style>
<rect x="15" y="169.4" class="st0" width="7.3" height="31.6"/>
<rect x="30.2" y="169.4" class="st0" width="7.3" height="24.3"/>
<polygon class="st0" points="61.2,169.4 50.8,169.4 50.8,162.1 43.7,162.1 43.7,174.3 54,174.3 47.5,193.7 54.7,193.7 61.2,174.2 
	"/>
<rect x="67.7" y="169.4" class="st0" width="7.3" height="24.3"/>
<g>
	<path class="st0" d="M102.6,177.2c0-6-2.3-7.7-7.7-7.7H82.8v24.3H90v-19.4h2.3c2.5,0,3,0.8,3,3.2v16.2h7.2V177.2z"/>
</g>
<polygon class="st0" points="128.8,169.4 121.5,169.4 121.5,184.6 128.8,183.3 "/>
<g>
	<path class="st0" d="M149.4,193.7c-1.1-3.7-1.4-6.4-1.4-11.8v-4.8c0-6.1-1.7-7.7-7.5-7.7h-5.1v4.9h2.6c1.7,0,3,0.5,3,2.9v2.8
		c0,2-1.2,3.8-2.1,5c-1.7,2.2-3.8,2.9-3.8,2.9v6.9c2.2-0.2,3.1-1.2,4.1-2.9c0.9-1.4,1.9-4.7,1.9-4.7s0.1,0.1,0.2,0
		c0.1,1.1,0.5,4.7,1,6.4H149.4z"/>
</g>
<rect x="156" y="169.4" class="st0" width="7.3" height="24.3"/>
<polygon class="st0" points="187,169.4 176.5,169.4 176.5,162.1 169.4,162.1 169.4,174.3 179.7,174.3 173.3,193.7 180.5,193.7 
	187,174.2 "/>
<rect x="193.5" y="169.4" class="st0" width="7.3" height="24.3"/>
<g>
	<path class="st0" d="M218.7,193.7v-17.6c0-5.8-1.2-6.7-6.3-6.7h-5v4.9h1.5c1.8,0,2.4,0.5,2.4,2.5v11.9h-3.9v4.9H218.7z"/>
	<path class="st0" d="M240.9,179.7c0-8.7-2.2-10.3-9.2-10.3h-6.3v4.9h4.4c3.2,0,3.9,1.1,3.9,5.3v3.7c0,4.2-0.9,5.4-3.9,5.4h-4.4v4.9
		h6.3c7,0,9.1-1.5,9.2-10.3V179.7z"/>
	<path class="st0" d="M268.9,181.1c0-9.1-1.5-12.2-7.2-12.2c-1.7,0-3.2,0.8-3.2,0.8l-0.9,4.5c0.2,0.3,1.1-0.5,1.6-0.5
		c2.4,0,2.6,2.8,2.6,7.3c0,5.9,0.3,9-3.3,9c-3.3,0-3.3-3.1-3.3-6.5v-14.1h-7.2V184c0,5.5,1.7,10.5,10,10.5
		C266.2,194.5,268.9,191.9,268.9,181.1"/>
</g>
<rect x="287.6" y="169.4" class="st0" width="7.3" height="31.6"/>
<rect x="302.2" y="169.4" class="st0" width="7.3" height="24.3"/>
<g>
	<path class="st0" d="M331.8,179.7c0-8.7-2.2-10.3-9.2-10.3h-6.3v4.9h4.4c3.2,0,3.9,1.1,3.9,5.3v3.7c0,4.2-0.9,5.4-3.9,5.4h-4.4v4.9
		h6.3c7,0,9.1-1.5,9.2-10.3V179.7z"/>
	<path class="st0" d="M361.1,181.2c0-9.1-2.7-12.2-8.9-12.2c-4.4,0-5.3,3.9-6,5.6h-0.3c0,0-0.1-2.6-1.1-5.2h-7.3c0,0,3,7.3,2.7,9.8
		l-1.9,14.5h7l0.7-7.6c0.8-8.7,2.4-12.2,4.5-12.2c2,0,3.3,1,3.3,7.2c0,6.8-0.3,8.5-3.3,8.5c-0.8,0-1.5-0.7-1.5-0.7h-0.3v4.8
		c0,0,0.8,0.7,2.4,0.7C357.5,194.3,361.1,192.7,361.1,181.2"/>
</g>
<polygon class="st0" points="17.6,233.8 17.6,221.6 26,221.6 26,233.8 29.1,233.8 29.1,207.1 26,207.1 26,218.6 17.6,218.6 
	17.6,207.1 14.5,207.1 14.5,233.8 "/>
<g>
	<path class="st0" d="M38.7,234.2c3.6,0,6.4-1.2,6.4-9.4c0-5.5-0.6-10-6.4-10s-6.4,4.5-6.4,10C32.3,233,35.2,234.2,38.7,234.2
		 M38.7,231.7c-2.8,0-3.5-2.2-3.5-8.3c0-5.1,1.4-6.2,3.5-6.2c2.1,0,3.5,1.1,3.5,6.2C42.3,229.5,41.6,231.7,38.7,231.7"/>
</g>
<rect x="47.8" y="207.1" class="st0" width="2.7" height="26.7"/>
<g>
	<path class="st0" d="M59.6,234.2c3.6,0,6.4-1.2,6.4-9.4c0-5.5-0.6-10-6.4-10s-6.4,4.5-6.4,10C53.2,233,56,234.2,59.6,234.2
		 M59.6,231.7c-2.8,0-3.5-2.2-3.5-8.3c0-5.1,1.4-6.2,3.5-6.2s3.5,1.1,3.5,6.2C63.1,229.5,62.4,231.7,59.6,231.7"/>
	<path class="st0" d="M80.6,233.8v-13c0-3.7-0.9-6.1-4.5-6.1c-2.2,0-3.4,0.7-4.5,2.8h-0.1v-2.4h-2.9c0.1,1.3,0.2,2.6,0.2,3.9v14.8
		h2.7v-11.1c0-2.6,0.4-5.5,3.4-5.5c2.3,0,3,1.6,3,3.6v13H80.6z"/>
</g>
<rect x="90.6" y="207.1" class="st0" width="3.1" height="26.7"/>
<g>
	<path class="st0" d="M108.7,233.8v-13c0-3.7-0.9-6.1-4.5-6.1c-2.2,0-3.4,0.7-4.5,2.8h-0.1v-2.4h-2.9c0.1,1.3,0.2,2.6,0.2,3.9v14.8
		h2.7v-11.1c0-2.6,0.4-5.5,3.4-5.5c2.3,0,3,1.6,3,3.6v13H108.7z"/>
	<path class="st0" d="M122.4,228.5c0-5.7-8.4-5.6-8.4-8.9c0-1.6,1.1-2.5,2.6-2.5c1.7,0,2.7,1,2.6,3h3c0.2-3.7-2.3-5.3-5.3-5.3
		c-4.7,0-5.8,3.1-5.8,5.1c0,5.6,8.4,5.7,8.4,9c0,1.9-1.3,2.9-2.9,2.9c-2.8,0-2.8-2.5-2.8-3.6h-3.1c-0.1,4.3,2.2,6.1,5.8,6.1
		C119.9,234.2,122.4,232.6,122.4,228.5"/>
	<path class="st0" d="M123.3,215.1v2.3h2.8v13.3c0,2.1,1.2,3.3,3.8,3.3c0.9,0,1.8-0.2,2.7-0.3v-2.3c-0.6,0.1-1,0.1-1.2,0.1
		c-2.5,0-2.5-1.5-2.5-2.7v-11.4h3.7v-2.3h-3.7v-5l-2.7,1.4v3.6H123.3z"/>
</g>
<path class="st0" d="M134.2,210.3h3.1v-3.3h-3.1V210.3z M137.1,215.1h-2.7v18.7h2.7V215.1z"/>
<g>
	<path class="st0" d="M138.7,215.1v2.3h2.8v13.3c0,2.1,1.2,3.3,3.8,3.3c0.9,0,1.8-0.2,2.7-0.3v-2.3c-0.6,0.1-1,0.1-1.2,0.1
		c-2.5,0-2.5-1.5-2.5-2.7v-11.4h3.7v-2.3h-3.7v-5l-2.7,1.4v3.6H138.7z"/>
	<path class="st0" d="M158.8,227.5c0,3.1-1.8,4.3-3.3,4.3c-1.9,0-2.9-1.5-2.9-3.8v-13h-2.7v14.3c0,3.2,1.6,4.8,4.5,4.8
		c1.8,0,3.4-0.9,4.3-2.6h0.1v2.3h2.9c-0.1-1.3-0.2-2.6-0.2-3.9v-14.8h-2.7V227.5z"/>
	<path class="st0" d="M163.4,215.1v2.3h2.8v13.3c0,2.1,1.2,3.3,3.8,3.3c0.9,0,1.8-0.2,2.7-0.3v-2.3c-0.6,0.1-1,0.1-1.2,0.1
		c-2.5,0-2.5-1.5-2.5-2.7v-11.4h3.7v-2.3h-3.7v-5l-2.7,1.4v3.6H163.4z"/>
	<path class="st0" d="M186,225.4v-1.6c0-6.2-1.2-9.1-6-9.1c-5.8,0-6.4,4.5-6.4,10c0,8.3,2.8,9.4,6.4,9.4c3.5,0,5.8-1.9,5.9-6h-3
		c-0.1,1.9-1.1,3.6-2.9,3.6c-2.1,0-3.4-1-3.4-6.3H186z M176.5,223.1c0-5.2,1.5-6.1,3.2-6.1c2,0,3.4,0.7,3.4,6.1H176.5z"/>
	<path class="st0" d="M201.3,234.2c3.6,0,6.4-1.2,6.4-9.4c0-5.5-0.6-10-6.4-10c-5.8,0-6.4,4.5-6.4,10
		C194.9,233,197.7,234.2,201.3,234.2 M201.3,231.7c-2.8,0-3.5-2.2-3.5-8.3c0-5.1,1.4-6.2,3.5-6.2c2.1,0,3.5,1.1,3.5,6.2
		C204.8,229.5,204.1,231.7,201.3,231.7"/>
	<path class="st0" d="M208.6,215.1v2.3h2.6v16.4h2.7v-16.4h3.4v-2.3H214v-3.2c0-1.5,0.5-2.9,3.4-2.7v-2.2c-0.4-0.1-0.7-0.1-1.3-0.1
		c-2.4,0-4.8,0.7-4.8,4.5v3.6H208.6z"/>
</g>
<polygon class="st0" points="224.9,207.1 224.9,210 231.2,210 231.2,233.8 234.3,233.8 234.3,210 240.6,210 240.6,207.1 "/>
<g>
	<path class="st0" d="M250.7,225.4v-1.6c0-6.2-1.2-9.1-6-9.1c-5.8,0-6.4,4.5-6.4,10c0,8.3,2.8,9.4,6.4,9.4c3.5,0,5.8-1.9,5.9-6h-3
		c-0.1,1.9-1.1,3.6-2.9,3.6c-2.1,0-3.4-1-3.4-6.3H250.7z M241.2,223.1c0-5.2,1.5-6.1,3.2-6.1c2,0,3.4,0.7,3.4,6.1H241.2z"/>
	<path class="st0" d="M264.9,221.1c0.2-4.2-1.8-6.4-5.2-6.4c-5.8,0-6.4,4.5-6.4,10c0,8.3,2.8,9.4,6.4,9.4c1.9,0,5.4-1.3,5.3-6.6
		h-2.9c0.1,3.4-1.8,4.1-2.4,4.1c-2.8,0-3.5-2.2-3.5-8.3c0-5.1,1.4-6.2,3.5-6.2c1,0,2.4,0.8,2.3,3.9H264.9z"/>
	<path class="st0" d="M279.9,233.8v-13.3c0-4.2-1.6-5.8-4.5-5.8c-2.2,0-3.5,0.6-4.6,2.8h-0.1v-10.4H268v26.7h2.7v-11
		c0-3.1,0.7-5.6,3.4-5.6c2.3,0,3,1.6,3,3.9v12.7H279.9z"/>
	<path class="st0" d="M295.3,233.8v-13c0-3.7-0.9-6.1-4.5-6.1c-2.2,0-3.4,0.7-4.5,2.8h-0.1v-2.4h-2.9c0.1,1.3,0.2,2.6,0.2,3.9v14.8
		h2.7v-11.1c0-2.6,0.4-5.5,3.4-5.5c2.3,0,3,1.6,3,3.6v13H295.3z"/>
	<path class="st0" d="M304.7,234.2c3.6,0,6.4-1.2,6.4-9.4c0-5.5-0.6-10-6.4-10c-5.8,0-6.4,4.5-6.4,10
		C298.3,233,301.2,234.2,304.7,234.2 M304.7,231.7c-2.8,0-3.5-2.2-3.5-8.3c0-5.1,1.4-6.2,3.5-6.2c2.1,0,3.5,1.1,3.5,6.2
		C308.3,229.5,307.6,231.7,304.7,231.7"/>
</g>
<rect x="313.4" y="207.1" class="st0" width="2.7" height="26.7"/>
<g>
	<path class="st0" d="M324.9,234.2c3.6,0,6.4-1.2,6.4-9.4c0-5.5-0.6-10-6.4-10c-5.8,0-6.4,4.5-6.4,10
		C318.5,233,321.3,234.2,324.9,234.2 M324.9,231.7c-2.8,0-3.5-2.2-3.5-8.3c0-5.1,1.4-6.2,3.5-6.2c2.1,0,3.5,1.1,3.5,6.2
		C328.4,229.5,327.7,231.7,324.9,231.7"/>
	<path class="st0" d="M342.6,217.4L342.6,217.4c-0.8-1.8-2.2-2.7-4-2.7c-1.4,0-5.3,0.6-5.3,9.2c0,5.6,0.9,9.9,5.5,9.9
		c1.5,0,3-0.9,3.7-2.3h0.1v3.9c0,1.9-1,3.2-2.9,3.2c-1.5,0-2.5-1-2.6-2.7H334c-0.2,3.4,2.3,5,5.1,5c3.7,0,6.2-1,6.2-5.2v-20.6h-2.7
		V217.4z M342.7,224.4c0,2.6,0.1,6.9-3.2,6.9c-2,0-3.3-1.4-3.3-7.4c0-2.5,0.1-6.6,3.2-6.6C342.8,217.2,342.7,221.6,342.7,224.4"/>
</g>
<polygon class="st0" points="350.1,215.1 346.9,215.1 352.6,233.8 350.7,240.9 353.6,240.9 361.2,215.1 358.2,215.1 354.2,230.3 
	354.1,230.3 "/>
<g>
	<path class="st0" d="M268.1,46.2c3.4,0,6.1,2.7,6.1,6.2v10.5c0,2.9-2.2,6.2-6.2,6.2h-5.9c-1.9,0-4.1,1.7-4.1,4.1v32
		c0,3.5-2.8,6.3-6.3,6.3h-10.4c-3.5,0-6.3-2.8-6.3-6.3v-32c0-2.5-2.1-4.1-4.1-4.1h-5.9c-3.9,0-6.2-3.3-6.2-6.2V52.4
		c0-3.5,2.7-6.2,6.1-6.2H268.1z"/>
	<path class="st0" d="M191.4,46.2h10.3c3.5,0,6.3,2.8,6.3,6.3v86.6c0,3.5-2.8,6.3-6.3,6.3h-10.3c-3.5,0-6.3-2.8-6.3-6.3V52.5
		C185.1,49.1,187.9,46.2,191.4,46.2"/>
	<path class="st0" d="M150.5,86.4c0-2.1-1.6-4.1-4.1-4.1h-19.2c-2.3,0-4,1.8-4,4v52.7c0,3.5-2.8,6.3-6.3,6.3h-10.3
		c-3.5,0-6.3-2.8-6.3-6.3V52.5c0-3.5,2.8-6.3,6.3-6.3h10.3c3.5,0,6.3,2.8,6.3,6.3v8.7c0,2.3,1.7,4.1,4,4.1h19.2c2.5,0,4.1-2,4.1-4.1
		V18.6c0-3.5,2.8-6.3,6.3-6.3h10.3c3.5,0,6.3,2.8,6.3,6.3v86.6c0,3.5-2.8,6.3-6.3,6.3h-10.3c-3.5,0-6.2-2.8-6.2-6.3V86.4z"/>
	<path class="st0" d="M191.3,12.3h10.3c3.5,0,6.3,2.8,6.3,6.3v10.3c0,3.5-2.8,6.3-6.3,6.3h-10.3c-3.5,0-6.3-2.8-6.3-6.3V18.6
		C185.1,15.1,187.9,12.3,191.3,12.3"/>
	<path class="st0" d="M241.4,122.5h10.3c3.5,0,6.3,2.8,6.3,6.3v10.3c0,3.5-2.8,6.3-6.3,6.3h-10.3c-3.5,0-6.3-2.8-6.3-6.3v-10.3
		C235.1,125.3,237.9,122.5,241.4,122.5"/>
	<path class="st0" d="M156.7,122.5H167c3.5,0,6.3,2.8,6.3,6.3v10.3c0,3.5-2.8,6.3-6.3,6.3h-10.3c-3.5,0-6.3-2.8-6.3-6.3v-10.3
		C150.4,125.3,153.2,122.5,156.7,122.5"/>
	<path class="st1" d="M340.1,110.9c-0.3-0.2-0.7-0.3-1-0.3c-0.8-0.1-1.4,0.1-1.9,0.6c-0.5,0.4-0.8,1-0.9,1.8
		c-0.1,0.7,0.1,1.3,0.6,1.7c0.3,0.3,0.9,0.6,1.9,0.9c0.8,0.3,1.4,0.5,1.7,0.7c0.3,0.2,0.5,0.4,0.6,0.6c0.1,0.2,0.2,0.5,0.1,0.7
		c0,0.5-0.3,0.9-0.7,1.2c-0.4,0.3-0.9,0.4-1.4,0.4c-0.7-0.1-1.3-0.4-1.8-1c-0.5-0.6-0.8-1.3-0.9-2.3l-0.4,0l-0.3,3.3l0.4,0l0.7-0.7
		c0.6,0.6,1.4,1,2.2,1.1c0.8,0.1,1.5-0.1,2.1-0.6c0.6-0.5,0.9-1.1,1-1.9c0-0.4,0-0.8-0.2-1.2c-0.2-0.3-0.4-0.6-0.8-0.9
		c-0.4-0.2-1-0.5-2-0.8c-0.7-0.2-1.1-0.4-1.4-0.5c-0.2-0.2-0.4-0.3-0.5-0.6c-0.1-0.2-0.1-0.5-0.1-0.7c0-0.4,0.2-0.8,0.6-1.1
		c0.4-0.3,0.8-0.4,1.3-0.4c0.6,0.1,1.1,0.3,1.6,0.8c0.4,0.5,0.7,1.2,0.9,2.2l0.4,0l0.2-3.1l-0.4,0l-0.6,0.7
		C340.7,111.3,340.4,111,340.1,110.9 M329.8,110.8c0-0.2,0.1-0.3,0.2-0.3c0.1-0.1,0.4-0.1,0.9,0c0.7,0.1,1.2,0.2,1.4,0.3
		c0.2,0.1,0.4,0.3,0.5,0.6c0.1,0.3,0.2,0.6,0.1,1.1c-0.1,0.7-0.3,1.1-0.7,1.3c-0.4,0.2-1,0.3-1.6,0.2l-1-0.1L329.8,110.8z
		 M327.3,110.2l0.8,0.1c0.2,0,0.3,0.1,0.4,0.1c0.1,0.1,0.1,0.2,0.1,0.3l-0.6,6.9c0,0.1-0.1,0.2-0.2,0.3c-0.1,0.1-0.2,0.1-0.4,0.1
		l-0.8-0.1l0,0.4l4,0.3l0-0.4l-0.8-0.1c-0.2,0-0.3-0.1-0.4-0.1c-0.1-0.1-0.1-0.2-0.1-0.3l0.3-3.4l0.7,0.1c0.4,0,0.7,0.1,0.9,0.3
		c0.3,0.2,0.4,0.3,0.5,0.6c0.1,0.2,0.2,0.6,0.2,1.1c0,0.9,0.1,1.5,0.1,1.7c0.1,0.3,0.2,0.5,0.4,0.7c0.2,0.2,0.4,0.3,0.7,0.3
		c0.9,0.1,1.4-0.5,1.6-1.8l-0.4,0c-0.1,0.4-0.2,0.7-0.3,0.9c-0.1,0.2-0.2,0.2-0.4,0.2c-0.1,0-0.2-0.1-0.3-0.2
		c-0.1-0.2-0.2-0.6-0.3-1.1c-0.1-0.7-0.2-1.2-0.3-1.4c-0.1-0.2-0.3-0.4-0.5-0.6c-0.2-0.2-0.6-0.3-1.1-0.5c0.8,0,1.3-0.1,1.7-0.2
		c0.4-0.1,0.7-0.4,0.9-0.6c0.2-0.3,0.3-0.6,0.4-1c0.1-0.6-0.1-1.2-0.6-1.6c-0.4-0.4-1.1-0.7-2-0.8l-4.4-0.4L327.3,110.2z
		 M323.4,114.7l-3-0.3l1.9-3.7L323.4,114.7z M319,116.2c-0.2,0.4-0.4,0.7-0.6,0.8c-0.2,0.1-0.5,0.2-0.8,0.1l0,0.4l3.1,0.3l0-0.4
		l-0.3,0c-0.3,0-0.6-0.1-0.8-0.3c-0.2-0.2-0.2-0.3-0.2-0.5c0-0.2,0.1-0.4,0.2-0.6l0.5-1l3.4,0.3l0.6,1.9c0,0.1,0,0.1,0,0.2
		c0,0.1-0.1,0.2-0.2,0.2c-0.2,0.1-0.4,0.1-0.8,0l-0.3,0l0,0.4l3.4,0.3l0-0.4l-0.3,0c-0.4,0-0.6-0.2-0.7-0.5l-2.4-8.1l-0.4,0
		L319,116.2z M310.5,108.7l0.7,0.1c0.2,0,0.3,0.1,0.4,0.1c0.1,0.1,0.1,0.2,0.1,0.3l-0.6,6.8c0,0.2-0.1,0.3-0.2,0.3
		c-0.1,0.1-0.3,0.1-0.5,0.1l-0.6-0.1l0,0.4l7.1,0.6l0.4-3.2l-0.4,0c-0.4,1.8-1.3,2.7-2.7,2.5l-1.3-0.1c-0.2,0-0.3-0.1-0.4-0.1
		c-0.1-0.1-0.1-0.2-0.1-0.3l0.3-3.4l0.7,0.1c0.4,0,0.8,0.2,1,0.5c0.2,0.3,0.3,0.8,0.3,1.5l0.4,0l0.3-4l-0.4,0
		c-0.1,0.6-0.2,1-0.5,1.3c-0.3,0.3-0.6,0.4-1,0.3l-0.7-0.1l0.3-3.1c0-0.2,0.1-0.3,0.1-0.3c0.1-0.1,0.2-0.1,0.3-0.1l1.7,0.1
		c0.5,0,1,0.3,1.3,0.7c0.3,0.4,0.5,1.1,0.6,2l0.4,0l0.1-2.9l-6.8-0.6L310.5,108.7z M301.3,107.9c0.4,0,0.6,0.1,0.8,0.2
		c0.1,0.1,0.3,0.2,0.4,0.4l2.3,4.4l-0.2,2.6c0,0.1-0.1,0.2-0.2,0.3s-0.3,0.1-0.5,0.1l-0.8-0.1l0,0.4l3.9,0.3l0-0.4l-0.7-0.1
		c-0.2,0-0.4-0.1-0.5-0.2c-0.1-0.1-0.1-0.2-0.1-0.3l0.2-2.7l2.3-3.5c0.2-0.3,0.5-0.6,0.7-0.7c0.2-0.1,0.5-0.2,0.9-0.1l0-0.4
		l-3.3-0.3l0,0.4l0.4,0c0.2,0,0.4,0.1,0.5,0.2c0.1,0.1,0.2,0.3,0.2,0.5c0,0.2-0.1,0.3-0.1,0.4l-1.8,2.7l-1.9-3.6
		c0-0.1-0.1-0.2-0.1-0.3c0-0.1,0.1-0.2,0.2-0.2c0.1,0,0.3-0.1,0.7,0l0.4,0l0-0.4l-3.8-0.3L301.3,107.9z"/>
	<path class="st2" d="M323.3,128.9c16.9,0.1,31.4-12.5,33.6-29.4"/>
	<path class="st2" d="M357.2,95.3c0.1-16.9-12.5-31.4-29.4-33.6"/>
	<path class="st2" d="M323.6,61.5c-16.9-0.1-31.4,12.5-33.6,29.4"/>
	<path class="st2" d="M289.8,95c-0.1,16.9,12.5,31.4,29.4,33.6"/>
	<path class="st3" d="M320.5,128.7L320.5,128.7 M289.9,92.2L289.9,92.2 M326.4,61.6L326.4,61.6 M357,98.1L357,98.1"/>
</g>
<g>
	<defs>
		<path id="SVGID_1_" d="M283.2,91.6c-1.9,22.2,14.5,41.9,36.8,43.8c22.2,1.9,41.9-14.5,43.8-36.8c1.9-22.2-14.5-41.9-36.8-43.8
			c-1.2-0.1-2.4-0.2-3.6-0.2C302.7,54.7,285,70.6,283.2,91.6"/>
	</defs>
	<clipPath id="SVGID_00000027567066694478289960000007451412809413503423_">
		<use xlink:href="#SVGID_1_"  style="overflow:visible;"/>
	</clipPath>
	
		<ellipse transform="matrix(0.8234 -0.5674 0.5674 0.8234 3.1214 200.3421)" style="clip-path:url(#SVGID_00000027567066694478289960000007451412809413503423_);fill:none;stroke:#FFFFFF;stroke-width:0.504;" cx="323.5" cy="95.2" rx="42" ry="42"/>
	
		<path style="clip-path:url(#SVGID_00000027567066694478289960000007451412809413503423_);fill:none;stroke:#FFFFFF;stroke-width:1.508;" d="
		M320,134.5c21.7,1.9,40.9-14.2,42.8-35.9c1.9-21.7-14.2-40.9-35.9-42.8C305.2,53.9,286,70,284.1,91.7
		C282.2,113.4,298.3,132.6,320,134.5z"/>
</g>
<g>
	<ellipse transform="matrix(0.8234 -0.5674 0.5674 0.8234 3.1214 200.3421)" class="st6" cx="323.5" cy="95.2" rx="42" ry="42"/>
	<path class="st7" d="M320,134.5c21.7,1.9,40.9-14.2,42.8-35.9c1.9-21.7-14.2-40.9-35.9-42.8C305.2,53.9,286,70,284.1,91.7
		C282.2,113.4,298.3,132.6,320,134.5z"/>
	<path class="st1" d="M341.4,80.6c0.9,2,1.2,5.7,0.7,11.2c-0.5,5.3-1.4,9-2.7,10.9c-1.1,1.6-2.6,2.3-4.4,2.2
		c-1.8-0.2-3.2-1.2-4.1-3.1c-0.9-1.9-1.1-5.6-0.7-11.1c0.5-5.6,1.3-9.3,2.5-10.9c1.2-1.7,2.7-2.5,4.6-2.3
		C339.1,77.5,340.5,78.6,341.4,80.6 M330.3,78.7c-2.4,2.7-3.8,6.6-4.2,11.5c-0.5,5.2,0.3,9.2,2.3,12.2c1.6,2.3,3.8,3.6,6.5,3.9
		c2.8,0.2,5.3-0.8,7.5-3.3c2.2-2.4,3.5-6.1,4-11.1c0.5-5.4-0.3-9.4-2.4-12.3c-1.6-2.3-3.8-3.6-6.6-3.8
		C334.5,75.6,332.2,76.6,330.3,78.7 M306.1,80.3l-1,6.2c-0.1,0.1-0.2,0.3-0.4,0.5c-0.6,0.6-1,1.1-1,1.8c0,0.4,0,0.6,0.2,0.8
		c0.2,0.2,0.4,0.3,0.7,0.4c0.4,0,0.7-0.1,1-0.4s0.5-1,0.7-1.9c0.9-0.5,1.8-0.9,2.7-1.2c0.9-0.2,1.7-0.3,2.6-0.2
		c1.9,0.2,3.3,0.9,4.4,2.3c1.1,1.4,1.5,3.4,1.3,6.2c-0.3,3-1,5.1-2.3,6.4c-1.3,1.2-3,1.8-5.1,1.6c-1.1-0.1-2.1-0.4-2.9-0.8
		c-0.8-0.4-1.4-0.9-1.8-1.5c-0.4-0.6-0.5-1.1-0.5-1.5c0-0.3,0.4-0.6,1-0.7c0.6-0.2,1.1-0.4,1.4-0.7c0.3-0.3,0.4-0.8,0.5-1.4
		c0.1-0.8-0.1-1.5-0.5-2c-0.4-0.5-1-0.8-1.8-0.9c-0.8-0.1-1.4,0.2-2,0.8c-0.5,0.6-0.9,1.5-1,2.6c-0.2,1.9,0.5,3.6,1.9,5.2
		c1.4,1.5,3.3,2.4,5.8,2.6c3.2,0.3,5.9-0.5,8-2.2c2.2-1.8,3.4-4.1,3.6-7.1c0.2-2.7-0.5-5-2.2-7c-1.7-2-4-3.1-6.7-3.4
		c-0.9-0.1-1.8,0-2.8,0.2c-1,0.2-2.1,0.5-3.2,0.9l1.4-8c2.2,0.7,4.2,1.1,5.8,1.3c1.4,0.1,2.7,0,3.8-0.4c1.1-0.4,2.1-1,2.8-1.7
		c0.7-0.8,1.1-1.4,1.1-1.9c0-0.2,0-0.3-0.2-0.3c-0.1,0-0.2,0-0.5,0.2c-0.5,0.2-1.2,0.4-2.2,0.5c-0.9,0.1-2,0.1-3,0
		c-2.3-0.2-5.1-0.9-8.6-2C306.8,75.5,306.5,77.9,306.1,80.3"/>
</g>
<text transform="matrix(0.968 -0.352 0.3418 0.9398 303.5112 53.7034)" class="st1 st8 st9">M</text>
<text transform="matrix(1.0177 -0.1589 0.1543 0.988 313.7895 50.1809)" class="st1 st8 st9">o</text>
<text transform="matrix(1.0284 -5.759760e-02 5.591000e-02 0.9984 319.8887 49.2306)" class="st1 st8 st9">r</text>
<text transform="matrix(1.029 4.583455e-02 -4.450000e-02 0.999 323.9498 48.9567)" class="st1 st8 st10">e</text>
<text transform="matrix(1.019 0.1503 -0.1459 0.9893 329.412 49.2925)" class="st1 st8 st10"> </text>
<text transform="matrix(1.0043 0.2285 -0.2218 0.9751 332.377 49.7217)" class="st1 st8 st9">t</text>
<text transform="matrix(0.9753 0.3313 -0.3217 0.9469 335.7341 50.4118)" class="st1 st8 st9">h</text>
<text transform="matrix(0.9356 0.4308 -0.4183 0.9083 341.4666 52.3479)" class="st1 st8 st9">a</text>
<text transform="matrix(0.8722 0.5479 -0.532 0.8468 346.3712 54.6098)" class="st1 st8 st9">n</text>
<g>
	<path class="st11" d="M296.6,56.2c-11.2,7.7-19,20.2-20.3,34.9c-0.5,5.3,0,10.5,1.2,15.4"/>
</g>
<text transform="matrix(0.4425 0.9301 -0.903 0.4296 275.1593 115.0417)" class="st1 st8 st9">o</text>
<text transform="matrix(0.5291 0.8837 -0.858 0.5137 277.8565 120.5834)" class="st1 st8 st9">f</text>
<text transform="matrix(0.5708 0.8574 -0.8324 0.5541 279.9171 124.0906)" class="st1 st8 st9"> </text>
<text transform="matrix(0.6696 0.7827 -0.7599 0.6501 281.1395 126.2207)" class="st1 st8 st9">A</text>
<text transform="matrix(0.7766 0.6766 -0.6569 0.754 286.8698 132.8402)" class="st1 st8 st12">c</text>
<text transform="matrix(0.8397 0.5964 -0.5791 0.8153 291.0541 136.4033)" class="st1 st8 st9">a</text>
<text transform="matrix(0.9078 0.4867 -0.4725 0.8813 295.3908 139.6391)" class="st1 st8 st9">d</text>
<text transform="matrix(0.9523 0.3924 -0.3809 0.9246 300.7858 142.547)" class="st1 st8 st9">e</text>
<text transform="matrix(1.0009 0.2431 -0.236 0.9717 305.7697 144.7038)" class="st1 st8 st9">m</text>
<text transform="matrix(1.0236 0.1151 -0.1117 0.9937 315.0541 146.8536)" class="st1 st8 st9">i</text>
<text transform="matrix(1.0293 3.800663e-02 -3.690000e-02 0.9993 318.4515 147.2842)" class="st1 st8 st9">c</text>
<text transform="matrix(1.028 -6.400420e-02 6.213000e-02 0.9981 323.8422 147.3769)" class="st1 st8 st9"> </text>
<text transform="matrix(1.0168 -0.1642 0.1594 0.9872 326.9267 147.3455)" class="st1 st8 st10">E</text>
<text transform="matrix(0.9825 -0.3093 0.3003 0.9539 334.3236 146.133)" class="st1 st8 st9">x</text>
<text transform="matrix(0.9484 -0.4018 0.3901 0.9208 340.1271 144.2664)" class="st1 st8 st9">c</text>
<text transform="matrix(0.8939 -0.5118 0.4969 0.8678 345.189 142.1989)" class="st1 st8 st10">e</text>
<text transform="matrix(0.855 -0.5744 0.5577 0.8301 349.7844 139.4625)" class="st1 st8 st9">l</text>
<text transform="matrix(0.8115 -0.6343 0.6158 0.7879 352.6265 137.5766)" class="st1 st8 st9">l</text>
<text transform="matrix(0.7467 -0.7095 0.6888 0.7249 355.3994 135.4476)" class="st1 st8 st9">e</text>
<text transform="matrix(0.6742 -0.7787 0.756 0.6546 359.324 131.8017)" class="st1 st8 st9">n</text>
<text transform="matrix(0.5734 -0.8556 0.8307 0.5567 363.3024 127.0762)" class="st1 st8 st10">c</text>
<g>
	<text transform="matrix(0.4854 -0.9084 0.882 0.4713 366.336 122.6078)" class="st1 st8 st10">e</text>
	<path class="st11" d="M368,111.3c1.4-3.8,2.3-7.8,2.6-12c1.3-14.6-4.2-28.2-13.9-37.8"/>
</g>
</svg>
