<?xml version="1.0" encoding="utf-8"?>
<!-- Generator: Adobe Illustrator 27.4.0, SVG Export Plug-In . SVG Version: 6.00 Build 0)  -->
<svg version="1.1" id="Layer_1" xmlns="http://www.w3.org/2000/svg" xmlns:xlink="http://www.w3.org/1999/xlink" x="0px" y="0px"
	 viewBox="0 0 410.5 400.8" style="enable-background:new 0 0 410.5 400.8;" xml:space="preserve">
<style type="text/css">
	.st0{fill:#131313;}
</style>
<g>
	<g>
		<path class="st0" d="M361.1,25.8c3.7,1.9,7.6,3.4,11,5.8c4.6,3.1,6.4,8.3,8.2,13.3c0,14.3,0,28.6,0,43c-2.2,4.6-4.5,9.1-6.7,13.7
			c2,4.1,4.3,8.9,6.7,13.6c0,14.1,0,28.2,0,42.3c-2.2,4.7-4.5,9.4-6.7,14c2,4,4.4,8.6,6.7,13.3c0,14.3,0,28.6,0,43
			c-0.2,0.4-0.5,0.7-0.6,1.2c-3.3,11.6-11.6,18-23.8,18c-26,0-51.9,0-77.9,0c-1.2,0-2.5,0-4.4,0c0.8,1.4,1.3,2.5,1.9,3.5
			c17.9,29.3,35.7,58.6,53.7,87.8c5,8.1,6.1,16.3,1.3,24.8c-4.8,8.5-12.4,12.1-22.1,12.1c-84.3-0.1-168.5,0-252.8,0
			c-13.2,0-21.2-6.1-24.8-18.9c-0.1-0.3-0.3-0.6-0.5-0.9c0-2.5,0-5,0-7.5c2-4,3.7-8.2,6-12.1C68.5,282.8,100.8,230,133,177.1
			c0.6-1,1.2-2.1,1.9-3.3c-9-5.7-11.7-14.2-11.4-24.1c0.3-8.3,0.2-16.6,0-24.9c-0.3-8.8,0.7-17.1,8.1-23.3
			c-4.7-4.6-7.8-9.8-7.8-16.1c-0.1-12.7-0.3-25.5,0.1-38.2c0.3-9.4,6.7-17.2,15.7-20.2c1.2-0.4,2.3-0.8,3.5-1.2
			C215.7,25.8,288.4,25.8,361.1,25.8z M308.8,363.4c7.3,0,12.5-4,12.8-10.4c0.1-2.8-1-6.1-2.5-8.6c-16.9-28-34-55.9-51.1-83.8
			c-24.9-40.8-49.9-81.6-74.8-122.5c-2.2-3.5-4.7-6.4-9-7.2c-5.5-1-10,1.1-13.2,6.3c-10.6,17.3-21.2,34.7-31.8,52.1
			c-31.4,51.5-62.9,103-94.3,154.5c-0.5,0.8-1,1.5-1.4,2.3c-4.2,7.8,0.7,16.8,9.7,17.3c1.1,0.1,2.3,0,3.4,0c41.8,0,83.6,0,125.4,0
			C224.3,363.4,266.6,363.4,308.8,363.4z M354.2,95.6c10.2,0,14.3-4.1,14.3-14.2c0-10.3,0-20.7,0-31c0-8.2-4.7-12.9-12.9-12.9
			c-69.1,0-138.3,0-207.4,0c-8.3,0-12.9,4.6-12.9,12.9c-0.1,10.7,0,21.4,0,32.1c0,8.8,4.4,13.2,13.2,13.2c34.4,0,68.8,0,103.2,0
			C285.9,95.6,320.1,95.6,354.2,95.6z M156,139.5c2.1-3.5,4.2-7.1,6.5-10.4c9.3-13.3,28.4-13.6,38.4-0.8c0.9,1.2,2.9,2.2,4.4,2.2
			c9.2,0.2,18.4,0.1,27.7,0.1c4.8,0,7.2,2.1,7.2,5.8c0,3.7-2.6,5.8-7.3,5.8c-7.5,0-15,0-23,0c0.5,1.1,0.8,1.9,1.2,2.6
			c3.7,6.1,7.5,12.2,11.1,18.4c1,1.6,2,2.4,4,2.4c43.3-0.1,86.5,0,129.8-0.1c7.7,0,12.5-4.9,12.5-12.7c0-10.9,0-21.8,0-32.7
			c0-8-4.6-12.7-12.7-12.8c-9.8-0.1-19.6,0-29.4,0c-58.6,0-117.3,0-175.9,0c-1.3,0-2.5,0-3.8,0c-6.9,0.4-11.4,4.9-11.5,11.9
			c-0.1,11.5,0,23,0,34.4c0,4.3,1.7,7.7,5.8,10.3C146.2,155.6,151.1,147.5,156,139.5z M232.8,180.5c10.6,17.4,21.2,34.7,31.8,52.1
			c1.2,2,2.5,2.8,4.8,2.7c28.7-0.1,57.4,0,86.1-0.1c8.5,0,13-4.6,13-13.1c0-10.9,0-21.8,0-32.7c0-7.4-4.8-12.2-12.2-12.3
			c-41,0-82,0-123,0c-0.6,0-1.3,0.1-2.3,0.1C231.8,178.6,232.3,179.5,232.8,180.5z"/>
		<path class="st0" d="M203.6,212.2c-0.4,7-0.7,14.1-1.1,21.1c-0.9,14.7-1.6,29.5-2.7,44.2c-0.7,9.8-9.7,16.9-19.5,15.9
			c-9.6-1-16.1-8.3-16.7-18.8c-0.6-11.7-1.3-23.3-2-35c-0.7-13.4-1.7-26.7-2.1-40.1c-0.3-11.6,9.1-21.4,20.3-22.2
			c12-0.8,22.7,7.6,24,19.4c0.6,5.1,0.1,10.4,0.1,15.6C203.9,212.2,203.8,212.2,203.6,212.2z M175.3,273.9c0,0.7,0.1,1.4,0.2,2
			c0.7,3.8,3.3,6,6.8,5.8c3.4-0.2,5.8-2.4,6-6.2c0.9-14.3,1.7-28.6,2.5-42.8c0.6-10.4,1.1-20.9,1.7-31.3c0.4-7-4-12.5-10.3-12.6
			c-6.6-0.2-11.4,5.2-11,12.4c0.6,11.8,1.4,23.6,2.1,35.4C173.9,249,174.6,261.5,175.3,273.9z"/>
		<path class="st0" d="M205.2,328.6c-0.1,12.7-10.6,23.2-23.4,23.2c-12.8,0-23.2-10.5-23.2-23.3c0-13.1,10.4-23.3,23.5-23.2
			C195,305.3,205.3,315.7,205.2,328.6z M181.8,340.1c6.4,0,11.7-5.3,11.7-11.7c0-6.4-5.2-11.6-11.8-11.5
			c-6.6,0.1-11.6,5.2-11.5,11.7C170.4,334.9,175.6,340.1,181.8,340.1z"/>
		<path class="st0" d="M196.3,72.3c12.4,0,24.8,0,37.2,0c4.9,0,7.9-3.6,6.3-7.7c-1.2-3.3-4-4-7.2-4c-17.7,0-35.5,0-53.2,0
			c-6.8,0-13.7,0-20.5,0c-3.2,0-5.5,1.7-6.1,4.9c-0.5,2.8,0.7,5,3.3,6.1c1.3,0.6,2.9,0.6,4.3,0.6C172.5,72.3,184.4,72.3,196.3,72.3z
			"/>
		<path class="st0" d="M316.1,66.3c0.1-9.5,8-17.3,17.5-17.3c9.7,0,17.4,7.8,17.4,17.7c0,9.6-7.8,17.2-17.4,17.2
			C323.8,83.8,315.9,76,316.1,66.3z M333.7,72.2c3.2-0.1,5.6-2.4,5.6-5.6c0.1-3.3-2.5-5.9-5.7-6c-3.1,0-5.9,2.7-5.9,5.9
			C327.7,69.7,330.4,72.3,333.7,72.2z"/>
		<path class="st0" d="M269.5,66.4c0-9.5,7.8-17.3,17.4-17.4c9.6,0,17.5,7.9,17.5,17.6c0,9.5-7.8,17.3-17.4,17.3
			C277.2,83.9,269.4,76.2,269.5,66.4z M292.7,66.5c0-3.2-2.7-5.9-5.9-5.9c-3,0-5.6,2.6-5.7,5.6c-0.1,3.3,2.4,5.9,5.7,5.9
			C290.1,72.3,292.7,69.8,292.7,66.5z"/>
		<path class="st0" d="M334.1,153.8c-9.5,0.3-17.8-7.5-18-17.1c-0.2-9.5,7.4-17.5,16.9-17.7c9.8-0.3,17.7,7.2,17.9,17
			C351.2,145.6,343.7,153.5,334.1,153.8z M327.7,136.6c0.1,3,2.8,5.6,5.8,5.6c3.2,0,5.8-2.6,5.8-5.9c0-3.3-2.5-5.8-5.9-5.7
			C330.2,130.7,327.6,133.4,327.7,136.6z"/>
		<path class="st0" d="M304.4,136.6c-0.1,9.4-8.2,17.4-17.5,17.2c-9.7-0.2-17.4-8-17.4-17.8c0.1-9.6,7.9-17.2,17.5-17.1
			C296.8,119,304.4,126.8,304.4,136.6z M281.1,136.3c0,3.2,2.7,5.9,5.8,5.9c3,0,5.7-2.6,5.8-5.6c0.1-3.2-2.4-5.9-5.7-6
			C283.7,130.6,281.1,133,281.1,136.3z"/>
		<path class="st0" d="M286.6,188.8c9.8-0.1,17.7,7.7,17.7,17.3c0,9.6-7.6,17.4-17.2,17.5c-9.8,0.1-17.6-7.6-17.7-17.3
			C269.4,196.7,277.1,188.9,286.6,188.8z M281.1,206.3c0.1,3.2,2.8,5.8,6,5.7c3.1-0.1,5.6-2.6,5.6-5.7c0-3.2-2.7-5.9-5.8-5.9
			C283.7,200.4,281.1,203.1,281.1,206.3z"/>
		<path class="st0" d="M316,206c0.1-9.5,8-17.3,17.5-17.2c9.8,0,17.5,7.8,17.4,17.6c-0.1,9.6-7.8,17.2-17.4,17.2
			C323.9,223.6,316,215.7,316,206z M333.8,212c3.3-0.1,5.7-2.8,5.5-6.1c-0.1-3.1-2.7-5.5-5.8-5.5c-3.2,0-5.9,2.8-5.8,5.9
			C327.8,209.5,330.6,212.1,333.8,212z"/>
	</g>
	<g>
		<path class="st0" d="M380.2,125c-0.2,8.3-0.3,16.6,0,24.9c0.1,2,0,3.9-0.2,5.8h-11.7c0.1-0.6,0.1-1.2,0.1-1.9
			c0-11.5,0.1-23,0-34.4c-0.1-6.2-3.7-10.5-9.4-11.6V95.5c6.3-1.2,9.5-5.4,9.5-12.9c0-10.7,0-21.4,0-32.1c0-7.1-3.4-11.4-9.5-12.6
			V26h1.7c1.2,0.4,2.3,0.8,3.5,1.2c9,3,15.5,10.8,15.7,20.2c0.4,12.7,0.2,25.4,0.1,38.2c-0.1,6.3-3.1,11.5-7.8,16.1
			C379.4,108,380.4,116.2,380.2,125z"/>
	</g>
	<g>
		<path class="st0" d="M380.2,194.6c-0.2,8.3-0.3,16.6,0,24.9c0.1,2,0,3.9-0.2,5.8h-11.7c0.1-0.6,0.1-1.2,0.1-1.9
			c0-11.5,0.1-23,0-34.4c-0.1-6.2-3.7-10.5-9.4-11.6V165c6.3-1.2,9.5-5.4,9.5-12.9c0-10.7,0-21.4,0-32.1c0-7.1-3.4-11.4-9.5-12.6
			V95.6h1.7c1.2,0.4,2.3,0.8,3.5,1.2c9,3,15.5,10.8,15.7,20.2c0.4,12.7,0.2,25.4,0.1,38.2c-0.1,6.3-3.1,11.5-7.8,16.1
			C379.4,177.5,380.4,185.8,380.2,194.6z"/>
	</g>
</g>
</svg>
