<?xml version="1.0" encoding="utf-8"?>
<!-- Generator: Adobe Illustrator 27.4.0, SVG Export Plug-In . SVG Version: 6.00 Build 0)  -->
<svg version="1.1" id="Layer_1" xmlns="http://www.w3.org/2000/svg" xmlns:xlink="http://www.w3.org/1999/xlink" x="0px" y="0px"
	 viewBox="0 0 410.5 400.8" style="enable-background:new 0 0 410.5 400.8;" xml:space="preserve">
<style type="text/css">
	.st0{fill:#F5F5F5;}
	.st1{fill:none;}
	.st2{fill:#12121B;}
	.st3{fill:none;stroke:#12121B;stroke-miterlimit:10;}
</style>
<rect class="st0" width="410.5" height="400.8"/>
<g>
	<path class="st1" d="M11.3,392.8c0-128,0-255.9,0-384c127.9,0,255.9,0,384,0c0,127.9,0,256,0,384
		C267.3,392.8,139.3,392.8,11.3,392.8z M266.8,51.1c-1.3-2.5-2-4.9-3.6-6.7c-3.3-3.7-6.9-7.2-10.5-10.6c-4.1-3.8-9.2-3.8-13.6-0.1
		c-3.8,3.2-7.7,4.5-12.4,2.4c-4.5-2-6.3-5.7-6.6-10.4c-0.4-5.5-4.3-9.2-9.8-9.4c-5-0.2-10-0.2-15,0c-5.3,0.2-9.2,3.9-9.6,9.2
		c-0.3,4.9-2.1,8.7-6.8,10.7c-4.7,2-8.6,0.5-12.4-2.6c-4.3-3.7-9.4-3.5-13.6,0.4c-3.6,3.3-7,6.8-10.3,10.3c-3.8,4.1-4,9.3-0.4,13.5
		c3.2,3.7,4.7,7.7,2.7,12.4c-2,4.7-5.7,6.5-10.7,6.8c-5.3,0.3-9.1,4.3-9.2,9.5c-0.2,5.1-0.2,10.2,0,15.3c0.2,5.1,3.9,9.1,8.9,9.4
		c5,0.3,9,2.1,11,6.9c2,4.7,0.4,8.6-2.7,12.4c-3.5,4.1-3.4,9.3,0.2,13.3c3.4,3.7,6.9,7.2,10.6,10.6c4.1,3.8,9.3,3.9,13.6,0.3
		c3.7-3.2,7.7-4.6,12.4-2.6c4.7,2,6.4,5.8,6.8,10.7c0.3,5.3,4.3,9,9.6,9.2c5,0.2,10,0.2,15,0c5.5-0.2,9.4-3.9,9.8-9.4
		c0.3-4.8,2.1-8.4,6.6-10.4c4.7-2.1,8.6-0.7,12.4,2.4c4.5,3.8,9.6,3.6,13.9-0.3c3.5-3.2,6.8-6.6,10.1-10.1c4-4.3,4.2-9.4,0.4-13.9
		c-3.2-3.8-4.6-7.7-2.5-12.4c2-4.5,5.6-6.3,10.4-6.7c5.7-0.4,9.3-4.3,9.5-10.1c0.1-4.7,0.1-9.5,0-14.2c-0.1-5.7-3.8-9.7-9.5-10.1
		c-4.8-0.3-8.4-2.2-10.4-6.7c-2.1-4.7-0.6-8.6,2.5-12.4C264.9,56,265.6,53.6,266.8,51.1z M176.1,292.7c-1.8,0.6-3.4,0.6-4.3,1.5
		c-3.3,3-6.7,6-9.5,9.5c-2.2,2.8-1.6,6.1,0.4,9.1c3.7,5.4,2.5,8.2-4,9.5c-4.4,0.9-6.7,3.5-7,8c-0.1,3-0.1,6,0,9
		c0.2,5,2.6,7.7,7.7,8.6c5.5,1,6.8,4.3,3.5,9c-2.8,3.9-2.7,7.7,0.6,11.2c1.9,2.1,4,4.1,6.1,6.1c3.6,3.4,7.5,3.6,11.5,0.7
		c4.6-3.3,8.2-1.8,9,3.6c0.7,4.9,3.7,7.5,8.5,7.7c2.9,0.1,5.7,0.1,8.6,0c4.7-0.2,7.7-2.9,8.4-7.5c0.9-5.8,4.3-7.2,9.1-3.8
		c3.8,2.7,7.8,2.5,11.2-0.7c2.1-1.9,4.2-4,6.1-6.1c3.4-3.7,3.5-7.4,0.6-11.5c-3.2-4.6-1.9-7.8,3.8-8.9c4.9-0.9,7.4-3.7,7.5-8.7
		c0.1-2.9,0.1-5.7,0-8.6c-0.2-4.7-2.6-7.3-7.1-8.2c-6.2-1.2-7.5-4.2-3.9-9.3c2.6-3.8,2.5-7.5-0.6-10.9c-1.9-2.1-4-4.1-6.1-6.1
		c-3.8-3.6-7.5-3.7-11.8-0.7c-4.4,3.1-8,1.6-8.8-3.6c-0.8-5.1-3.6-7.7-8.7-7.9c-2.6-0.1-5.2-0.1-7.9,0c-5.4,0.2-8.1,2.7-9,8.1
		c-0.8,5-4.4,6.5-8.7,3.6C179.8,294.2,177.8,293.5,176.1,292.7z M111.4,308.3c-0.7-2-0.8-3.8-1.8-4.9c-2.8-3.2-5.7-6.4-9-8.9
		c-2.9-2.2-6.3-1.8-9.4,0.4c-5.2,3.6-8.1,2.4-9.3-3.8c-0.9-4.7-3.7-7.2-8.5-7.4c-2.9-0.1-5.7-0.1-8.6,0c-4.7,0.2-7.6,2.9-8.4,7.5
		c-1.1,6-4.1,7.2-9,3.8c-3.9-2.7-7.8-2.5-11.2,0.7c-2.2,2-4.3,4.2-6.3,6.4c-3,3.3-3.2,7.3-0.6,10.9c3.6,5.1,2.3,8-3.9,9.3
		c-4.7,0.9-7.1,3.8-7.2,8.6c-0.1,2.7-0.1,5.5,0,8.2c0.1,4.9,2.7,7.8,7.6,8.7c5.9,1.1,7.1,4.2,3.6,9.1c-2.6,3.7-2.4,7.6,0.6,10.9
		c1.6,1.8,3.3,3.4,5,5.1c4.8,4.8,7.8,5.1,13.4,1.3c3.6-2.5,7.3-0.9,8.1,3.3c1.2,6.6,3.6,8.6,10.4,8.6c1.5,0,3,0,4.5,0
		c7.4,0,9.4-1.6,11-8.8c0.9-4.1,4.4-5.5,7.9-3.3c6,3.9,8.6,3.7,13.7-1.3c1.1-1.1,2.1-2.1,3.2-3.2c5-5.1,5.3-7.9,1.4-13.7
		c-2.4-3.7-0.9-7.2,3.5-8c6.3-1.1,8.5-3.8,8.6-10.1c0-1.7,0-3.5,0-5.2c0-6.8-2-9.2-8.6-10.5c-4.6-0.9-5.9-4.4-3.3-8.3
		C109.7,311.9,110.5,310,111.4,308.3z M294.5,361.7c0.6,1.8,0.7,3.6,1.6,4.6c2.9,3.2,5.9,6.5,9.3,9.2c2.8,2.2,6.1,1.7,9.1-0.4
		c5.4-3.7,8.2-2.6,9.5,3.9c0.9,4.5,3.7,6.9,8.3,7.1c2.7,0.1,5.5,0.1,8.2,0c5.2-0.1,8.1-2.6,9-7.7c1-5.6,4.2-7,8.9-3.7
		c4,2.8,7.9,2.6,11.5-0.8c2-1.9,3.9-3.8,5.8-5.8c3.4-3.6,3.6-7.5,0.8-11.5c-3.3-4.7-2-8,3.6-8.9c5.1-0.9,7.6-3.8,7.7-9
		c0.1-2.6,0.1-5.2,0-7.9c-0.1-5-2.5-7.8-7.4-8.8c-5.9-1.2-7.2-4.3-3.8-9.1c2.7-3.8,2.5-7.8-0.7-11.2c-2-2.1-4-4.1-6.1-6.1
		c-3.6-3.4-7.4-3.5-11.5-0.6c-4.7,3.3-7.8,1.9-8.9-3.8c-0.9-4.8-3.8-7.5-8.7-7.7c-2.7-0.1-5.5-0.1-8.2,0c-5,0.2-7.8,2.7-8.7,7.6
		c-1.1,5.9-4.2,7.2-9.1,3.7c-3.9-2.7-7.8-2.5-11.2,0.7c-2.1,2-4.1,4-6.1,6.1c-3.2,3.4-3.5,7.4-0.8,11.2c3.5,5,2.3,8-3.6,9.2
		c-5.1,1-7.5,3.8-7.6,9c-0.1,2.5-0.1,5,0,7.5c0.1,5.3,2.7,8.2,8,9.1c5.3,0.9,6.6,4.3,3.5,8.8C295.9,358.2,295.2,360,294.5,361.7z
		 M75.5,253.1c-0.3-0.2-0.6-0.5-1-0.7c-0.1-0.5-0.2-0.9-0.2-1.4c0-45.8,0-91.6,0.1-137.4c0-1.2,1.3-2.6,2.3-3.6
		c2.7-2.8,5.8-5.3,8.2-8.4c1.2-1.7,2.2-2.3,4.1-2.2c5.7,0.1,11.5,0.1,17.2,0c4.1,0,6.3-1.9,6.3-5.3c0-3.3-2.2-5.1-6.4-5.2
		c-5.6,0-11.2-0.1-16.8,0c-2.3,0.1-3.5-0.6-4.5-2.8C81.2,79,74,75.6,66,76.9c-6.9,1.1-12.8,7-14.2,14.2c-1.4,7.3,2.2,15.1,9.1,18.5
		c2.5,1.2,3,2.7,3,5.2c-0.1,44.8,0,89.6,0,134.4c0,1.2-0.1,2.3-0.3,4.5c-3-3.2-5.2-5.6-7.7-8c-2.5-2.4-5.5-2.5-7.7-0.5
		c-2.4,2.2-2.4,5.2,0.3,7.9c5.4,5.5,10.9,11,16.4,16.4c2.8,2.8,5.4,2.9,8.2,0.2c5.7-5.5,11.2-11,16.7-16.7c2.5-2.6,2.5-5.5,0.4-7.7
		c-2.1-2.2-5.3-2.1-7.9,0.5C80,248.1,77.8,250.6,75.5,253.1z M342.2,253.6c-0.1-2-0.2-2.7-0.2-3.5c0-45.4,0-90.8,0-136.2
		c0-2.2,0.7-3.2,2.7-4.2c5.8-2.9,9.1-7.7,9.6-14.2c0.7-8.4-4.5-15.8-12.5-18.2c-7.9-2.4-16.4,1-20.3,8.6c-1.2,2.4-2.6,3.1-5.1,3.1
		c-5.5-0.2-11-0.1-16.5,0c-4.1,0-6.3,1.9-6.4,5.2c0,3.3,2.2,5.2,6.3,5.2c5.6,0,11.2,0.1,16.8,0c2.2-0.1,3.3,0.7,4.6,2.6
		c1.9,2.9,4.5,5.7,7.4,7.6c2.3,1.4,2.9,2.8,2.9,5.2c-0.1,44.8,0,89.6,0,134.4c0,1.2,0,2.3,0,3.5c-0.4,0.1-0.7,0.3-1.1,0.4
		c-2.3-2.4-4.5-4.9-6.9-7.3c-2.6-2.6-5.8-2.6-7.9-0.4c-2.1,2.2-2,5.1,0.5,7.7c5.4,5.5,10.9,11,16.4,16.4c3,2.9,5.5,2.9,8.5,0
		c5.5-5.4,11-10.9,16.4-16.4c2.6-2.7,2.6-5.7,0.3-7.9c-2.2-2-5.2-1.9-7.7,0.6C347.5,247.9,345.3,250.4,342.2,253.6z M209.2,253
		c-0.3-0.1-0.7-0.3-1-0.4c0-11.2-0.1-22.3,0.1-33.5c0-0.9,1.4-2.2,2.4-2.7c8-4.4,11.7-12.9,9-21.2c-2.5-7.7-9.4-12.5-17.7-12.1
		c-7.4,0.3-14.1,5.7-16,13c-2,7.8,1.3,15.9,8.5,19.7c2.7,1.4,3.4,2.9,3.3,5.7c-0.2,4.6-0.1,9.2-0.1,13.8c0,5.8,0,11.6,0,17.3
		c-0.3,0.1-0.6,0.3-0.9,0.4c-2.5-2.6-4.9-5.3-7.4-7.8c-2.3-2.2-4.9-2.3-7.4-0.2c-2.2,1.9-2.2,5.2,0.1,7.6
		c5.6,5.7,11.2,11.3,16.9,16.9c2.4,2.4,5.2,2.5,7.6,0.1c5.8-5.7,11.5-11.4,17.2-17.2c2.2-2.3,2.3-4.9,0.2-7.4
		c-1.9-2.2-5.2-2.2-7.6,0.2C213.9,247.9,211.6,250.5,209.2,253z"/>
	<path class="st2" d="M266.8,51.1c-1.2,2.5-1.9,5-3.4,6.8c-3.1,3.8-4.5,7.7-2.5,12.4c2,4.5,5.6,6.3,10.4,6.7
		c5.7,0.4,9.4,4.4,9.5,10.1c0.1,4.7,0.1,9.5,0,14.2c-0.1,5.7-3.8,9.7-9.5,10.1c-4.8,0.3-8.4,2.2-10.4,6.7c-2.1,4.7-0.7,8.6,2.5,12.4
		c3.8,4.4,3.6,9.6-0.4,13.9c-3.2,3.5-6.6,6.8-10.1,10.1c-4.2,3.9-9.4,4.1-13.9,0.3c-3.8-3.2-7.7-4.5-12.4-2.4
		c-4.5,2-6.3,5.7-6.6,10.4c-0.4,5.5-4.3,9.2-9.8,9.4c-5,0.1-10,0.2-15,0c-5.3-0.2-9.2-3.9-9.6-9.2c-0.3-4.9-2.1-8.7-6.8-10.7
		c-4.7-2-8.6-0.6-12.4,2.6c-4.3,3.6-9.5,3.5-13.6-0.3c-3.7-3.4-7.2-6.9-10.6-10.6c-3.6-4-3.7-9.1-0.2-13.3c3.2-3.7,4.7-7.7,2.7-12.4
		c-2-4.8-6-6.6-11-6.9c-5.1-0.3-8.7-4.3-8.9-9.4c-0.2-5.1-0.2-10.2,0-15.3c0.2-5.2,3.9-9.2,9.2-9.5c4.9-0.3,8.7-2.2,10.7-6.8
		c2-4.7,0.5-8.6-2.7-12.4c-3.6-4.3-3.4-9.4,0.4-13.5c3.3-3.6,6.8-7,10.3-10.3c4.2-3.8,9.2-4,13.6-0.4c3.7,3.2,7.7,4.6,12.4,2.6
		c4.7-2,6.5-5.8,6.8-10.7c0.3-5.2,4.3-9,9.6-9.2c5-0.2,10-0.2,15,0c5.5,0.2,9.4,3.9,9.8,9.4c0.3,4.8,2.1,8.4,6.6,10.4
		c4.7,2.1,8.6,0.8,12.4-2.4c4.4-3.7,9.4-3.7,13.6,0.1c3.7,3.4,7.3,6.9,10.5,10.6C264.7,46.1,265.5,48.6,266.8,51.1z M245.9,42
		c-14.1,11.9-34.4,4-36.5-15.1c-4.3,0-8.6,0-13,0c-2.3,19.5-22.6,26.8-36.3,15.3c-3.1,3-6.3,6-9.4,9c12.1,14.8,3.4,34.5-15.1,36.5
		c0,4.3,0,8.6,0,13c19.6,2.3,26.7,22.8,15.1,36.5c3.1,3.1,6.2,6.1,9.2,9.2c14.3-11.9,34.4-3.8,36.5,15.1c4.3,0,8.6,0,12.9,0
		c2.4-19.6,22.9-26.7,36.5-15.1c3.1-3.1,6.1-6.2,9.2-9.2c-11.8-13.8-4.3-34.2,15.1-36.5c0-4.3,0-8.6,0-13c-19-2.1-27-22.3-15.1-36.5
		C252,48.1,249,45,245.9,42z"/>
	<path class="st2" d="M176.1,292.7c1.6,0.8,3.6,1.5,5.3,2.6c4.2,2.8,7.9,1.4,8.7-3.6c0.9-5.4,3.6-7.9,9-8.1c2.6-0.1,5.2-0.1,7.9,0
		c5.1,0.2,8,2.8,8.7,7.9c0.8,5.2,4.5,6.7,8.8,3.6c4.3-3,8-2.9,11.8,0.7c2.1,2,4.2,4,6.1,6.1c3.1,3.4,3.2,7.1,0.6,10.9
		c-3.5,5.1-2.2,8.1,3.9,9.3c4.6,0.9,6.9,3.6,7.1,8.2c0.1,2.9,0.1,5.7,0,8.6c-0.2,5-2.6,7.8-7.5,8.7c-5.6,1-7,4.3-3.8,8.9
		c2.9,4.1,2.8,7.8-0.6,11.5c-1.9,2.1-4,4.1-6.1,6.1c-3.5,3.2-7.4,3.4-11.2,0.7c-4.8-3.4-8.2-2-9.1,3.8c-0.7,4.6-3.7,7.3-8.4,7.5
		c-2.9,0.1-5.7,0.1-8.6,0c-4.9-0.1-7.8-2.8-8.5-7.7c-0.8-5.5-4.4-6.9-9-3.6c-4,2.8-7.9,2.6-11.5-0.7c-2.1-2-4.1-4-6.1-6.1
		c-3.2-3.5-3.4-7.3-0.6-11.2c3.3-4.7,2-8-3.5-9c-5-0.9-7.5-3.6-7.7-8.6c-0.1-3-0.1-6,0-9c0.2-4.5,2.6-7.1,7-8c6.5-1.3,7.6-4.1,4-9.5
		c-2-3-2.7-6.3-0.4-9.1c2.8-3.5,6.2-6.5,9.5-9.5C172.7,293.3,174.3,293.3,176.1,292.7z M172.5,307.6c5.8,12,2.5,20.1-9.9,25
		c-0.5,4.2-0.5,4.1,3.3,5.8c5.2,2.3,8.7,6.3,9.1,11.8c0.3,3.9-1,7.9-1.6,12.6c0.3,0.3,1.3,1.4,2.1,2.3c0.7-0.1,1-0.1,1.2-0.2
		c10.4-5.3,19-2,23.4,8.9c0.4,0.9,2,1.7,3,1.7c1,0,2.4-1,2.8-1.9c2.7-6.8,7.7-11.1,14.4-11c3.3,0,6.7,1.4,10,2.2
		c1-0.7,2.1-1.6,3.2-2.5c-6.8-11.3-0.6-21.5,6.8-23.8c3.7-1.2,3.8-3.1,3-6c-12-3.9-15.1-11.6-10.3-24.4c-1-1.3-1.8-2.5-2.6-3.5
		c-12,5.7-19,3-24.7-8.9c-0.4-0.8-2-1.5-2.9-1.4c-1,0.1-2.5,1.1-2.8,2c-2.1,6-6.1,10-12.3,10.7c-4,0.4-8.1-0.9-12.2-1.4
		c0-0.3,0-0.6,0-0.9C174.6,305.5,173.6,306.5,172.5,307.6z"/>
	<path class="st2" d="M111.4,308.3c-0.9,1.7-1.7,3.7-2.8,5.4c-2.6,3.9-1.3,7.4,3.3,8.3c6.6,1.3,8.5,3.7,8.6,10.5c0,1.7,0,3.5,0,5.2
		c-0.1,6.4-2.3,9-8.6,10.1c-4.4,0.8-5.9,4.3-3.5,8c3.9,5.9,3.6,8.7-1.4,13.7c-1.1,1.1-2.1,2.1-3.2,3.2c-5.1,5-7.7,5.3-13.7,1.3
		c-3.5-2.3-7-0.8-7.9,3.3c-1.6,7.2-3.6,8.8-11,8.8c-1.5,0-3,0-4.5,0c-6.8,0-9.2-2-10.4-8.6c-0.8-4.3-4.5-5.8-8.1-3.3
		c-5.6,3.8-8.6,3.5-13.4-1.3c-1.7-1.7-3.4-3.3-5-5.1c-3-3.3-3.1-7.3-0.6-10.9c3.5-5,2.2-8.1-3.6-9.1c-4.8-0.9-7.4-3.8-7.6-8.7
		c-0.1-2.7-0.1-5.5,0-8.2c0.1-4.8,2.6-7.6,7.2-8.6c6.2-1.2,7.5-4.2,3.9-9.3c-2.5-3.7-2.4-7.7,0.6-10.9c2-2.2,4.2-4.3,6.3-6.4
		c3.4-3.2,7.3-3.4,11.2-0.7c4.9,3.4,7.9,2.2,9-3.8c0.9-4.6,3.8-7.3,8.4-7.5c2.9-0.1,5.7-0.1,8.6,0c4.8,0.2,7.6,2.7,8.5,7.4
		c1.2,6.2,4.1,7.4,9.3,3.8c3.1-2.1,6.5-2.6,9.4-0.4c3.3,2.6,6.2,5.8,9,8.9C110.6,304.4,110.7,306.3,111.4,308.3z M96.1,304.4
		c-4.8,3.1-9.8,3.9-15.1,1.7c-5.4-2.2-8.2-6.5-9.5-11.8c-1.8,0-3.3,0-4.8,0c-1.3,5.6-4.3,9.6-9.5,11.9c-5.4,2.3-10.4,1.1-14.4-1.2
		c-1.7,1.1-3,1.9-4.1,2.6c5.9,12.1,2.3,20.8-10.1,25.1c0,1.5,0,3.1,0,4.6c12.3,4.2,15.8,12.5,10.3,24.8c1,1.1,2,2.3,3,3.4
		c9.2-6,21.5-3,25.1,10c1.6,0,3.2,0,4.7,0c3.6-12.1,12.3-15.7,24.3-10.5c1.4-1,2.6-2,3.9-2.9c-3.2-5.1-4-10-1.8-15.3
		c2.2-5.4,6.6-8.1,11.8-9.5c0-1.8,0-3.3,0-4.7c-12.3-4-15.9-12.8-10.2-24.9C98.6,306.7,97.5,305.7,96.1,304.4z"/>
	<path class="st2" d="M294.5,361.7c0.8-1.6,1.4-3.5,2.5-5.1c3.1-4.6,1.8-7.9-3.5-8.8c-5.3-0.9-7.9-3.8-8-9.1c-0.1-2.5-0.1-5,0-7.5
		c0.1-5.2,2.6-8.1,7.6-9c5.9-1.1,7.1-4.2,3.6-9.2c-2.7-3.8-2.4-7.8,0.8-11.2c2-2.1,4-4.1,6.1-6.1c3.4-3.2,7.4-3.4,11.2-0.7
		c5,3.5,8,2.2,9.1-3.7c0.9-4.9,3.8-7.4,8.7-7.6c2.7-0.1,5.5-0.1,8.2,0c4.9,0.2,7.8,2.8,8.7,7.7c1,5.7,4.2,7,8.9,3.8
		c4.1-2.9,7.9-2.7,11.5,0.6c2.1,2,4.1,4,6.1,6.1c3.2,3.4,3.4,7.4,0.7,11.2c-3.4,4.8-2.1,8,3.8,9.1c4.9,1,7.3,3.8,7.4,8.8
		c0.1,2.6,0.1,5.2,0,7.9c-0.1,5.1-2.7,8.1-7.7,9c-5.6,1-6.9,4.3-3.6,8.9c2.8,4,2.6,7.9-0.8,11.5c-1.9,2-3.8,3.9-5.8,5.8
		c-3.6,3.4-7.5,3.6-11.5,0.8c-4.7-3.3-7.9-2-8.9,3.7c-0.9,5.1-3.8,7.6-9,7.7c-2.7,0.1-5.5,0.1-8.2,0c-4.6-0.2-7.4-2.6-8.3-7.1
		c-1.3-6.5-4.1-7.6-9.5-3.9c-3,2-6.3,2.5-9.1,0.4c-3.4-2.7-6.4-5.9-9.3-9.2C295.2,365.2,295.1,363.5,294.5,361.7z M377.3,332.4
		c-12.2-3.6-15.8-12.3-10.4-24.7c-1-1.2-2-2.4-3-3.5c-5.2,3.3-10.1,4.1-15.4,1.8c-5.4-2.3-8.1-6.6-9.5-11.8c-1.9,0-3.3,0-4.7,0
		c-3.9,12.3-12.7,15.9-24.2,10.5c-1.4,1.1-2.6,2-3.9,3c3.2,5,3.9,9.9,1.7,15.2c-2.3,5.4-6.5,8.2-11.8,9.4c0,1.9,0,3.3,0,4.8
		c5.6,1.4,9.6,4.3,11.9,9.6c2.3,5.4,1,10.4-1.3,14.6c1.1,1.6,2,2.9,2.7,3.9c12-6,20.8-2.3,25.1,10.1c1.5,0,3.1,0,4.6,0
		c4.2-12.3,12.5-15.8,24.8-10.3c1.1-1,2.3-2,3.4-3c-5.9-9.1-3.1-21.4,10-25.1C377.3,335.7,377.3,334.2,377.3,332.4z"/>
	<path class="st2" d="M75.5,253.1c2.3-2.5,4.5-5,6.8-7.4c2.6-2.6,5.8-2.7,7.9-0.5c2.1,2.2,2.1,5.1-0.4,7.7
		c-5.5,5.6-11,11.2-16.7,16.7c-2.8,2.7-5.4,2.6-8.2-0.2c-5.5-5.4-11-10.9-16.4-16.4c-2.7-2.7-2.7-5.7-0.3-7.9c2.1-2,5.2-1.9,7.7,0.5
		c2.4,2.3,4.6,4.8,7.7,8c0.1-2.2,0.3-3.3,0.3-4.5c0-44.8,0-89.6,0-134.4c0-2.4-0.4-3.9-3-5.2c-6.9-3.4-10.5-11.1-9.1-18.5
		c1.3-7.2,7.2-13.1,14.2-14.2c8-1.2,15.2,2.2,18.7,9.3c1.1,2.2,2.3,2.8,4.5,2.8c5.6-0.2,11.2-0.1,16.8,0c4.2,0,6.4,1.9,6.4,5.2
		c0,3.3-2.2,5.3-6.3,5.3c-5.7,0-11.5,0.1-17.2,0c-1.9,0-2.9,0.6-4.1,2.2c-2.3,3.1-5.5,5.6-8.2,8.4c-1,1-2.3,2.4-2.3,3.6
		c-0.1,45.8-0.1,91.6-0.1,137.4c0,0.5,0.1,0.9,0.2,1.4C74.9,252.6,75.2,252.8,75.5,253.1z M76.3,94c-0.1-3.9-3.4-7-7.4-6.8
		c-4,0.1-7,3.4-6.8,7.3c0.2,3.8,3.3,6.8,7.1,6.7C73.1,101.2,76.4,97.8,76.3,94z"/>
	<path class="st2" d="M342.2,253.6c3-3.2,5.3-5.7,7.7-8c2.5-2.4,5.5-2.6,7.7-0.6c2.4,2.2,2.4,5.2-0.3,7.9
		c-5.4,5.5-10.9,11-16.4,16.4c-3,2.9-5.5,2.9-8.5,0c-5.5-5.4-11-10.9-16.4-16.4c-2.5-2.6-2.6-5.5-0.5-7.7c2.1-2.2,5.3-2.2,7.9,0.4
		c2.4,2.3,4.6,4.9,6.9,7.3c0.4-0.1,0.7-0.3,1.1-0.4c0-1.2,0-2.3,0-3.5c0-44.8,0-89.6,0-134.4c0-2.5-0.6-3.8-2.9-5.2
		c-2.9-1.8-5.5-4.7-7.4-7.6c-1.3-2-2.4-2.7-4.6-2.6c-5.6,0.1-11.2,0.1-16.8,0c-4.1,0-6.3-1.9-6.3-5.2c0-3.3,2.2-5.2,6.4-5.2
		c5.5,0,11-0.1,16.5,0c2.5,0.1,3.9-0.6,5.1-3.1c3.9-7.6,12.4-11,20.3-8.6c8,2.4,13.2,9.8,12.5,18.2c-0.5,6.5-3.8,11.3-9.6,14.2
		c-2,1-2.7,2.1-2.7,4.2c0.1,45.4,0,90.8,0,136.2C342,250.9,342.1,251.6,342.2,253.6z M343.7,94.2c0-4-3.1-7.1-7.1-7.1
		c-3.9,0-7.2,3.2-7.1,7.1c0.1,3.7,3.2,6.9,6.9,6.9C340.4,101.3,343.7,98.1,343.7,94.2z"/>
	<path class="st2" d="M209.2,253c2.4-2.5,4.7-5.2,7.2-7.6c2.4-2.3,5.7-2.4,7.6-0.2c2.1,2.4,2.1,5.1-0.2,7.4
		c-5.7,5.8-11.4,11.5-17.2,17.2c-2.5,2.4-5.2,2.2-7.6-0.1c-5.7-5.6-11.3-11.2-16.9-16.9c-2.4-2.4-2.4-5.7-0.1-7.6
		c2.4-2.1,5.1-2,7.4,0.2c2.6,2.5,5,5.2,7.4,7.8c0.3-0.1,0.6-0.3,0.9-0.4c0-5.8,0-11.6,0-17.3c0-4.6-0.2-9.2,0.1-13.8
		c0.1-2.8-0.7-4.3-3.3-5.7c-7.2-3.8-10.5-12-8.5-19.7c1.9-7.2,8.6-12.7,16-13c8.3-0.3,15.2,4.4,17.7,12.1c2.7,8.3-1,16.8-9,21.2
		c-1,0.6-2.4,1.8-2.4,2.7c-0.2,11.2-0.1,22.3-0.1,33.5C208.5,252.8,208.8,252.9,209.2,253z M202.8,193.6c-4,0.1-7,3.2-6.9,7.2
		c0.1,3.8,3.2,6.9,7,6.9c3.9,0,7.1-3.2,7.1-7.2C209.9,196.6,206.8,193.5,202.8,193.6z"/>
	<path class="st3" d="M245.9,42c3.1,3.1,6.1,6.1,9.2,9.2c-11.9,14.2-3.9,34.4,15.1,36.5c0,4.3,0,8.6,0,13
		c-19.4,2.2-26.9,22.7-15.1,36.5c-3.1,3.1-6.1,6.2-9.2,9.2c-13.6-11.6-34.2-4.5-36.5,15.1c-4.3,0-8.6,0-12.9,0
		c-2.1-18.9-22.1-27-36.5-15.1c-3.1-3.1-6.2-6.1-9.2-9.2c11.6-13.7,4.5-34.2-15.1-36.5c0-4.3,0-8.6,0-13
		c18.5-1.9,27.2-21.7,15.1-36.5c3.1-3,6.2-6,9.4-9c13.7,11.5,34,4.2,36.3-15.3c4.3,0,8.6,0,13,0C211.5,46,231.8,53.8,245.9,42z
		 M203.8,54c-21.7-0.9-40.3,16.9-41,39.4c-0.7,21.6,16.9,39.9,39.3,40.9c21.7,0.9,40.2-17,41-39.5C243.9,73.3,226.2,54.9,203.8,54z"
		/>
	<path class="st3" d="M172.5,307.6c1.1-1.1,2.1-2,3.1-3c0,0.3,0,0.6,0,0.9c4.1,0.5,8.2,1.8,12.2,1.4c6.2-0.7,10.2-4.7,12.3-10.7
		c0.3-0.9,1.8-1.9,2.8-2c0.9-0.1,2.5,0.6,2.9,1.4c5.7,11.9,12.7,14.5,24.7,8.9c0.8,1.1,1.7,2.2,2.6,3.5
		c-4.9,12.8-1.7,20.6,10.3,24.4c0.8,2.9,0.8,4.8-3,6c-7.4,2.3-13.5,12.5-6.8,23.8c-1.1,0.8-2.2,1.7-3.2,2.5c-3.4-0.8-6.7-2.2-10-2.2
		c-6.8-0.1-11.8,4.2-14.4,11c-0.4,0.9-1.8,1.9-2.8,1.9c-1,0-2.6-0.8-3-1.7c-4.4-10.9-13-14.2-23.4-8.9c-0.2,0.1-0.5,0.1-1.2,0.2
		c-0.8-0.9-1.8-2-2.1-2.3c0.7-4.7,1.9-8.7,1.6-12.6c-0.4-5.6-3.9-9.6-9.1-11.8c-3.9-1.7-3.9-1.6-3.3-5.8
		C175,327.7,178.3,319.6,172.5,307.6z M202.8,307.2c-15.3,0.1-27.6,12.4-27.6,27.6c0,15.2,12.4,27.6,27.6,27.7
		c15.3,0.1,27.9-12.6,27.8-27.9C230.5,319.5,218.1,307.2,202.8,307.2z"/>
	<path class="st3" d="M96.1,304.4c1.4,1.2,2.5,2.2,3.5,3.1c-5.8,12.1-2.2,21,10.2,24.9c0,1.4,0,2.8,0,4.7c-5.2,1.4-9.5,4.1-11.8,9.5
		c-2.2,5.3-1.5,10.2,1.8,15.3c-1.2,0.9-2.5,1.9-3.9,2.9c-11.9-5.3-20.7-1.6-24.3,10.5c-1.5,0-3.1,0-4.7,0c-3.6-13-15.9-15.9-25.1-10
		c-0.9-1.1-2-2.3-3-3.4c5.5-12.3,2.1-20.6-10.3-24.8c0-1.5,0-3.1,0-4.6c12.4-4.3,16-13,10.1-25.1c1.1-0.7,2.4-1.5,4.1-2.6
		c4,2.3,9,3.5,14.4,1.2c5.3-2.2,8.2-6.3,9.5-11.9c1.5,0,3,0,4.8,0c1.3,5.3,4.1,9.6,9.5,11.8C86.3,308.3,91.3,307.5,96.1,304.4z
		 M69.3,307.2c-15.3,0-27.6,12.2-27.8,27.4c-0.2,15.2,12.6,28,27.8,27.9c15.3-0.1,27.5-12.4,27.5-27.7
		C96.8,319.6,84.6,307.3,69.3,307.2z"/>
	<path class="st3" d="M377.3,332.4c0,1.7,0,3.2,0,4.7c-13.2,3.7-15.9,16-10,25.1c-1.1,0.9-2.3,2-3.4,3c-12.3-5.5-20.7-2.1-24.8,10.3
		c-1.5,0-3.1,0-4.6,0c-4.3-12.4-13.1-16-25.1-10.1c-0.7-1.1-1.6-2.3-2.7-3.9c2.4-4.2,3.6-9.2,1.3-14.6c-2.2-5.3-6.3-8.2-11.9-9.6
		c0-1.5,0-2.9,0-4.8c5.2-1.2,9.5-4.1,11.8-9.4c2.2-5.3,1.4-10.2-1.7-15.2c1.3-1,2.5-2,3.9-3c11.5,5.4,20.3,1.8,24.2-10.5
		c1.4,0,2.8,0,4.7,0c1.4,5.1,4.1,9.5,9.5,11.8c5.3,2.2,10.2,1.5,15.4-1.8c1,1.1,2,2.3,3,3.5C361.5,320.1,365.1,328.8,377.3,332.4z
		 M309,334.7c-0.1,15.3,12.1,27.6,27.4,27.8c15.2,0.2,28-12.5,27.9-27.8c0-15.2-12.4-27.5-27.7-27.6
		C321.4,307.2,309.1,319.4,309,334.7z"/>
	<path class="st3" d="M76.3,94c0.1,3.8-3.2,7.2-7,7.2c-3.8,0-6.9-3-7.1-6.7c-0.2-4,2.8-7.2,6.8-7.3C72.9,87,76.2,90.1,76.3,94z"/>
	<path class="st3" d="M343.7,94.2c0,3.9-3.3,7.1-7.2,7c-3.7-0.1-6.9-3.2-6.9-6.9c-0.1-3.9,3.1-7.1,7.1-7.1
		C340.6,87.1,343.8,90.2,343.7,94.2z"/>
	<path class="st3" d="M202.8,193.6c4-0.1,7.1,3,7.2,7c0,3.9-3.2,7.2-7.1,7.2c-3.7,0-6.8-3.1-7-6.9
		C195.8,196.8,198.8,193.6,202.8,193.6z"/>
	<path class="st2" d="M203.8,54c22.4,0.9,40.1,19.2,39.3,40.8c-0.8,22.5-19.4,40.4-41,39.5c-22.4-0.9-40-19.3-39.3-40.9
		C163.5,70.9,182.1,53.1,203.8,54z M202.8,64.5c-16.4,0.2-29.8,13.7-29.5,29.9c0.2,16.2,13.5,29.4,29.7,29.4
		c16.3,0,29.8-13.6,29.7-29.8C232.6,77.7,219,64.3,202.8,64.5z"/>
	<path class="st2" d="M202.8,307.2c15.3-0.1,27.7,12.2,27.8,27.4c0.1,15.3-12.5,28-27.8,27.9c-15.2-0.1-27.6-12.5-27.6-27.7
		C175.2,319.7,187.5,307.3,202.8,307.2z M185.7,335c0.1,9.4,7.9,17.1,17.3,17.1c9.4,0,17.1-7.8,17.2-17.2c0-9.6-7.8-17.3-17.4-17.2
		C193.2,317.8,185.6,325.5,185.7,335z"/>
	<path class="st2" d="M69.3,307.2c15.3,0,27.5,12.3,27.5,27.6c0,15.3-12.3,27.6-27.5,27.7c-15.2,0.1-28-12.7-27.8-27.9
		C41.6,319.4,54,307.2,69.3,307.2z M69.2,317.7c-9.5,0-17.2,7.6-17.3,17c-0.1,9.5,7.9,17.5,17.4,17.3c9.5-0.1,17-7.8,17-17.3
		C86.3,325.3,78.7,317.7,69.2,317.7z"/>
	<path class="st2" d="M309,334.7c0.1-15.3,12.3-27.5,27.7-27.5c15.3,0,27.6,12.3,27.7,27.6c0,15.3-12.8,28-27.9,27.8
		C321.1,362.4,309,350,309,334.7z M319.5,334.4c-0.2,9.7,7.4,17.5,17,17.7c9.3,0.1,17.2-7.6,17.4-17c0.2-9.4-7.4-17.2-16.9-17.4
		C327.4,317.6,319.7,324.9,319.5,334.4z"/>
	<path class="st3" d="M202.8,64.5c16.3-0.2,29.8,13.2,29.9,29.6c0.1,16.2-13.5,29.8-29.7,29.8c-16.1,0-29.4-13.2-29.7-29.4
		C173,78.2,186.4,64.6,202.8,64.5z"/>
	<path class="st3" d="M185.7,335c-0.1-9.5,7.5-17.2,17-17.3c9.7-0.1,17.5,7.6,17.4,17.2c0,9.4-7.8,17.2-17.2,17.2
		C193.6,352.1,185.8,344.4,185.7,335z"/>
	<path class="st3" d="M69.2,317.7c9.5,0,17.1,7.5,17.1,17.1c0,9.5-7.5,17.2-17,17.3c-9.5,0.1-17.5-7.9-17.4-17.3
		C52,325.3,59.7,317.7,69.2,317.7z"/>
	<path class="st3" d="M319.5,334.4c0.2-9.5,7.9-16.9,17.5-16.7c9.5,0.2,17.1,8,16.9,17.4c-0.2,9.4-8.1,17.1-17.4,17
		C326.9,352,319.3,344.1,319.5,334.4z"/>
</g>
</svg>
