<?xml version="1.0" encoding="utf-8"?>
<!-- Generator: Adobe Illustrator 27.4.0, SVG Export Plug-In . SVG Version: 6.00 Build 0)  -->
<svg version="1.1" id="Layer_1" xmlns="http://www.w3.org/2000/svg" xmlns:xlink="http://www.w3.org/1999/xlink" x="0px" y="0px"
	 viewBox="0 0 410.5 400.8" style="enable-background:new 0 0 410.5 400.8;" xml:space="preserve">
<style type="text/css">
	.st0{fill:#131313;}
</style>
<g>
	<path class="st0" d="M128,12c2.5,1.2,5.2,2.1,7.5,3.6c5.8,3.9,8.5,9.7,8.6,16.6c0.1,7.3,0,14.6,0,22.2c13.9,0,27.5,0,41.4,0
		c0-6,0-11.9,0-17.7c0-14.5,3.1-19.2,16.1-24.6c2.5,0,4.9,0,7.4,0c2.6,1.3,5.5,2.2,7.8,3.8c5.6,3.9,8.2,9.6,8.3,16.4
		c0.1,7.3,0,14.6,0,22.2c13.9,0,27.5,0,41.4,0c0-6,0-11.9,0-17.7c0-14.5,3.1-19.2,16.1-24.7c2.5,0,4.9,0,7.4,0
		c13,5.4,16.1,10.1,16.1,24.6c0,5.9,0,11.7,0,17.4c0.6,0.3,0.8,0.5,1,0.5c8.3,0,16.7,0,25,0.1c12.2,0.1,20.3,8.2,20.4,20.3
		c0,8.3,0,16.7,0,25c0,4.7-1.9,7.1-5.5,7.2c-3.6,0-5.5-2.4-5.6-7.1c0-8.5,0-16.9,0-25.4c0-4.8-2.9-8.6-7.2-8.8
		c-9.3-0.3-18.6-0.1-28.2-0.1c0,2.7,0,5.1,0,7.5c-0.1,11.9-8.5,20.7-19.8,20.7c-11.3,0-19.7-8.7-19.8-20.7c0-2.5,0-5,0-7.4
		c-14.2,0-27.7,0-41.4,0c0,2.6,0,4.9,0,7.3c-0.1,12-8.4,20.7-19.7,20.8c-11.3,0-19.7-8.7-19.9-20.6c0-2.5,0-5,0-7.5
		c-14.1,0-27.7,0-41.4,0c0,2.7,0,5.2,0,7.6c-0.2,11.7-8.5,20.4-19.6,20.5c-11.3,0.1-19.8-8.7-19.9-20.6c0-2.5,0-5,0-7.8
		c-8.4,0-16.2,0-24,0c-8.8,0-11.4,2.6-11.4,11.4c0,74.4,0,148.9,0,223.3c0,1.3,0.1,2.7-0.1,4c-0.6,2.7-2.3,4.3-5.1,4.4
		c-3,0.1-4.8-1.5-5.6-4.3c-0.3-1-0.2-2.2-0.2-3.3c0-75.2,0-150.4,0-225.5c0-1.6,0-3.2,0.3-4.8c1.7-9.7,9.5-16.2,19.4-16.2
		c8.8-0.1,17.6,0,26.8,0c0-7.7-0.1-15,0-22.4c0.1-7.1,2.9-12.9,8.9-16.8c2.2-1.5,4.8-2.3,7.2-3.4C123,12,125.5,12,128,12z
		 M277.5,72.8c0,6.2,3.4,10.1,8.7,10.1c5.3,0,8.7-3.8,8.7-10.1c0-13.2,0-26.4,0-39.7c0-6.1-3.5-10.1-8.7-10.1c-5.2,0-8.7,4-8.7,10.1
		c0,6.6,0,13.2,0,19.8C277.5,59.6,277.5,66.2,277.5,72.8z M196.5,72.8c0,6.2,3.4,10.1,8.7,10.1c5.3,0,8.7-3.8,8.8-10
		c0-13.2,0-26.4,0-39.7c0-6.1-3.5-10.1-8.7-10.2c-5.2,0-8.7,4-8.8,10.1c0,6.6,0,13.2,0,19.8C196.5,59.6,196.5,66.2,196.5,72.8z
		 M115.5,73c0.1,6,3.4,9.8,8.6,9.9c5.3,0.1,8.9-3.7,8.9-9.9c0-13.3,0-26.7,0-40c0-5.9-3.5-9.8-8.6-9.9c-5.2-0.1-8.8,3.9-8.9,10
		c-0.1,6.7,0,13.5,0,20.2C115.5,59.8,115.5,66.4,115.5,73z"/>
	<path class="st0" d="M205.6,388.8c41.7,0,83.4,0,125.1,0c13.8,0,21.7-7.9,21.7-21.6c0-79.1,0-158.2,0-237.3c0-1,0.1-2-0.1-2.9
		c-0.4-3.1-2.3-5-5.4-5c-3.1-0.1-5,1.8-5.5,4.9c-0.2,1.3-0.1,2.7-0.1,4c0,78.5,0,157,0,235.5c0,8.8-2.7,11.5-11.3,11.5
		c-83.3,0-166.6,0-249.9,0c-8.4,0-11.2-2.8-11.2-11.3c0-11.9,0-23.8,0-35.7c0-4.6-2-7.2-5.5-7.2c-3.5,0-5.5,2.6-5.5,7.2
		c0,12.5,0,25,0,37.5c0,12.2,8.3,20.4,20.7,20.4C121,388.8,163.3,388.8,205.6,388.8z"/>
	<path class="st0" d="M152.3,250.7c-12.9,0-25.7,0.1-38.6-0.1c-9.7-0.2-16.8-7.8-16.8-17.3c0.1-10,7.7-17.1,18.5-17.2
		c21.8-0.1,43.6,0,65.5,0c16.1,0,32.1,0,48.2,0c9.3,0,16.2,5.1,18.1,13.1c2.7,11.3-5.3,21.4-17.3,21.4c-19.1,0.1-38.2,0-57.4,0
		C165.8,250.7,159.1,250.7,152.3,250.7z M227.1,239.7c1.3,0,2.7,0,4-0.1c3.2-0.4,5.4-2.8,5.6-5.9c0.1-3-2-5.7-5.1-6.3
		c-1.3-0.3-2.7-0.3-4-0.3c-36.9,0-73.8,0-110.6,0c-1.5,0-3,0-4.4,0.4c-3.1,0.8-4.7,3-4.6,6.2c0.2,3.2,2,5.2,5.2,5.7
		c1.3,0.2,2.7,0.2,4,0.2c18.4,0,36.8,0,55.1,0C190.6,239.7,208.9,239.7,227.1,239.7z"/>
	<path class="st0" d="M206.7,289.2c8.5,0,16.9-0.2,25.4,0.2c10.1,0.5,17.3,10.2,15.4,20.1c-1.7,8.8-8.5,14.3-18.2,14.3
		c-21,0.1-41.9,0-62.9,0c-16.9,0-33.8,0-50.7,0c-8.6,0-15-4.2-17.6-11.3c-4.2-11.5,4-23.1,16.8-23.2c19.1-0.2,38.2,0,57.4,0
		C183.6,289.2,195.1,289.2,206.7,289.2z M227.7,312.8c1.5,0,3,0,4.4-0.4c3.2-0.8,4.8-3.1,4.6-6.2c-0.2-3.1-2-5.2-5.2-5.7
		c-1.3-0.2-2.7-0.2-4-0.2c-36.8,0-73.5,0-110.3,0c-6.4,0-9.2,2-9.1,6.4c0.1,4.2,2.9,6.1,9.1,6.1c18.4,0,36.8,0,55.1,0
		C190.7,312.8,209.2,312.8,227.7,312.8z"/>
	<path class="st0" d="M172.6,177.7c-19,0-38,0.1-57-0.1c-3.1,0-6.4-0.6-9.2-1.9c-7.2-3.3-10.8-11.5-9.1-19.1
		c1.8-7.9,8.6-13.5,17.1-13.5c17.3-0.1,34.6,0,51.9,0c21.1,0,42.2,0,63.3,0c8.7,0,15.7,5,17.7,12.7c2.9,11-5,21.7-16.5,21.8
		C211.3,177.8,191.9,177.7,172.6,177.7C172.6,177.7,172.6,177.7,172.6,177.7z M228.9,166.7c3,0,5.6-0.6,7.1-3.5
		c1.9-3.6-0.2-7.9-4.4-8.8c-1.3-0.3-2.7-0.2-4-0.2c-36.9,0-73.8,0-110.7,0c-0.9,0-1.7,0-2.6,0c-4,0.3-6.6,2.9-6.4,6.5
		c0.1,3.5,2.6,5.9,6.6,5.9c11.3,0.1,22.5,0,33.8,0c8,0,15.9,0,23.9,0C191.2,166.6,210.1,166.6,228.9,166.7z"/>
	<path class="st0" d="M284,160.2c7-8.4,13.7-16.4,20.4-24.5c2.8-3.4,5.6-6.8,8.5-10.2c2.6-3.1,5.8-3.6,8.3-1.5
		c2.6,2.1,2.8,5.3,0.2,8.4c-11.1,13.4-22.2,26.8-33.4,40.1c-3.1,3.7-7.1,3.4-9.7-0.6c-3.4-5.2-6.6-10.6-9.8-15.9
		c-1.9-3.2-1.2-6.4,1.5-8c2.7-1.7,5.9-0.8,7.9,2.3C279.9,153.4,281.8,156.6,284,160.2z"/>
	<path class="st0" d="M284,233c7-8.4,13.7-16.4,20.4-24.5c2.8-3.4,5.6-6.8,8.5-10.2c2.6-3.1,5.8-3.6,8.3-1.5
		c2.6,2.1,2.8,5.3,0.2,8.4c-11.1,13.4-22.2,26.8-33.3,40.1c-3.1,3.7-7.1,3.4-9.7-0.6c-3.4-5.2-6.6-10.6-9.8-15.9
		c-1.9-3.2-1.2-6.4,1.5-8c2.7-1.7,5.9-0.8,7.9,2.3C279.9,226.2,281.8,229.5,284,233z"/>
	<path class="st0" d="M284,306.4c9.1-10.9,17.9-21.5,26.8-32.2c1-1.2,2-2.5,3.1-3.6c2.3-2.1,4.9-2.4,7.3-0.3c2.4,2,2.7,4.6,1.1,7.2
		c-0.4,0.7-1,1.4-1.6,2c-10.4,12.5-20.8,25.1-31.2,37.6c-5,6-8.2,5.8-12.3-0.9c-2.8-4.5-5.5-9-8.3-13.5c-2.2-3.7-1.7-6.9,1.2-8.7
		c2.9-1.8,5.9-0.7,8.2,3C280.1,300.1,281.9,303.1,284,306.4z"/>
</g>
</svg>
