<?xml version="1.0" encoding="utf-8"?>
<!-- Generator: Adobe Illustrator 27.4.0, SVG Export Plug-In . SVG Version: 6.00 Build 0)  -->
<svg version="1.1" id="Layer_1" xmlns="http://www.w3.org/2000/svg" xmlns:xlink="http://www.w3.org/1999/xlink" x="0px" y="0px"
	 viewBox="0 0 324.3 65.2" style="enable-background:new 0 0 324.3 65.2;" xml:space="preserve">
<style type="text/css">
	.st0{fill:#FFFFFF;}
	.st1{fill:#116DFF;}
</style>
<g>
	<path class="st0" d="M83.9,24.1c-2.4,0-4.3,1-5.7,3c-1.4,2-2,4.7-2,8.2c0,7.3,2.8,10.9,8.3,10.9c1.7,0,3.3-0.2,4.9-0.7
		s3.1-1,4.7-1.7v8.6c-3.1,1.4-6.7,2.1-10.7,2.1c-5.7,0-10.1-1.7-13.1-5s-4.6-8.1-4.6-14.3c0-3.9,0.7-7.3,2.2-10.3s3.6-5.2,6.3-6.8
		c2.8-1.6,6-2.4,9.7-2.4c4.1,0,8,0.9,11.7,2.7l-3.1,8c-1.4-0.7-2.8-1.2-4.2-1.7S85.5,24.1,83.9,24.1z"/>
	<path class="st0" d="M126.7,39.4c0,4.8-1.3,8.5-3.9,11.2s-6.2,4-10.8,4c-4.4,0-8-1.4-10.6-4.1c-2.6-2.7-3.9-6.4-3.9-11.1
		c0-4.8,1.3-8.5,3.9-11.1s6.2-4,10.8-4c2.9,0,5.4,0.6,7.6,1.8c2.2,1.2,3.9,3,5.1,5.3C126.1,33.6,126.7,36.3,126.7,39.4z M107.7,39.4
		c0,2.5,0.3,4.4,1,5.7s1.8,2,3.4,2s2.7-0.7,3.3-2s1-3.2,1-5.7s-0.3-4.4-1-5.7s-1.8-1.9-3.4-1.9c-1.5,0-2.7,0.6-3.3,1.9
		S107.7,36.8,107.7,39.4z"/>
	<path class="st0" d="M158.2,39.4c0,4.8-1.3,8.5-3.9,11.2c-2.6,2.7-6.2,4-10.8,4c-4.4,0-8-1.4-10.6-4.1c-2.6-2.7-3.9-6.4-3.9-11.1
		c0-4.8,1.3-8.5,3.9-11.1c2.6-2.6,6.2-4,10.8-4c2.9,0,5.4,0.6,7.6,1.8c2.2,1.2,3.9,3,5.1,5.3C157.6,33.6,158.2,36.3,158.2,39.4z
		 M139.3,39.4c0,2.5,0.3,4.4,1,5.7s1.8,2,3.4,2c1.6,0,2.7-0.7,3.3-2s1-3.2,1-5.7s-0.3-4.4-1-5.7s-1.8-1.9-3.4-1.9
		c-1.5,0-2.7,0.6-3.3,1.9S139.3,36.8,139.3,39.4z"/>
	<path class="st0" d="M172,54h-10.1V13.9H172V54z"/>
	<path class="st0" d="M194.4,21.1c-3.5,0-6.3,1.3-8.4,3.8c-2,2.5-3,6-3,10.4c0,4.6,1,8.1,2.9,10.5c2,2.4,4.8,3.6,8.5,3.6
		c1.6,0,3.1-0.2,4.6-0.5s3.1-0.7,4.7-1.2V53c-3,1.1-6.3,1.7-10.1,1.7c-5.5,0-9.8-1.7-12.7-5c-3-3.3-4.4-8.1-4.4-14.4
		c0-3.9,0.7-7.4,2.2-10.3s3.5-5.2,6.2-6.8c2.7-1.6,5.9-2.3,9.6-2.3c3.9,0,7.4,0.8,10.7,2.4l-2.2,5.1c-1.3-0.6-2.6-1.1-4-1.6
		C197.4,21.3,195.9,21.1,194.4,21.1z"/>
	<path class="st0" d="M234.2,54h-6.1V36.5c0-2.2-0.4-3.8-1.3-4.9c-0.9-1.1-2.3-1.6-4.2-1.6c-2.5,0-4.4,0.8-5.6,2.3
		c-1.2,1.5-1.8,4.1-1.8,7.7v14h-6.1V13.9h6.1v10.2c0,1.6-0.1,3.4-0.3,5.2h0.4c0.8-1.4,2-2.4,3.4-3.2c1.5-0.8,3.2-1.1,5.1-1.1
		c6.9,0,10.4,3.5,10.4,10.5L234.2,54L234.2,54z"/>
	<path class="st0" d="M253,54.6c-4.4,0-7.9-1.3-10.4-3.9c-2.5-2.6-3.8-6.2-3.8-10.7c0-4.7,1.2-8.3,3.5-11s5.5-4,9.6-4
		c3.8,0,6.7,1.1,8.9,3.4s3.3,5.4,3.3,9.4v3.3h-19c0.1,2.8,0.8,4.9,2.2,6.4s3.4,2.2,6,2.2c1.7,0,3.3-0.2,4.7-0.5s3-0.8,4.7-1.6v4.9
		c-1.5,0.7-3,1.2-4.5,1.5C256.6,54.4,254.9,54.6,253,54.6z M251.9,29.6c-1.9,0-3.5,0.6-4.6,1.8s-1.9,3-2.1,5.3h13
		c0-2.4-0.6-4.1-1.7-5.4C255.3,30.2,253.8,29.6,251.9,29.6z"/>
	<path class="st0" d="M280.4,54.6c-4.3,0-7.6-1.3-9.8-3.8c-2.2-2.5-3.4-6.1-3.4-10.9s1.2-8.5,3.5-11.1s5.7-3.9,10.2-3.9
		c3,0,5.7,0.6,8.1,1.7l-1.8,4.9c-2.6-1-4.7-1.5-6.3-1.5c-4.9,0-7.4,3.3-7.4,9.8c0,3.2,0.6,5.6,1.8,7.2c1.2,1.6,3,2.4,5.4,2.4
		c2.7,0,5.3-0.7,7.7-2v5.3c-1.1,0.6-2.2,1.1-3.5,1.4C283.6,54.4,282.1,54.6,280.4,54.6z"/>
	<path class="st0" d="M298.8,39l3.4-4.3l8.6-9.2h7l-11.5,12.3L318.5,54h-7.1l-9.2-12.5l-3.3,2.7V54h-6V13.9h6v19.6l-0.3,5.5H298.8z"
		/>
</g>
<g>
	<circle class="st1" cx="33.2" cy="32.1" r="5.3"/>
	<g>
		<path class="st1" d="M29.8,26.6v-0.1c-0.5-2.2-0.4-4.4,0.3-6.6c0.6-2,1.3-4.1,1.7-6.2c0.5-2.3-0.5-4-2.8-4.7
			c-1.6-0.4-3.1-0.4-4.6,0.3c-3.7,1.8-6,4.6-7.1,8.6c-0.7,2.5-0.1,4.8,1.7,6.7c2.3,2.5,5.3,3.7,8.3,4.7
			C27.9,28.2,28.8,27.2,29.8,26.6z"/>
		<path class="st1" d="M51.9,17c-2.8-3-6.3-4.3-10.3-4.1C39,13,37,14.3,35.7,16.6c-1.6,2.8-1.9,6-1.9,9c1.4,0.1,2.7,0.7,3.7,1.7
			c1.9-1.1,4-1.6,6.2-1.7c2.1,0,4.3-0.1,6.4-0.2c2.4-0.2,3.7-1.7,3.6-4.1C53.6,19.7,53.1,18.2,51.9,17z"/>
		<path class="st1" d="M53.8,34.4c-1-2.4-2.8-3.9-5.3-4.4c-3.2-0.6-6.2,0.1-9,0.9c0.1,0.3,0.1,0.7,0.1,1.1c0,1.1-0.3,2.1-0.7,2.9
			c1.7,1.5,2.8,3.3,3.6,5.4c0.7,2,1.4,4,2.2,6c0.9,2.2,2.8,2.9,5,2.1c1.5-0.6,2.7-1.5,3.5-2.9C55,41.9,55.2,38.2,53.8,34.4z"/>
		<path class="st1" d="M39.7,46.2c-0.4-3.3-2.1-6-3.8-8.5c-0.8,0.4-1.7,0.6-2.7,0.6c-0.3,0-0.7,0-1-0.1c0,0.1-0.1,0.1-0.1,0.2
			c-0.9,2.1-2.3,3.8-4.1,5.2c-1.7,1.3-3.4,2.6-5,4c-1.8,1.5-1.9,3.5-0.5,5.4c1,1.3,2.3,2.2,3.9,2.4c4,0.7,7.6-0.2,10.8-2.8
			C39.1,51,40,48.8,39.7,46.2z"/>
		<path class="st1" d="M26.9,33.4c-0.1,0-0.2-0.1-0.3-0.1c-2.3-0.2-4.3-1-6.2-2.3c-1.7-1.2-3.5-2.5-5.3-3.6c-2-1.2-4-0.7-5.3,1.2
			c-0.9,1.3-1.3,2.8-1.1,4.4c0.5,4,2.6,7.2,6,9.4c2.2,1.4,4.5,1.6,6.9,0.5c3.1-1.4,5.2-4,7.1-6.5C27.8,35.6,27.2,34.5,26.9,33.4z"/>
	</g>
</g>
</svg>
