<?xml version="1.0" encoding="utf-8"?>
<!-- Generator: Adobe Illustrator 27.4.0, SVG Export Plug-In . SVG Version: 6.00 Build 0)  -->
<svg version="1.1" id="Layer_1" xmlns="http://www.w3.org/2000/svg" xmlns:xlink="http://www.w3.org/1999/xlink" x="0px" y="0px"
	 viewBox="0 0 410.5 400.8" style="enable-background:new 0 0 410.5 400.8;" xml:space="preserve">
<style type="text/css">
	.st0{fill:#F5F5F5;}
	.st1{fill:#131313;}
</style>
<rect class="st0" width="410.5" height="400.8"/>
<g>
	<path class="st1" d="M269,302.3c-32,0-64.1,0-96.1,0c-2.4,0-4,0.6-5.6,2.6c-11.2,14-32.4,14-43.6,0.1c-1.7-2.1-3.4-2.7-6-2.7
		c-24.3,0.1-48.6,0.1-72.9,0c-6.8,0-12.5-4.1-14.5-10.3c-2-6.1,0-12.8,5.1-16.8c3.4-2.7,7.4-3.2,11.6-3.2c23.3,0,46.6,0,70,0.1
		c3.1,0,5.1-0.7,7.2-3.2c11.1-13.3,32-13.2,42.9,0.3c1.9,2.4,3.8,3,6.6,3c63.1-0.1,126.2-0.1,189.3,0c2.6,0,5.3,0.1,7.8,0.8
		c7.1,2.1,11.6,9.4,10.4,16.6c-1.2,7.5-7.4,12.9-15.1,12.9C333.5,302.3,301.3,302.3,269,302.3z M173.5,291.8c1.5,0,2.9,0,4.4,0
		c61.6,0,123.2,0,184.9,0c5.6,0,7.8-1.3,7.8-4.6c0-3.3-2.3-4.7-7.8-4.7c-61.7,0-123.5,0-185.2,0c-1.3,0-2.7,0.1-4.1,0.2
		C173.5,285.8,173.5,288.6,173.5,291.8z M145.6,304.9c9.6-0.1,17.6-8.2,17.6-17.8c0-9.9-8.4-18.1-18.3-17.8
		c-9.6,0.2-17.5,8.4-17.4,17.9C127.6,297.1,135.8,305.1,145.6,304.9z M117.2,282.7c-1.1-0.1-1.8-0.2-2.5-0.2c-22.8,0-45.6,0-68.5,0
		c-1,0-2,0-3,0.3c-3.2,0.9-4.7,4.8-2.4,7.1c1.2,1.2,3.5,1.9,5.3,1.9c22.7,0.1,45.4,0.1,68.1,0.1c1,0,2-0.1,3-0.2
		C117.2,288.6,117.2,285.8,117.2,282.7z"/>
	<path class="st1" d="M141.7,211c31.8,0,63.6,0,95.4,0c2.6,0,4.5-0.6,6.3-2.8c11.7-14,32.1-13.8,43.6,0.4c1.6,1.9,3.1,2.4,5.4,2.4
		c24.2-0.1,48.4-0.1,72.6,0c10.7,0,17.9,9.1,15.4,19c-1.8,7-7.8,11.4-16.1,11.4c-23.7,0-47.4,0-71.1,0c-2.8,0-4.7,0.6-6.6,2.9
		c-11.2,13.5-31.6,13.5-42.9,0.2c-2-2.4-4-3.1-6.9-3.1c-63.4,0.1-126.7,0.1-190.1,0.1c-8.8,0-14.9-4.2-16.7-11.5
		c-2.4-9.8,4.7-18.8,15.1-18.9c14.1-0.1,28.2,0,42.3,0C105.6,211,123.6,211,141.7,211z M236.9,221.5c-1.5,0-2.8,0-4.2,0
		c-61.7,0-123.4,0-185.2,0c-0.7,0-1.5,0-2.2,0c-3,0-5,1.4-5.4,4.5c-0.3,2.7,2,4.7,5.4,4.9c0.7,0,1.5,0,2.2,0c61.7,0,123.4,0,185.2,0
		c1.3,0,2.7,0,4.2,0C236.9,227.7,236.9,224.9,236.9,221.5z M265.1,243.9c9.8,0,17.9-8.1,17.8-17.8c-0.1-9.8-8.1-17.6-18-17.6
		c-9.7,0-17.6,8-17.6,17.6C247.3,235.9,255.3,243.9,265.1,243.9z M293.3,230.7c0.8,0.1,1.4,0.2,2,0.2c23.1,0,46.1,0,69.2,0
		c1,0,2.3,0.1,2.9-0.5c1.3-1.2,3-2.7,3-4.2c0-1.4-1.5-3.2-2.8-4.3c-0.8-0.7-2.4-0.5-3.6-0.5c-22.6,0-45.1,0-67.7,0c-1,0-2,0.1-3,0.2
		C293.3,224.6,293.3,227.5,293.3,230.7z"/>
	<path class="st1" d="M111.3,363.2c-22,0-43.9,0.1-65.9,0c-10.8,0-17.9-8.9-15.4-19c1.7-6.6,7.5-11.2,14.6-11.3
		c7.2-0.1,14.5,0,21.7,0c37,0,74.1,0,111.1,0.1c2.6,0,4.3-0.6,6-2.7c11.6-14,32.1-14,43.6,0.1c1.6,2,3.3,2.6,5.7,2.6
		c43.9-0.1,87.8,0,131.7,0c8.8,0,14.8,4.8,16.2,12.9c1.4,7.8-4.2,15.8-12.1,17.1c-2,0.3-4,0.3-6,0.3c-43.2,0-86.3,0-129.5,0
		c-2.7,0-4.5,0.7-6.3,2.9c-11.2,13.7-32.2,13.7-43.4-0.1c-1.7-2.1-3.3-2.8-5.9-2.8C155.4,363.2,133.4,363.2,111.3,363.2z
		 M177.1,343.5c-0.9-0.1-1.8-0.1-2.6-0.1c-42.7,0-85.5,0-128.2,0c-0.6,0-1.3,0-1.9,0c-2.7,0.4-4.4,2-4.3,4.7c0,2.5,1.5,4.2,4.2,4.5
		c1,0.1,2,0.1,3,0.1c42,0,84,0,126,0c1.3,0,2.6-0.1,3.9-0.2C177.1,349.4,177.1,346.7,177.1,343.5z M233.4,352.5
		c1.3,0.1,2.5,0.2,3.7,0.2c42.1,0,84.2,0,126.4,0c1,0,2,0,3-0.1c2.6-0.4,4-2.1,4-4.6c0-2.5-1.6-4.1-4.1-4.5c-1-0.2-2-0.1-3-0.1
		c-42.1,0-84.2,0-126.4,0c-1.2,0-2.4,0-3.6,0C233.4,346.6,233.4,349.4,233.4,352.5z M205.3,365.9c9.6,0,17.7-7.9,17.8-17.5
		c0.1-9.9-8.1-18.1-18-18c-9.6,0.1-17.6,8.1-17.6,17.7C187.4,357.7,195.4,365.8,205.3,365.9z"/>
	<path class="st1" d="M174.6,48.5c4.2-1.9,9-2.6,10.8-5.3c1.8-2.6,0.6-7.2,0.6-10.9c0.1-6.2,1.5-7.7,7.8-7.7c8,0,16,0,23.9,0
		c4.8,0,6.5,1.8,6.6,6.5c0,0.9,0.2,1.8,0,2.6c-1.7,7.7,1.6,12.1,9.1,13.6c1.2,0.2,2.9,0,3.7-0.7c2.7-2.3,5.1-5.1,7.8-7.6
		c2.8-2.6,5.5-2.7,8.2-0.1c6.3,6.2,12.6,12.5,18.8,18.8c2.9,2.9,2.7,5.4-0.1,8.5c-0.7,0.7-1.4,1.4-2.1,2.1
		c-7.1,7.1-7.1,7.1-3.1,16.3c0.4,0.9,1.9,1.9,2.9,2c3.5,0.2,7,0.1,10.5,0.1c4.4,0.1,6.3,1.7,6.3,6c0.1,8.7,0.1,17.5,0,26.2
		c0,4.3-1.9,6-6.3,6c-0.9,0-1.7,0-2.6,0c-10,0-10.1,0-13.8,9.2c-0.4,0.9-0.1,2.7,0.6,3.4c2.4,2.7,5.1,5.1,7.6,7.7
		c2.9,3,3,5.5,0.1,8.4c-6.2,6.3-12.5,12.6-18.8,18.8c-2.7,2.7-5.4,2.6-8.2-0.1c-2.4-2.3-4.8-4.7-7.2-7.1c-0.5-0.5-1-1.2-1.6-1.5
		c-2-1.2-11.7,4.1-11.8,6.4c-0.1,3.4,0,6.7,0,10.1c-0.1,4.8-1.9,6.6-6.6,6.7c-8.4,0.1-16.7,0-25.1,0c-4.7,0-6.5-1.8-6.7-6.5
		c0-0.4,0-0.7,0-1.1c-0.1-3.8,1.1-8.6-0.8-11.3c-1.8-2.7-6.7-3.2-10.8-4.9c-2.7,2.9-5.5,5.9-8.4,8.8c-3.4,3.4-5.9,3.5-9.3,0.2
		c-6-6-12-11.9-18-18c-3.2-3.3-3.2-5.6,0-9c0.6-0.6,1.2-1.2,1.9-1.9c7.1-7.1,7.1-7.1,3.1-16.3c-0.4-0.9-1.8-1.9-2.9-2
		c-3.6-0.2-7.2,0-10.8-0.1c-4.1-0.1-6-1.9-6-6c-0.1-8.7-0.1-17.5,0-26.2c0-4.3,1.9-6,6.3-6c3.4,0,6.7-0.1,10.1,0
		c2.1,0.1,2.7-1,3.8-2.6c4.4-6.6,2.6-11.5-3.4-15.7c-1-0.7-1.8-1.7-2.7-2.6c-2.3-2.6-2.3-5.2,0.1-7.7c6.4-6.5,12.8-12.9,19.3-19.3
		c2.5-2.4,5.4-2.3,8,0.3C168.6,42,171.5,45.3,174.6,48.5z M261.3,149c-2.6-2.4-5.1-4.8-7.7-7.1c-3-2.6-3.3-5.3-1.4-8.9
		c2.2-4.3,4-8.8,5.5-13.4c1.2-3.6,3.3-5.3,7.1-5.2c3.6,0.2,7.2,0,10.8,0c0-6,0-11.5,0-17.3c-4,0-7.7,0-11.4,0
		c-3.3,0-5.2-1.6-6.3-4.7c-1.8-4.9-3.8-9.7-6-14.4c-1.4-3-1.3-5.5,1.1-7.8c2.8-2.6,5.7-5.2,8.3-7.6c-4.6-4.6-8.5-8.5-12.8-12.8
		c-2.4,2.5-5,5.2-7.6,7.9c-2.5,2.7-5.2,2.7-8.4,1.1c-4.3-2.1-8.8-4.2-13.4-5.6c-3.7-1.2-5.4-3.1-5.3-6.9c0.1-3.7,0-7.4,0-11.2
		c-6,0-11.5,0-17.4,0c0,4,0,7.8,0,11.6c0,3.3-1.5,5.2-4.6,6.3c-4.9,1.7-9.7,3.8-14.4,6c-3,1.4-5.5,1.3-7.8-1.2
		c-2.6-2.8-5.2-5.7-7.5-8.3c-4.5,4.6-8.4,8.5-12.9,12.9c2.3,2.2,5,4.4,7.5,6.9c3.5,3.5,3.5,4.9,1.5,9.2c-2,4.2-3.9,8.6-5.3,13.1
		c-1.2,3.8-3.4,5.5-7.4,5.4c-3.6-0.2-7.1,0-10.7,0c0,6,0,11.4,0,17.3c3.9,0,7.6,0.1,11.3,0c3.5-0.1,5.4,1.6,6.6,4.9
		c1.7,4.7,3.4,9.3,5.7,13.8c1.7,3.4,1.6,6.1-1.2,8.7c-2.8,2.5-5.5,4.9-7.7,6.9c4.6,4.7,8.5,8.7,12.4,12.7c0,0,0.2-0.1,0.4-0.3
		c2.1-2.1,4.2-4.2,6.4-6.3c4.1-4.1,5-4.1,10.1-1.6c3.9,1.9,7.9,3.5,12.1,4.9c4.9,1.7,5.8,2.6,5.8,7.7c0,3.5,0,7.1,0,10.5
		c6.1,0,11.6,0,17.4,0c0-4,0.1-7.7,0-11.4c-0.1-3.5,1.4-5.4,4.8-6.5c4.8-1.6,9.5-3.6,14.1-5.9c3.2-1.6,5.7-1.4,8.1,1.2
		c2.6,2.8,5.3,5.5,7.7,8.1C252.9,157.3,256.8,153.5,261.3,149z"/>
	<path class="st1" d="M167.8,105.6c0-20.5,16.7-37.3,37.3-37.4c20.7-0.1,37.6,16.7,37.6,37.5c0,20.7-16.5,37.4-37.1,37.6
		C184.7,143.5,167.8,126.6,167.8,105.6z M232.2,105.8c0-15-12.1-27.3-27-27.2c-15,0.1-27,12.2-27,27.2c0,14.8,11.9,26.8,26.8,27
		C220,132.9,232.2,120.8,232.2,105.8z"/>
</g>
</svg>
