<?xml version="1.0" encoding="utf-8"?>
<!-- Generator: Adobe Illustrator 27.5.0, SVG Export Plug-In . SVG Version: 6.00 Build 0)  -->
<svg version="1.1" id="Layer_2" xmlns="http://www.w3.org/2000/svg" xmlns:xlink="http://www.w3.org/1999/xlink" x="0px" y="0px"
	 viewBox="0 0 1488.7 712.3" style="enable-background:new 0 0 1488.7 712.3;" xml:space="preserve">
<style type="text/css">
	.st0{fill:#FFFFFF;}
	.st1{fill:none;stroke:#45B3FF;stroke-width:5.6693;stroke-miterlimit:10;}
	.st2{fill:none;stroke:#A20900;stroke-width:5.6693;stroke-miterlimit:10;}
	.st3{fill:none;stroke:url(#SVGID_1_);stroke-width:5.6693;stroke-miterlimit:10;}
	.st4{fill:none;stroke:#31711E;stroke-width:5.6693;stroke-miterlimit:10;}
	.st5{fill:none;stroke:#000000;stroke-width:0.9416;stroke-miterlimit:10;}
	.st6{fill:#383636;}
	.st7{fill:none;stroke:#990B00;stroke-width:5.5387;stroke-miterlimit:10;}
	.st8{fill:#E8DD9F;stroke:#000000;stroke-miterlimit:10;}
	.st9{fill:#1D1D1D;}
	.st10{fill:none;stroke:#000000;stroke-width:1.4173;stroke-miterlimit:10;}
	.st11{fill:#C2B9B3;stroke:#000000;stroke-width:1.006;stroke-miterlimit:10;}
	.st12{fill:#FFFFFF;stroke:#000000;stroke-width:2.8346;stroke-miterlimit:10;}
	.st13{stroke:#000000;stroke-width:2.8346;stroke-miterlimit:10;}
	.st14{fill:none;stroke:#000000;stroke-width:2.8346;stroke-miterlimit:10;}
	.st15{fill:#5BB2FF;}
	.st16{fill:none;stroke:#000000;stroke-miterlimit:10;}
	.st17{fill:#990B00;}
	.st18{fill:#B2B2B2;stroke:#000000;stroke-width:0.8545;stroke-miterlimit:10;}
	.st19{fill:none;stroke:#000000;stroke-width:0.9324;stroke-miterlimit:10;}
	.st20{fill:#FFFFFF;stroke:#000000;stroke-miterlimit:10;}
	.st21{fill:#5BB2FF;stroke:#000000;stroke-miterlimit:10;}
	.st22{fill:#990B00;stroke:#000000;stroke-miterlimit:10;}
	.st23{fill:#E2D887;stroke:#000000;stroke-miterlimit:10;}
	.st24{fill:#FFFFFF;stroke:#000000;stroke-width:0.5713;stroke-miterlimit:10;}
	.st25{fill:none;stroke:#000000;stroke-width:1.027;stroke-miterlimit:10;}
	
		.st26{fill:none;stroke:url(#SVGID_00000178186632104041898580000013008570893599519146_);stroke-width:5.6693;stroke-miterlimit:10;}
	.st27{font-family:'MyriadHebrew-Regular';}
	.st28{font-size:15px;}
	.st29{fill:#45B3FF;}
	.st30{fill:#A20900;}
	.st31{fill:#66CC33;}
	.st32{fill:none;stroke:#66CC33;stroke-miterlimit:10;}
	.st33{fill:#81C65C;}
	.st34{fill:none;stroke:#33CCFF;stroke-width:0.9416;stroke-miterlimit:10;}
	.st35{fill:#70BCFF;}
	.st36{fill:#00983A;}
	.st37{fill:#FFED00;}
	.st38{fill:none;stroke:#45B3FF;stroke-miterlimit:10;}
	.st39{fill:none;stroke:#A20900;stroke-miterlimit:10;}
	.st40{fill:#4D4D4D;}
	
		.st41{fill:none;stroke:url(#SVGID_00000067927364880169037750000008216087223630675613_);stroke-width:5.6693;stroke-miterlimit:10;}
	.st42{fill:none;stroke:#000000;stroke-width:0.25;stroke-miterlimit:10;}
</style>
<rect class="st0" width="1488.7" height="712.3"/>
<rect x="733.2" y="325.2" class="st6" width="53.4" height="19.3"/>
<rect x="734.8" y="338.3" transform="matrix(-1.836970e-16 1 -1 -1.836970e-16 1115.3466 -407.3913)" class="st6" width="53.2" height="31.3"/>
<g>
	<g>
		<g>
			<g>
				<g>
					<polygon class="st9" points="826.7,83.2 828.2,89 833.5,92 819.7,95.6 					"/>
				</g>
			</g>
		</g>
	</g>
	<line class="st10" x1="828.1" y1="89.2" x2="838.7" y2="80.4"/>
</g>
<g>
	<g>
		<path class="st2" d="M1122.2,367.5h74.1c6.6,0,12-5.4,12-12v-9c0-6.6-5.4-12-12-12h-74.1H855.5v-83.2h-62.7v-69.4"/>
		<path class="st2" d="M1196.3,400.5h-74.1c-6.6,0-12-5.4-12-12v-9c0-6.6,5.4-12,12-12h74.1"/>
	</g>
	<g>
		<path class="st2" d="M1122.2,400.5h74.1c6.6,0,12,5.4,12,12v9c0,6.6-5.4,12-12,12h-74.1"/>
		<linearGradient id="SVGID_1_" gradientUnits="userSpaceOnUse" x1="1107.375" y1="450.063" x2="1196.3497" y2="450.063">
			<stop  offset="0" style="stop-color:#31711E"/>
			<stop  offset="8.553553e-02" style="stop-color:#45631A"/>
			<stop  offset="0.2457" style="stop-color:#644D15"/>
			<stop  offset="0.413" style="stop-color:#7D3D11"/>
			<stop  offset="0.5881" style="stop-color:#8E300D"/>
			<stop  offset="0.7761" style="stop-color:#99290C"/>
			<stop  offset="1" style="stop-color:#9C270B"/>
		</linearGradient>
		<path class="st3" d="M1196.3,466.6h-74.1c-6.6,0-12-5.4-12-12v-9c0-6.6,5.4-12,12-12h74.1"/>
	</g>
	<g>
		<path class="st4" d="M1122.2,466.6h74.1c6.6,0,12,5.4,12,12v9c0,6.6-5.4,12-12,12h-74.1"/>
		<path class="st4" d="M1196.3,532.6h-74.1c-6.6,0-12-5.4-12-12v-9c0-6.6,5.4-12,12-12h74.1"/>
	</g>
	<g>
		<path class="st4" d="M1122.2,532.6h74.1c6.6,0,12,5.4,12,12v9c0,6.6-5.4,12-12,12h-74.1H617.3"/>
	</g>
</g>
<g>
	<g>
		<path class="st1" d="M368.3,334.5h-74.1c-6.6,0-12,5.4-12,12v9c0,6.6,5.4,12,12,12h74.1"/>
		<path class="st1" d="M294.2,400.5h74.1c6.6,0,12-5.4,12-12v-9c0-6.6-5.4-12-12-12h-74.1"/>
	</g>
	<g>
		<path class="st1" d="M368.3,400.5h-74.1c-6.6,0-12,5.4-12,12v9c0,6.6,5.4,12,12,12h74.1"/>
		<path class="st1" d="M294.2,466.6h74.1c6.6,0,12-5.4,12-12v-9c0-6.6-5.4-12-12-12h-74.1"/>
	</g>
	<g>
		<path class="st1" d="M368.3,466.6h-74.1c-6.6,0-12,5.4-12,12v9c0,6.6,5.4,12,12,12h74.1"/>
		<path class="st1" d="M294.2,532.6h74.1c6.6,0,12-5.4,12-12v-9c0-6.6-5.4-12-12-12h-74.1"/>
	</g>
	<g>
		<path class="st1" d="M368.3,532.6h-74.1c-6.6,0-12,5.4-12,12v9c0,6.6,5.4,12,12,12h74.1h249"/>
	</g>
</g>
<polyline class="st1" points="368.3,334.5 646.3,334.3 646.3,251 697.6,251.2 697.6,181.8 "/>
<polyline class="st1" points="635,334.5 752.3,334.5 752.3,381.6 "/>
<polyline class="st7" points="881.9,334.7 769.9,334.7 769.9,381.9 "/>
<path class="st14" d="M809.4,181.5H684.3c-6.6,0-12-5.4-12-12v-15.7c0-6.6,5.4-12,12-12h125.1c6.6,0,12,5.4,12,12v15.7
	C821.4,176.1,816,181.5,809.4,181.5z"/>
<circle class="st18" cx="745.3" cy="161.7" r="14.4"/>
<circle class="st8" cx="848.3" cy="69.5" r="14.4"/>
<circle class="st8" cx="642.9" cy="69.9" r="14.4"/>
<g>
	<circle class="st17" cx="793.9" cy="161.7" r="16.8"/>
	<text transform="matrix(1 0 0 1 785.0489 165.5137)" class="st0 st27 st28">HP</text>
</g>
<text transform="matrix(1 0 0 1 840.7812 75.3367)" class="st27 st28">T7</text>
<text transform="matrix(1 0 0 1 635.3287 75.3367)" class="st27 st28">T8</text>
<g>
	<circle class="st15" cx="697.7" cy="161.7" r="16.8"/>
	<text transform="matrix(1 0 0 1 690.1689 165.5136)" class="st0 st27 st28">LP</text>
</g>
<g>
	<g>
		<g>
			<g>
				<g>
					<polygon class="st9" points="660.1,90 665.1,86.8 666.3,80.9 674,92.9 					"/>
				</g>
			</g>
		</g>
	</g>
	<line class="st10" x1="665.2" y1="87" x2="654.1" y2="78.9"/>
</g>
<circle class="st8" cx="466.6" cy="274.6" r="14.4"/>
<text transform="matrix(1 0 0 1 458.8929 279.988)" class="st27 st28">T6</text>
<g>
	<g>
		<g>
			<g>
				<g>
					<polygon class="st9" points="460.6,300.4 466.2,302.5 471.6,300 466.5,313.3 					"/>
				</g>
			</g>
		</g>
	</g>
	<line class="st10" x1="466.1" y1="302.7" x2="466" y2="289"/>
</g>
<g>
	<circle class="st16" cx="703.4" cy="117" r="19"/>
	<line class="st16" x1="703.4" y1="98.1" x2="703.4" y2="136"/>
	<line class="st16" x1="684.5" y1="117" x2="722.4" y2="117"/>
	<g>
		<g>
			<g>
				<g>
					<g>
						<polygon class="st9" points="699.8,109.4 696.5,111.5 695.7,115.4 690.6,107.5 						"/>
					</g>
				</g>
			</g>
		</g>
		<line class="st19" x1="696.4" y1="111.4" x2="703.7" y2="116.7"/>
	</g>
</g>
<g>
	<circle class="st16" cx="793.9" cy="117" r="19"/>
	<line class="st16" x1="793.9" y1="98.1" x2="793.9" y2="136"/>
	<line class="st16" x1="775" y1="117" x2="812.9" y2="117"/>
	<g>
		<g>
			<g>
				<g>
					<g>
						<polygon class="st9" points="802,114.9 801,111.1 797.6,109.1 806.7,106.8 						"/>
					</g>
				</g>
			</g>
		</g>
		<line class="st19" x1="801.1" y1="111" x2="794" y2="116.6"/>
	</g>
</g>
<path class="st11" d="M780.3,391.3v-10.7h-38.2v11c-5.5,5.1-8.9,12.4-8.9,20.5c0,15.5,12.6,28.1,28.1,28.1
	c15.5,0,28.1-12.6,28.1-28.1C789.5,403.8,786,396.4,780.3,391.3z"/>
<circle cx="761.4" cy="410.4" r="13.9"/>
<polygon class="st20" points="694.7,565.6 671.9,552.5 671.9,578.8 "/>
<polygon class="st20" points="700.5,565.6 723.3,552.5 723.3,578.8 "/>
<g>
	<polygon class="st20" points="825.8,334.7 803,321.6 803,347.9 	"/>
	<polygon class="st20" points="831.6,334.7 854.4,321.6 854.4,347.9 	"/>
	<circle cx="828.7" cy="334.7" r="7.3"/>
</g>
<circle cx="697.6" cy="565.6" r="7.3"/>
<g>
	<polygon class="st20" points="691.6,334.5 668.8,321.3 668.8,347.6 	"/>
	<polygon class="st20" points="697.4,334.5 720.2,321.3 720.2,347.6 	"/>
	<circle cx="694.8" cy="334.7" r="7.3"/>
</g>
<rect x="688.8" y="188" class="st21" width="17.9" height="17.9"/>
<rect x="784" y="188" class="st22" width="17.9" height="17.9"/>
<rect x="736.4" y="188" class="st23" width="17.9" height="17.9"/>
<g>
	<circle class="st8" cx="1451.8" cy="508.4" r="14.4"/>
	<text transform="matrix(1 0 0 1 1444.2629 514.4235)" class="st27 st28">T3</text>
	<g>
		<g>
			<g>
				<g>
					<g>
						<polygon class="st9" points="1426.1,502.7 1423.9,508.3 1426.4,513.8 1413.1,508.7 						"/>
					</g>
				</g>
			</g>
		</g>
		<line class="st10" x1="1423.7" y1="508.2" x2="1437.5" y2="508.2"/>
	</g>
</g>
<g>
	<circle class="st8" cx="42" cy="512.4" r="14.4"/>
	<text transform="matrix(1 0 0 1 34.444 517.2111)" class="st27 st28">T2</text>
	<g>
		<g>
			<g>
				<g>
					<g>
						<polygon class="st9" points="67.4,517.7 70,512.3 67.8,506.6 80.7,512.6 						"/>
					</g>
				</g>
			</g>
		</g>
		<line class="st10" x1="70.1" y1="512.2" x2="56.4" y2="512.1"/>
	</g>
</g>
<g>
	<circle class="st8" cx="42" cy="385.2" r="14.4"/>
	<text transform="matrix(1 0 0 1 34.444 390.0548)" class="st27 st28">T1</text>
	<g>
		<g>
			<g>
				<g>
					<g>
						<polygon class="st9" points="67.4,390.6 70,385.1 67.8,379.5 80.7,385.5 						"/>
					</g>
				</g>
			</g>
		</g>
		<line class="st10" x1="70.1" y1="385" x2="56.4" y2="385"/>
	</g>
</g>
<g>
	<circle class="st8" cx="1019.2" cy="606.6" r="14.4"/>
	<text transform="matrix(1 0 0 1 1011.5451 612.4077)" class="st27 st28">T5</text>
	<g>
		<g>
			<g>
				<g>
					<g>
						<polygon class="st9" points="1024.3,581.2 1018.8,578.7 1013.2,580.8 1019.2,567.9 						"/>
					</g>
				</g>
			</g>
		</g>
		<line class="st10" x1="1018.7" y1="578.5" x2="1018.7" y2="592.2"/>
	</g>
</g>
<g>
	<circle class="st8" cx="655.4" cy="520.8" r="14.4"/>
	<text transform="matrix(1 0 0 1 647.8327 526.6436)" class="st27 st28">T9</text>
	<g>
		<g>
			<g>
				<g>
					<g>
						<polygon class="st9" points="649.4,546.6 655,548.7 660.5,546.2 655.4,559.5 						"/>
					</g>
				</g>
			</g>
		</g>
		<line class="st10" x1="654.9" y1="548.9" x2="654.9" y2="535.2"/>
	</g>
</g>
<polygon points="700,499.2 695.5,516.7 702.9,512.9 701.6,522.8 704.3,522.8 707.3,507.3 699.8,511.7 703.4,499.2 "/>
<g>
	<g>
		<g>
			<g>
				<polygon class="st9" points="697.2,519.8 702.8,521.9 708.3,519.4 703.2,532.7 				"/>
			</g>
		</g>
	</g>
</g>
<circle class="st20" cx="817.7" cy="565.6" r="14.4"/>
<ellipse class="st20" cx="468.8" cy="343.4" rx="14.4" ry="5.4"/>
<ellipse class="st29" cx="468.8" cy="326.4" rx="14.4" ry="5.4"/>
<circle cx="817.7" cy="565.6" r="7.3"/>
<rect x="862.6" y="547.9" class="st20" width="66" height="35.5"/>
<rect x="862.6" y="547.9" class="st24" width="21.6" height="35.5"/>
<path class="st25" d="M468.8,348.8c-5.2,17.7,2.8,28.8,6.8,31.7c14.5,10.7,31.6-6.6,97.6-7.3c26.3-0.3,31,2.5,33,3.9
	c34.4,23.6,0.5,149.7-11.7,188.5"/>
<g>
	<path class="st30" d="M1107.9,266.2v-13.7v-3.1h5.8v3.4v13.4H1107.9z M1109.1,266.2v-3.9h13.2v3.9H1109.1z M1118.6,266.2v-11.6
		c0-0.4-0.1-0.8-0.4-1c-0.2-0.2-0.6-0.3-1.1-0.3h-5.6v-3.9h7.2c1.1,0,2,0.2,2.9,0.6c0.8,0.4,1.5,1,2,1.8c0.5,0.8,0.7,1.9,0.7,3.2
		v8.1v3.2H1118.6z"/>
	<path class="st30" d="M1127.3,260.1v-2.7v-4.6l-0.4-3.4h5.8l0.4,3.4v4.6l0,1.8L1127.3,260.1z"/>
	<path class="st30" d="M1135.8,266.2l2.1-11.1l-2.6-5.7h6l2,6l-1.8,10.8H1135.8z M1143.4,266.2l0.5-3.9c1.5,0.3,2.6,0.3,3.3,0
		c0.7-0.3,1.2-0.8,1.5-1.6c0.3-0.8,0.4-1.7,0.4-2.8c0-1.1-0.1-2-0.3-2.7c-0.2-0.7-0.5-1.2-1-1.6c-0.4-0.3-1-0.5-1.7-0.5
		c-0.4,0-0.8,0.1-1.2,0.2c-0.4,0.2-0.7,0.4-1,0.7c-0.3,0.3-0.4,0.7-0.5,1.3l-1.2-2.1c0.4-1.5,1.1-2.6,2.1-3.2c0.9-0.7,2-1,3.2-1
		c1.2,0,2.3,0.2,3.2,0.6c0.9,0.4,1.7,1,2.2,1.7c0.6,0.8,1,1.7,1.3,2.8s0.4,2.4,0.4,3.8c0,2.1-0.4,3.8-1.3,5.2
		c-0.9,1.4-2.2,2.4-3.8,3C1147.8,266.7,1145.8,266.7,1143.4,266.2z"/>
	<path class="st30" d="M1163.4,266.2v-8l0.8-1.9h5v1.9v8H1163.4z M1173.9,266.2v-11.6c0-0.4-0.1-0.8-0.4-1c-0.2-0.2-0.6-0.3-1.1-0.3
		h-8.8v-3.9h10.5c1.1,0,2,0.2,2.9,0.6s1.5,1,2,1.8c0.5,0.8,0.7,1.9,0.7,3.2v11.3H1173.9z"/>
	<path class="st30" d="M1189.8,266.2v-11.6c0-0.4-0.1-0.8-0.4-1c-0.2-0.2-0.6-0.3-1.1-0.3h-6.6v-3.9h8.2c1.1,0,2,0.2,2.9,0.6
		s1.5,1,2,1.8c0.5,0.8,0.7,1.9,0.7,3.2v11.3H1189.8z M1181.8,266.2v-3.9h15.9v3.9H1181.8z"/>
	<path class="st30" d="M1199.1,267.4l-0.8-4.1l8.4-1.4c0.9-0.2,1.7-0.4,2.2-0.9s0.9-1,1.2-1.6c0.3-0.7,0.4-1.5,0.5-2.5
		s0.1-2.1,0.1-3.3c0-1.3,0-2.7,0-4.2h5.7c0,1.8,0,3.4-0.1,4.9c-0.1,1.5-0.2,2.9-0.5,4.2c-0.3,1.3-0.8,2.4-1.4,3.4
		c-0.7,1-1.6,1.9-2.8,2.6c-1.2,0.7-2.8,1.2-4.8,1.6L1199.1,267.4z M1203.2,263.1l-3.5-13.7h5.8l3.3,13.7H1203.2z"/>
	<path class="st30" d="M1218.9,266.2l2.1-11.1l-2.6-5.7h6l2,6l-1.8,10.8H1218.9z M1226.4,266.2l0.5-3.9c1.5,0.3,2.6,0.3,3.3,0
		c0.7-0.3,1.2-0.8,1.5-1.6c0.3-0.8,0.4-1.7,0.4-2.8c0-1.1-0.1-2-0.3-2.7c-0.2-0.7-0.5-1.2-1-1.6c-0.4-0.3-1-0.5-1.7-0.5
		c-0.4,0-0.8,0.1-1.2,0.2c-0.4,0.2-0.7,0.4-1,0.7c-0.3,0.3-0.4,0.7-0.5,1.3l-1.2-2.1c0.4-1.5,1.1-2.6,2.1-3.2c0.9-0.7,2-1,3.2-1
		c1.2,0,2.3,0.2,3.2,0.6c0.9,0.4,1.7,1,2.2,1.7c0.6,0.8,1,1.7,1.3,2.8s0.4,2.4,0.4,3.8c0,2.1-0.4,3.8-1.3,5.2
		c-0.9,1.4-2.2,2.4-3.8,3C1230.9,266.7,1228.8,266.7,1226.4,266.2z"/>
</g>
<g>
	<path class="st29" d="M302.6,243.2V224l-0.4-3.4h5.8l0.4,3.4v19.2H302.6z"/>
	<path class="st29" d="M310.9,237.4v-3.9h4.2v-7.7c0-0.6-0.1-1-0.4-1.2c-0.2-0.2-0.6-0.3-1-0.3l-2.3-0.3l0.7-3.8l4.7,0.5
		c1.3,0.1,2.3,0.7,3,1.6c0.7,0.9,1,2,1,3.4v11.7H310.9z"/>
	<path class="st29" d="M323,237.4v-3.9h13.1l1.7,3.9H323z M333.3,237.4l-10.1-16.8h5.8l10.1,16.8H333.3z M335,231.1l-3.3-4.4l2.6-6
		h5.7L335,231.1z"/>
	<path class="st29" d="M342,237.4l2.1-11.1l-2.6-5.7h6l2,6l-1.8,10.8H342z M349.6,237.5l0.5-3.9c1.5,0.3,2.6,0.3,3.3,0
		c0.7-0.3,1.2-0.8,1.5-1.6c0.3-0.8,0.4-1.7,0.4-2.8c0-1.1-0.1-2-0.3-2.7c-0.2-0.7-0.5-1.2-1-1.6c-0.4-0.3-1-0.5-1.7-0.5
		c-0.4,0-0.8,0.1-1.2,0.2c-0.4,0.2-0.7,0.4-1,0.7c-0.3,0.3-0.4,0.7-0.5,1.3l-1.2-2.1c0.4-1.5,1.1-2.6,2.1-3.2c0.9-0.7,2-1,3.2-1
		c1.2,0,2.3,0.2,3.2,0.6c0.9,0.4,1.7,1,2.2,1.7c0.6,0.8,1,1.7,1.3,2.8s0.4,2.4,0.4,3.8c0,2.1-0.4,3.8-1.3,5.2
		c-0.9,1.4-2.2,2.4-3.8,3C354,238,352,238,349.6,237.5z"/>
	<path class="st29" d="M260.1,277.5c-1.3-2-2.4-4.1-3.1-6.2c-0.7-2.1-1.1-4.5-1.1-7c0-2.6,0.4-4.9,1.1-7.1c0.7-2.2,1.8-4.2,3.1-6.2
		l3.4,1.3c-1.1,1.9-2,3.8-2.5,5.9s-0.8,4.1-0.8,6.1c0,2,0.3,4,0.8,6.1c0.5,2.1,1.3,4,2.5,5.9L260.1,277.5z"/>
	<path class="st29" d="M266.5,272.2v-13.7v-3.1h5.8v3.4v13.4H266.5z M267.7,272.2v-3.9h13.2v3.9H267.7z M277.2,272.2v-11.6
		c0-0.4-0.1-0.8-0.4-1c-0.2-0.2-0.6-0.3-1.1-0.3h-5.6v-3.9h7.2c1.1,0,2,0.2,2.9,0.6c0.8,0.4,1.5,1,2,1.8c0.5,0.8,0.7,1.9,0.7,3.2
		v8.1v3.2H277.2z"/>
	<path class="st29" d="M285.9,266.1v-2.7v-4.6l-0.4-3.4h5.8l0.4,3.4v4.6l0,1.8L285.9,266.1z"/>
	<path class="st29" d="M294.4,272.2l2.1-11.1l-2.6-5.7h6l2,6l-1.8,10.8H294.4z M302,272.3l0.5-3.9c1.5,0.3,2.6,0.3,3.3,0
		c0.7-0.3,1.2-0.8,1.5-1.6c0.3-0.8,0.4-1.7,0.4-2.8c0-1.1-0.1-2-0.3-2.7c-0.2-0.7-0.5-1.2-1-1.6c-0.4-0.3-1-0.5-1.7-0.5
		c-0.4,0-0.8,0.1-1.2,0.2c-0.4,0.2-0.7,0.4-1,0.7c-0.3,0.3-0.4,0.7-0.5,1.3l-1.2-2.1c0.4-1.5,1.1-2.6,2.1-3.2c0.9-0.7,2-1,3.2-1
		c1.2,0,2.3,0.2,3.2,0.6c0.9,0.4,1.7,1,2.2,1.7c0.6,0.8,1,1.7,1.3,2.8s0.4,2.4,0.4,3.8c0,2.1-0.4,3.8-1.3,5.2
		c-0.9,1.4-2.2,2.4-3.8,3C306.4,272.8,304.4,272.8,302,272.3z"/>
	<path class="st29" d="M328.3,272.2v-9.5c0-0.8,0.1-1.5,0.3-2.1c0.2-0.6,0.4-1,0.7-1.3h-7.8v-3.9h15.7v3.9h-2.5
		c-0.2,0.5-0.4,1-0.4,1.7c-0.1,0.6-0.1,1.2-0.1,1.7v9.5H328.3z"/>
	<path class="st29" d="M339.7,266.1v-2.7v-4.6l-0.4-3.4h5.8l0.4,3.4v4.6l0,1.8L339.7,266.1z"/>
	<path class="st29" d="M348.6,266.1v-2.7v-4.6l-0.4-3.4h5.8l0.4,3.4v4.6l0,1.8L348.6,266.1z"/>
	<path class="st29" d="M375.7,272.2h-6.1l-5.3-7.6l-2.5,7.6h-5.5l3.6-9.9l1-2.4l-3-4.5h5.8l2.4,3.6l1.9,2.7l0.9-2.8l0.9-3.5h5.5
		l-4,10.8L375.7,272.2z"/>
	<path class="st29" d="M377.7,272.2l2.1-11.1l-2.6-5.7h6l2,6l-1.8,10.8H377.7z M385.3,272.3l0.5-3.9c1.5,0.3,2.6,0.3,3.3,0
		c0.7-0.3,1.2-0.8,1.5-1.6c0.3-0.8,0.4-1.7,0.4-2.8c0-1.1-0.1-2-0.3-2.7c-0.2-0.7-0.5-1.2-1-1.6c-0.4-0.3-1-0.5-1.7-0.5
		c-0.4,0-0.8,0.1-1.2,0.2c-0.4,0.2-0.7,0.4-1,0.7c-0.3,0.3-0.4,0.7-0.5,1.3l-1.2-2.1c0.4-1.5,1.1-2.6,2.1-3.2c0.9-0.7,2-1,3.2-1
		c1.2,0,2.3,0.2,3.2,0.6c0.9,0.4,1.7,1,2.2,1.7c0.6,0.8,1,1.7,1.3,2.8s0.4,2.4,0.4,3.8c0,2.1-0.4,3.8-1.3,5.2
		c-0.9,1.4-2.2,2.4-3.8,3C389.8,272.8,387.7,272.8,385.3,272.3z"/>
	<path class="st29" d="M402.7,277.5l-3.4-1.3c1.1-1.9,2-3.9,2.5-5.9c0.5-2.1,0.8-4.1,0.8-6.1c0-2-0.3-4-0.8-6.1
		c-0.5-2.1-1.3-4-2.5-5.9l3.4-1.3c1.3,2,2.4,4.1,3.1,6.2c0.7,2.2,1.1,4.5,1.1,7.1c0,2.6-0.4,4.9-1.1,7
		C405.1,273.4,404.1,275.4,402.7,277.5z"/>
</g>
<g>
	<g>
		<path class="st31" d="M1329.8,516.2v-8l0.8-1.9h5v1.9v8H1329.8z M1340.3,516.2v-11.6c0-0.4-0.1-0.8-0.4-1
			c-0.2-0.2-0.6-0.3-1.1-0.3h-8.8v-3.9h10.5c1.1,0,2,0.2,2.9,0.6c0.8,0.4,1.5,1,2,1.8c0.5,0.8,0.7,1.9,0.7,3.2v11.3H1340.3z"/>
		<path class="st31" d="M1350.5,516.5l-1.7-13.2l5.5-2.3l1.2,10.8c0.9-0.1,1.7-0.2,2.3-0.4c0.6-0.2,1-0.4,1.3-0.8
			c0.3-0.3,0.5-0.7,0.6-1.1c0.1-0.4,0.2-0.9,0.2-1.5c0-0.5,0-1.1,0-1.7v-1c0-0.5-0.1-0.9-0.2-1.2c-0.2-0.3-0.4-0.5-0.6-0.7
			c-0.3-0.2-0.6-0.2-0.9-0.2h-9.4l-0.5-3.9h10.4c2.2,0,4,0.5,5.2,1.6c1.2,1.1,1.8,2.6,1.9,4.5l0,1c0.1,1.8-0.2,3.3-0.9,4.6
			c-0.7,1.2-1.6,2.2-3,3c-1.3,0.8-2.9,1.4-4.8,1.7S1353,516.4,1350.5,516.5z"/>
		<path class="st31" d="M1368.8,510.1v-2.7v-4.6l-0.4-3.4h5.8l0.4,3.4v4.6l0,1.8L1368.8,510.1z"/>
		<path class="st31" d="M1377.1,516.2v-3.9h4.2v-7.7c0-0.6-0.1-1-0.4-1.2c-0.2-0.2-0.6-0.3-1-0.3l-2.3-0.3l0.7-3.8l4.7,0.5
			c1.3,0.1,2.3,0.7,3,1.6c0.7,0.9,1,2,1,3.4v11.7H1377.1z"/>
		<path class="st31" d="M1389.1,516.2v-3.9h5.6c0.7,0,1.3-0.2,1.7-0.5c0.4-0.3,0.7-0.7,0.8-1.2c0.2-0.5,0.2-1,0.2-1.6v-2.3
			c0-0.6-0.1-1.1-0.2-1.6c-0.2-0.5-0.4-0.9-0.8-1.2c-0.4-0.3-1-0.5-1.7-0.5h-5.6v-3.9h7.2c1.6,0,2.9,0.3,3.9,1
			c1,0.6,1.8,1.5,2.3,2.7c0.5,1.1,0.7,2.4,0.7,3.9v1.8c0,1.5-0.2,2.7-0.7,3.9c-0.5,1.1-1.3,2-2.3,2.7c-1,0.6-2.3,1-3.9,1H1389.1z"/>
	</g>
</g>
<g>
	<path class="st31" d="M1329.8,392.3v-8l0.8-1.9h5v1.9v8H1329.8z M1340.3,392.3v-11.6c0-0.4-0.1-0.8-0.4-1c-0.2-0.2-0.6-0.3-1.1-0.3
		h-8.8v-3.9h10.5c1.1,0,2,0.2,2.9,0.6c0.8,0.4,1.5,1,2,1.8c0.5,0.8,0.7,1.9,0.7,3.2v11.3H1340.3z"/>
	<path class="st31" d="M1367.1,392.3h-6.1l-5.3-7.6l-2.5,7.6h-5.5l3.6-9.9l1-2.4l-3-4.5h5.8l2.4,3.6l1.9,2.7l0.9-2.8l0.9-3.5h5.5
		l-4,10.8L1367.1,392.3z"/>
	<path class="st31" d="M1369.5,386.2v-2.7v-4.6l-0.4-3.4h5.8l0.4,3.4v4.6l0,1.8L1369.5,386.2z"/>
	<path class="st31" d="M1377.5,392.3v-3.9h13.1l1.7,3.9H1377.5z M1387.8,392.3l-10.1-16.8h5.8l10.1,16.8H1387.8z M1389.6,385.9
		l-3.3-4.4l2.6-6h5.7L1389.6,385.9z"/>
	<path class="st31" d="M1397,386.2v-2.7v-4.6l-0.4-3.4h5.8l0.4,3.4v4.6l0,1.8L1397,386.2z"/>
</g>
<g>
	<path d="M726.6,464.3l-1.7-13.2l5.5-2.3l1.2,10.8c0.9-0.1,1.7-0.2,2.3-0.4c0.6-0.2,1-0.4,1.3-0.8c0.3-0.3,0.5-0.7,0.6-1.1
		c0.1-0.4,0.2-0.9,0.2-1.5c0-0.5,0-1.1,0-1.7v-1c0-0.5-0.1-0.9-0.2-1.2c-0.2-0.3-0.4-0.5-0.6-0.7c-0.3-0.2-0.6-0.2-0.9-0.2H725
		l-0.5-3.9h10.4c2.2,0,4,0.5,5.2,1.6c1.2,1.1,1.8,2.6,1.9,4.5l0,1c0.1,1.8-0.2,3.3-0.9,4.6c-0.7,1.2-1.6,2.2-3,3
		c-1.3,0.8-2.9,1.4-4.8,1.7S729.1,464.3,726.6,464.3z"/>
	<path d="M755.7,464v-11.6c0-0.9-0.5-1.3-1.4-1.3h-9.4v-3.9H756c1.1,0,2,0.2,2.9,0.6c0.8,0.4,1.5,1,2,1.8c0.5,0.8,0.7,1.9,0.7,3.2
		V464H755.7z M744.9,464v-14.3h5.8V464H744.9z"/>
	<path d="M770.5,464v-9.5c0-0.8,0.1-1.5,0.3-2.1c0.2-0.6,0.4-1,0.7-1.3h-7.8v-3.9h15.7v3.9h-2.5c-0.2,0.5-0.4,1-0.4,1.7
		c-0.1,0.6-0.1,1.2-0.1,1.7v9.5H770.5z"/>
	<path d="M781.5,464l2.1-11.1l-2.6-5.7h6l2,6l-1.8,10.8H781.5z M789.1,464.1l0.5-3.9c1.5,0.3,2.6,0.3,3.3,0c0.7-0.3,1.2-0.8,1.5-1.6
		c0.3-0.8,0.4-1.7,0.4-2.8c0-1.1-0.1-2-0.3-2.7c-0.2-0.7-0.5-1.2-1-1.6c-0.4-0.3-1-0.5-1.7-0.5c-0.4,0-0.8,0.1-1.2,0.2
		c-0.4,0.2-0.7,0.4-1,0.7c-0.3,0.3-0.4,0.7-0.5,1.3l-1.2-2.1c0.4-1.5,1.1-2.6,2.1-3.2c0.9-0.7,2-1,3.2-1c1.2,0,2.3,0.2,3.2,0.6
		c0.9,0.4,1.7,1,2.2,1.7c0.6,0.8,1,1.7,1.3,2.8c0.3,1.1,0.4,2.4,0.4,3.8c0,2.1-0.4,3.8-1.3,5.2c-0.9,1.4-2.2,2.4-3.8,3
		C793.5,464.6,791.5,464.6,789.1,464.1z"/>
</g>
<g>
	<path d="M708.5,47.3v-9.5c0-0.8,0.1-1.5,0.3-2.1s0.4-1,0.7-1.3h-7.8v-3.9h15.7v3.9h-2.5c-0.2,0.5-0.4,1-0.4,1.7
		c-0.1,0.6-0.1,1.2-0.1,1.7v9.5H708.5z"/>
	<path d="M719.1,34.4v-7.9h5.2v7.9H719.1z M722.5,47.3l5.5-12.9h-8.9v-3.9h14.7v4.3l-5.5,12.5H722.5z"/>
	<path d="M736.2,47.3V33.9l-0.4-3.4h5.8l0.4,3.4v13.4H736.2z"/>
	<path d="M744.7,47.3v-3.9h7.1c0.5,0,1-0.1,1.4-0.3c0.4-0.2,0.7-0.4,0.9-0.8c0.2-0.3,0.4-0.7,0.5-1.1s0.2-0.8,0.2-1.2v-2.3
		c0-0.6-0.1-1.1-0.3-1.6c-0.2-0.5-0.5-0.9-1-1.2c-0.4-0.3-1-0.5-1.7-0.5h-1.7l-0.4,2c-0.1,0.5,0,0.9,0.3,1.1
		c0.3,0.3,0.7,0.5,1.5,0.6l-0.8,3.2c-1.7,0-3-0.2-4-0.7c-0.9-0.5-1.5-1.2-1.8-2s-0.3-1.7-0.2-2.7l1.3-5.4h7.3c1.6,0,2.9,0.3,4,1
		c1.1,0.6,1.9,1.5,2.5,2.7c0.6,1.1,0.9,2.4,0.9,3.9v1.8c0,1.1-0.2,2.1-0.5,3c-0.3,0.9-0.8,1.7-1.5,2.4c-0.6,0.7-1.4,1.2-2.3,1.6
		c-0.9,0.4-2,0.6-3.1,0.6H744.7z"/>
	<path d="M763.1,41.2v-2.7v-4.6l-0.4-3.4h5.8l0.4,3.4v4.6l0,1.8L763.1,41.2z"/>
	<path d="M771.4,47.3v-3.9h4.2v-7.7c0-0.6-0.1-1-0.4-1.2c-0.2-0.2-0.6-0.3-1-0.3l-2.3-0.3l0.7-3.8l4.7,0.5c1.3,0.1,2.3,0.7,3,1.6
		c0.7,0.9,1,2,1,3.4v11.7H771.4z"/>
	<path d="M784,47.3l2.1-11.1l-2.6-5.7h6l2,6l-1.8,10.8H784z M791.6,47.3l0.5-3.9c1.5,0.3,2.6,0.3,3.3,0c0.7-0.3,1.2-0.8,1.5-1.6
		c0.3-0.8,0.4-1.7,0.4-2.8c0-1.1-0.1-2-0.3-2.7c-0.2-0.7-0.5-1.2-1-1.6c-0.4-0.3-1-0.5-1.7-0.5c-0.4,0-0.8,0.1-1.2,0.2
		c-0.4,0.2-0.7,0.4-1,0.7c-0.3,0.3-0.4,0.7-0.5,1.3l-1.2-2.1c0.4-1.5,1.1-2.6,2.1-3.2c0.9-0.7,2-1,3.2-1c1.2,0,2.3,0.2,3.2,0.6
		c0.9,0.4,1.7,1,2.2,1.7c0.6,0.8,1,1.7,1.3,2.8c0.3,1.1,0.4,2.4,0.4,3.8c0,2.1-0.4,3.8-1.3,5.2c-0.9,1.4-2.2,2.4-3.8,3
		C796,47.8,793.9,47.9,791.6,47.3z"/>
	<path d="M708.2,87.3c-1.3-2-2.4-4.1-3.1-6.2c-0.7-2.1-1.1-4.5-1.1-7c0-2.6,0.4-4.9,1.1-7.1c0.7-2.2,1.8-4.2,3.1-6.2l3.4,1.3
		c-1.1,1.9-2,3.8-2.5,5.9c-0.5,2.1-0.8,4.1-0.8,6.1c0,2,0.3,4,0.8,6.1c0.5,2.1,1.3,4,2.5,5.9L708.2,87.3z"/>
	<path d="M714.3,82.7l-0.5-3.5c0.8-0.1,1.4-0.2,1.8-0.4c0.4-0.2,0.6-0.4,0.7-0.8c0.1-0.3,0.2-0.8,0.2-1.5V65.3h10.7
		c1.1,0,2,0.2,2.9,0.6s1.5,1,2,1.8c0.5,0.8,0.7,1.9,0.7,3.2v11.3h-5.8V70.5c0-0.4-0.1-0.8-0.4-1c-0.2-0.2-0.6-0.3-1.1-0.3h-3.2v6.6
		c0,1.7-0.3,3-0.8,3.9s-1.4,1.6-2.6,2.1C717.6,82.2,716.1,82.5,714.3,82.7z"/>
	<path d="M735.4,82.1v-3.9h7.1c0.5,0,1-0.1,1.4-0.3c0.4-0.2,0.7-0.4,0.9-0.8c0.2-0.3,0.4-0.7,0.5-1.1s0.2-0.8,0.2-1.2v-2.3
		c0-0.6-0.1-1.1-0.3-1.6c-0.2-0.5-0.5-0.9-1-1.2c-0.4-0.3-1-0.5-1.7-0.5h-1.7l-0.4,2c-0.1,0.5,0,0.9,0.3,1.1
		c0.3,0.3,0.7,0.5,1.5,0.6l-0.8,3.2c-1.7,0-3-0.2-4-0.7c-0.9-0.5-1.5-1.2-1.8-2s-0.3-1.7-0.2-2.7l1.3-5.4h7.3c1.6,0,2.9,0.3,4,1
		s1.9,1.5,2.5,2.7c0.6,1.1,0.9,2.4,0.9,3.9v1.8c0,1.1-0.2,2.1-0.5,3c-0.3,0.9-0.8,1.7-1.5,2.4c-0.6,0.7-1.4,1.2-2.3,1.6
		c-0.9,0.4-2,0.6-3.1,0.6H735.4z"/>
	<path d="M752.9,83.4l-0.8-4.1l8.4-1.4c0.9-0.2,1.7-0.4,2.2-0.9c0.5-0.4,0.9-1,1.2-1.6c0.3-0.7,0.4-1.5,0.5-2.5s0.1-2.1,0.1-3.3
		c0-1.3,0-2.7,0-4.2h5.7c0,1.8,0,3.4-0.1,4.9s-0.2,2.9-0.5,4.2c-0.3,1.3-0.8,2.4-1.4,3.4c-0.7,1-1.6,1.9-2.8,2.6
		c-1.2,0.7-2.8,1.2-4.8,1.6L752.9,83.4z M757,79l-3.5-13.7h5.8l3.3,13.7H757z"/>
	<path d="M774.7,82.4L773,69.2l5.5-2.3l1.2,10.8c0.9-0.1,1.7-0.2,2.3-0.4c0.6-0.2,1-0.4,1.3-0.8c0.3-0.3,0.5-0.7,0.6-1.1
		c0.1-0.4,0.2-0.9,0.2-1.5c0-0.5,0-1.1,0-1.7v-1c0-0.5-0.1-0.9-0.2-1.2c-0.2-0.3-0.4-0.5-0.6-0.7c-0.3-0.2-0.6-0.2-0.9-0.2H773
		l-0.5-3.9h10.4c2.2,0,4,0.5,5.2,1.6s1.8,2.6,1.9,4.5l0,1c0.1,1.8-0.2,3.3-0.9,4.6c-0.7,1.2-1.6,2.2-3,3c-1.3,0.8-2.9,1.4-4.8,1.7
		C779.3,82.1,777.1,82.3,774.7,82.4z"/>
	<path d="M796.5,87.3L793,86c1.1-1.9,2-3.9,2.5-5.9c0.5-2.1,0.8-4.1,0.8-6.1c0-2-0.3-4-0.8-6.1c-0.5-2.1-1.3-4-2.5-5.9l3.4-1.3
		c1.3,2,2.4,4.1,3.1,6.2c0.7,2.2,1.1,4.5,1.1,7.1c0,2.6-0.4,4.9-1.1,7C798.8,83.2,797.8,85.3,796.5,87.3z"/>
</g>
<path class="st5" d="M1168.2,615.6h-17.8c-27.9,0-50.5-22.6-50.5-50.5V330.9c0-27.9,22.6-50.5,50.5-50.5h17.8
	c27.9,0,50.5,22.6,50.5,50.5v234.2C1218.7,593,1196.1,615.6,1168.2,615.6z"/>
<path class="st32" d="M1236.4,399.4h-15.7c-8.7,0-15.7-7-15.7-15.7v0c0-8.7,7-15.7,15.7-15.7h15.7V399.4z"/>
<path class="st32" d="M1236.4,524.1h-15.7c-8.7,0-15.7-7-15.7-15.7v0c0-8.7,7-15.7,15.7-15.7h15.7V524.1z"/>
<g>
	<circle class="st8" cx="1451.8" cy="383.8" r="14.4"/>
	<text transform="matrix(1 0 0 1 1444.2626 389.7673)" class="st27 st28">T4</text>
	<g>
		<g>
			<g>
				<g>
					<g>
						<polygon class="st9" points="1426.1,378.1 1423.9,383.7 1426.4,389.1 1413.1,384 						"/>
					</g>
				</g>
			</g>
		</g>
		<line class="st10" x1="1423.7" y1="383.6" x2="1437.5" y2="383.5"/>
	</g>
</g>
<g>
	<g>
		<g>
			<polygon class="st33" points="1264.9,383.8 1253.3,372.1 1266.5,372.1 1291.8,372.1 1295.5,372.1 1295.5,364.2 1315.1,383.8 
				1295.5,403.4 1295.5,395.4 1291.8,395.4 1266.5,395.4 1253.3,395.4 			"/>
		</g>
	</g>
</g>
<g>
	<g>
		<g>
			<polygon class="st33" points="1303.5,508.4 1315.1,520.1 1301.9,520.1 1276.6,520.1 1272.9,520.1 1272.9,528 1253.3,508.4 
				1272.9,488.8 1272.9,496.8 1276.6,496.8 1301.9,496.8 1315.1,496.8 			"/>
		</g>
	</g>
</g>
<g>
	<path d="M1253.1,445c0.9-1.3,1.5-2.4,1.5-3.2c0-0.7-0.4-0.9-1.5-1.2c-0.6-0.1-1-0.3-1.4-0.4l0.4-1.8c0.3,0.1,0.8,0.2,1.4,0.4
		c2.2,0.4,3,1.1,3,2.6c0,1.3-0.7,2.8-1.8,4.3L1253.1,445z"/>
	<path d="M1261.2,443.4c0-1.8-0.2-2.5-2-2.9c-0.8-0.2-1.2-0.3-1.6-0.4l0.4-1.8c0.3,0.1,0.8,0.2,1.6,0.3c2.6,0.5,3.4,1.3,3.4,4.5v6.9
		h-1.8V443.4z"/>
	<path d="M1265.6,448.2c0.7-0.1,2.4-0.1,3.7-0.1h3.5c0-1.4,0-3.4,0-4.5c0-2.2-0.3-3.1-2.5-3.1h-2c-1.3,0-2.2,0-2.6-0.1l0.4-1.9
		c0.5,0.1,1.5,0.1,3,0.1h1.8c3.3,0,3.7,1.4,3.7,4.3v3.5c0,0.4,0,1.4-0.1,1.8h1.7l-0.4,1.9h-7.5c-1,0-2.4,0-3,0.1L1265.6,448.2z"/>
	<path d="M1278.1,445c0.9-1.3,1.5-2.4,1.5-3.2c0-0.7-0.4-0.9-1.5-1.2c-0.6-0.1-1-0.3-1.4-0.4l0.4-1.8c0.3,0.1,0.8,0.2,1.4,0.4
		c2.2,0.4,3,1.1,3,2.6c0,1.3-0.7,2.8-1.8,4.3L1278.1,445z"/>
	<path d="M1287.9,448.1c-0.8-2.3-3.2-7.2-4.8-9.4l2.4-0.2c1.3,2,3.2,6.3,4,9.1c1.7-0.7,2.6-2,2.6-4.6c0-1.2-0.3-3-1-4.3l2.3-0.2
		c0.3,0.7,0.6,2.2,0.6,4c0,3.1-0.9,5.5-4.6,7c-1.8,0.7-4.5,1.2-6.6,1.5l0.4-2.1C1284.7,448.8,1286.7,448.5,1287.9,448.1z"/>
	<path d="M1301.8,445c0.9-1.3,1.5-2.4,1.5-3.2c0-0.7-0.4-0.9-1.5-1.2c-0.6-0.1-1-0.3-1.4-0.4l0.4-1.8c0.3,0.1,0.8,0.2,1.4,0.4
		c2.2,0.4,3,1.1,3,2.6c0,1.3-0.7,2.8-1.8,4.3L1301.8,445z"/>
	<path d="M1308.7,443.6c0.3-2.1-0.6-2.9-2.1-3.2l0.4-2c1.8,0.3,3,1.3,3.2,3c0.5-1.3,1.9-2.9,4.5-2.9c3.6,0,4.5,3,4.5,7.1v2.7
		c0,0.2-0.3,1.6-0.3,1.9h-4.6c-0.9,0-2.1,0-2.6,0.1l0.4-1.9c0.5-0.1,1.6-0.1,2.8-0.1h2.4c0-0.9,0-1.7,0-2.6c0-2.6-0.4-5.2-3.1-5.2
		c-2.6,0-3.5,2.3-3.8,3.7c-0.4,1.4-0.9,3.9-1.3,6h-1.8C1307.9,447.8,1308.4,445.1,1308.7,443.6z"/>
</g>
<g>
	<g>
		<g id="z1YTSY_00000147177959928811854840000016801177268890200479_">
			<g>
				<path class="st16" d="M1368.3,463.5c0.2-1,0.3-2,0.7-2.8c0.7-1.7,2.1-2.4,3.9-2.5c2.5-0.1,5.1,0,7.6,0c3.7,0,7.5,0,11.2-0.1
					c1.4,0,2.8,0.1,4,1c1.1,0.8,1.6,1.9,1.7,3.3c0,1.1,0,1.1,1.2,1.1c1.3,0,2.6,0,3.9,0c0.4,0,0.5-0.2,0.5-0.5c0-1.5,0-2.9,0-4.4
					c0-0.4,0.1-0.6,0.6-0.6c2.8,0,5.5,0,8.3,0c1.5,0,1.2-0.1,1.3,1.3c0.1,1.1,0,2.3,0,3.4c0,0.6,0.2,0.8,0.8,0.8c2.1,0,4.2,0,6.3,0
					c0.8,0,0.8,0,0.8,0.8c0,3.6,0,7.2,0,10.8c0,1.1,0,1.1-1.1,1.1c-2,0-4.1,0-6.1,0c-0.5,0-0.6,0.1-0.6,0.6c0,1.4,0,2.7,0,4.1
					c0,0.5-0.1,0.7-0.7,0.7c-2.3,0-4.6,0-6.9,0c-0.5,0-1.1,0-1.6,0c-1.2,0-1,0.1-1-1c0-1.2,0-2.4,0-3.6c0-0.2,0-0.5-0.1-0.8
					c-1.7,0-3.2,0-4.8,0c-0.5,0-0.7,0.2-0.7,0.7c0,0.9-0.1,1.8-0.6,2.6c-0.9,1.4-2.3,2.2-3.9,2.2c-6.6,0-13.2,0-19.8,0
					c-2.7,0-4.6-2.1-4.4-4.8c0-0.4-0.1-0.6-0.5-0.6c-1.6,0-3.2,0-4.7,0c-0.4,0-0.4,0.3-0.4,0.5c0,1.4,0,2.8,0,4.2
					c0,0.5-0.2,0.6-0.6,0.6c-3,0-5.9,0-8.9,0c-0.4,0-0.6-0.1-0.6-0.6c0-1.3,0-2.6,0-4c0-0.8-0.1-0.8-0.8-0.8c-1.9,0-3.8,0-5.7,0
					c-0.1,0-0.1,0-0.2,0c-1.1,0-1.2-0.1-1.2-1.2c0-3.6,0-7.1,0-10.7c0-0.8,0-0.9,0.9-0.9c2.1,0,4.2,0,6.4,0c0.6,0,0.7-0.2,0.7-0.7
					c0-1.4,0-2.8-0.1-4.3c0-0.3,0.1-0.5,0.5-0.5c3,0,6,0.1,9,0.1c0.5,0,0.7,0.1,0.7,0.7c0,1.3,0,2.7,0,4c0,0.5,0.1,0.7,0.7,0.7
					c1.4,0,2.7,0,4.1,0C1368,463.5,1368.2,463.5,1368.3,463.5z"/>
				<path class="st16" d="M1371.6,456.5c0-1.5,0-2.9,0-4.3c0-1,0-2,0-3c0-0.4-0.1-0.7-0.6-0.8c-2-0.4-3.7-2.3-3.7-4.9c0-7,0-14,0-21
					c0-1.3,0-2.5,0-3.8c0-2.8,1.9-4.7,4.7-4.7c7,0,14.1,0,21.1,0c3,0,4.9,2,4.8,5c0,0.8-0.1,1.6-0.1,2.5c0.2-0.1,0.6,19.8,0,19.7
					c0,0,0,0.2,0,0.3c0,1.2,0.1,2.4-0.1,3.5c-0.4,1.9-1.6,3-3.5,3.5c-0.5,0.1-0.6,0.3-0.6,0.8c0,2.2,0,4.5,0,6.7
					c0,0.5-0.1,0.7-0.6,0.7c-1.7,0-1.7,0-1.7-1.7c0-1.8,0-3.7,0-5.5c0-0.6-0.2-0.8-0.8-0.8c-0.7,0-1.5,0-2.2,0c-4.4,0-8.8,0-13.2,0
					c-1.2,0-1.2,0-1.2,1.2c0,2.1,0,4.1,0,6.2c0,0.5-0.2,0.7-0.7,0.6C1372.8,456.5,1372.3,456.5,1371.6,456.5z M1401.9,423.4
					c-1.1-0.1-2.4-0.4-3.2,0.8c-0.1,0.1-0.2,0.3-0.3,0.3c-0.4,0.3-0.5,0.6-0.5,1.1c0,3.7,0,7.5,0,11.2c0,0.6,1.5,2.2,2.1,2.3
					c0.1,0,0.1,0,0.2,0c0.6,0,1.1,0,1.7-0.1C1402.2,439.1,1402,423.4,1401.9,423.4z M1374,439.9 M1374,416.9 M1378.9,439.9
					 M1378.9,416.9 M1383.7,439.9 M1383.7,416.9 M1386.4,439.9 M1386.4,416.9"/>
				<path class="st16" d="M1389.6,456.5c-0.7,0-1.3,0-1.9,0c-0.3,0-0.5-0.2-0.5-0.5c0-1,0-1.9,0-2.9c0-0.4-0.1-0.5-0.5-0.5
					c-2.8,0-5.5,0-8.3,0c-0.4,0-0.5,0.2-0.5,0.5c0,0.9,0,1.9,0,2.8c0,0.2,0,0.4,0,0.6c-0.7,0-1.3,0-1.9,0c-0.1,0-0.3-0.4-0.3-0.6
					c0-1.3,0-2.6,0-4c0-0.5,0.2-1,0.3-1.5c0-0.1,0.2-0.3,0.4-0.3c0.4,0,0.8,0,1.2,0c3.6,0,7.1,0,10.7,0c1.4,0,1.4,0,1.5,1.4
					c0,1.5,0,3.1,0,4.6C1389.7,456.2,1389.6,456.4,1389.6,456.5z"/>
				<line class="st16" x1="1357.4" y1="458.1" x2="1357.4" y2="481.7"/>
				<line class="st16" x1="1408.2" y1="458" x2="1408.2" y2="481.7"/>
			</g>
			<line class="st16" x1="1368.1" y1="476.3" x2="1398" y2="476.3"/>
			<line class="st16" x1="1368.3" y1="463.5" x2="1397.7" y2="463.5"/>
		</g>
		<line class="st16" x1="1367.5" y1="417" x2="1397.9" y2="417.2"/>
		<line class="st16" x1="1367.5" y1="444.9" x2="1398" y2="444.9"/>
		<polyline class="st16" points="1397.8,421.4 1397.9,425.7 1397.8,437.4 1397.8,441.4 		"/>
		<line class="st16" x1="1376.4" y1="417.2" x2="1376.4" y2="444.9"/>
		<line class="st16" x1="1382.6" y1="417.2" x2="1382.6" y2="444.9"/>
		<line class="st16" x1="1388.8" y1="417.2" x2="1388.8" y2="444.9"/>
		<line class="st16" x1="1395" y1="417.2" x2="1395" y2="444.9"/>
		<line class="st16" x1="1370.2" y1="417.2" x2="1370.2" y2="444.9"/>
	</g>
	<rect x="1381.7" y="454" class="st16" width="2" height="2.5"/>
</g>
<g>
	<path d="M1160.4,597.9v-16.3c0-0.5-0.4-0.9-0.9-0.9s-0.9,0.4-0.9,0.9v16.3c-2.2,0.4-3.9,2.4-3.9,4.7c0,2.6,2.1,4.8,4.8,4.8
		s4.8-2.1,4.8-4.8C1164.2,600.3,1162.6,598.3,1160.4,597.9z M1159.5,605.5c-1.6,0-3-1.3-3-3c0-1.6,1.3-3,3-3c1.6,0,3,1.3,3,3
		C1162.4,604.2,1161.1,605.5,1159.5,605.5z"/>
	<path d="M1164.2,595v-19.3c0-2.6-2.1-4.8-4.8-4.8s-4.8,2.1-4.8,4.8V595c-2.7,1.7-4.3,4.7-4.2,8c0.2,4.6,3.9,8.3,8.5,8.5
		c0.1,0,0.3,0,0.4,0c2.3,0,4.5-0.9,6.2-2.5c1.8-1.7,2.8-4,2.8-6.5C1168.4,599.5,1166.8,596.6,1164.2,595z M1164.4,607.7
		c-1.4,1.4-3.3,2.1-5.3,2c-3.6-0.2-6.6-3.2-6.8-6.8c-0.1-2.7,1.3-5.3,3.7-6.6c0.3-0.2,0.5-0.5,0.5-0.8v-19.8c0-1.6,1.3-3,3-3
		c1.6,0,3,1.3,3,3v19.8c0,0.3,0.2,0.6,0.5,0.8c2.3,1.3,3.7,3.7,3.7,6.3C1166.6,604.5,1165.8,606.4,1164.4,607.7z"/>
	<path d="M1167,578h2.2c0.5,0,0.9-0.4,0.9-0.9s-0.4-0.9-0.9-0.9h-2.2c-0.5,0-0.9,0.4-0.9,0.9S1166.5,578,1167,578z"/>
	<path d="M1167,582.5h4c0.5,0,0.9-0.4,0.9-0.9s-0.4-0.9-0.9-0.9h-4c-0.5,0-0.9,0.4-0.9,0.9S1166.5,582.5,1167,582.5z"/>
	<path d="M1167,587h2.2c0.5,0,0.9-0.4,0.9-0.9s-0.4-0.9-0.9-0.9h-2.2c-0.5,0-0.9,0.4-0.9,0.9S1166.5,587,1167,587z"/>
	<path d="M1171,589.7h-4c-0.5,0-0.9,0.4-0.9,0.9c0,0.5,0.4,0.9,0.9,0.9h4c0.5,0,0.9-0.4,0.9-0.9
		C1171.9,590.1,1171.5,589.7,1171,589.7z"/>
	<path d="M1144.7,581.2c-1.7,0-3,1.3-3,3c0,1.7,1.3,3,3,3c1.7,0,3-1.3,3-3C1147.7,582.5,1146.4,581.2,1144.7,581.2z M1144.7,585.4
		c-0.7,0-1.2-0.5-1.2-1.2c0-0.7,0.5-1.2,1.2-1.2c0.7,0,1.2,0.5,1.2,1.2C1145.9,584.8,1145.4,585.4,1144.7,585.4z"/>
	<path d="M1144.7,580c0.5,0,0.9-0.4,0.9-0.9v-2c0-0.5-0.4-0.9-0.9-0.9c-0.5,0-0.9,0.4-0.9,0.9v2C1143.8,579.6,1144.2,580,1144.7,580
		z"/>
	<path d="M1148.3,581.5c0.2,0,0.5-0.1,0.6-0.3l1.4-1.4c0.4-0.4,0.4-0.9,0-1.3s-0.9-0.4-1.3,0l-1.4,1.4c-0.4,0.4-0.4,0.9,0,1.3
		C1147.8,581.4,1148.1,581.5,1148.3,581.5z"/>
	<path d="M1148.9,584.2c0,0.5,0.4,0.9,0.9,0.9h2c0.5,0,0.9-0.4,0.9-0.9c0-0.5-0.4-0.9-0.9-0.9h-2
		C1149.3,583.3,1148.9,583.7,1148.9,584.2z"/>
	<path d="M1150.3,588.5l-1.4-1.4c-0.4-0.4-0.9-0.4-1.3,0c-0.4,0.4-0.4,0.9,0,1.3l1.4,1.4c0.2,0.2,0.4,0.3,0.6,0.3
		c0.2,0,0.5-0.1,0.6-0.3C1150.7,589.5,1150.7,588.9,1150.3,588.5z"/>
	<path d="M1144.7,588.4c-0.5,0-0.9,0.4-0.9,0.9v2c0,0.5,0.4,0.9,0.9,0.9c0.5,0,0.9-0.4,0.9-0.9v-2
		C1145.6,588.8,1145.2,588.4,1144.7,588.4z"/>
	<path d="M1140.5,587.1l-1.4,1.4c-0.4,0.4-0.4,0.9,0,1.3c0.2,0.2,0.4,0.3,0.6,0.3c0.2,0,0.5-0.1,0.6-0.3l1.4-1.4
		c0.4-0.4,0.4-0.9,0-1.3C1141.4,586.8,1140.8,586.8,1140.5,587.1z"/>
	<path d="M1140.5,584.2c0-0.5-0.4-0.9-0.9-0.9h-2c-0.5,0-0.9,0.4-0.9,0.9c0,0.5,0.4,0.9,0.9,0.9h2
		C1140.1,585.1,1140.5,584.7,1140.5,584.2z"/>
	<path d="M1140.5,581.2c0.2,0.2,0.4,0.3,0.6,0.3c0.2,0,0.5-0.1,0.6-0.3c0.4-0.4,0.4-0.9,0-1.3l-1.4-1.4c-0.4-0.4-0.9-0.4-1.3,0
		s-0.4,0.9,0,1.3L1140.5,581.2z"/>
</g>
<g>
	<g>
		<path class="st29" d="M91.9,392.9v-8l0.8-1.9h5v1.9v8H91.9z M102.4,392.9v-11.6c0-0.4-0.1-0.8-0.4-1c-0.2-0.2-0.6-0.3-1.1-0.3
			h-8.8v-3.9h10.5c1.1,0,2,0.2,2.9,0.6s1.5,1,2,1.8c0.5,0.8,0.7,1.9,0.7,3.2v11.3H102.4z"/>
		<path class="st29" d="M112.6,393.2L111,380l5.5-2.3l1.2,10.8c0.9-0.1,1.7-0.2,2.3-0.4c0.6-0.2,1-0.4,1.3-0.8
			c0.3-0.3,0.5-0.7,0.6-1.1c0.1-0.4,0.2-0.9,0.2-1.5c0-0.5,0-1.1,0-1.7v-1c0-0.5-0.1-0.9-0.2-1.2c-0.2-0.3-0.4-0.5-0.6-0.7
			c-0.3-0.2-0.6-0.2-0.9-0.2H111l-0.5-3.9h10.4c2.2,0,4,0.5,5.2,1.6s1.8,2.6,1.9,4.5l0,1c0.1,1.8-0.2,3.3-0.9,4.6
			c-0.7,1.2-1.6,2.2-3,3c-1.3,0.8-2.9,1.4-4.8,1.7C117.3,393,115.1,393.2,112.6,393.2z"/>
		<path class="st29" d="M131,386.9v-2.7v-4.6l-0.4-3.4h5.8l0.4,3.4v4.6l0,1.8L131,386.9z"/>
		<path class="st29" d="M139.2,392.9v-3.9h4.2v-7.7c0-0.6-0.1-1-0.4-1.2c-0.2-0.2-0.6-0.3-1-0.3l-2.3-0.3l0.7-3.8l4.7,0.5
			c1.3,0.1,2.3,0.7,3,1.6c0.7,0.9,1,2,1,3.4v11.7H139.2z"/>
		<path class="st29" d="M151.2,392.9v-3.9h5.6c0.7,0,1.3-0.2,1.7-0.5c0.4-0.3,0.7-0.7,0.8-1.2c0.2-0.5,0.2-1,0.2-1.6v-2.3
			c0-0.6-0.1-1.1-0.2-1.6c-0.2-0.5-0.4-0.9-0.8-1.2s-1-0.5-1.7-0.5h-5.6v-3.9h7.2c1.6,0,2.9,0.3,3.9,1s1.8,1.5,2.3,2.7
			c0.5,1.1,0.7,2.4,0.7,3.9v1.8c0,1.5-0.2,2.7-0.7,3.9c-0.5,1.1-1.3,2-2.3,2.7s-2.3,1-3.9,1H151.2z"/>
	</g>
</g>
<g>
	<g>
		<path class="st29" d="M90.7,519v-8l0.8-1.9h5v1.9v8H90.7z M101.2,519v-11.6c0-0.4-0.1-0.8-0.4-1c-0.2-0.2-0.6-0.3-1.1-0.3H91v-3.9
			h10.5c1.1,0,2,0.2,2.9,0.6c0.8,0.4,1.5,1,2,1.8c0.5,0.8,0.7,1.9,0.7,3.2V519H101.2z"/>
		<path class="st29" d="M128,519h-6.1l-5.3-7.6l-2.5,7.6h-5.5l3.6-9.9l1-2.4l-3-4.5h5.8l2.4,3.6l1.9,2.7l0.9-2.8l0.9-3.5h5.5
			l-4,10.8L128,519z"/>
		<path class="st29" d="M130.5,513v-2.7v-4.6l-0.4-3.4h5.8l0.4,3.4v4.6l0,1.8L130.5,513z"/>
		<path class="st29" d="M138.5,519v-3.9h13.1l1.7,3.9H138.5z M148.8,519l-10.1-16.8h5.8l10.1,16.8H148.8z M150.5,512.7l-3.3-4.4
			l2.6-6h5.7L150.5,512.7z"/>
		<path class="st29" d="M157.9,513v-2.7v-4.6l-0.4-3.4h5.8l0.4,3.4v4.6l0,1.8L157.9,513z"/>
	</g>
</g>
<path class="st34" d="M322.5,615.7h17.8c27.9,0,50.5-22.6,50.5-50.5V330.9c0-27.9-22.6-50.5-50.5-50.5h-17.8
	c-27.9,0-50.5,22.6-50.5,50.5v234.3C272,593.1,294.6,615.7,322.5,615.7z"/>
<path class="st32" d="M254.3,398.9H270c8.7,0,15.7-7,15.7-15.7v0c0-8.7-7-15.7-15.7-15.7h-15.7V398.9z"/>
<path class="st32" d="M254.3,523.5H270c8.7,0,15.7-7,15.7-15.7v0c0-8.7-7-15.7-15.7-15.7h-15.7V523.5z"/>
<g>
	<g>
		<g>
			<polygon class="st35" points="188.5,383.2 176.9,371.6 190.1,371.6 215.4,371.6 219.1,371.6 219.1,363.6 238.7,383.2 
				219.1,402.8 219.1,394.9 215.4,394.9 190.1,394.9 176.9,394.9 			"/>
		</g>
	</g>
</g>
<g>
	<g>
		<g>
			<polygon class="st35" points="227.1,507.9 238.7,519.5 225.5,519.5 200.2,519.5 196.5,519.5 196.5,527.5 176.9,507.9 
				196.5,488.3 196.5,496.2 200.2,496.2 225.5,496.2 238.7,496.2 			"/>
		</g>
	</g>
</g>
<g>
	<g>
		<g id="z1YTSY_00000003816267718729467450000013430151960975520929_">
			<g>
				<path class="st16" d="M113.8,463.5c0.2-1,0.3-2,0.7-2.8c0.7-1.7,2.1-2.4,3.9-2.5c2.5-0.1,5.1,0,7.6,0c3.7,0,7.5,0,11.2-0.1
					c1.4,0,2.8,0.1,4,1c1.1,0.8,1.6,1.9,1.7,3.3c0,1.1,0,1.1,1.2,1.1c1.3,0,2.6,0,3.9,0c0.4,0,0.5-0.2,0.5-0.5c0-1.5,0-2.9,0-4.4
					c0-0.4,0.1-0.6,0.6-0.6c2.8,0,5.5,0,8.3,0c1.5,0,1.2-0.1,1.3,1.3c0.1,1.1,0,2.3,0,3.4c0,0.6,0.2,0.8,0.8,0.8c2.1,0,4.2,0,6.3,0
					c0.8,0,0.8,0,0.8,0.8c0,3.6,0,7.2,0,10.8c0,1.1,0,1.1-1.1,1.1c-2,0-4.1,0-6.1,0c-0.5,0-0.6,0.1-0.6,0.6c0,1.4,0,2.7,0,4.1
					c0,0.5-0.1,0.7-0.7,0.7c-2.3,0-4.6,0-6.9,0c-0.5,0-1.1,0-1.6,0c-1.2,0-1,0.1-1-1c0-1.2,0-2.4,0-3.6c0-0.2,0-0.5-0.1-0.8
					c-1.7,0-3.2,0-4.8,0c-0.5,0-0.7,0.2-0.7,0.7c0,0.9-0.1,1.8-0.6,2.6c-0.9,1.4-2.3,2.2-3.9,2.2c-6.6,0-13.2,0-19.8,0
					c-2.7,0-4.6-2.1-4.4-4.8c0-0.4-0.1-0.6-0.5-0.6c-1.6,0-3.2,0-4.7,0c-0.4,0-0.4,0.3-0.4,0.5c0,1.4,0,2.8,0,4.2
					c0,0.5-0.2,0.6-0.6,0.6c-3,0-5.9,0-8.9,0c-0.4,0-0.6-0.1-0.6-0.6c0-1.3,0-2.6,0-4c0-0.8-0.1-0.8-0.8-0.8c-1.9,0-3.8,0-5.7,0
					c-0.1,0-0.1,0-0.2,0c-1.1,0-1.2-0.1-1.2-1.2c0-3.6,0-7.1,0-10.7c0-0.8,0-0.9,0.9-0.9c2.1,0,4.2,0,6.4,0c0.6,0,0.7-0.2,0.7-0.7
					c0-1.4,0-2.8-0.1-4.3c0-0.3,0.1-0.5,0.5-0.5c3,0,6,0.1,9,0.1c0.5,0,0.7,0.1,0.7,0.7c0,1.3,0,2.7,0,4c0,0.5,0.1,0.7,0.7,0.7
					c1.4,0,2.7,0,4.1,0C113.5,463.5,113.7,463.5,113.8,463.5z"/>
				<path class="st16" d="M117.1,456.5c0-1.5,0-2.9,0-4.3c0-1,0-2,0-3c0-0.4-0.1-0.7-0.6-0.8c-2-0.4-3.7-2.3-3.7-4.9c0-7,0-14,0-21
					c0-1.3,0-2.5,0-3.8c0-2.8,1.9-4.7,4.7-4.7c7,0,14.1,0,21.1,0c3,0,4.9,2,4.8,5c0,0.8-0.1,1.6-0.1,2.5c0.2-0.1,0.6,19.8,0,19.7
					c0,0,0,0.2,0,0.3c0,1.2,0.1,2.4-0.1,3.5c-0.4,1.9-1.6,3-3.5,3.5c-0.5,0.1-0.6,0.3-0.6,0.8c0,2.2,0,4.5,0,6.7
					c0,0.5-0.1,0.7-0.6,0.7c-1.7,0-1.7,0-1.7-1.7c0-1.8,0-3.7,0-5.5c0-0.6-0.2-0.8-0.8-0.8c-0.7,0-1.5,0-2.2,0c-4.4,0-8.8,0-13.2,0
					c-1.2,0-1.2,0-1.2,1.2c0,2.1,0,4.1,0,6.2c0,0.5-0.2,0.7-0.7,0.6C118.3,456.5,117.8,456.5,117.1,456.5z M147.4,423.4
					c-1.1-0.1-2.4-0.4-3.2,0.8c-0.1,0.1-0.2,0.3-0.3,0.3c-0.4,0.3-0.5,0.6-0.5,1.1c0,3.7,0,7.5,0,11.2c0,0.6,1.5,2.2,2.1,2.3
					c0.1,0,0.1,0,0.2,0c0.6,0,1.1,0,1.7-0.1C147.7,439.1,147.5,423.4,147.4,423.4z M119.5,439.9 M119.5,416.9 M124.4,439.9
					 M124.4,416.9 M129.2,439.9 M129.2,416.9 M131.9,439.9 M131.9,416.9"/>
				<path class="st16" d="M135.1,456.5c-0.7,0-1.3,0-1.9,0c-0.3,0-0.5-0.2-0.5-0.5c0-1,0-1.9,0-2.9c0-0.4-0.1-0.5-0.5-0.5
					c-2.8,0-5.5,0-8.3,0c-0.4,0-0.5,0.2-0.5,0.5c0,0.9,0,1.9,0,2.8c0,0.2,0,0.4,0,0.6c-0.7,0-1.3,0-1.9,0c-0.1,0-0.3-0.4-0.3-0.6
					c0-1.3,0-2.6,0-4c0-0.5,0.2-1,0.3-1.5c0-0.1,0.2-0.3,0.4-0.3c0.4,0,0.8,0,1.2,0c3.6,0,7.1,0,10.7,0c1.4,0,1.4,0,1.5,1.4
					c0,1.5,0,3.1,0,4.6C135.2,456.2,135.1,456.4,135.1,456.5z"/>
				<line class="st16" x1="102.9" y1="458.1" x2="102.9" y2="481.7"/>
				<line class="st16" x1="153.7" y1="458" x2="153.7" y2="481.7"/>
			</g>
			<line class="st16" x1="113.6" y1="476.3" x2="143.5" y2="476.3"/>
			<line class="st16" x1="113.8" y1="463.5" x2="143.2" y2="463.5"/>
		</g>
		<line class="st16" x1="113" y1="417" x2="143.4" y2="417.2"/>
		<line class="st16" x1="113" y1="444.9" x2="143.5" y2="444.9"/>
		<polyline class="st16" points="143.3,421.4 143.4,425.7 143.3,437.4 143.3,441.4 		"/>
		<line class="st16" x1="121.9" y1="417.2" x2="121.9" y2="444.9"/>
		<line class="st16" x1="128.1" y1="417.2" x2="128.1" y2="444.9"/>
		<line class="st16" x1="134.3" y1="417.2" x2="134.3" y2="444.9"/>
		<line class="st16" x1="140.5" y1="417.2" x2="140.5" y2="444.9"/>
		<line class="st16" x1="115.8" y1="417.2" x2="115.8" y2="444.9"/>
	</g>
	<rect x="127.2" y="454" class="st16" width="2" height="2.5"/>
</g>
<g>
	<path d="M194.6,444v5.1c0,0.1-0.3,1.3-0.4,1.9h-10.4v-7.5c0-1,0.1-1.6,0.2-2c-0.6,0-1.4,0-1.7-0.1l0.4-1.9c0.6,0.1,1.9,0.1,3.2,0.1
		h4.7C194,439.5,194.6,440.4,194.6,444z M190.5,441.4h-4.9v7.6h7.3v-4.5C192.9,442.4,192.6,441.4,190.5,441.4z"/>
	<path d="M197.9,446c0.9-1.3,1.5-2.4,1.5-3.2c0-0.7-0.4-0.9-1.5-1.2c-0.6-0.1-1-0.3-1.4-0.4l0.4-1.8c0.3,0.1,0.8,0.2,1.4,0.4
		c2.2,0.4,3,1.1,3,2.6c0,1.3-0.7,2.8-1.8,4.3L197.9,446z"/>
	<path d="M209.6,444.4c0-2.1-0.3-3-2.4-3h-2.3c-1.4,0-2.2,0-2.6-0.1l0.4-1.9c0.5,0.1,1.6,0.1,3.2,0.1h1.4c3.4,0,4,0.7,4,4.3v7.1
		h-1.8V444.4z"/>
	<path d="M218.2,448.9c2.8-0.7,5.1-2.4,5.1-5.6c0-1.3-0.5-1.8-2.3-1.8h-3.2c-1.6,0-3,0-3.4-0.1l0.4-1.8c0.6,0.1,1.9,0.1,3.4,0.1h3.2
		c3,0,3.6,0.9,3.6,3.3c0,4.5-3.3,7.4-7.2,8.3L218.2,448.9z M214.8,444.6h1.8V455h-1.8V444.6z"/>
	<path d="M243.9,444v5.1c0,0.1-0.3,1.3-0.4,1.9h-10.4v-7.5c0-1,0.1-1.6,0.2-2c-0.6,0-1.4,0-1.7-0.1l0.4-1.9c0.6,0.1,1.9,0.1,3.2,0.1
		h4.7C243.3,439.5,243.9,440.4,243.9,444z M239.8,441.4h-4.9v7.6h7.3v-4.5C242.2,442.4,241.9,441.4,239.8,441.4z"/>
	<path d="M247.2,446c0.9-1.3,1.5-2.4,1.5-3.2c0-0.7-0.4-0.9-1.5-1.2c-0.6-0.1-1-0.3-1.4-0.4l0.4-1.8c0.3,0.1,0.8,0.2,1.4,0.4
		c2.2,0.4,3,1.1,3,2.6c0,1.3-0.7,2.8-1.8,4.3L247.2,446z"/>
	<path d="M254,444.5c0.3-2.1-0.6-2.9-2.1-3.2l0.4-2c1.8,0.3,3,1.3,3.2,3c0.5-1.3,1.9-2.9,4.5-2.9c3.6,0,4.5,3,4.5,7.1v2.7
		c0,0.2-0.3,1.6-0.3,1.9h-4.6c-0.9,0-2.1,0-2.6,0.1l0.4-1.9c0.5-0.1,1.6-0.1,2.8-0.1h2.4c0-0.9,0-1.7,0-2.6c0-2.6-0.4-5.2-3.1-5.2
		c-2.6,0-3.5,2.3-3.8,3.7c-0.4,1.4-0.9,3.9-1.3,6h-1.8C253.2,448.8,253.8,446.1,254,444.5z"/>
</g>
<g>
	<path d="M337.5,314.3v-11.8c0-0.5-0.4-0.9-0.9-0.9s-0.9,0.4-0.9,0.9v11.8c-2.2,0.4-3.9,2.4-3.9,4.7c0,2.6,2.1,4.8,4.8,4.8
		c2.6,0,4.8-2.1,4.8-4.8C341.3,316.7,339.7,314.7,337.5,314.3z M336.5,322c-1.6,0-3-1.3-3-3c0-1.6,1.3-3,3-3s3,1.3,3,3
		C339.5,320.6,338.2,322,336.5,322z"/>
	<path d="M341.3,311.4v-19.3c0-2.6-2.1-4.8-4.8-4.8c-2.6,0-4.8,2.1-4.8,4.8v19.3c-2.7,1.7-4.3,4.7-4.2,8c0.2,4.6,3.9,8.3,8.5,8.5
		c0.1,0,0.3,0,0.4,0c2.3,0,4.5-0.9,6.2-2.5c1.8-1.7,2.8-4,2.8-6.5C345.5,315.9,343.9,313.1,341.3,311.4z M341.5,324.2
		c-1.4,1.4-3.3,2.1-5.3,2c-3.6-0.2-6.6-3.2-6.8-6.8c-0.1-2.7,1.3-5.3,3.7-6.6c0.3-0.2,0.5-0.5,0.5-0.8v-19.8c0-1.6,1.3-3,3-3
		s3,1.3,3,3v19.8c0,0.3,0.2,0.6,0.5,0.8c2.3,1.3,3.7,3.7,3.7,6.3C343.7,321,342.9,322.8,341.5,324.2z"/>
	<path d="M344.1,294.4h2.2c0.5,0,0.9-0.4,0.9-0.9s-0.4-0.9-0.9-0.9h-2.2c-0.5,0-0.9,0.4-0.9,0.9S343.6,294.4,344.1,294.4z"/>
	<path d="M344.1,298.9h4c0.5,0,0.9-0.4,0.9-0.9s-0.4-0.9-0.9-0.9h-4c-0.5,0-0.9,0.4-0.9,0.9S343.6,298.9,344.1,298.9z"/>
	<path d="M344.1,303.4h2.2c0.5,0,0.9-0.4,0.9-0.9c0-0.5-0.4-0.9-0.9-0.9h-2.2c-0.5,0-0.9,0.4-0.9,0.9
		C343.2,303,343.6,303.4,344.1,303.4z"/>
	<path d="M348.1,306.1h-4c-0.5,0-0.9,0.4-0.9,0.9s0.4,0.9,0.9,0.9h4c0.5,0,0.9-0.4,0.9-0.9S348.6,306.1,348.1,306.1z"/>
	<path d="M324.3,301.5l2.9,2.9c0.2,0.2,0.4,0.3,0.6,0.3c0.2,0,0.5-0.1,0.6-0.3c0.4-0.4,0.4-0.9,0-1.3l-1.6-1.6h2
		c0.5,0,0.9-0.4,0.9-0.9c0-0.5-0.4-0.9-0.9-0.9h-2l1.6-1.6c0.4-0.4,0.4-0.9,0-1.3s-0.9-0.4-1.3,0l-2.9,2.9h-1.6V298l2.9-2.9
		c0.4-0.4,0.4-0.9,0-1.3c-0.4-0.4-0.9-0.4-1.3,0l-1.6,1.6v-2c0-0.5-0.4-0.9-0.9-0.9s-0.9,0.4-0.9,0.9v2l-1.6-1.6
		c-0.4-0.4-0.9-0.4-1.3,0c-0.4,0.4-0.4,0.9,0,1.3l2.9,2.9v1.6h-1.6l-2.9-2.9c-0.4-0.4-0.9-0.4-1.3,0s-0.4,0.9,0,1.3l1.6,1.6h-2
		c-0.5,0-0.9,0.4-0.9,0.9c0,0.5,0.4,0.9,0.9,0.9h2l-1.6,1.6c-0.4,0.4-0.4,0.9,0,1.3c0.2,0.2,0.4,0.3,0.6,0.3c0.2,0,0.5-0.1,0.6-0.3
		l2.9-2.9h1.6v1.6L318,306c-0.4,0.4-0.4,0.9,0,1.3c0.4,0.4,0.9,0.4,1.3,0l1.6-1.6v2c0,0.5,0.4,0.9,0.9,0.9s0.9-0.4,0.9-0.9v-2
		l1.6,1.6c0.2,0.2,0.4,0.3,0.6,0.3c0.2,0,0.5-0.1,0.6-0.3c0.4-0.4,0.4-0.9,0-1.3l-2.9-2.9v-1.6H324.3z"/>
</g>
<g>
	<polygon class="st20" points="593.7,565.6 570.9,552.5 570.9,578.8 	"/>
	<polygon class="st20" points="594.5,565.6 617.3,552.5 617.3,578.8 	"/>
</g>
<g>
	<g>
		<path d="M1104.1,692.7h5.9v1.9h-5.9V692.7z"/>
		<path d="M1114.6,697.5c0-1.8-0.2-2.5-2-2.9c-0.8-0.2-1.2-0.3-1.6-0.4l0.4-1.8c0.3,0.1,0.8,0.2,1.6,0.3c2.6,0.5,3.4,1.3,3.4,4.5
			v6.9h-1.8V697.5z"/>
		<path d="M1118.8,692.7l2.2-0.2c0.6,2.5,1.2,5.9,1.8,9.7c0.4,0,1-0.1,1.9-0.2c2.6-0.4,4-2.1,4-4.5c0-2-1.1-3.1-2.9-3.2
			c-0.9,0-1.5,0.2-2.1,0.4l0.4-2c0.7-0.3,1.3-0.3,2.1-0.3c2.9,0,4.3,2.1,4.3,4.7c0,4.5-3.3,6.1-5.8,6.6c-1.3,0.3-2.7,0.4-3.4,0.4
			C1120.6,700.5,1119.8,696.1,1118.8,692.7z"/>
		<path d="M1139,697.6c0-2.1-0.3-3-2.4-3h-2.3c-1.4,0-2.2,0-2.6-0.1l0.4-1.9c0.5,0.1,1.6,0.1,3.2,0.1h1.4c3.4,0,4,0.7,4,4.3v7.1
			h-1.8V697.6z"/>
		<path d="M1143.7,702.3c0.6-0.1,2.1-0.1,3.5-0.1h5v-3.8c0-2.3-0.8-3.2-3.7-3.6c-1-0.2-2-0.3-2.6-0.4c-0.4,0.7-0.6,1.2-0.6,1.7
			c0,0.8,0.6,1.3,2.2,1.5l-0.5,1.8c-2.6-0.3-3.4-1.4-3.4-2.9c0-1.3,1-2.9,1.5-4.1c0.4,0.1,1.6,0.3,3.6,0.5c3.5,0.4,5.2,1.4,5.2,5.1
			v4.3c0,0.2-0.2,1.5-0.3,1.8h-7.2c-1.2,0-2.6,0-3.1,0.1L1143.7,702.3z"/>
		<path d="M1158.2,697.6c0.3-2.1-0.6-2.9-2.1-3.2l0.4-2c1.8,0.3,3,1.3,3.2,3c0.5-1.3,1.9-2.9,4.5-2.9c3.6,0,4.5,3,4.5,7.1v2.7
			c0,0.2-0.3,1.6-0.3,1.9h-4.6c-0.9,0-2.1,0-2.6,0.1l0.4-1.9c0.5-0.1,1.6-0.1,2.8-0.1h2.4c0-0.9,0-1.7,0-2.6c0-2.6-0.4-5.2-3.1-5.2
			c-2.6,0-3.5,2.3-3.8,3.7c-0.4,1.4-0.9,3.9-1.3,6h-1.8C1157.4,701.9,1157.9,699.2,1158.2,697.6z"/>
		<path d="M1170.9,692.7l2.2-0.2c0.6,2.5,1.2,5.9,1.8,9.7c0.4,0,1-0.1,1.9-0.2c2.6-0.4,4-2.1,4-4.5c0-2-1.1-3.1-2.9-3.2
			c-0.9,0-1.5,0.2-2.1,0.4l0.4-2c0.7-0.3,1.3-0.3,2.1-0.3c2.9,0,4.3,2.1,4.3,4.7c0,4.5-3.3,6.1-5.8,6.6c-1.3,0.3-2.7,0.4-3.4,0.4
			C1172.7,700.5,1171.9,696.1,1170.9,692.7z"/>
		<path d="M1188.8,694.4l0.4-1.9c0.5,0.1,1.6,0.1,3.2,0.1h6.8l-0.4,1.9h-0.9c-0.7,0-0.9,0.4-0.9,2c0,2.5,0.1,5.5,0.2,7.6h-1.8
			c0-1.4-0.2-4.9-0.2-7.2c0-1.4,0.2-1.9,0.5-2.3h-4.3C1190,694.6,1189.1,694.5,1188.8,694.4z"/>
		<path d="M1202.5,697.6c0.3-2.1-0.6-2.9-2.1-3.2l0.4-2c1.8,0.3,3,1.3,3.2,3c0.5-1.3,1.9-2.9,4.5-2.9c3.6,0,4.5,3,4.5,7.1v2.7
			c0,0.2-0.3,1.6-0.3,1.9h-4.6c-0.9,0-2.1,0-2.6,0.1l0.4-1.9c0.5-0.1,1.6-0.1,2.8-0.1h2.4c0-0.9,0-1.7,0-2.6c0-2.6-0.4-5.2-3.1-5.2
			c-2.6,0-3.5,2.3-3.8,3.7c-0.4,1.4-0.9,3.9-1.3,6h-1.8C1201.6,701.9,1202.2,699.2,1202.5,697.6z"/>
	</g>
	<g>
		<g>
			<path class="st16" d="M1166.2,633h-19.7c-2.1,0-3.8,1.7-3.8,3.8v39.1c0,2.1,1.7,3.8,3.8,3.8h19.7c2.1,0,3.8-1.7,3.8-3.8v-39.1
				C1170,634.7,1168.3,633,1166.2,633z M1167.9,675.9c0,0.9-0.8,1.7-1.7,1.7h-19.7c-0.9,0-1.7-0.8-1.7-1.7v-39.1
				c0-0.9,0.8-1.7,1.7-1.7h19.7c0.9,0,1.7,0.8,1.7,1.7V675.9z"/>
			<g>
				<path d="M1148.4,665.8h2.8c0.6,0,1-0.5,1-1c0-0.6-0.5-1-1-1h-2.8c-0.6,0-1,0.5-1,1C1147.3,665.3,1147.8,665.8,1148.4,665.8z"/>
				<path d="M1154.9,665.8h2.8c0.6,0,1-0.5,1-1c0-0.6-0.5-1-1-1h-2.8c-0.6,0-1,0.5-1,1C1153.9,665.3,1154.3,665.8,1154.9,665.8z"/>
				<path d="M1164.3,663.7h-2.8c-0.6,0-1,0.5-1,1c0,0.6,0.5,1,1,1h2.8c0.6,0,1-0.5,1-1C1165.3,664.2,1164.8,663.7,1164.3,663.7z"/>
			</g>
			<g>
				<path d="M1154.9,670.4h2.8c0.6,0,1-0.5,1-1c0-0.6-0.5-1-1-1h-2.8c-0.6,0-1,0.5-1,1C1153.9,669.9,1154.3,670.4,1154.9,670.4z"/>
			</g>
			<g>
				<path class="st36" d="M1148.4,661.3h2.8c0.6,0,1-0.5,1-1s-0.5-1-1-1h-2.8c-0.6,0-1,0.5-1,1S1147.8,661.3,1148.4,661.3z"/>
				<path d="M1164.3,659.2h-2.8c-0.6,0-1,0.5-1,1s0.5,1,1,1h2.8c0.6,0,1-0.5,1-1S1164.8,659.2,1164.3,659.2z"/>
				<path class="st37" d="M1155,661.2h2.8c0.6,0,1-0.5,1-1c0-0.6-0.5-1-1-1h-2.8c-0.6,0-1,0.5-1,1
					C1153.9,660.8,1154.4,661.2,1155,661.2z"/>
			</g>
			<g>
				<path d="M1148.4,674.9h2.8c0.6,0,1-0.5,1-1c0-0.6-0.5-1-1-1h-2.8c-0.6,0-1,0.5-1,1C1147.3,674.5,1147.8,674.9,1148.4,674.9z"/>
				<path d="M1164.3,672.9h-2.8c-0.6,0-1,0.5-1,1c0,0.6,0.5,1,1,1h2.8c0.6,0,1-0.5,1-1C1165.3,673.3,1164.8,672.9,1164.3,672.9z"/>
				<path d="M1155,674.9h2.8c0.6,0,1-0.5,1-1s-0.5-1-1-1h-2.8c-0.6,0-1,0.5-1,1S1154.4,674.9,1155,674.9z"/>
			</g>
			<path class="st16" d="M1158.8,650.9h-5.1c-3.6,0-6.5-2.9-6.5-6.5v-0.7c0-3.6,2.9-6.5,6.5-6.5h5.1c3.6,0,6.5,2.9,6.5,6.5v0.7
				C1165.3,648,1162.4,650.9,1158.8,650.9z"/>
			<g>
				<path d="M1152.4,645.4c-0.2,0-0.4,0-0.6-0.1s-0.3-0.1-0.4-0.2c-0.1-0.1-0.2-0.2-0.4-0.2l0.4-0.6c0.1,0.1,0.2,0.2,0.4,0.2
					c0.1,0.1,0.3,0.1,0.4,0.1c0.1,0,0.2,0,0.3,0c0.1,0,0.1-0.1,0.2-0.1c0-0.1,0.1-0.1,0.1-0.2c0-0.1,0-0.3-0.1-0.3s-0.2-0.1-0.4-0.1
					c-0.1,0-0.2,0-0.2,0c-0.1,0-0.2,0.1-0.3,0.1l-0.4-0.3l0.1-1.7h2.2v0.8h-1.3l0,0.5c0.1,0,0.1,0,0.2,0c0.1,0,0.1,0,0.2,0
					c0.2,0,0.4,0,0.6,0.1s0.3,0.2,0.4,0.3c0.1,0.2,0.2,0.4,0.2,0.6c0,0.3-0.1,0.5-0.2,0.6c-0.1,0.2-0.3,0.3-0.5,0.4
					C1152.9,645.3,1152.7,645.4,1152.4,645.4z"/>
				<path d="M1154.3,645.3v-0.5c0.3-0.2,0.6-0.5,0.8-0.7c0.2-0.2,0.4-0.4,0.6-0.6c0.1-0.2,0.2-0.3,0.2-0.5c0-0.2,0-0.3-0.1-0.3
					c-0.1-0.1-0.2-0.1-0.3-0.1c-0.1,0-0.2,0-0.3,0.1c-0.1,0.1-0.2,0.1-0.3,0.2l-0.5-0.5c0.2-0.2,0.4-0.3,0.6-0.4s0.4-0.1,0.7-0.1
					c0.3,0,0.5,0,0.7,0.1c0.2,0.1,0.3,0.2,0.5,0.4c0.1,0.2,0.2,0.4,0.2,0.6c0,0.2-0.1,0.4-0.2,0.6c-0.1,0.2-0.2,0.4-0.4,0.6
					c-0.2,0.2-0.3,0.3-0.5,0.5c0.1,0,0.2,0,0.3,0c0.1,0,0.2,0,0.3,0h0.6v0.8H1154.3z"/>
				<path d="M1158.3,645.4c-0.2,0-0.3-0.1-0.4-0.2c-0.1-0.1-0.2-0.2-0.2-0.4c0-0.2,0.1-0.3,0.2-0.4c0.1-0.1,0.3-0.2,0.4-0.2
					c0.2,0,0.3,0.1,0.4,0.2c0.1,0.1,0.2,0.2,0.2,0.4c0,0.2-0.1,0.3-0.2,0.4C1158.6,645.3,1158.4,645.4,1158.3,645.4z"/>
				<path d="M1160.8,645.4c-0.4,0-0.7-0.2-1-0.5c-0.3-0.3-0.4-0.7-0.4-1.3s0.1-1,0.4-1.3c0.3-0.3,0.6-0.4,1-0.4s0.7,0.1,1,0.4
					c0.3,0.3,0.4,0.7,0.4,1.3c0,0.6-0.1,1-0.4,1.3C1161.5,645.2,1161.2,645.4,1160.8,645.4z M1160.8,644.7c0.1,0,0.2,0,0.2-0.1
					c0.1-0.1,0.1-0.2,0.2-0.3c0-0.2,0.1-0.4,0.1-0.7s0-0.5-0.1-0.7c0-0.1-0.1-0.2-0.2-0.3c-0.1,0-0.1-0.1-0.2-0.1
					c-0.1,0-0.2,0-0.2,0.1c-0.1,0-0.1,0.1-0.2,0.3c0,0.1-0.1,0.4-0.1,0.7s0,0.5,0.1,0.7c0,0.2,0.1,0.3,0.2,0.3
					C1160.6,644.6,1160.7,644.7,1160.8,644.7z"/>
			</g>
			<g>
				<rect x="1152.4" y="629.2" class="st30" width="2.7" height="3.4"/>
				<rect x="1157.5" y="629.2" class="st29" width="2.7" height="3.4"/>
			</g>
		</g>
		<path class="st38" d="M1158.8,629.2c15.4-32.7-300.5-98.9-337.9-105.8C672.8,495.9,528.9,265,468.8,321"/>
		<path class="st39" d="M1155.1,629.2c-48.3-30.1-65.3-103.4-135.9-76.8"/>
	</g>
</g>
<ellipse class="st30" cx="1018.7" cy="557.7" rx="14.4" ry="5.4"/>
<g>
	<path d="M875.9,595l1.1-0.1c0.1,0.3,0.2,1.2,0.6,3.4c1.2-0.3,1.4-0.8,1.4-1.6c0-0.5-0.1-1.2-0.3-1.7l1.1-0.1
		c0.1,0.4,0.2,1.1,0.3,1.6c0,1.1-0.3,2.2-2.4,2.5c0,0.1,0.2,1,0.2,1.4c0.3,0,0.7-0.1,1.3-0.2c1.5-0.3,2.4-1,2.4-3
		c0-0.8-0.2-1.7-0.4-2.3l1.2-0.1c0.1,0.4,0.3,1.2,0.3,2.1c0,2.9-1.7,3.9-3.6,4.3c-0.8,0.1-1.5,0.2-1.9,0.3
		C876.9,600,876.2,596,875.9,595z"/>
	<path d="M885.3,597.7c0-1-0.1-1.4-1.1-1.6c-0.4-0.1-0.6-0.2-0.8-0.2l0.2-1.1c0.2,0.1,0.4,0.1,0.8,0.2c1.3,0.3,1.8,0.7,1.8,2.6v3.9
		h-0.9V597.7z"/>
	<path d="M887.5,600.5c0.4-0.1,1.2-0.1,1.9-0.1h1.8c0-0.8,0-2,0-2.6c0-1.3-0.2-1.8-1.3-1.8h-1c-0.7,0-1.2,0-1.3-0.1l0.2-1.1
		c0.2,0,0.8,0,1.5,0h0.9c1.7,0,1.9,0.8,1.9,2.4v2c0,0.3,0,0.8,0,1h0.9l-0.2,1.1h-3.9c-0.5,0-1.3,0-1.5,0L887.5,600.5z"/>
	<path d="M894,598.6c0.5-0.8,0.8-1.4,0.8-1.8c0-0.4-0.2-0.5-0.8-0.7c-0.3-0.1-0.5-0.2-0.7-0.2l0.2-1.1c0.2,0.1,0.4,0.1,0.7,0.2
		c1.1,0.3,1.5,0.6,1.5,1.5c0,0.8-0.4,1.6-0.9,2.5L894,598.6z"/>
	<path d="M897.1,598.6c0.5-0.8,0.8-1.4,0.8-1.8c0-0.4-0.2-0.5-0.8-0.7c-0.3-0.1-0.5-0.2-0.7-0.2l0.2-1.1c0.2,0.1,0.4,0.1,0.7,0.2
		c1.1,0.3,1.5,0.6,1.5,1.5c0,0.8-0.4,1.6-0.9,2.5L897.1,598.6z"/>
	<path d="M903.8,597.8c0-1-0.1-1.4-1.1-1.6c-0.4-0.1-0.6-0.2-0.8-0.3l0.2-1c0.2,0.1,0.4,0.1,0.9,0.2c1.3,0.3,1.7,0.7,1.7,2.5v6.3
		h-0.9V597.8z"/>
	<path d="M906.1,600.5c0.4-0.1,1.2-0.1,1.9-0.1h1.8c0-0.8,0-2,0-2.6c0-1.3-0.2-1.8-1.3-1.8h-1c-0.7,0-1.2,0-1.3-0.1l0.2-1.1
		c0.2,0,0.8,0,1.5,0h0.9c1.7,0,1.9,0.8,1.9,2.4v2c0,0.3,0,0.8,0,1h0.9l-0.2,1.1h-3.9c-0.5,0-1.3,0-1.5,0L906.1,600.5z"/>
	<path d="M912.5,599.9c0-1.2,0.3-2.3,1.1-3.2c-0.5-0.6-1.1-1.2-1.6-1.7l0-0.1l1.3-0.1c0.6,0.6,1.5,1.6,2.8,3.2
		c0.5-0.3,0.8-0.8,0.8-1.6c0-0.5-0.1-1-0.4-1.5l1.2-0.1c0.2,0.5,0.2,0.9,0.2,1.4c0,1-0.5,1.9-1.4,2.4c0.6,0.8,1.7,2.2,2,2.8h-1.3
		c-0.4-0.6-1.4-2.1-3.2-4.1c-0.5,0.6-0.6,1.5-0.6,2.3c0,0.7,0.2,1.4,0.3,1.9h-1.2C912.6,601,912.5,600.4,912.5,599.9z"/>
</g>
<g>
	<path d="M805.6,600.5c0.2,0,0.3-0.1,1-0.1h0.2c0-1.2-0.1-3.6-0.2-4.3h0c-0.2,0-0.7,0-0.9-0.1l0.2-1.1c0.4,0.1,1.2,0,1.9,0h2
		c1.8,0,2.1,0.4,2.1,2.5v4.1h-0.9v-3.7c0-1.2-0.1-1.7-1.2-1.7h-2.1c0.1,0.8,0.2,3.5,0.2,4.4l-0.2,1.1h-0.9c-0.5,0-0.9,0-1.2,0
		L805.6,600.5z"/>
	<path d="M813.5,598.6c0.5-0.8,0.8-1.4,0.8-1.8c0-0.4-0.2-0.5-0.8-0.7c-0.3-0.1-0.5-0.2-0.7-0.2l0.2-1.1c0.2,0.1,0.4,0.1,0.7,0.2
		c1.1,0.3,1.5,0.6,1.5,1.5c0,0.8-0.4,1.6-0.9,2.5L813.5,598.6z"/>
	<path d="M816.2,600.4c0.3,0,0.7,0,1.5,0h0.8v-2.7c0-1-0.1-1.3-1.2-1.6c-0.4-0.1-0.9-0.2-1-0.3l0.2-1.1c0.2,0.1,0.5,0.1,1,0.2
		c1.4,0.3,1.9,0.7,1.9,2.5v2.9l-0.2,1.1h-1.7c-0.5,0-1.3,0-1.6,0L816.2,600.4z"/>
	<path d="M821.2,598.6c0.5-0.8,0.8-1.4,0.8-1.8c0-0.4-0.2-0.5-0.8-0.7c-0.3-0.1-0.5-0.2-0.7-0.2l0.2-1.1c0.2,0.1,0.4,0.1,0.7,0.2
		c1.1,0.3,1.5,0.6,1.5,1.5c0,0.8-0.4,1.6-0.9,2.5L821.2,598.6z"/>
	<path d="M826.3,600.4c-0.4-1.3-1.6-4.1-2.5-5.4l1.3-0.1c0.7,1.2,1.7,3.6,2.1,5.2c0.9-0.4,1.4-1.2,1.4-2.6c0-0.7-0.2-1.7-0.5-2.5
		l1.2-0.1c0.1,0.4,0.3,1.3,0.3,2.3c0,1.8-0.4,3.1-2.4,4c-0.9,0.4-2.3,0.7-3.4,0.8l0.2-1.2C824.6,600.8,825.7,600.6,826.3,600.4z"/>
</g>
<g>
	<path d="M674.3,598.6c0.5-0.8,0.8-1.4,0.8-1.8c0-0.4-0.2-0.5-0.8-0.7c-0.3-0.1-0.5-0.2-0.7-0.2l0.2-1.1c0.2,0.1,0.4,0.1,0.7,0.2
		c1.1,0.3,1.5,0.6,1.5,1.5c0,0.8-0.4,1.6-0.9,2.5L674.3,598.6z"/>
	<path d="M677.7,600.4c1.6-0.5,2.8-1.7,2.8-3.4c0-0.8-0.3-0.9-0.9-0.9h-2.9v-1.7c0-0.7,0-1.6-0.2-1.9l1-0.2c0.1,0.2,0.1,1,0.1,1.9
		v0.9h2.3c1.2,0,1.5,0.6,1.5,1.7c0,2.7-2.1,4.5-4,5L677.7,600.4z"/>
	<path d="M683.5,597.8c0.2-1.2-0.3-1.7-1.1-1.8l0.2-1.1c1,0.2,1.5,0.8,1.6,1.7c0.3-0.7,1-1.7,2.3-1.7c1.9,0,2.3,1.7,2.3,4v1.5
		c0,0.1-0.1,0.9-0.2,1.1h-2.4c-0.5,0-1.1,0-1.4,0l0.2-1.1c0.3,0,0.8,0,1.5,0h1.3c0-0.5,0-1,0-1.5c0-1.5-0.2-3-1.6-3
		c-1.3,0-1.8,1.3-2,2.1c-0.2,0.8-0.4,2.3-0.7,3.4h-0.9C683,600.3,683.3,598.7,683.5,597.8z"/>
	<path d="M690.1,595l1.1-0.1c0.1,0.3,0.2,1.2,0.6,3.4c1.2-0.3,1.4-0.8,1.4-1.6c0-0.5-0.1-1.2-0.3-1.7l1.1-0.1
		c0.1,0.4,0.2,1.1,0.3,1.6c0,1.1-0.3,2.2-2.4,2.5c0,0.1,0.2,1,0.2,1.4c0.3,0,0.7-0.1,1.3-0.2c1.5-0.3,2.4-1,2.4-3
		c0-0.8-0.2-1.7-0.4-2.3l1.2-0.1c0.1,0.4,0.3,1.2,0.3,2.1c0,2.9-1.7,3.9-3.6,4.3c-0.8,0.1-1.5,0.2-1.9,0.3
		C691.1,600,690.4,596,690.1,595z"/>
	<path d="M698.6,597.7c0-0.8,0-1.4,0.1-1.7c-0.2,0-0.8,0-0.9-0.1l0.2-1.1c0.3,0.1,0.9,0.1,1.7,0.1h2.2c1.8,0,2.1,0.5,2.1,2.5v4H703
		v-3.6c0-1.3-0.1-1.8-1.3-1.8h-2.2v5.4h-0.9V597.7z"/>
	<path d="M708.6,597.7c0-0.7,0.1-1.1,0.4-1.4c-0.5-0.1-1.2-0.2-1.5-0.3l0.2-1.1c0.5,0.2,2.6,0.5,3.4,0.6l-0.2,1.1
		c-0.3,0-0.7-0.1-0.9-0.1c-0.3,0-0.5,0.2-0.5,1c0,0.6,0.1,2.8,0.2,4.1h-0.9C708.6,599.5,708.5,598.2,708.6,597.7z"/>
	<path d="M715.3,597.8c0-1.2-0.1-1.7-1.3-1.7h-1.2c-0.7,0-1.2,0-1.3-0.1l0.2-1.1c0.2,0,0.9,0,1.7,0h0.7c1.8,0,2.1,0.4,2.1,2.5v4.1
		h-0.9V597.8z"/>
	<path d="M717.5,600.5c0.4-0.1,1.2-0.1,1.9-0.1h1.8c0-0.8,0-2,0-2.6c0-1.3-0.2-1.8-1.3-1.8h-1c-0.7,0-1.2,0-1.3-0.1l0.2-1.1
		c0.2,0,0.8,0,1.5,0h0.9c1.7,0,1.9,0.8,1.9,2.4v2c0,0.3,0,0.8,0,1h0.9l-0.2,1.1h-3.9c-0.5,0-1.3,0-1.5,0L717.5,600.5z"/>
</g>
<g>
	<path d="M587.6,597.7c0-0.7,0.1-1.1,0.4-1.4c-0.5-0.1-1.2-0.2-1.5-0.3l0.2-1.1c0.5,0.2,2.6,0.5,3.4,0.6l-0.2,1.1
		c-0.3,0-0.7-0.1-0.9-0.1c-0.3,0-0.5,0.2-0.5,1c0,0.6,0.1,2.8,0.2,4.1h-0.9C587.6,599.5,587.5,598.2,587.6,597.7z"/>
	<path d="M594.3,597.8c0-1.2-0.1-1.7-1.3-1.7h-1.2c-0.7,0-1.2,0-1.3-0.1l0.2-1.1c0.2,0,0.9,0,1.7,0h0.7c1.8,0,2.1,0.4,2.1,2.5v4.1
		h-0.9V597.8z"/>
	<path d="M596.5,600.5c0.4-0.1,1.2-0.1,1.9-0.1h1.8c0-0.8,0-2,0-2.6c0-1.3-0.2-1.8-1.3-1.8h-1c-0.7,0-1.2,0-1.3-0.1l0.2-1.1
		c0.2,0,0.8,0,1.5,0h0.9c1.7,0,1.9,0.8,1.9,2.4v2c0,0.3,0,0.8,0,1h0.9l-0.2,1.1h-3.9c-0.5,0-1.3,0-1.5,0L596.5,600.5z"/>
</g>
<g>
	<path d="M688,307.4c0-0.7,0.1-1.1,0.4-1.4c-0.5-0.1-1.2-0.2-1.5-0.3l0.2-1.1c0.5,0.2,2.6,0.5,3.4,0.6l-0.2,1.1
		c-0.3,0-0.7-0.1-0.9-0.1c-0.3,0-0.5,0.2-0.5,1c0,0.6,0.1,2.8,0.2,4.1h-0.9C688,309.2,688,307.9,688,307.4z"/>
	<path d="M694.7,307.5c0-1.2-0.1-1.7-1.3-1.7h-1.2c-0.7,0-1.2,0-1.3-0.1l0.2-1.1c0.2,0,0.9,0,1.7,0h0.7c1.8,0,2.1,0.4,2.1,2.5v4.1
		h-0.9V307.5z"/>
	<path d="M697,310.2c0.4-0.1,1.2-0.1,1.9-0.1h1.8c0-0.8,0-2,0-2.6c0-1.3-0.2-1.8-1.3-1.8h-1c-0.7,0-1.2,0-1.3-0.1l0.2-1.1
		c0.2,0,0.8,0,1.5,0h0.9c1.7,0,1.9,0.8,1.9,2.4v2c0,0.3,0,0.8,0,1h0.9l-0.2,1.1h-3.9c-0.5,0-1.3,0-1.5,0L697,310.2z"/>
</g>
<g>
	<path d="M822,306.3c0-0.7,0.1-1.1,0.4-1.4c-0.5-0.1-1.2-0.2-1.5-0.3l0.2-1.1c0.5,0.2,2.6,0.5,3.4,0.6l-0.2,1.1
		c-0.3,0-0.7-0.1-0.9-0.1c-0.3,0-0.5,0.2-0.5,1c0,0.6,0.1,2.8,0.2,4.1h-0.9C822,308.1,821.9,306.9,822,306.3z"/>
	<path d="M828.7,306.5c0-1.2-0.1-1.7-1.3-1.7h-1.2c-0.7,0-1.2,0-1.3-0.1l0.2-1.1c0.2,0,0.9,0,1.7,0h0.7c1.8,0,2.1,0.4,2.1,2.5v4.1
		h-0.9V306.5z"/>
	<path d="M830.9,309.1c0.4-0.1,1.2-0.1,1.9-0.1h1.8c0-0.8,0-2,0-2.6c0-1.3-0.2-1.8-1.3-1.8h-1c-0.7,0-1.2,0-1.3-0.1l0.2-1.1
		c0.2,0,0.8,0,1.5,0h0.9c1.7,0,1.9,0.8,1.9,2.4v2c0,0.3,0,0.8,0,1h0.9l-0.2,1.1h-3.9c-0.5,0-1.3,0-1.5,0L830.9,309.1z"/>
</g>
</svg>
